<svg width="39" height="63" viewBox="0 0 39 63" fill="none" xmlns="http://www.w3.org/2000/svg">
    <path d="M5.26416 62.7051L3.14284 60.5838L35.519 30.7482C36.1282 30.1868 37.0969 30.2066 37.6827 30.7924C38.2685 31.3782 38.2495 32.3082 37.6403 32.8695L5.26416 62.7051Z" fill="white"/>
    <path d="M37.6404 30.5673C38.2496 31.1287 38.2685 32.0587 37.6827 32.6445C37.097 33.2302 36.1282 33.25 35.519 32.6886L3.4178 3.10638L5.53912 0.985056L37.6404 30.5673Z" fill="white"/>
    <path d="M1.07479 58.0175C0.871725 58.2046 0.548815 58.198 0.353553 58.0028C0.158291 57.8075 0.164618 57.4975 0.367685 57.3104L28.6687 31.2302C28.8717 31.0431 29.1946 31.0497 29.3899 31.2449C29.5852 31.4402 29.5788 31.7502 29.3758 31.9373L1.07479 58.0175Z" fill="white"/>
    <rect width="1" height="38.9968" rx="0.5" transform="matrix(-0.707107 0.707107 -0.73537 -0.677666 29.7427 31.6843)" fill="white"/>
    <path d="M5.87817 62.1329L5.17107 62.84L0.462121 58.131C0.266859 57.9358 0.266858 57.6192 0.46212 57.4239C0.657383 57.2287 0.973965 57.2287 1.16923 57.4239L5.87817 62.1329Z" fill="white"/>
    <path d="M1.4329 6.31252C1.23764 6.50779 0.921054 6.50779 0.725792 6.31252C0.53053 6.11726 0.53053 5.80068 0.725792 5.60542L5.46599 0.86522L6.1731 1.57233L1.4329 6.31252Z" fill="white"/>
</svg>
