<svg width="32" height="32" viewBox="0 0 32 32" fill="none" xmlns="http://www.w3.org/2000/svg">
    <path fill-rule="evenodd" clip-rule="evenodd" d="M16 0C7.2 0 0 7.2 0 16C0 24.8 7.2 32 16 32C24.8 32 32 24.8 32 16C32 7.2 24.8 0 16 0ZM16 31C7.7 31 1 24.3 1 16C1 7.7 7.7 1 16 1C24.3 1 31 7.7 31 16C31 24.3 24.3 31 16 31Z" fill="white"/>
    <path d="M19.9 17.5L20.4 14.4H17.5V12.4C17.5 11.6 17.9 10.7 19.2 10.7H20.5V8.2C20.5 8.2 19.3 8 18.1 8C15.7 8 14.1 9.5 14.1 12.1V14.4H11.4V17.5H14.1V24.9C14.6 25 15.2 25 15.7 25C16.3 25 16.8 25 17.3 24.9V17.5H19.9Z" fill="white"/>
</svg>
