<svg width="134" height="30" viewBox="0 0 134 30" fill="none" xmlns="http://www.w3.org/2000/svg">
    <rect width="1.03369" height="17.741" rx="0.516847" transform="matrix(-0.739906 -0.67271 0.739906 -0.67271 120.663 26)" fill="white"/>
    <path d="M133.515 13.5869C133.726 13.7789 133.726 14.0902 133.515 14.2822C133.304 14.4743 132.962 14.4743 132.75 14.2822L120.389 3.04309C120.177 2.85107 120.177 2.53974 120.389 2.34772C120.6 2.15569 120.942 2.15569 121.153 2.34772L133.515 13.5869Z" fill="white"/>
    <path d="M7.08815 5.52938H12.4326C16.1539 5.52938 17.5644 6.68785 17.5644 9.09008C17.5644 11.7908 16.0263 12.9919 12.4326 12.9919H7.08815V5.52938ZM0 0.00710734V29.9994H7.08815V18.4715H10.8945L17.9897 29.9994H26.2333L18.3725 17.441C22.6892 16.5455 25.0354 13.2051 25.0354 8.99768C25.0354 3.29773 20.8533 0 12.7303 0H0V0.00710734Z" fill="white"/>
    <path d="M50.4389 5.71384C47.5965 1.85464 43.6768 0.0067749 38.7222 0.0067749C30.0534 0.0067749 24.2411 5.79912 24.2411 15.1237C24.2411 24.2493 30.3015 29.9919 38.5521 29.9919C43.131 29.9919 47.0508 28.2294 50.4743 24.5336V13.5673H37.3967V18.8195H43.6272V22.2736C42.1387 23.3041 40.4517 23.8798 38.6726 23.8798C34.1716 23.8798 31.4072 20.9587 31.4072 15.2517C31.4072 9.08974 34.2141 5.91994 38.8781 5.91994C41.7276 5.91994 44.0808 7.23477 45.9734 9.82889L50.4389 5.71384Z" fill="white"/>
    <path d="M57.5707 5.52938H62.9152C66.6364 5.52938 68.047 6.68785 68.047 9.09008C68.047 11.7908 66.5088 12.9919 62.9152 12.9919H57.5707V5.52938ZM50.4825 0.00710734V27.5829H57.5707V18.4715H61.377L68.4723 29.9994H76.7158L68.8621 17.441C73.1788 16.5455 75.525 13.2051 75.525 8.99768C75.525 3.29773 71.343 0 63.2199 0H50.4825V0.00710734Z" fill="#F26921"/>
    <path d="M75.3757 0.0067749V19.4307C75.3757 26.1399 79.6641 29.9991 87.8367 29.9991C95.9668 29.9991 100 26.019 100 19.3099V0.0067749H93.3513V18.3006C93.3513 21.9111 91.6218 24.1285 87.8296 24.1285C83.9949 24.1285 82.3505 21.904 82.3505 18.3006V0.0067749H75.3757Z" fill="#F26921"/>
    <path d="M54.0188 30C56.1594 30 57.896 28.2588 57.896 26.1124C57.896 23.966 56.1594 22.2177 54.0188 22.2177C51.8782 22.2177 50.1345 23.9589 50.1345 26.1124C50.1345 28.2659 51.8711 30 54.0188 30Z" fill="white"/>
</svg>
