<svg width="86" height="86" viewBox="0 0 86 86" fill="none" xmlns="http://www.w3.org/2000/svg">
    <path opacity="0.3" d="M43 86C66.7482 86 86 66.7482 86 43C86 19.2518 66.7482 0 43 0C19.2518 0 0 19.2518 0 43C0 66.7482 19.2518 86 43 86Z" fill="#2A0C3E"/>
    <path d="M43 86C19.3123 86 0 66.7632 0 43C0 19.3123 19.3123 0 43 0C66.6877 0 86 19.2368 86 43C86 66.7632 66.6877 86 43 86ZM43 1.05614C19.8403 1.05614 1.05614 19.9158 1.05614 43C1.05614 66.0842 19.9158 84.9439 43 84.9439C66.0842 84.9439 84.9439 66.0842 84.9439 43C84.9439 19.9158 66.1596 1.05614 43 1.05614Z" fill="white"/>
    <path d="M27.3838 76.9475C27.2329 76.8721 27.082 76.7966 26.9311 76.7212L25.4224 79.9651C25.5732 80.0405 25.7241 80.1159 25.875 80.1914L27.3838 76.9475Z" fill="white"/>
    <path d="M15.6157 68.3474C15.4648 68.1965 15.3894 68.1211 15.2385 67.9702L12.5981 70.3843C12.749 70.5351 12.8245 70.6106 12.9753 70.7614L15.6157 68.3474Z" fill="white"/>
    <path d="M20.4436 72.7227C20.2927 72.5718 20.2173 72.4963 19.9909 72.4209L17.8032 75.2121C17.9541 75.363 18.0295 75.4384 18.2559 75.5139L20.4436 72.7227Z" fill="white"/>
    <path d="M19.1613 71.7419C19.0105 71.5911 18.935 71.5156 18.7842 71.3647L16.521 74.156C16.6719 74.3069 16.7473 74.3823 16.8982 74.5332L19.1613 71.7419Z" fill="white"/>
    <path d="M13.5031 65.9336C13.3523 65.7827 13.2768 65.7073 13.2014 65.481L10.4102 67.6687C10.561 67.8195 10.561 67.9704 10.7119 68.1213L13.5031 65.9336Z" fill="white"/>
    <path d="M14.4839 67.1404C14.333 66.9895 14.2575 66.9141 14.1067 66.7632L11.3154 69.0263C11.4663 69.1772 11.5417 69.2527 11.6926 69.4035L14.4839 67.1404Z" fill="white"/>
    <path d="M11.6171 63.293C11.4663 63.1421 11.4663 62.9912 11.3154 62.8403L8.29785 64.7263C8.44873 64.8772 8.44873 65.0281 8.59961 65.1789L11.6171 63.293Z" fill="white"/>
    <path d="M12.5227 64.5752C12.3718 64.4243 12.3718 64.2734 12.2209 64.1226L9.27881 66.1594C9.42969 66.3103 9.42969 66.4612 9.58056 66.612L12.5227 64.5752Z" fill="white"/>
    <path d="M17.9543 70.6858C17.8034 70.5349 17.728 70.4595 17.5771 70.3086L15.1631 72.9489C15.314 73.0998 15.3894 73.1753 15.5403 73.3261L17.9543 70.6858Z" fill="white"/>
    <path d="M10.7876 61.8599C10.7121 61.709 10.6367 61.5581 10.5612 61.4072L7.46826 63.2178C7.5437 63.3686 7.61914 63.5195 7.69458 63.6704L10.7876 61.8599Z" fill="white"/>
    <path d="M25.8755 76.1931C25.7246 76.1177 25.5737 76.0422 25.4228 75.9668L23.7632 79.1352C23.9141 79.2107 24.0649 79.2861 24.2158 79.3615L25.8755 76.1931Z" fill="white"/>
    <path d="M24.5176 75.4387C24.3667 75.3633 24.2158 75.2878 24.0649 75.2124L22.2544 78.3054C22.4053 78.3808 22.5561 78.4563 22.707 78.5317L24.5176 75.4387Z" fill="white"/>
    <path d="M28.8926 77.6265C28.7417 77.551 28.5908 77.4756 28.4399 77.4756L27.082 80.7949C27.2329 80.8703 27.3838 80.9458 27.5347 80.9458L28.8926 77.6265Z" fill="white"/>
    <path d="M31.9858 78.6826C31.8349 78.6072 31.6841 78.5317 31.5332 78.5317L30.4771 81.9265C30.6279 82.0019 30.7788 82.0774 30.9297 82.0774L31.9858 78.6826Z" fill="white"/>
    <path d="M23.0842 74.6089C22.9333 74.5334 22.7824 74.458 22.6316 74.3071L20.7456 77.3247C20.8965 77.4001 21.0474 77.4755 21.1982 77.6264L23.0842 74.6089Z" fill="white"/>
    <path d="M21.8015 73.7036C21.6506 73.5527 21.4997 73.5527 21.3489 73.4019L19.312 76.344C19.4629 76.4948 19.6138 76.4948 19.7646 76.6457L21.8015 73.7036Z" fill="white"/>
    <path d="M30.4016 78.23C30.2507 78.1545 30.0998 78.0791 29.949 78.0791L28.6665 81.4738C28.8174 81.5493 28.9683 81.6247 29.1191 81.6247L30.4016 78.23Z" fill="white"/>
    <path d="M7.9963 56.0508C7.92086 55.8999 7.84542 55.749 7.84542 55.5981L4.45068 56.8052C4.52612 56.8806 4.52612 57.0315 4.60156 57.1824L7.9963 56.0508Z" fill="white"/>
    <path d="M5.73287 41.6423C5.73287 41.4915 5.73287 41.2651 5.73287 41.1143L2.11182 40.9634C2.11182 41.1143 2.11182 41.3406 2.11182 41.4915L5.73287 41.6423Z" fill="white"/>
    <path d="M5.8088 39.9827C5.8088 39.8318 5.8088 39.6055 5.88424 39.4546L2.33862 39.1528C2.33862 39.3037 2.33862 39.53 2.26318 39.6809L5.8088 39.9827Z" fill="white"/>
    <path d="M5.95919 38.3982C5.95919 38.2473 6.03463 38.021 6.03463 37.8701L2.48901 37.4175C2.48901 37.5684 2.41357 37.7947 2.41357 37.9456L5.95919 38.3982Z" fill="white"/>
    <path d="M5.73287 44.886C5.73287 44.7351 5.73287 44.5088 5.73287 44.3579L2.11182 44.5088C2.11182 44.6597 2.11182 44.886 2.11182 45.0369L5.73287 44.886Z" fill="white"/>
    <path d="M5.80855 46.47C5.80855 46.3191 5.80855 46.0928 5.73311 45.9419L2.1875 46.2436C2.1875 46.3945 2.1875 46.6208 2.26294 46.7717L5.80855 46.47Z" fill="white"/>
    <path d="M6.18575 36.7388C6.26119 36.5879 6.26119 36.3616 6.33663 36.2861L2.79101 35.6826C2.79101 35.8335 2.71558 36.0598 2.64014 36.1353L6.18575 36.7388Z" fill="white"/>
    <path d="M6.86471 33.5701C6.94015 33.4192 7.01558 33.1929 7.01558 33.1174L3.54541 32.1367C3.46997 32.2876 3.39453 32.5139 3.39453 32.5894L6.86471 33.5701Z" fill="white"/>
    <path d="M6.48775 35.1543C6.56319 35.0034 6.56319 34.7771 6.63863 34.7017L3.16846 33.9473C3.09302 34.0981 3.09302 34.3245 3.01758 34.3999L6.48775 35.1543Z" fill="white"/>
    <path d="M5.95943 48.1301C5.95943 47.9792 5.88399 47.7529 5.88399 47.6021L2.33838 48.0547C2.33838 48.2056 2.41382 48.4319 2.41382 48.5073L5.95943 48.1301Z" fill="white"/>
    <path d="M9.95772 60.4263C9.88229 60.2754 9.80685 60.1245 9.73141 59.9736L6.56299 61.6333C6.63843 61.7842 6.71387 61.935 6.7893 62.0859L9.95772 60.4263Z" fill="white"/>
    <path d="M33.4944 79.1353C33.3435 79.0598 33.1172 78.9844 33.0417 78.9844L32.061 82.4546C32.2119 82.53 32.3628 82.6054 32.5137 82.6054L33.4944 79.1353Z" fill="white"/>
    <path d="M8.59957 57.4844C8.52413 57.3335 8.44869 57.1826 8.44869 57.0317L5.12939 58.3896C5.20483 58.5405 5.28027 58.6914 5.28027 58.8423L8.59957 57.4844Z" fill="white"/>
    <path d="M9.20333 58.9932C9.12789 58.8423 9.05245 58.6914 9.05245 58.5405L5.80859 60.0493C5.88403 60.2002 5.95947 60.351 5.95947 60.5019L9.20333 58.9932Z" fill="white"/>
    <path d="M7.46822 54.4668C7.39278 54.3159 7.31734 54.165 7.31734 54.0142L3.84717 55.0703C3.92261 55.2212 3.99805 55.3721 3.99805 55.5229L7.46822 54.4668Z" fill="white"/>
    <path d="M7.01558 52.8823C6.94015 52.7314 6.86471 52.5806 6.86471 52.4297L3.39453 53.3349C3.46997 53.4858 3.54541 53.6367 3.54541 53.7876L7.01558 52.8823Z" fill="white"/>
    <path d="M6.26094 49.7141C6.18551 49.5632 6.18551 49.3369 6.11007 49.186L2.56445 49.7895C2.56445 49.9404 2.63989 50.1667 2.71533 50.2422L6.26094 49.7141Z" fill="white"/>
    <path d="M6.56295 51.3735C6.48751 51.2227 6.48751 51.0718 6.41207 50.9209L2.94189 51.6753C3.01733 51.8262 3.01733 51.977 3.09277 52.1279L6.56295 51.3735Z" fill="white"/>
    <path d="M67.1404 71.5156C66.9895 71.6665 66.9141 71.7419 66.7632 71.8928L69.0263 74.684C69.1772 74.5332 69.2527 74.4577 69.4035 74.3823L67.1404 71.5156Z" fill="white"/>
    <path d="M70.6858 68.0459C70.5349 68.1968 70.4595 68.2722 70.3086 68.4231L72.9489 70.8371C73.0998 70.6863 73.1753 70.6108 73.3261 70.4599L70.6858 68.0459Z" fill="white"/>
    <path d="M68.3474 70.3843C68.1965 70.5352 68.1211 70.6106 67.9702 70.7615L70.3843 73.4018C70.5351 73.2509 70.6106 73.1755 70.7614 73.0246L68.3474 70.3843Z" fill="white"/>
    <path d="M71.7419 66.8389C71.5911 66.9897 71.5156 67.0652 71.3647 67.2161L74.156 69.4792C74.3069 69.3283 74.3823 69.2529 74.5332 69.102L71.7419 66.8389Z" fill="white"/>
    <path d="M72.7227 65.5562C72.5718 65.707 72.4963 65.8579 72.4209 66.0088L75.2121 68.1965C75.363 68.0456 75.4384 67.8947 75.5139 67.7439L72.7227 65.5562Z" fill="white"/>
    <path d="M64.5752 73.4771C64.4243 73.6279 64.2734 73.6279 64.1226 73.7788L66.1594 76.7209C66.3103 76.57 66.4612 76.57 66.612 76.4192L64.5752 73.4771Z" fill="white"/>
    <path d="M73.7031 64.1982C73.5522 64.3491 73.5522 64.5 73.4014 64.6509L76.3435 66.6877C76.4943 66.5368 76.4943 66.386 76.6452 66.2351L73.7031 64.1982Z" fill="white"/>
    <path d="M65.9331 72.4966C65.7822 72.6475 65.7068 72.7229 65.4805 72.7983L67.6682 75.5896C67.8191 75.4387 67.8945 75.3633 68.1208 75.2878L65.9331 72.4966Z" fill="white"/>
    <path d="M7.3171 32.0615C7.39254 31.9106 7.46798 31.7598 7.46798 31.6089L4.07324 30.5527C3.9978 30.7036 3.92236 30.8545 3.92236 31.0054L7.3171 32.0615Z" fill="white"/>
    <path d="M79.1348 52.5054C79.0593 52.6562 78.9839 52.8071 78.9839 52.958L82.4541 53.8633C82.5295 53.7124 82.6049 53.5615 82.6049 53.4106L79.1348 52.5054Z" fill="white"/>
    <path d="M78.1543 55.5981C78.0789 55.749 78.0034 55.8999 78.0034 56.0508L81.3982 57.2578C81.4736 57.1069 81.549 56.956 81.549 56.8052L78.1543 55.5981Z" fill="white"/>
    <path d="M78.6821 54.0142C78.6067 54.165 78.5312 54.3159 78.5312 54.4668L81.926 55.5229C82.0014 55.3721 82.0769 55.2212 82.0769 55.0703L78.6821 54.0142Z" fill="white"/>
    <path d="M35.0786 79.5122C34.9277 79.4368 34.7014 79.4368 34.626 79.3613L33.8716 82.8315C34.0225 82.9069 34.2488 82.9069 34.3242 82.9824L35.0786 79.5122Z" fill="white"/>
    <path d="M63.293 74.3823C63.1421 74.5332 62.9912 74.5332 62.8403 74.6841L64.7263 77.7016C64.8772 77.6262 65.0281 77.5507 65.1789 77.3999L63.293 74.3823Z" fill="white"/>
    <path d="M76.1926 60.1245C76.1172 60.2754 76.0417 60.4263 75.9663 60.5771L79.1347 62.2368C79.2102 62.0859 79.2856 61.935 79.361 61.7842L76.1926 60.1245Z" fill="white"/>
    <path d="M75.4382 61.4824C75.3628 61.6333 75.2874 61.7842 75.2119 61.9351L78.3049 63.7456C78.3803 63.5947 78.4558 63.4438 78.5312 63.2929L75.4382 61.4824Z" fill="white"/>
    <path d="M74.6084 62.916C74.533 63.0669 74.4575 63.2178 74.3066 63.3686L77.3242 65.2546C77.4751 65.1037 77.4751 64.9529 77.6259 64.802L74.6084 62.916Z" fill="white"/>
    <path d="M76.947 58.6157C76.8716 58.7666 76.7961 58.9175 76.7207 59.0684L79.9646 60.5771C80.04 60.4263 80.1154 60.2754 80.1909 60.1245L76.947 58.6157Z" fill="white"/>
    <path d="M77.626 57.1069C77.5505 57.2578 77.4751 57.4087 77.4751 57.5596L80.7944 58.9175C80.8698 58.7666 80.9453 58.6157 80.9453 58.4648L77.626 57.1069Z" fill="white"/>
    <path d="M44.8857 80.2666C44.7349 80.2666 44.5085 80.2666 44.4331 80.2666L44.584 83.8876C44.7349 83.8876 44.9612 83.8876 45.112 83.8876L44.8857 80.2666Z" fill="white"/>
    <path d="M41.5664 80.3423C41.4155 80.3423 41.1892 80.3423 41.1138 80.3423L40.9629 83.9633C41.1138 83.9633 41.3401 83.9633 41.4155 83.9633L41.5664 80.3423Z" fill="white"/>
    <path d="M43.2261 83.9633V80.3423C43.1506 80.3423 43.0752 80.3423 42.9998 80.3423C42.9243 80.3423 42.8489 80.3423 42.7734 80.3423V83.9633C42.8489 83.9633 42.9243 83.9633 42.9998 83.9633C43.1506 83.9633 43.1506 83.9633 43.2261 83.9633Z" fill="white"/>
    <path d="M46.5457 80.1914C46.3948 80.1914 46.1685 80.1914 46.0176 80.2668L46.3193 83.8125C46.4702 83.8125 46.6965 83.8125 46.8474 83.737L46.5457 80.1914Z" fill="white"/>
    <path d="M36.7385 79.8142C36.5876 79.8142 36.3613 79.7388 36.2859 79.7388L35.6069 83.2844C35.7578 83.2844 35.9841 83.3598 36.0596 83.3598L36.7385 79.8142Z" fill="white"/>
    <path d="M48.1294 80.0405C47.9785 80.0405 47.7522 80.116 47.6768 80.116L48.1294 83.6616C48.2803 83.6616 48.5066 83.5861 48.6575 83.5861L48.1294 80.0405Z" fill="white"/>
    <path d="M39.9067 80.2668C39.7559 80.2668 39.5295 80.2668 39.4541 80.1914L39.1523 83.737C39.3032 83.737 39.5295 83.737 39.605 83.8125L39.9067 80.2668Z" fill="white"/>
    <path d="M38.3227 80.0403C38.1719 80.0403 37.9456 79.9648 37.8701 79.9648L37.4175 83.5105C37.5684 83.5105 37.7947 83.5859 37.8701 83.5859L38.3227 80.0403Z" fill="white"/>
    <path d="M60.4263 76.042C60.2754 76.1174 60.1245 76.1929 59.9736 76.2683L61.6333 79.4367C61.7842 79.3613 61.935 79.2859 62.0859 79.2104L60.4263 76.042Z" fill="white"/>
    <path d="M58.9927 76.7964C58.8418 76.8718 58.6909 76.9473 58.54 77.0227L60.0488 80.2666C60.1997 80.1911 60.3506 80.1157 60.5014 80.0402L58.9927 76.7964Z" fill="white"/>
    <path d="M57.4839 77.3999C57.333 77.4753 57.1821 77.5508 57.0312 77.5508L58.3891 80.8701C58.54 80.7946 58.6909 80.7192 58.8418 80.7192L57.4839 77.3999Z" fill="white"/>
    <path d="M49.7139 79.7388C49.563 79.7388 49.3367 79.8142 49.2612 79.8142L49.8647 83.3598C50.0156 83.3598 50.2419 83.2844 50.3174 83.2844L49.7139 79.7388Z" fill="white"/>
    <path d="M61.8594 75.2876C61.7085 75.363 61.5576 75.4385 61.4067 75.5139L63.2173 78.6069C63.3681 78.5314 63.519 78.456 63.6699 78.3806L61.8594 75.2876Z" fill="white"/>
    <path d="M56.0508 78.0034C55.8999 78.0789 55.749 78.1543 55.5981 78.1543L56.8052 81.549C56.956 81.4736 57.1069 81.3982 57.2578 81.3982L56.0508 78.0034Z" fill="white"/>
    <path d="M51.3735 79.437C51.2227 79.5125 50.9963 79.5124 50.9209 79.5879L51.6753 83.0581C51.8262 82.9826 52.0525 82.9826 52.1279 82.9072L51.3735 79.437Z" fill="white"/>
    <path d="M54.4663 78.5317C54.3154 78.6072 54.1645 78.6826 54.0137 78.6826L55.0698 82.0774C55.2207 82.0019 55.3716 81.9265 55.5224 81.9265L54.4663 78.5317Z" fill="white"/>
    <path d="M52.8823 79.0596C52.7314 79.135 52.5806 79.2104 52.4297 79.2104L53.3349 82.6806C53.4858 82.6052 53.7121 82.5297 53.7876 82.5297L52.8823 79.0596Z" fill="white"/>
    <path d="M33.1172 7.01558C33.2681 6.94015 33.4189 6.86471 33.5698 6.86471L32.6645 3.39453C32.5137 3.46997 32.2874 3.54541 32.2119 3.54541L33.1172 7.01558Z" fill="white"/>
    <path d="M72.4961 20.1423C72.647 20.2932 72.7224 20.3686 72.7978 20.5949L75.5891 18.4072C75.4382 18.2563 75.3628 18.1809 75.2873 17.9546L72.4961 20.1423Z" fill="white"/>
    <path d="M73.4771 21.5002C73.6279 21.6511 73.6279 21.802 73.7788 21.9529L76.7209 19.916C76.57 19.7651 76.57 19.6143 76.4192 19.4634L73.4771 21.5002Z" fill="white"/>
    <path d="M71.5156 18.8598C71.6665 19.0107 71.7419 19.0862 71.8928 19.237L74.684 16.9739C74.5332 16.823 74.4577 16.7476 74.3068 16.5967L71.5156 18.8598Z" fill="white"/>
    <path d="M74.3823 22.7824C74.4578 22.9333 74.5332 23.0842 74.6841 23.2351L77.7016 21.3491C77.6262 21.1982 77.5507 21.0474 77.3999 20.8965L74.3823 22.7824Z" fill="white"/>
    <path d="M75.2119 24.1406C75.2874 24.2915 75.3628 24.4424 75.4382 24.5932L78.5312 22.7827C78.4558 22.6318 78.3803 22.481 78.3049 22.3301L75.2119 24.1406Z" fill="white"/>
    <path d="M76.7964 27.0825C76.8718 27.2334 76.9473 27.3843 77.0227 27.5351L80.2666 26.0264C80.1911 25.8755 80.1157 25.7246 80.0402 25.5737L76.7964 27.0825Z" fill="white"/>
    <path d="M70.3838 17.728C70.5347 17.8789 70.6101 17.9543 70.761 18.1052L73.4013 15.6912C73.2505 15.5403 73.175 15.4648 73.0241 15.314L70.3838 17.728Z" fill="white"/>
    <path d="M76.042 25.5737C76.1174 25.7246 76.1929 25.8755 76.2683 26.0263L79.4367 24.3667C79.3613 24.2158 79.2859 24.0649 79.2104 23.9141L76.042 25.5737Z" fill="white"/>
    <path d="M61.5576 10.6369C61.7085 10.7124 61.8594 10.7878 62.0102 10.8632L63.8208 7.77026C63.6699 7.69482 63.519 7.61938 63.3681 7.54395L61.5576 10.6369Z" fill="white"/>
    <path d="M60.1245 9.80709C60.2754 9.88253 60.4263 9.95797 60.5771 10.0334L62.2368 6.86499C62.0859 6.78955 61.935 6.71411 61.7842 6.63867L60.1245 9.80709Z" fill="white"/>
    <path d="M77.3999 28.5156C77.4753 28.6665 77.5508 28.8174 77.5508 28.9682L80.8701 27.6103C80.7946 27.4595 80.7192 27.3086 80.7192 27.1577L77.3999 28.5156Z" fill="white"/>
    <path d="M57.1821 8.44918C57.333 8.52462 57.4839 8.60006 57.6348 8.60006L58.9927 5.28076C58.8418 5.28076 58.6909 5.20532 58.54 5.12988L57.1821 8.44918Z" fill="white"/>
    <path d="M58.6157 9.12814C58.7666 9.20358 58.9175 9.27901 59.0684 9.35445L60.5771 6.11059C60.4263 6.03515 60.3508 5.95972 60.1245 5.88428L58.6157 9.12814Z" fill="white"/>
    <path d="M65.6313 13.2771C65.7822 13.4279 65.8577 13.5034 66.084 13.5788L68.2717 10.7876C68.1208 10.6367 68.0454 10.5613 67.8191 10.4858L65.6313 13.2771Z" fill="white"/>
    <path d="M7.84566 30.477C7.9211 30.3262 7.99654 30.1753 7.99654 30.0244L4.60181 28.8174C4.60181 28.9683 4.52637 29.1191 4.52637 29.27L7.84566 30.477Z" fill="white"/>
    <path d="M64.2734 12.3718C64.4243 12.5227 64.5752 12.5227 64.7261 12.6735L66.7629 9.73144C66.612 9.58056 66.4612 9.58056 66.3103 9.42969L64.2734 12.3718Z" fill="white"/>
    <path d="M68.0454 15.3894C68.1963 15.5403 68.2717 15.6157 68.4226 15.7666L70.8366 13.1262C70.6858 12.9753 70.6103 12.8999 70.4594 12.749L68.0454 15.3894Z" fill="white"/>
    <path d="M62.9155 11.4668C63.0664 11.5422 63.2173 11.6176 63.3682 11.7685L65.2541 8.75097C65.1032 8.67553 64.9524 8.6001 64.8015 8.44922L62.9155 11.4668Z" fill="white"/>
    <path d="M5.65767 43C5.65767 42.8491 5.65767 42.8491 5.65767 42.6982H2.03662C2.03662 42.8491 2.03662 42.8491 2.03662 43C2.03662 43.0754 2.03662 43.1509 2.03662 43.1509H5.65767C5.65767 43.1509 5.65767 43.1509 5.65767 43Z" fill="white"/>
    <path d="M16.4455 16.8227C16.5964 16.6718 16.6718 16.5964 16.8227 16.4455L14.3332 13.9561C14.1824 14.1069 14.1069 14.1824 13.9561 14.3332L16.4455 16.8227Z" fill="white"/>
    <path d="M16.3698 69.1772L13.8804 71.6667C14.0312 71.8176 14.1067 71.893 14.2576 72.0439L16.747 69.5544C16.5962 69.479 16.5207 69.3281 16.3698 69.1772Z" fill="white"/>
    <path d="M69.6296 16.8227L72.1191 14.3332C71.9682 14.1824 71.8928 14.1069 71.7419 13.9561L69.2524 16.4455C69.4033 16.5964 69.4788 16.7473 69.6296 16.8227Z" fill="white"/>
    <path d="M80.3418 43.0002C80.3418 43.1511 80.3418 43.1511 80.3418 43.302H83.9628C83.9628 43.1511 83.9628 43.1511 83.9628 43.0002C83.9628 42.9248 83.9628 42.8494 83.9628 42.7739H80.3418C80.3418 42.8494 80.3418 42.9248 80.3418 43.0002Z" fill="white"/>
    <path d="M69.554 69.2524C69.4031 69.4033 69.3276 69.4788 69.1768 69.6296L71.6662 72.1191C71.8171 71.9682 71.8926 71.8928 72.0434 71.7419L69.554 69.2524Z" fill="white"/>
    <path d="M79.4365 34.7017C79.512 34.8525 79.512 35.0788 79.5874 35.1543L83.0576 34.3999C82.9821 34.249 82.9821 34.0227 82.9067 33.9473L79.4365 34.7017Z" fill="white"/>
    <path d="M79.0596 33.1929C79.135 33.3437 79.2104 33.5701 79.2104 33.6455L82.6806 32.7402C82.6052 32.5894 82.5298 32.4385 82.5298 32.2876L79.0596 33.1929Z" fill="white"/>
    <path d="M78.5312 31.6089C78.6067 31.7598 78.6821 31.9106 78.6821 32.0615L82.0769 31.0054C82.0014 30.8545 81.926 30.7036 81.926 30.5527L78.5312 31.6089Z" fill="white"/>
    <path d="M79.7383 36.3613C79.8137 36.5122 79.8137 36.7385 79.8137 36.814L83.3593 36.2104C83.2839 36.0596 83.2839 35.8333 83.2839 35.7578L79.7383 36.3613Z" fill="white"/>
    <path d="M80.04 37.9458C80.04 38.0967 80.1155 38.323 80.1155 38.4739L83.6611 38.0212C83.6611 37.8704 83.5856 37.644 83.5856 37.4932L80.04 37.9458Z" fill="white"/>
    <path d="M78.0034 30.0244C78.0789 30.1753 78.1543 30.3262 78.1543 30.477L81.549 29.27C81.4736 29.1191 81.3982 28.9683 81.3982 28.8174L78.0034 30.0244Z" fill="white"/>
    <path d="M83.7365 39.3037L80.1909 39.6055C80.1909 39.7563 80.1909 39.9827 80.2664 40.1335L83.812 39.8318C83.812 39.6055 83.812 39.3791 83.7365 39.3037Z" fill="white"/>
    <path d="M66.8384 14.3332C66.9893 14.4841 67.0647 14.5595 67.2156 14.7104L69.4787 11.9192C69.3279 11.7683 69.2524 11.6929 69.1015 11.542L66.8384 14.3332Z" fill="white"/>
    <path d="M20.0666 13.5788C20.2175 13.4279 20.2929 13.3525 20.5193 13.2771L18.3315 10.4858C18.1807 10.6367 18.1052 10.7122 17.8789 10.7876L20.0666 13.5788Z" fill="white"/>
    <path d="M21.4245 12.5984C21.5754 12.4475 21.7263 12.4475 21.8772 12.2966L19.8403 9.35449C19.6894 9.50537 19.5386 9.50537 19.3877 9.65625L21.4245 12.5984Z" fill="white"/>
    <path d="M18.8593 14.5595C19.0102 14.4087 19.0857 14.3332 19.2365 14.1823L16.9734 11.3911C16.8225 11.542 16.7471 11.6174 16.5962 11.7683L18.8593 14.5595Z" fill="white"/>
    <path d="M17.6523 15.6157C17.8032 15.4648 17.8786 15.3894 18.0295 15.2385L15.6155 12.5981C15.4646 12.749 15.3892 12.8245 15.2383 12.9753L17.6523 15.6157Z" fill="white"/>
    <path d="M25.5732 10.0334C25.7241 9.95797 25.875 9.88253 26.0259 9.80709L24.3662 6.63867C24.2153 6.71411 24.0645 6.78955 23.9136 6.86499L25.5732 10.0334Z" fill="white"/>
    <path d="M15.3894 17.9543C15.5403 17.8034 15.6157 17.728 15.7666 17.5771L13.1262 15.1631C12.9753 15.314 12.8999 15.3894 12.749 15.5403L15.3894 17.9543Z" fill="white"/>
    <path d="M24.1401 10.7876C24.291 10.7121 24.4419 10.6367 24.5927 10.5612L22.7822 7.46826C22.6313 7.5437 22.4805 7.61914 22.3296 7.69458L24.1401 10.7876Z" fill="white"/>
    <path d="M27.0068 9.27877C27.1577 9.20333 27.3086 9.12789 27.4595 9.05245L25.9507 5.80859C25.7998 5.88403 25.6489 5.95947 25.498 6.03491L27.0068 9.27877Z" fill="white"/>
    <path d="M22.7068 11.6928C22.8576 11.6174 23.0085 11.542 23.1594 11.3911L21.2734 8.37354C21.1226 8.44897 20.9717 8.52441 20.8208 8.67529L22.7068 11.6928Z" fill="white"/>
    <path d="M9.05245 27.4595C9.12789 27.3086 9.20333 27.1577 9.20333 27.0068L5.95947 25.498C5.88403 25.6489 5.80859 25.7998 5.80859 25.9507L9.05245 27.4595Z" fill="white"/>
    <path d="M10.5612 24.5932C10.6367 24.4424 10.7121 24.2915 10.7876 24.1406L7.69458 22.3301C7.61914 22.481 7.5437 22.6318 7.46826 22.7827L10.5612 24.5932Z" fill="white"/>
    <path d="M9.80685 25.9512C9.88229 25.8003 9.95772 25.6494 10.0332 25.4985L6.86474 23.8389C6.7893 23.9143 6.63843 24.1406 6.56299 24.2915L9.80685 25.9512Z" fill="white"/>
    <path d="M14.2575 19.1613C14.4084 19.0105 14.4839 18.935 14.6347 18.7842L11.8435 16.521C11.6926 16.6719 11.6172 16.7473 11.4663 16.8982L14.2575 19.1613Z" fill="white"/>
    <path d="M8.37325 28.9685C8.44869 28.8176 8.52413 28.6667 8.52413 28.5159L5.28027 27.0825C5.20483 27.2334 5.12939 27.3843 5.12939 27.5352L8.37325 28.9685Z" fill="white"/>
    <path d="M11.3911 23.1599C11.542 23.009 11.542 22.8581 11.6928 22.7073L8.67529 20.8213C8.52441 20.9722 8.52441 21.123 8.37354 21.2739L11.3911 23.1599Z" fill="white"/>
    <path d="M13.2771 20.5193C13.4279 20.3684 13.4279 20.2929 13.5788 20.0666L10.7876 17.8789C10.6367 18.0298 10.5613 18.1052 10.4858 18.3315L13.2771 20.5193Z" fill="white"/>
    <path d="M55.5981 7.84566C55.749 7.9211 55.8999 7.99654 56.0508 7.99654L57.3332 4.67724C57.1824 4.60181 57.0315 4.52637 56.8806 4.52637L55.5981 7.84566Z" fill="white"/>
    <path d="M12.2961 21.802C12.447 21.6511 12.447 21.5002 12.5979 21.3493L9.65576 19.3125C9.50488 19.4634 9.50488 19.6143 9.354 19.7651L12.2961 21.802Z" fill="white"/>
    <path d="M47.7524 5.95968C47.9033 5.95968 48.1296 6.03512 48.2805 6.03512L48.7331 2.4895C48.5823 2.4895 48.356 2.41406 48.2051 2.41406L47.7524 5.95968Z" fill="white"/>
    <path d="M46.0928 5.8088C46.2437 5.8088 46.47 5.8088 46.6208 5.88424L46.9226 2.33862C46.7717 2.33862 46.5454 2.33862 46.3945 2.26318L46.0928 5.8088Z" fill="white"/>
    <path d="M44.4331 5.73336C44.584 5.73336 44.8103 5.73336 44.9612 5.73336L45.112 2.1123C44.9612 2.1123 44.7349 2.1123 44.584 2.1123L44.4331 5.73336Z" fill="white"/>
    <path d="M49.2612 6.26144C49.4121 6.33687 49.6384 6.33687 49.7139 6.33687L50.3928 2.79126C50.2419 2.71582 50.0156 2.71582 49.9402 2.71582L49.2612 6.26144Z" fill="white"/>
    <path d="M28.5156 8.60006C28.6665 8.52462 28.8174 8.44918 28.9682 8.44918L27.6103 5.12988C27.4595 5.20532 27.3086 5.28076 27.1577 5.28076L28.5156 8.60006Z" fill="white"/>
    <path d="M54.0894 7.39278C54.2402 7.46822 54.3911 7.54366 54.542 7.54366L55.5981 4.14892C55.4473 4.07349 55.2964 3.99805 55.1455 3.99805L54.0894 7.39278Z" fill="white"/>
    <path d="M50.9209 6.56344C51.0718 6.63888 51.2981 6.63888 51.3735 6.71431L52.1279 3.24414C51.977 3.1687 51.7507 3.1687 51.6753 3.09326L50.9209 6.56344Z" fill="white"/>
    <path d="M52.5049 6.86471C52.6558 6.94015 52.8821 7.01558 52.9575 7.01558L53.9382 3.54541C53.7873 3.46997 53.561 3.39453 53.4856 3.39453L52.5049 6.86471Z" fill="white"/>
    <path d="M42.7734 2.1123V5.73336C42.8489 5.73336 42.9243 5.73336 42.9998 5.73336C43.0752 5.73336 43.1506 5.73336 43.2261 5.73336V2.1123C43.1506 2.1123 43.0752 2.1123 42.9998 2.1123C42.9243 2.1123 42.8489 2.1123 42.7734 2.1123Z" fill="white"/>
    <path d="M31.5332 7.46847C31.6841 7.39303 31.8349 7.31759 31.9858 7.31759L30.9297 3.92285C30.7788 3.99829 30.6279 4.07373 30.4771 4.07373L31.5332 7.46847Z" fill="white"/>
    <path d="M79.5122 50.9209C79.4368 51.0718 79.4368 51.2227 79.3613 51.3735L82.8315 52.1279C82.9069 51.977 82.9069 51.8262 82.9824 51.6753L79.5122 50.9209Z" fill="white"/>
    <path d="M34.626 6.56295C34.7768 6.48751 35.0032 6.48751 35.0786 6.41207L34.3242 2.94189C34.1733 3.01733 33.947 3.01733 33.8716 3.09277L34.626 6.56295Z" fill="white"/>
    <path d="M29.949 8.07198C30.0998 7.99654 30.2507 7.9211 30.4016 7.9211L29.27 4.52637C29.1191 4.60181 28.9683 4.67724 28.8174 4.67724L29.949 8.07198Z" fill="white"/>
    <path d="M37.8701 6.03512C38.021 6.03512 38.2473 5.95968 38.3227 5.95968L37.8701 2.41406C37.7192 2.41406 37.4929 2.4895 37.4175 2.4895L37.8701 6.03512Z" fill="white"/>
    <path d="M39.5298 5.80855C39.6807 5.80855 39.907 5.80855 39.9824 5.73311L39.6807 2.1875C39.5298 2.1875 39.3035 2.1875 39.228 2.26294L39.5298 5.80855Z" fill="white"/>
    <path d="M41.1138 5.73336C41.2646 5.73336 41.491 5.73336 41.5664 5.73336L41.4155 2.1123C41.2646 2.1123 41.0383 2.1123 40.9629 2.1123L41.1138 5.73336Z" fill="white"/>
    <path d="M36.2856 6.26119C36.4365 6.18575 36.6628 6.18575 36.7383 6.18575L36.1348 2.64014C35.9839 2.64014 35.7576 2.71558 35.6821 2.71558L36.2856 6.26119Z" fill="white"/>
    <path d="M79.8137 49.2612C79.7383 49.4121 79.7383 49.6384 79.7383 49.7893L83.2839 50.3928C83.3593 50.2419 83.3593 50.0156 83.3593 49.9402L79.8137 49.2612Z" fill="white"/>
    <path d="M80.2666 41.1894C80.2666 41.3403 80.2666 41.5666 80.2666 41.7175L83.8876 41.5666C83.8876 41.4158 83.8876 41.1895 83.8876 41.0386L80.2666 41.1894Z" fill="white"/>
    <path d="M80.0403 47.6772C80.0403 47.8281 79.9648 48.0544 79.9648 48.1299L83.5105 48.5825C83.5105 48.4316 83.5859 48.2053 83.5859 48.1299L80.0403 47.6772Z" fill="white"/>
    <path d="M80.2666 44.4331C80.2666 44.584 80.2666 44.8103 80.2666 44.9612L83.8876 45.112C83.8876 44.9612 83.8876 44.7349 83.8876 44.584L80.2666 44.4331Z" fill="white"/>
    <path d="M80.2664 46.0933C80.2664 46.2441 80.2664 46.4705 80.1909 46.6213L83.7365 46.9231C83.7365 46.7722 83.7365 46.5459 83.812 46.395L80.2664 46.0933Z" fill="white"/>
    <path d="M43.0001 79.3615C22.9334 79.3615 6.63867 63.0667 6.63867 43.0001C6.63867 22.9334 22.9334 6.63867 43.0001 6.63867C63.0667 6.63867 79.3615 22.9334 79.3615 43.0001C79.3615 63.0667 63.0667 79.3615 43.0001 79.3615ZM43.0001 7.77025C23.5369 7.77025 7.69481 23.6124 7.69481 43.0755C7.69481 62.5387 23.5369 78.3808 43.0001 78.3808C62.4632 78.3808 78.3053 62.5387 78.3053 43.0755C78.3053 23.6124 62.4632 7.77025 43.0001 7.77025Z" fill="white"/>
    <path d="M51.0717 58.0875H49.563C48.7331 58.0875 48.0542 57.4086 48.0542 56.5788V29.4209C48.0542 28.5911 48.7331 27.9121 49.563 27.9121H51.0717C51.9016 27.9121 52.5805 28.5911 52.5805 29.4209V56.5788C52.5805 57.4086 51.9016 58.0875 51.0717 58.0875Z" fill="white"/>
    <path d="M35.9843 58.0875H34.4756C33.6457 58.0875 32.9668 57.4086 32.9668 56.5788V29.4209C32.9668 28.5911 33.6457 27.9121 34.4756 27.9121H35.9843C36.8142 27.9121 37.4931 28.5911 37.4931 29.4209V56.5788C37.4931 57.4086 36.8142 58.0875 35.9843 58.0875Z" fill="white"/>
</svg>
