<svg width="40" height="40" viewBox="0 0 40 40" fill="none" xmlns="http://www.w3.org/2000/svg">
    <path opacity="0.3" d="M20 40C31.0457 40 40 31.0457 40 20C40 8.95431 31.0457 0 20 0C8.95431 0 0 8.95431 0 20C0 31.0457 8.95431 40 20 40Z" fill="#2A0C3E"/>
    <path d="M20 40C8.98246 40 0 31.0526 0 20C0 8.98246 8.98246 0 20 0C31.0175 0 40 8.94737 40 20C40 31.0526 31.0175 40 20 40ZM20 0.491228C9.22807 0.491228 0.491228 9.26316 0.491228 20C0.491228 30.7368 9.26316 39.5088 20 39.5088C30.7368 39.5088 39.5088 30.7368 39.5088 20C39.5088 9.26316 30.7719 0.491228 20 0.491228Z" fill="white"/>
    <path d="M12.7367 35.7893C12.6666 35.7543 12.5964 35.7192 12.5262 35.6841L11.8245 37.1929C11.8946 37.2279 11.9648 37.263 12.035 37.2981L12.7367 35.7893Z" fill="white"/>
    <path d="M7.26313 31.7895C7.19295 31.7193 7.15786 31.6842 7.08769 31.614L5.85962 32.7368C5.92979 32.807 5.96488 32.8421 6.03506 32.9123L7.26313 31.7895Z" fill="white"/>
    <path d="M9.50859 33.8244C9.43841 33.7543 9.40332 33.7192 9.29806 33.6841L8.28052 34.9823C8.35069 35.0525 8.38578 35.0876 8.49104 35.1227L9.50859 33.8244Z" fill="white"/>
    <path d="M8.91215 33.3683C8.84198 33.2981 8.80689 33.263 8.73671 33.1929L7.68408 34.4911C7.75426 34.5613 7.78935 34.5964 7.85952 34.6666L8.91215 33.3683Z" fill="white"/>
    <path d="M6.28064 30.6666C6.21046 30.5964 6.17537 30.5613 6.14029 30.4561L4.84204 31.4736C4.91222 31.5438 4.91222 31.6139 4.98239 31.6841L6.28064 30.6666Z" fill="white"/>
    <path d="M6.73687 31.2279C6.66669 31.1578 6.63161 31.1227 6.56143 31.0525L5.26318 32.1051C5.33336 32.1753 5.36845 32.2104 5.43862 32.2806L6.73687 31.2279Z" fill="white"/>
    <path d="M5.40348 29.4386C5.3333 29.3684 5.3333 29.2982 5.26313 29.228L3.85962 30.1052C3.92979 30.1754 3.92979 30.2456 3.99997 30.3158L5.40348 29.4386Z" fill="white"/>
    <path d="M5.82445 30.035C5.75427 29.9648 5.75427 29.8946 5.6841 29.8245L4.31567 30.7718C4.38585 30.842 4.38585 30.9122 4.45602 30.9824L5.82445 30.035Z" fill="white"/>
    <path d="M8.35074 32.8771C8.28056 32.8069 8.24547 32.7718 8.1753 32.7017L7.05249 33.9297C7.12267 33.9999 7.15775 34.035 7.22793 34.1052L8.35074 32.8771Z" fill="white"/>
    <path d="M5.01749 28.7718C4.98241 28.7016 4.94732 28.6315 4.91223 28.5613L3.47363 29.4034C3.50872 29.4736 3.54381 29.5437 3.5789 29.6139L5.01749 28.7718Z" fill="white"/>
    <path d="M12.0349 35.4385C11.9648 35.4034 11.8946 35.3683 11.8244 35.3333L11.0525 36.8069C11.1227 36.842 11.1928 36.8771 11.263 36.9122L12.0349 35.4385Z" fill="white"/>
    <path d="M11.4035 35.0877C11.3333 35.0526 11.2631 35.0175 11.1929 34.9824L10.3508 36.421C10.421 36.4561 10.4912 36.4912 10.5614 36.5263L11.4035 35.0877Z" fill="white"/>
    <path d="M13.4385 36.1053C13.3684 36.0702 13.2982 36.0352 13.228 36.0352L12.5964 37.579C12.6666 37.6141 12.7368 37.6492 12.807 37.6492L13.4385 36.1053Z" fill="white"/>
    <path d="M14.877 36.5965C14.8069 36.5615 14.7367 36.5264 14.6665 36.5264L14.1753 38.1053C14.2455 38.1404 14.3156 38.1755 14.3858 38.1755L14.877 36.5965Z" fill="white"/>
    <path d="M10.7366 34.7016C10.6665 34.6665 10.5963 34.6315 10.5261 34.5613L9.64893 35.9648C9.7191 35.9999 9.78928 36.035 9.85945 36.1051L10.7366 34.7016Z" fill="white"/>
    <path d="M10.1403 34.2807C10.0701 34.2106 9.99997 34.2106 9.92979 34.1404L8.98242 35.5088C9.0526 35.579 9.12277 35.579 9.19295 35.6492L10.1403 34.2807Z" fill="white"/>
    <path d="M14.1403 36.3858C14.0701 36.3508 13.9999 36.3157 13.9297 36.3157L13.3333 37.8946C13.4034 37.9297 13.4736 37.9648 13.5438 37.9648L14.1403 36.3858Z" fill="white"/>
    <path d="M3.71919 26.0701C3.6841 26 3.64902 25.9298 3.64902 25.8596L2.07007 26.421C2.10516 26.4561 2.10516 26.5263 2.14024 26.5965L3.71919 26.0701Z" fill="white"/>
    <path d="M2.66663 19.3683C2.66663 19.2981 2.66663 19.1928 2.66663 19.1227L0.982422 19.0525C0.982422 19.1227 0.982422 19.2279 0.982422 19.2981L2.66663 19.3683Z" fill="white"/>
    <path d="M2.70161 18.5964C2.70161 18.5262 2.70161 18.421 2.7367 18.3508L1.08758 18.2104C1.08758 18.2806 1.08758 18.3859 1.05249 18.4561L2.70161 18.5964Z" fill="white"/>
    <path d="M2.77193 17.8597C2.77193 17.7895 2.80701 17.6843 2.80701 17.6141L1.15789 17.4036C1.15789 17.4737 1.1228 17.579 1.1228 17.6492L2.77193 17.8597Z" fill="white"/>
    <path d="M2.66663 20.8772C2.66663 20.807 2.66663 20.7018 2.66663 20.6316L0.982422 20.7018C0.982422 20.7719 0.982422 20.8772 0.982422 20.9474L2.66663 20.8772Z" fill="white"/>
    <path d="M2.70154 21.614C2.70154 21.5438 2.70154 21.4386 2.66646 21.3684L1.01733 21.5088C1.01733 21.5789 1.01733 21.6842 1.05242 21.7544L2.70154 21.614Z" fill="white"/>
    <path d="M2.87715 17.0877C2.91224 17.0175 2.91224 16.9122 2.94733 16.8771L1.2982 16.5964C1.2982 16.6666 1.26312 16.7719 1.22803 16.807L2.87715 17.0877Z" fill="white"/>
    <path d="M3.19289 15.6139C3.22798 15.5438 3.26307 15.4385 3.26307 15.4034L1.64903 14.9473C1.61395 15.0174 1.57886 15.1227 1.57886 15.1578L3.19289 15.6139Z" fill="white"/>
    <path d="M3.01736 16.351C3.05244 16.2808 3.05244 16.1755 3.08753 16.1404L1.4735 15.7896C1.43841 15.8597 1.43841 15.965 1.40332 16.0001L3.01736 16.351Z" fill="white"/>
    <path d="M2.77186 22.386C2.77186 22.3158 2.73677 22.2106 2.73677 22.1404L1.08765 22.3509C1.08765 22.4211 1.12273 22.5263 1.12273 22.5614L2.77186 22.386Z" fill="white"/>
    <path d="M4.63144 28.1053C4.59635 28.0351 4.56126 27.965 4.52617 27.8948L3.05249 28.6667C3.08758 28.7369 3.12267 28.8071 3.15775 28.8772L4.63144 28.1053Z" fill="white"/>
    <path d="M15.5788 36.807C15.5086 36.7719 15.4033 36.7368 15.3682 36.7368L14.9121 38.3509C14.9823 38.3859 15.0525 38.421 15.1226 38.421L15.5788 36.807Z" fill="white"/>
    <path d="M3.99978 26.7369C3.96469 26.6667 3.9296 26.5965 3.9296 26.5264L2.38574 27.1579C2.42083 27.2281 2.45592 27.2983 2.45592 27.3685L3.99978 26.7369Z" fill="white"/>
    <path d="M4.28061 27.4386C4.24552 27.3684 4.21043 27.2982 4.21043 27.228L2.70166 27.9298C2.73675 28 2.77184 28.0701 2.77184 28.1403L4.28061 27.4386Z" fill="white"/>
    <path d="M3.47352 25.3333C3.43843 25.2632 3.40334 25.193 3.40334 25.1228L1.78931 25.614C1.82439 25.6842 1.85948 25.7544 1.85948 25.8246L3.47352 25.3333Z" fill="white"/>
    <path d="M3.26307 24.5965C3.22798 24.5263 3.19289 24.4562 3.19289 24.386L1.57886 24.807C1.61395 24.8772 1.64903 24.9474 1.64903 25.0176L3.26307 24.5965Z" fill="white"/>
    <path d="M2.91217 23.1228C2.87708 23.0526 2.87708 22.9474 2.84199 22.8772L1.19287 23.1579C1.19287 23.2281 1.22796 23.3333 1.26305 23.3684L2.91217 23.1228Z" fill="white"/>
    <path d="M3.05262 23.8946C3.01753 23.8244 3.01753 23.7543 2.98244 23.6841L1.36841 24.035C1.4035 24.1051 1.4035 24.1753 1.43858 24.2455L3.05262 23.8946Z" fill="white"/>
    <path d="M31.2279 33.2632C31.1578 33.3334 31.1227 33.3684 31.0525 33.4386L32.1051 34.7369C32.1753 34.6667 32.2104 34.6316 32.2806 34.5965L31.2279 33.2632Z" fill="white"/>
    <path d="M32.8771 31.6492C32.8069 31.7193 32.7718 31.7544 32.7017 31.8246L33.9297 32.9474C33.9999 32.8772 34.035 32.8422 34.1052 32.772L32.8771 31.6492Z" fill="white"/>
    <path d="M31.7895 32.7368C31.7193 32.807 31.6842 32.8421 31.614 32.9123L32.7368 34.1403C32.807 34.0701 32.8421 34.0351 32.9123 33.9649L31.7895 32.7368Z" fill="white"/>
    <path d="M33.3683 31.0876C33.2981 31.1578 33.263 31.1929 33.1929 31.2631L34.4911 32.3157C34.5613 32.2455 34.5964 32.2105 34.6666 32.1403L33.3683 31.0876Z" fill="white"/>
    <path d="M33.8244 30.4912C33.7543 30.5614 33.7192 30.6316 33.6841 30.7017L34.9823 31.7193C35.0525 31.6491 35.0876 31.5789 35.1227 31.5088L33.8244 30.4912Z" fill="white"/>
    <path d="M30.035 34.1753C29.9648 34.2455 29.8946 34.2455 29.8245 34.3156L30.7718 35.6841C30.842 35.6139 30.9122 35.6139 30.9824 35.5437L30.035 34.1753Z" fill="white"/>
    <path d="M34.2805 29.8596C34.2103 29.9298 34.2103 30 34.1401 30.0701L35.5086 31.0175C35.5787 30.9473 35.5787 30.8772 35.6489 30.807L34.2805 29.8596Z" fill="white"/>
    <path d="M30.6666 33.7192C30.5964 33.7894 30.5613 33.8245 30.4561 33.8596L31.4736 35.1578C31.5438 35.0877 31.5789 35.0526 31.6841 35.0175L30.6666 33.7192Z" fill="white"/>
    <path d="M3.40341 14.9122C3.4385 14.842 3.47359 14.7719 3.47359 14.7017L1.89464 14.2104C1.85955 14.2806 1.82446 14.3508 1.82446 14.421L3.40341 14.9122Z" fill="white"/>
    <path d="M36.807 24.4209C36.7719 24.4911 36.7368 24.5612 36.7368 24.6314L38.3509 25.0525C38.3859 24.9823 38.421 24.9121 38.421 24.842L36.807 24.4209Z" fill="white"/>
    <path d="M36.3507 25.8596C36.3156 25.9298 36.2805 26 36.2805 26.0701L37.8595 26.6315C37.8945 26.5614 37.9296 26.4912 37.9296 26.421L36.3507 25.8596Z" fill="white"/>
    <path d="M36.5963 25.1228C36.5612 25.193 36.5261 25.2632 36.5261 25.3333L38.1051 25.8246C38.1402 25.7544 38.1752 25.6842 38.1752 25.614L36.5963 25.1228Z" fill="white"/>
    <path d="M16.3158 36.9825C16.2456 36.9474 16.1404 36.9474 16.1053 36.9124L15.7544 38.5264C15.8246 38.5615 15.9298 38.5615 15.9649 38.5966L16.3158 36.9825Z" fill="white"/>
    <path d="M29.4386 34.5964C29.3684 34.6666 29.2982 34.6666 29.228 34.7368L30.1052 36.1403C30.1754 36.1052 30.2456 36.0701 30.3157 35.9999L29.4386 34.5964Z" fill="white"/>
    <path d="M35.4385 27.9648C35.4034 28.035 35.3683 28.1052 35.3333 28.1754L36.8069 28.9473C36.842 28.8771 36.8771 28.807 36.9122 28.7368L35.4385 27.9648Z" fill="white"/>
    <path d="M35.0877 28.5964C35.0526 28.6666 35.0175 28.7368 34.9824 28.807L36.421 29.6491C36.4561 29.5789 36.4912 29.5087 36.5263 29.4385L35.0877 28.5964Z" fill="white"/>
    <path d="M34.7016 29.2632C34.6665 29.3334 34.6315 29.4035 34.5613 29.4737L35.9648 30.3509C36.035 30.2807 36.035 30.2106 36.1051 30.1404L34.7016 29.2632Z" fill="white"/>
    <path d="M35.7893 27.2632C35.7543 27.3334 35.7192 27.4035 35.6841 27.4737L37.1929 28.1755C37.2279 28.1053 37.263 28.0351 37.2981 27.9649L35.7893 27.2632Z" fill="white"/>
    <path d="M36.1051 26.5613C36.07 26.6315 36.0349 26.7016 36.0349 26.7718L37.5788 27.4034C37.6139 27.3332 37.6489 27.263 37.6489 27.1929L36.1051 26.5613Z" fill="white"/>
    <path d="M20.877 37.3333C20.8069 37.3333 20.7016 37.3333 20.6665 37.3333L20.7367 39.0175C20.8069 39.0175 20.9121 39.0175 20.9823 39.0175L20.877 37.3333Z" fill="white"/>
    <path d="M19.3332 37.3684C19.263 37.3684 19.1578 37.3684 19.1227 37.3684L19.0525 39.0526C19.1227 39.0526 19.2279 39.0526 19.263 39.0526L19.3332 37.3684Z" fill="white"/>
    <path d="M20.1051 39.0526V37.3684C20.07 37.3684 20.0349 37.3684 19.9998 37.3684C19.9647 37.3684 19.9296 37.3684 19.8945 37.3684V39.0526C19.9296 39.0526 19.9647 39.0526 19.9998 39.0526C20.07 39.0526 20.07 39.0526 20.1051 39.0526Z" fill="white"/>
    <path d="M21.6489 37.2981C21.5788 37.2981 21.4735 37.2981 21.4033 37.3332L21.5437 38.9823C21.6138 38.9823 21.7191 38.9823 21.7893 38.9472L21.6489 37.2981Z" fill="white"/>
    <path d="M17.0876 37.1227C17.0174 37.1227 16.9122 37.0876 16.8771 37.0876L16.5613 38.7368C16.6315 38.7368 16.7367 38.7718 16.7718 38.7718L17.0876 37.1227Z" fill="white"/>
    <path d="M22.3858 37.228C22.3156 37.228 22.2104 37.2631 22.1753 37.2631L22.3858 38.9122C22.456 38.9122 22.5613 38.8772 22.6314 38.8772L22.3858 37.228Z" fill="white"/>
    <path d="M18.5613 37.3332C18.4912 37.3332 18.3859 37.3332 18.3508 37.2981L18.2104 38.9472C18.2806 38.9472 18.3859 38.9472 18.421 38.9823L18.5613 37.3332Z" fill="white"/>
    <path d="M17.8244 37.228C17.7542 37.228 17.6489 37.1929 17.6138 37.1929L17.4033 38.842C17.4735 38.842 17.5788 38.8771 17.6138 38.8771L17.8244 37.228Z" fill="white"/>
    <path d="M28.1051 35.3684C28.0349 35.4035 27.9647 35.4386 27.8945 35.4737L28.6665 36.9474C28.7366 36.9123 28.8068 36.8772 28.877 36.8421L28.1051 35.3684Z" fill="white"/>
    <path d="M27.4386 35.7192C27.3684 35.7543 27.2982 35.7894 27.228 35.8245L27.9298 37.3333C28 37.2982 28.0701 37.2631 28.1403 37.228L27.4386 35.7192Z" fill="white"/>
    <path d="M26.7366 36C26.6665 36.0351 26.5963 36.0702 26.5261 36.0702L27.1577 37.614C27.2279 37.5789 27.298 37.5439 27.3682 37.5439L26.7366 36Z" fill="white"/>
    <path d="M23.1226 37.0876C23.0525 37.0876 22.9472 37.1227 22.9121 37.1227L23.1928 38.7718C23.263 38.7718 23.3683 38.7368 23.4033 38.7368L23.1226 37.0876Z" fill="white"/>
    <path d="M28.7718 35.0176C28.7016 35.0527 28.6315 35.0878 28.5613 35.1228L29.4034 36.5614C29.4736 36.5263 29.5437 36.4913 29.6139 36.4562L28.7718 35.0176Z" fill="white"/>
    <path d="M26.0701 36.2808C26 36.3158 25.9298 36.3509 25.8596 36.3509L26.421 37.9299C26.4912 37.8948 26.5614 37.8597 26.6315 37.8597L26.0701 36.2808Z" fill="white"/>
    <path d="M23.8946 36.9473C23.8244 36.9824 23.7192 36.9824 23.6841 37.0174L24.035 38.6315C24.1051 38.5964 24.2104 38.5964 24.2455 38.5613L23.8946 36.9473Z" fill="white"/>
    <path d="M25.3333 36.5264C25.2632 36.5615 25.193 36.5965 25.1228 36.5965L25.614 38.1755C25.6842 38.1404 25.7544 38.1053 25.8246 38.1053L25.3333 36.5264Z" fill="white"/>
    <path d="M24.5963 36.772C24.5261 36.8071 24.4559 36.8421 24.3857 36.8421L24.8068 38.4562C24.877 38.4211 24.9822 38.386 25.0173 38.386L24.5963 36.772Z" fill="white"/>
    <path d="M15.4035 3.26307C15.4736 3.22798 15.5438 3.19289 15.614 3.19289L15.1929 1.57886C15.1228 1.61395 15.0175 1.64903 14.9824 1.64903L15.4035 3.26307Z" fill="white"/>
    <path d="M33.7192 9.36837C33.7894 9.43855 33.8245 9.47364 33.8596 9.5789L35.1578 8.56136C35.0877 8.49118 35.0526 8.45609 35.0175 8.35083L33.7192 9.36837Z" fill="white"/>
    <path d="M34.1753 9.99986C34.2455 10.07 34.2455 10.1402 34.3156 10.2104L35.6841 9.26302C35.6139 9.19284 35.6139 9.12267 35.5437 9.05249L34.1753 9.99986Z" fill="white"/>
    <path d="M33.2632 8.77187C33.3334 8.84205 33.3684 8.87713 33.4386 8.94731L34.7369 7.89468C34.6667 7.8245 34.6316 7.78941 34.5614 7.71924L33.2632 8.77187Z" fill="white"/>
    <path d="M34.5964 10.5964C34.6315 10.6666 34.6666 10.7368 34.7368 10.807L36.1403 9.92976C36.1052 9.85959 36.0701 9.78941 35.9999 9.71924L34.5964 10.5964Z" fill="white"/>
    <path d="M34.9824 11.2281C35.0175 11.2983 35.0526 11.3684 35.0877 11.4386L36.5263 10.5965C36.4912 10.5263 36.4561 10.4562 36.421 10.386L34.9824 11.2281Z" fill="white"/>
    <path d="M35.7192 12.5965C35.7543 12.6667 35.7894 12.7369 35.8245 12.8071L37.3333 12.1053C37.2982 12.0351 37.2631 11.965 37.228 11.8948L35.7192 12.5965Z" fill="white"/>
    <path d="M32.7366 8.24561C32.8067 8.31578 32.8418 8.35087 32.912 8.42105L34.1401 7.29824C34.0699 7.22807 34.0348 7.19298 33.9646 7.1228L32.7366 8.24561Z" fill="white"/>
    <path d="M35.3684 11.8947C35.4035 11.9649 35.4386 12.0351 35.4737 12.1053L36.9474 11.3333C36.9123 11.2632 36.8772 11.193 36.8421 11.1228L35.3684 11.8947Z" fill="white"/>
    <path d="M28.6313 4.94739C28.7015 4.98247 28.7717 5.01756 28.8419 5.05265L29.684 3.61405C29.6138 3.57896 29.5436 3.54388 29.4735 3.50879L28.6313 4.94739Z" fill="white"/>
    <path d="M27.9648 4.56133C28.035 4.59642 28.1052 4.63151 28.1754 4.66659L28.9473 3.19291C28.8771 3.15782 28.8069 3.12273 28.7368 3.08765L27.9648 4.56133Z" fill="white"/>
    <path d="M36 13.2632C36.0351 13.3333 36.0702 13.4035 36.0702 13.4737L37.614 12.8421C37.5789 12.7719 37.5439 12.7018 37.5439 12.6316L36 13.2632Z" fill="white"/>
    <path d="M26.5964 3.92985C26.6666 3.96493 26.7368 4.00002 26.807 4.00002L27.4385 2.45616C27.3684 2.45616 27.2982 2.42107 27.228 2.38599L26.5964 3.92985Z" fill="white"/>
    <path d="M27.2632 4.24559C27.3334 4.28068 27.4035 4.31576 27.4737 4.35085L28.1755 2.84208C28.1053 2.80699 28.0702 2.7719 27.9649 2.73682L27.2632 4.24559Z" fill="white"/>
    <path d="M30.5261 6.17544C30.5963 6.24562 30.6314 6.28071 30.7366 6.3158L31.7542 5.01755C31.684 4.94737 31.6489 4.91229 31.5437 4.8772L30.5261 6.17544Z" fill="white"/>
    <path d="M3.64908 14.1755C3.68417 14.1053 3.71926 14.0351 3.71926 13.965L2.14031 13.4036C2.14031 13.4737 2.10522 13.5439 2.10522 13.6141L3.64908 14.1755Z" fill="white"/>
    <path d="M29.8945 5.75441C29.9647 5.82458 30.0349 5.82458 30.1051 5.89476L31.0524 4.52634C30.9823 4.45616 30.9121 4.45616 30.8419 4.38599L29.8945 5.75441Z" fill="white"/>
    <path d="M31.6489 7.15776C31.7191 7.22793 31.7542 7.26302 31.8244 7.3332L32.9472 6.10513C32.877 6.03495 32.8419 5.99986 32.7717 5.92969L31.6489 7.15776Z" fill="white"/>
    <path d="M29.2632 5.3332C29.3334 5.36828 29.4035 5.40337 29.4737 5.47355L30.3509 4.07004C30.2807 4.03495 30.2105 3.99986 30.1404 3.92969L29.2632 5.3332Z" fill="white"/>
    <path d="M2.63148 20C2.63148 19.9298 2.63148 19.9298 2.63148 19.8596H0.947266C0.947266 19.9298 0.947266 19.9298 0.947266 20C0.947266 20.0351 0.947266 20.0701 0.947266 20.0701H2.63148C2.63148 20.0701 2.63148 20.0701 2.63148 20Z" fill="white"/>
    <path d="M7.64911 7.82454C7.71928 7.75437 7.75437 7.71928 7.82454 7.64911L6.66665 6.49121C6.59647 6.56139 6.56139 6.59647 6.49121 6.66665L7.64911 7.82454Z" fill="white"/>
    <path d="M7.61395 32.1753L6.45605 33.3332C6.52623 33.4034 6.56132 33.4385 6.63149 33.5086L7.78939 32.3507C7.71921 32.3156 7.68413 32.2455 7.61395 32.1753Z" fill="white"/>
    <path d="M32.3859 7.82454L33.5438 6.66665C33.4736 6.59647 33.4385 6.56139 33.3683 6.49121L32.2104 7.64911C32.2806 7.71928 32.3157 7.78946 32.3859 7.82454Z" fill="white"/>
    <path d="M37.3684 20C37.3684 20.0702 37.3684 20.0702 37.3684 20.1404H39.0526C39.0526 20.0702 39.0526 20.0702 39.0526 20C39.0526 19.965 39.0526 19.9299 39.0526 19.8948H37.3684C37.3684 19.9299 37.3684 19.965 37.3684 20Z" fill="white"/>
    <path d="M32.3507 32.2104C32.2806 32.2806 32.2455 32.3157 32.1753 32.3859L33.3332 33.5438C33.4034 33.4736 33.4385 33.4385 33.5086 33.3683L32.3507 32.2104Z" fill="white"/>
    <path d="M36.9473 16.1404C36.9824 16.2106 36.9824 16.3159 37.0174 16.351L38.6315 16.0001C38.5964 15.9299 38.5964 15.8246 38.5613 15.7896L36.9473 16.1404Z" fill="white"/>
    <path d="M36.7717 15.4386C36.8068 15.5088 36.8419 15.6141 36.8419 15.6492L38.4559 15.2281C38.4209 15.1579 38.3858 15.0878 38.3858 15.0176L36.7717 15.4386Z" fill="white"/>
    <path d="M36.5261 14.7017C36.5612 14.7719 36.5963 14.842 36.5963 14.9122L38.1752 14.421C38.1402 14.3508 38.1051 14.2806 38.1051 14.2104L36.5261 14.7017Z" fill="white"/>
    <path d="M37.0876 16.9123C37.1227 16.9825 37.1227 17.0877 37.1227 17.1228L38.7719 16.8421C38.7368 16.7719 38.7368 16.6667 38.7368 16.6316L37.0876 16.9123Z" fill="white"/>
    <path d="M37.228 17.649C37.228 17.7192 37.2631 17.8244 37.2631 17.8946L38.9122 17.6841C38.9122 17.6139 38.8771 17.5087 38.8771 17.4385L37.228 17.649Z" fill="white"/>
    <path d="M36.2805 13.965C36.3156 14.0351 36.3507 14.1053 36.3507 14.1755L37.9296 13.6141C37.8945 13.5439 37.8595 13.4737 37.8595 13.4036L36.2805 13.965Z" fill="white"/>
    <path d="M38.9472 18.2808L37.2981 18.4211C37.2981 18.4913 37.2981 18.5966 37.3332 18.6667L38.9823 18.5264C38.9823 18.4211 38.9823 18.3158 38.9472 18.2808Z" fill="white"/>
    <path d="M31.0876 6.66665C31.1578 6.73683 31.1929 6.77192 31.2631 6.84209L32.3157 5.54385C32.2455 5.47367 32.2105 5.43858 32.1403 5.36841L31.0876 6.66665Z" fill="white"/>
    <path d="M9.33322 6.3158C9.40339 6.24562 9.43848 6.21053 9.54374 6.17544L8.5262 4.8772C8.45602 4.94737 8.42094 4.98246 8.31567 5.01755L9.33322 6.3158Z" fill="white"/>
    <path d="M9.9647 5.8596C10.0349 5.78943 10.1051 5.78943 10.1752 5.71925L9.22786 4.35083C9.15768 4.42101 9.08751 4.42101 9.01733 4.49118L9.9647 5.8596Z" fill="white"/>
    <path d="M8.77187 6.77178C8.84205 6.70161 8.87713 6.66652 8.94731 6.59634L7.89468 5.2981C7.8245 5.36827 7.78941 5.40336 7.71924 5.47353L8.77187 6.77178Z" fill="white"/>
    <path d="M8.21045 7.26313C8.28063 7.19296 8.31572 7.15787 8.38589 7.08769L7.26309 5.85962C7.19291 5.92979 7.15782 5.96488 7.08765 6.03506L8.21045 7.26313Z" fill="white"/>
    <path d="M11.8947 4.66659C11.9649 4.63151 12.0351 4.59642 12.1053 4.56133L11.3333 3.08765C11.2632 3.12273 11.193 3.15782 11.1228 3.19291L11.8947 4.66659Z" fill="white"/>
    <path d="M7.15776 8.35073C7.22793 8.28056 7.26302 8.24547 7.33319 8.1753L6.10513 7.05249C6.03495 7.12267 5.99986 7.15775 5.92969 7.22793L7.15776 8.35073Z" fill="white"/>
    <path d="M11.2278 5.01749C11.298 4.98241 11.3682 4.94732 11.4384 4.91223L10.5963 3.47363C10.5261 3.50872 10.4559 3.54381 10.3857 3.5789L11.2278 5.01749Z" fill="white"/>
    <path d="M12.5614 4.3157C12.6315 4.28061 12.7017 4.24552 12.7719 4.21043L12.0701 2.70166C12 2.73675 11.9298 2.77184 11.8596 2.80692L12.5614 4.3157Z" fill="white"/>
    <path d="M10.5613 5.43864C10.6315 5.40355 10.7016 5.36846 10.7718 5.29828L9.89461 3.89478C9.82443 3.92986 9.75426 3.96495 9.68408 4.03513L10.5613 5.43864Z" fill="white"/>
    <path d="M4.21043 12.7719C4.24552 12.7017 4.28061 12.6316 4.28061 12.5614L2.77184 11.8596C2.73675 11.9298 2.70166 12 2.70166 12.0701L4.21043 12.7719Z" fill="white"/>
    <path d="M4.91223 11.4386C4.94732 11.3684 4.98241 11.2983 5.01749 11.2281L3.5789 10.386C3.54381 10.4562 3.50872 10.5263 3.47363 10.5965L4.91223 11.4386Z" fill="white"/>
    <path d="M4.56126 12.0701C4.59635 11.9999 4.63144 11.9298 4.66653 11.8596L3.19284 11.0876C3.15775 11.1227 3.08758 11.228 3.05249 11.2982L4.56126 12.0701Z" fill="white"/>
    <path d="M6.6315 8.91215C6.70167 8.84198 6.73676 8.80689 6.80694 8.73671L5.50869 7.68408C5.43852 7.75426 5.40343 7.78935 5.33325 7.85952L6.6315 8.91215Z" fill="white"/>
    <path d="M3.89451 13.4736C3.9296 13.4035 3.96469 13.3333 3.96469 13.2631L2.45592 12.5964C2.42083 12.6666 2.38574 12.7368 2.38574 12.807L3.89451 13.4736Z" fill="white"/>
    <path d="M5.29804 10.7718C5.36822 10.7016 5.36822 10.6315 5.43839 10.5613L4.03488 9.68408C3.96471 9.75426 3.96471 9.82443 3.89453 9.89461L5.29804 10.7718Z" fill="white"/>
    <path d="M6.17544 9.54375C6.24562 9.47357 6.24562 9.43848 6.31579 9.33322L5.01755 8.31567C4.94737 8.38585 4.91229 8.42094 4.8772 8.5262L6.17544 9.54375Z" fill="white"/>
    <path d="M25.8596 3.64908C25.9298 3.68417 26 3.71926 26.0701 3.71926L26.6666 2.1754C26.5965 2.14031 26.5263 2.10522 26.4561 2.10522L25.8596 3.64908Z" fill="white"/>
    <path d="M5.71925 10.1403C5.78943 10.0701 5.78943 9.99997 5.8596 9.92979L4.49118 8.98242C4.42101 9.0526 4.42101 9.12277 4.35083 9.19295L5.71925 10.1403Z" fill="white"/>
    <path d="M22.2104 2.77193C22.2806 2.77193 22.3859 2.80701 22.4561 2.80701L22.6666 1.15789C22.5964 1.15789 22.4912 1.1228 22.421 1.1228L22.2104 2.77193Z" fill="white"/>
    <path d="M21.4385 2.70161C21.5087 2.70161 21.6139 2.70161 21.6841 2.7367L21.8244 1.08758C21.7543 1.08758 21.649 1.08758 21.5788 1.05249L21.4385 2.70161Z" fill="white"/>
    <path d="M20.6665 2.66663C20.7367 2.66663 20.8419 2.66663 20.9121 2.66663L20.9823 0.982422C20.9121 0.982422 20.8069 0.982422 20.7367 0.982422L20.6665 2.66663Z" fill="white"/>
    <path d="M22.9121 2.91231C22.9823 2.94739 23.0875 2.94739 23.1226 2.94739L23.4384 1.29827C23.3683 1.26318 23.263 1.26318 23.2279 1.26318L22.9121 2.91231Z" fill="white"/>
    <path d="M13.2629 4.00002C13.3331 3.96493 13.4033 3.92985 13.4735 3.92985L12.8419 2.38599C12.7717 2.42107 12.7015 2.45616 12.6313 2.45616L13.2629 4.00002Z" fill="white"/>
    <path d="M25.1577 3.43857C25.2279 3.47365 25.2981 3.50874 25.3682 3.50874L25.8595 1.92979C25.7893 1.89471 25.7191 1.85962 25.6489 1.85962L25.1577 3.43857Z" fill="white"/>
    <path d="M23.6841 3.05251C23.7543 3.0876 23.8595 3.0876 23.8946 3.12269L24.2455 1.50865C24.1753 1.47356 24.07 1.47356 24.035 1.43848L23.6841 3.05251Z" fill="white"/>
    <path d="M24.4209 3.19289C24.4911 3.22798 24.5963 3.26307 24.6314 3.26307L25.0876 1.64903C25.0174 1.61395 24.9121 1.57886 24.877 1.57886L24.4209 3.19289Z" fill="white"/>
    <path d="M19.8945 0.982422V2.66663C19.9296 2.66663 19.9647 2.66663 19.9998 2.66663C20.0349 2.66663 20.07 2.66663 20.1051 2.66663V0.982422C20.07 0.982422 20.0349 0.982422 19.9998 0.982422C19.9647 0.982422 19.9296 0.982422 19.8945 0.982422Z" fill="white"/>
    <path d="M14.6665 3.47359C14.7367 3.4385 14.8069 3.40341 14.877 3.40341L14.3858 1.82446C14.3156 1.85955 14.2455 1.89464 14.1753 1.89464L14.6665 3.47359Z" fill="white"/>
    <path d="M36.9823 23.6841C36.9472 23.7543 36.9472 23.8244 36.9121 23.8946L38.5261 24.2455C38.5612 24.1753 38.5612 24.1051 38.5963 24.035L36.9823 23.6841Z" fill="white"/>
    <path d="M16.1053 3.05262C16.1754 3.01753 16.2807 3.01753 16.3158 2.98244L15.9649 1.36841C15.8947 1.4035 15.7895 1.4035 15.7544 1.43858L16.1053 3.05262Z" fill="white"/>
    <path d="M13.9296 3.75435C13.9998 3.71926 14.07 3.68417 14.1402 3.68417L13.6138 2.10522C13.5437 2.14031 13.4735 2.1754 13.4033 2.1754L13.9296 3.75435Z" fill="white"/>
    <path d="M17.6138 2.80701C17.684 2.80701 17.7893 2.77193 17.8244 2.77193L17.6138 1.1228C17.5437 1.1228 17.4384 1.15789 17.4033 1.15789L17.6138 2.80701Z" fill="white"/>
    <path d="M18.386 2.70179C18.4561 2.70179 18.5614 2.70179 18.5965 2.6667L18.4561 1.01758C18.386 1.01758 18.2807 1.01758 18.2456 1.05267L18.386 2.70179Z" fill="white"/>
    <path d="M19.1227 2.66663C19.1928 2.66663 19.2981 2.66663 19.3332 2.66663L19.263 0.982422C19.1928 0.982422 19.0876 0.982422 19.0525 0.982422L19.1227 2.66663Z" fill="white"/>
    <path d="M16.8771 2.91224C16.9473 2.87715 17.0526 2.87715 17.0877 2.87715L16.807 1.22803C16.7368 1.22803 16.6315 1.26312 16.5964 1.26312L16.8771 2.91224Z" fill="white"/>
    <path d="M37.1227 22.9124C37.0876 22.9825 37.0876 23.0878 37.0876 23.158L38.7368 23.4387C38.7719 23.3685 38.7719 23.2632 38.7719 23.2281L37.1227 22.9124Z" fill="white"/>
    <path d="M37.3333 19.1578C37.3333 19.228 37.3333 19.3333 37.3333 19.4034L39.0175 19.3333C39.0175 19.2631 39.0175 19.1578 39.0175 19.0876L37.3333 19.1578Z" fill="white"/>
    <path d="M37.228 22.1755C37.228 22.2457 37.1929 22.351 37.1929 22.3861L38.842 22.5966C38.842 22.5264 38.8771 22.4212 38.8771 22.3861L37.228 22.1755Z" fill="white"/>
    <path d="M37.3333 20.6665C37.3333 20.7367 37.3333 20.8419 37.3333 20.9121L39.0175 20.9823C39.0175 20.9121 39.0175 20.8069 39.0175 20.7367L37.3333 20.6665Z" fill="white"/>
    <path d="M37.3332 21.4385C37.3332 21.5087 37.3332 21.6139 37.2981 21.6841L38.9472 21.8244C38.9472 21.7543 38.9472 21.649 38.9823 21.5788L37.3332 21.4385Z" fill="white"/>
    <path d="M19.9999 36.9122C10.6666 36.9122 3.08765 29.3333 3.08765 19.9999C3.08765 10.6666 10.6666 3.08765 19.9999 3.08765C29.3333 3.08765 36.9122 10.6666 36.9122 19.9999C36.9122 29.3333 29.3333 36.9122 19.9999 36.9122ZM19.9999 3.61396C10.9473 3.61396 3.57887 10.9824 3.57887 20.035C3.57887 29.0877 10.9473 36.4561 19.9999 36.4561C29.0526 36.4561 36.421 29.0877 36.421 20.035C36.421 10.9824 29.0526 3.61396 19.9999 3.61396Z" fill="white"/>
    <path d="M24.7018 20.6665L18.6316 26.7367C18.2456 27.1227 17.6491 27.1227 17.2632 26.7367V13.228C17.6491 12.842 18.2456 12.842 18.6316 13.228L24.7018 19.2981C25.0527 19.649 25.0527 20.2806 24.7018 20.6665Z" fill="white"/>
</svg>
