<svg width="123" height="22" viewBox="0 0 123 22" fill="none" xmlns="http://www.w3.org/2000/svg">
    <path d="M18.1346 4.71429C19.475 4.71429 20.5 3.69286 20.5 2.35714C20.5 1.02143 19.475 0 18.1346 0C16.7942 0 15.7692 1.02143 15.7692 2.35714C15.7692 2.59286 15.8481 2.82857 15.9269 3.06429L10.3288 6.99286C9.225 5.81429 7.72692 5.10714 5.99231 5.10714C2.68077 5.10714 0 7.77857 0 11C0 14.2214 2.68077 16.8929 5.91346 16.8929C7.64808 16.8929 9.14615 16.1857 10.25 15.0071L15.8481 18.9357C15.8481 19.1714 15.7692 19.4071 15.7692 19.6429C15.7692 20.9786 16.7942 22 18.1346 22C19.475 22 20.5 20.9786 20.5 19.6429C20.5 18.3071 19.475 17.2857 18.1346 17.2857C17.6615 17.2857 17.1885 17.4429 16.8731 17.6786L11.1962 13.6714C11.5904 12.8857 11.8269 11.9429 11.8269 11C11.8269 10.0571 11.5904 9.11429 11.1962 8.32857L16.8731 4.32143C17.1885 4.55714 17.6615 4.71429 18.1346 4.71429ZM5.91346 16.0286C3.075 16.0286 0.788462 13.75 0.788462 10.9214C0.788462 8.09286 3.075 5.81429 5.91346 5.81429C8.75192 5.81429 11.0385 8.09286 11.0385 10.9214C11.0385 13.75 8.75192 16.0286 5.91346 16.0286Z" fill="white"/>
    <path d="M5.91337 14.0643C7.65519 14.0643 9.06721 12.6572 9.06721 10.9214C9.06721 9.18567 7.65519 7.77856 5.91337 7.77856C4.17155 7.77856 2.75952 9.18567 2.75952 10.9214C2.75952 12.6572 4.17155 14.0643 5.91337 14.0643Z" fill="white"/>
    <path d="M35.7174 7.69998C35.7174 7.30713 35.4808 7.07141 34.5347 7.07141H28.8577C27.9116 7.07141 27.5962 7.30713 27.5962 7.69998C27.5962 8.01427 27.8327 8.24998 27.8327 9.34998V14.2214C27.8327 15.2428 27.5962 15.5571 27.5962 15.8714C27.5962 16.2643 27.9116 16.5786 28.7789 16.5786C29.8039 16.5786 30.1193 16.2643 30.1193 15.8714C30.1193 15.5571 29.8039 15.3214 29.8039 14.2214V8.95713C29.8039 8.56427 29.8827 8.4857 30.3558 8.4857H32.8789C33.352 8.4857 33.4308 8.56427 33.4308 8.95713V14.2214C33.4308 15.2428 33.1154 15.5571 33.1154 15.8714C33.1154 16.2643 33.352 16.5786 34.4558 16.5786C35.402 16.5786 35.6385 16.2643 35.6385 15.8714C35.6385 15.5571 35.402 15.3214 35.402 14.2214V9.34998C35.4808 8.32855 35.7174 8.01427 35.7174 7.69998Z" fill="white"/>
    <path d="M41.8673 6.91431C39.1865 6.91431 37.2942 9.03573 37.2942 11.9429C37.2942 14.7714 39.1077 16.7357 41.8673 16.7357C44.548 16.7357 46.4403 14.6143 46.4403 11.7072C46.4403 8.87859 44.6269 6.91431 41.8673 6.91431ZM41.8673 15.2429C40.3692 15.2429 39.5019 13.9857 39.5019 11.9429C39.5019 9.82145 40.448 8.32859 41.8673 8.32859C43.3653 8.32859 44.2327 9.58573 44.2327 11.6286C44.3115 13.75 43.2865 15.2429 41.8673 15.2429Z" fill="white"/>
    <path d="M55.5078 15.1643C55.1924 15.1643 55.0347 14.9286 55.0347 14.3786V9.34998C55.0347 8.32855 55.2713 8.01427 55.2713 7.69998C55.2713 7.30713 55.0347 7.07141 54.0886 7.07141H49.9097C49.2001 7.07141 48.9636 7.3857 48.8847 8.17141L48.727 12.1C48.6482 14.6143 48.254 15.1643 47.5443 15.1643C47.1501 15.1643 46.9136 15.3214 46.9136 15.8714V17.6C46.9136 18.0714 47.0713 18.3071 47.4655 18.3071C47.8597 18.3071 48.0174 18.15 48.4117 17.4428L48.5693 17.1286C48.8059 16.7357 48.9636 16.5786 49.5155 16.5786H53.6155C54.0886 16.5786 54.3251 16.7357 54.5616 17.1286L54.7193 17.4428C55.1136 18.15 55.2713 18.3071 55.6655 18.3071C56.0597 18.3071 56.2174 18.0714 56.2174 17.6V15.8714C56.1386 15.3214 55.902 15.1643 55.5078 15.1643ZM53.0636 14.6143C53.0636 15.0071 52.9847 15.1643 52.5116 15.1643H49.8309C49.752 15.1643 49.6732 15.1643 49.6732 15.0857C49.6732 15.0071 49.752 14.85 49.752 14.7714C49.9886 14.0643 50.1463 13.2 50.2251 11.8643L50.3828 8.95713C50.3828 8.56427 50.5405 8.4857 50.9347 8.4857H52.5116C52.9847 8.4857 53.0636 8.64284 53.0636 8.95713V14.6143Z" fill="white"/>
    <path d="M64.023 14.2214C63.8653 14.2214 63.7865 14.3 63.6288 14.3786C62.9192 14.85 62.5249 15.1643 61.0269 15.1643C60.0019 15.1643 59.8442 14.9286 59.8442 14.4571V12.8857C59.8442 12.4929 60.0807 12.3357 60.4749 12.3357C62.2884 12.3357 62.2096 12.5714 62.6826 12.5714C63.0769 12.5714 63.2346 12.2571 63.2346 11.6286C63.2346 11 63.0769 10.6857 62.6826 10.6857C62.2096 10.6857 62.2884 11 60.3961 11C60.0019 11 59.8442 10.9214 59.8442 10.5286V9.03572C59.8442 8.64286 60.0019 8.48572 60.7903 8.48572C62.1307 8.48572 62.6038 8.72143 63.3134 9.19286C63.4711 9.27143 63.6288 9.35 63.7865 9.35C64.1807 9.35 64.4172 9.11429 64.4172 8.72143C64.4172 8.09286 63.9442 7.15 63.3134 7.15C62.8403 6.91429 62.2884 7.07143 59.4499 7.07143C59.0557 7.07143 58.7403 6.99286 58.3461 6.99286C57.873 6.99286 57.6365 7.30714 57.6365 7.7C57.6365 8.01429 57.873 8.25 57.873 9.35V14.2214C57.873 15.2429 57.6365 15.5571 57.6365 15.8714C57.6365 16.2643 57.873 16.5786 58.3461 16.5786C58.6615 16.5786 59.1346 16.5 59.4499 16.5C62.2884 16.5 62.998 16.5786 63.3922 16.5786C64.023 16.5786 64.5749 15.6357 64.5749 14.9286C64.6538 14.5357 64.4172 14.2214 64.023 14.2214Z" fill="white"/>
    <path d="M75.6133 7.69998C75.6133 7.30713 75.2979 7.07141 74.4306 7.07141H70.3307C69.621 7.07141 69.3845 7.3857 69.3057 8.17141L69.148 12.1C69.0691 14.6143 68.7537 15.3214 68.123 15.3214C67.8864 15.3214 67.8076 15.1643 67.8076 15.0071C67.8076 14.9286 68.123 14.6928 68.123 14.1428C68.123 13.5928 67.7287 13.2 67.098 13.2C66.3884 13.2 65.9153 13.75 65.9153 14.6143C65.9153 15.95 66.7037 16.7357 68.0441 16.7357C69.6999 16.7357 70.5672 15.4786 70.7249 11.8643L70.8826 8.95713C70.8826 8.56427 71.0403 8.4857 71.4345 8.4857H72.9326C73.4056 8.4857 73.4845 8.64284 73.4845 8.95713V14.2214C73.4845 15.2428 73.1691 15.5571 73.1691 15.8714C73.1691 16.2643 73.4845 16.5786 74.5095 16.5786C75.4556 16.5786 75.6922 16.2643 75.6922 15.8714C75.6922 15.5571 75.4556 15.3214 75.4556 14.2214V9.34998C75.3768 8.32855 75.6133 8.01427 75.6133 7.69998Z" fill="white"/>
    <path d="M85.627 7.70002C85.627 7.30716 85.3905 6.99288 84.4443 6.99288C83.6558 6.99288 83.577 7.07145 82.8674 8.32859L80.2655 12.7286C79.9501 13.2 79.8712 13.2786 79.8712 13.2786C79.7924 13.2786 79.7135 13.2 79.7135 12.8857V9.27145C79.7135 8.25002 80.0289 7.93573 80.0289 7.62145C80.0289 7.22859 79.7135 6.91431 78.6886 6.91431C77.7424 6.91431 77.5059 7.22859 77.5059 7.62145C77.5059 7.93573 77.7424 8.17145 77.7424 9.27145V14.1429C77.7424 15.1643 77.5059 15.4786 77.5059 15.7929C77.5059 16.1857 77.8212 16.5 78.6886 16.5C79.477 16.5 79.5559 16.3429 80.1866 15.1643L82.7885 10.7643C83.1039 10.2929 83.1828 10.2143 83.1828 10.2143C83.2616 10.2143 83.3405 10.2929 83.3405 10.6072V14.2214C83.3405 15.2429 83.0251 15.5572 83.0251 15.8714C83.0251 16.2643 83.2616 16.5786 84.3655 16.5786C85.3116 16.5786 85.5482 16.2643 85.5482 15.8714C85.5482 15.5572 85.3116 15.3214 85.3116 14.2214V9.35002C85.3905 8.32859 85.627 8.01431 85.627 7.70002Z" fill="white"/>
    <path d="M94.3 6.91431C94.0635 6.91431 92.802 6.99288 91.3039 6.99288C89.8058 6.99288 88.5442 6.91431 88.3077 6.91431C87.6769 6.91431 87.2039 7.85716 87.2039 8.48573C87.2039 8.87859 87.4404 9.11431 87.8346 9.11431C88.3077 9.11431 88.7808 8.25002 89.7269 8.25002H89.9635C90.2 8.25002 90.4366 8.40716 90.4366 8.64288V14.1429C90.4366 15.1643 90.2 15.4786 90.2 15.7929C90.2 16.1857 90.4366 16.5 91.3827 16.5C92.3289 16.5 92.5654 16.1857 92.5654 15.7929C92.5654 15.4786 92.3289 15.2429 92.3289 14.1429V8.64288C92.3289 8.40716 92.4866 8.25002 92.8019 8.25002H93.0385C93.9846 8.25002 94.4577 9.11431 94.9308 9.11431C95.2462 9.11431 95.5616 8.87859 95.5616 8.48573C95.4039 7.85716 94.9308 6.91431 94.3 6.91431Z" fill="white"/>
    <path d="M100.686 10.6857H100.292C99.2672 10.6857 99.1095 10.6071 99.1095 10.2929V9.35C99.1095 8.32857 99.4249 8.01429 99.4249 7.7C99.4249 7.30714 99.1096 6.99286 98.0846 6.99286C97.1384 6.99286 96.9019 7.30714 96.9019 7.7C96.9019 8.01429 97.1384 8.25 97.1384 9.35V14.2214C97.1384 15.2429 96.9019 15.5571 96.9019 15.8714C96.9019 16.2643 97.1384 16.5786 97.6115 16.5786C98.0057 16.5786 98.3999 16.5 98.7942 16.5C99.4249 16.5 99.9769 16.5786 100.608 16.5786C102.658 16.5786 104.235 15.3214 104.235 13.6714C104.313 11.55 103.288 10.6857 100.686 10.6857ZM100.292 15.1643C99.2672 15.1643 99.1095 15.0857 99.1095 14.6929V12.5714C99.1095 12.1786 99.3461 12.1 100.608 12.1C101.633 12.1 102.106 12.4143 102.106 13.4357C102.106 14.5357 101.475 15.1643 100.292 15.1643Z" fill="white"/>
    <path d="M110.069 8.32859C111.173 8.32859 111.567 8.87859 111.961 9.42859C112.198 9.82145 112.435 10.1357 112.986 10.1357C113.381 10.1357 113.617 9.82145 113.617 9.35002C113.617 8.87859 113.538 8.40716 113.381 8.09288C113.144 7.46431 112.75 7.07145 112.356 7.07145C112.119 7.07145 111.961 7.15002 111.725 7.15002C111.41 7.15002 110.936 6.91431 110.069 6.91431C107.31 6.91431 105.575 8.72145 105.575 11.55C105.575 14.7714 107.31 16.7357 110.227 16.7357C111.41 16.7357 112.75 16.1072 113.223 15.3214C113.302 15.1643 113.381 15.0072 113.381 14.85C113.381 14.6929 113.302 14.5357 113.223 14.4572C113.144 14.3786 112.986 14.3 112.908 14.3C112.75 14.3 112.592 14.3786 112.435 14.3786C111.567 14.6929 111.015 14.85 110.385 14.85C108.729 14.85 107.704 13.5143 107.704 11.55C107.704 9.50716 108.571 8.32859 110.069 8.32859Z" fill="white"/>
    <path d="M122.763 9.35C122.763 8.32857 123 8.01429 123 7.7C123 7.30715 122.763 6.99286 122.29 6.99286C121.975 6.99286 121.66 7.07143 121.265 7.07143C120.635 7.07143 119.846 6.99286 119.215 6.99286C116.614 6.99286 115.667 8.25 115.667 9.74286C115.667 10.6857 116.298 11.6286 117.244 11.9429C117.323 11.9429 117.402 12.0214 117.402 12.1C117.402 12.1786 117.323 12.2571 117.165 12.3357C116.614 12.5714 116.298 13.2 116.062 14.0643C115.825 14.9286 115.667 15.2429 115.194 15.2429C114.879 15.2429 114.8 15.4 114.8 15.7143C114.8 16.2643 115.273 16.7357 116.062 16.7357C116.85 16.7357 117.56 16.5 118.033 14.85C118.585 13.0429 118.821 12.7286 120.083 12.7286H120.398C120.713 12.7286 120.792 12.8071 120.792 13.0429V14.3C120.792 15.3214 120.477 15.6357 120.477 15.95C120.477 16.3429 120.792 16.6571 121.817 16.6571C122.763 16.6571 123 16.3429 123 15.95C123 15.6357 122.763 15.4 122.763 14.3V9.35ZM120.792 10.8429C120.792 11.1571 120.477 11.2357 119.925 11.2357C118.427 11.2357 117.796 10.8429 117.796 9.74286C117.796 8.87857 118.348 8.32857 119.688 8.32857C120.713 8.32857 120.792 8.40715 120.792 9.27143V10.8429Z" fill="white"/>
</svg>
