<svg width="406" height="60" viewBox="0 0 406 60" fill="none" xmlns="http://www.w3.org/2000/svg">
    <path opacity="0.1" d="M376 60H30C13.5 60 0 46.5 0 30C0 13.5 13.5 0 30 0H376C392.5 0 406 13.5 406 30C406 46.5 392.5 60 376 60Z" fill="#2A0C3E"/>
    <path d="M376 0H361H45H30C13.5 0 0 13.5 0 30C0 46.5 13.5 60 30 60H45H361H376C392.5 60 406 46.5 406 30C406 13.5 392.5 0 376 0ZM403 30C403 30.3 403 30.8 403 31.1H391C391 30.8 391 30.3 391 30C391 29.6 391 29.2 391 28.8H403C403 29.2 403 29.6 403 30ZM36 57C24.8 53.2 16.5 42.6 16.5 30C16.5 17.4 24.6 6.8 36 3H370C379 6 385.9 13.3 388.5 22.7V22.8C389.1 25 389.4 27.4 389.4 30C389.4 32.4 389.1 34.8 388.5 37.1H388.3V37.4C386.1 46.7 379 54 370 57H36ZM3 30C3 29.6 3 29.2 3 28.8H15C15 29.2 15 29.6 15 30C15 30.3 15 30.8 15 31.1H3C3 30.8 3 30.3 3 30ZM11.1 10.8H22C21.4 11.6 20.8 12.3 20.4 13H9C9.6 12.3 10.3 11.5 11.1 10.8ZM25.6 7H15.7C17.2 6.1 18.7 5.3 20.2 4.8H28.6C27.7 5.6 26.7 6.3 25.6 7ZM24.9 7.8C24.1 8.5 23.4 9.3 22.7 10H11.8C12.7 9.2 13.6 8.5 14.6 7.8H24.9ZM19.8 13.8C19.3 14.6 18.9 15.3 18.4 16H6.9C7.4 15.2 7.9 14.5 8.4 13.8H19.8ZM18.1 16.8C17.8 17.6 17.3 18.3 17.1 19H5.4C5.7 18.2 6.2 17.5 6.6 16.8H18.1ZM16.8 19.8C16.5 20.6 16.3 21.3 16 22H4.2C4.5 21.2 4.6 20.5 5 19.8H16.8ZM15.9 22.8C15.7 23.6 15.6 24.3 15.4 25.1H3.4C3.5 24.3 3.7 23.6 4 22.9C4 22.8 15.9 22.8 15.9 22.8ZM15.3 25.8C15.1 26.6 15.1 27.3 15 28H3C3 27.2 3.1 26.5 3.3 25.8H15.3ZM15.1 31.8C15.1 32.6 15.3 33.3 15.3 34.1H3.3C3.2 33.3 3.2 32.6 3 31.8H15.1ZM15.4 34.8C15.6 35.6 15.7 36.3 15.9 37H3.9C3.8 36.2 3.6 35.5 3.4 34.8H15.4ZM16 37.8C16.1 38.6 16.4 39.3 16.8 40H4.9C4.6 39.2 4.3 38.5 4.1 37.8H16ZM17.1 40.8C17.4 41.6 17.7 42.3 18.1 43H6.3C5.9 42.2 5.5 41.5 5.2 40.8H17.1ZM18.4 43.8C18.9 44.6 19.3 45.3 19.8 46H8.2C7.6 45.2 7.2 44.5 6.7 43.8H18.4ZM20.1 46.8C20.7 47.6 21.1 48.3 21.7 49H10.8C10 48.2 9.5 47.5 8.9 46.8H20.1ZM22.5 49.8C23.3 50.6 24 51.3 24.7 52H14.4C13.5 51.2 12.4 50.5 11.7 49.8H22.5ZM25.5 52.8C26.4 53.6 27.4 54.3 28.5 55H20C18.5 54.4 17 53.6 15.6 52.8H25.5ZM390.1 7H380.2C379.3 6.2 378.2 5.5 377.2 4.8H385.6C387.3 5.4 388.8 6.1 390.1 7ZM387.9 16.8H399.6C400.1 17.6 400.4 18.3 400.8 19H389.1C388.6 18.3 388.3 17.5 387.9 16.8ZM387.6 16C387.2 15.2 386.7 14.5 386.3 13.8H397.7C398.3 14.6 398.8 15.3 399.2 16H387.6ZM385.8 13C385.2 12.2 384.8 11.5 384.2 10.8H395.1C395.9 11.6 396.5 12.3 397.2 13H385.8ZM383.4 10C382.6 9.2 381.9 8.5 381.2 7.8H391.4C392.5 8.5 393.4 9.3 394.3 10H383.4ZM380.5 52.8H390.4C389 53.7 387.5 54.4 386 55H377.4C378.6 54.3 379.6 53.6 380.5 52.8ZM381.3 52.1C382.1 51.3 382.8 50.6 383.5 49.9H394.3C393.4 50.7 392.5 51.4 391.6 52.1H381.3ZM384.3 49.1C384.9 48.3 385.5 47.6 386 46.9H397.2C396.6 47.7 395.8 48.4 395.2 49.1H384.3ZM386.4 46.1C386.8 45.3 387.3 44.6 387.7 43.9H399.2C398.8 44.7 398.3 45.4 397.7 46.1H386.4ZM388 43.1C388.3 42.3 388.8 41.6 389 40.9H400.9C400.6 41.7 400.1 42.4 399.9 43.1H388ZM389.2 40.1C389.5 39.3 389.7 38.6 390 37.9H401.8C401.5 38.7 401.4 39.4 401 40.1H389.2ZM390.1 37.1C390.2 36.3 390.4 35.6 390.5 34.9H402.5C402.4 35.7 402.2 36.4 402.1 37.1H390.1ZM390.7 34.1C390.8 33.3 390.8 32.6 390.8 31.8H402.8C402.8 32.6 402.7 33.3 402.5 34.1H390.7ZM390.9 28.1C390.9 27.3 390.7 26.6 390.6 25.9H402.6C402.8 26.7 402.8 27.4 402.9 28.1H390.9ZM390.6 25.1C390.5 24.3 390.3 23.6 390.2 22.9H402C402.2 23.7 402.5 24.4 402.6 25.1H390.6ZM390 22C389.8 21.2 389.5 20.5 389.2 19.8H401C401.3 20.6 401.6 21.3 401.8 22H390ZM376 3C378.5 3 381 3.4 383.4 4.1H376C375.4 3.8 374.7 3.3 374 3H376ZM31.9 3C31.3 3.3 30.6 3.6 30 4.1H22.7C25 3.4 27.4 3 30 3H31.9ZM30 57C27.2 57 24.6 56.6 22.1 55.8H29.9C30.7 56.2 31.4 56.7 32.1 57H30ZM374.1 57C374.9 56.7 375.6 56.2 376.3 55.8H384.1C381.5 56.6 378.9 57 376.1 57H374.1Z" fill="white"/>
    <path d="M46.5 29.6C46.5 24.4 49.7 21 54.6 21C56.2 21 57.4 21.5 57.9 21.5C58.2 21.5 58.5 21.4 58.8 21.4C59.4 21.4 59.9 22.1 60.3 23.1C60.5 23.7 60.7 24.4 60.7 25.2C60.7 25.8 60.3 26.3 59.8 26.3C59.1 26.3 58.8 25.9 58.4 25.3C57.5 24 56.6 23.2 54.6 23.2C51.4 23.2 49.6 25.6 49.6 29.7C49.6 33.8 51.6 36.4 55.1 36.4C56.3 36.4 57.6 36.1 59 35.4C59.3 35.2 59.5 35.2 59.8 35.2C60 35.2 60.2 35.3 60.4 35.4C60.6 35.5 60.6 35.7 60.6 36C60.6 36.2 60.5 36.5 60.4 36.7C59.3 38 56.9 39 54.9 39C49.7 39 46.5 35.3 46.5 29.6Z" fill="white"/>
    <path d="M78.1 25.9004C77.9 25.9004 77.8 26.1004 77.2 27.3004L73.6 34.9004C73.4 35.4004 73 35.7004 72.4 35.7004C71.8 35.7004 71.5 35.5004 71.2 34.9004L67.6 27.2004C67.1 26.1004 66.9 26.0004 66.8 26.0004C66.7 26.0004 66.6 26.2004 66.6 27.1004V35.0004C66.6 36.7004 67.1 37.5004 67.1 37.9004C67.1 38.5004 66.7 38.9004 65.6 38.9004C64.5 38.9004 64.1 38.5004 64.1 37.9004C64.1 37.5004 64.4 36.7004 64.4 35.0004V25.3004C64.4 23.6004 64.1 22.8004 64.1 22.4004C64.1 21.8004 64.5 21.4004 66 21.4004C67.7 21.4004 68.1 21.5004 68.4 22.2004L72.4 30.7004C72.7 31.3004 72.8 31.4004 72.9 31.4004C73 31.4004 73.1 31.2004 73.4 30.7004L77.4 22.2004C77.7 21.5004 78.1 21.4004 79.6 21.4004C81.2 21.4004 81.5 21.8004 81.5 22.4004C81.5 22.9004 81.1 23.6004 81.1 25.3004V35.0004C81.1 36.7004 81.5 37.5004 81.5 37.9004C81.5 38.5004 81.1 38.9004 79.7 38.9004C78.1 38.9004 77.7 38.5004 77.7 37.9004C77.7 37.5004 78.2 36.7004 78.2 35.0004V27.1004C78.2 26.1004 78.2 25.9004 78.1 25.9004Z" fill="white"/>
    <path d="M84.8 30.3C84.8 24.9 88.3 21 93 21C97.9 21 101.2 24.6 101.2 29.7C101.2 35.1 97.7 39 93 39C88.2 39 84.8 35.4 84.8 30.3ZM98.2 29.7C98.2 25.7 96.2 23.1 93.1 23.1C90.2 23.1 88 26 88 30.3C88 34.3 90 36.9 93.1 36.9C96 36.9 98.2 33.9 98.2 29.7Z" fill="white"/>
    <path d="M108.6 37.8C108.6 37.4 108.9 36.6 108.9 34.9V23.9C108.9 23.5 108.6 23.2 108.1 23.2H107.2C105.4 23.2 104.4 24.6 103.8 24.6C103.3 24.6 102.9 24.2 102.9 23.6C102.9 22.5 103.7 21 104.6 21C105 21 107.2 21.2 110.3 21.2C113.4 21.2 115.6 21 116 21C116.9 21 117.7 22.4 117.7 23.6C117.7 24.2 117.3 24.6 116.8 24.6C116.1 24.6 115.2 23.2 113.4 23.2H112.5C112 23.2 111.7 23.5 111.7 23.9V34.9C111.7 36.6 112.1 37.4 112.1 37.8C112.1 38.4 111.7 38.8 110.3 38.8C109 38.8 108.6 38.4 108.6 37.8Z" fill="white"/>
    <path d="M120.8 37.8008C120.8 37.4008 121.1 36.6008 121.1 34.9008V25.2008C121.1 23.5008 120.8 22.7008 120.8 22.3008C120.8 21.7008 121.2 21.3008 121.8 21.3008C122.5 21.3008 123.2 21.4008 123.9 21.4008C125 21.4008 126 21.3008 127.1 21.3008C131.4 21.3008 133.7 23.1008 133.7 26.4008C133.7 30.1008 131.3 32.2008 126.8 32.2008H125.1C124.3 32.2008 124.1 32.5008 124.1 33.3008V34.9008C124.1 36.6008 124.6 37.4008 124.6 37.8008C124.6 38.4008 124.2 38.8008 122.6 38.8008C121.2 38.8008 120.8 38.4008 120.8 37.8008ZM130.6 26.3008C130.6 24.2008 129.3 23.3008 126.8 23.3008C124.4 23.3008 124.1 23.4008 124.1 24.8008V29.2008C124.1 29.8008 124.6 29.9008 126.6 29.9008C129.4 29.9008 130.6 28.8008 130.6 26.3008Z" fill="white"/>
    <path d="M136.9 37.8002C136.9 37.4002 137.2 36.6002 137.2 34.9002V25.2002C137.2 23.5002 136.9 22.7002 136.9 22.3002C136.9 21.7002 137.3 21.3002 137.9 21.3002C138.6 21.3002 139.3 21.4002 140 21.4002C145.6 21.4002 146.4 21.2002 147.2 21.2002C148.1 21.2002 148.9 22.7002 148.9 23.8002C148.9 24.4002 148.5 24.8002 148 24.8002C147.8 24.8002 147.6 24.7002 147.3 24.5002C146.3 23.9002 145.4 23.3002 142.3 23.3002C140.2 23.3002 140 23.5002 140 24.3002V27.9002C140 28.6002 140.3 28.7002 141.2 28.7002C145.3 28.7002 145.3 28.2002 146 28.2002C146.6 28.2002 146.9 28.7002 146.9 29.8002C146.9 30.9002 146.6 31.4002 146 31.4002C145.3 31.4002 145.2 30.9002 141.3 30.9002C140.4 30.9002 140 31.1002 140 31.9002V35.8002C140 36.6002 140.3 36.9002 142.5 36.9002C145.9 36.9002 146.7 36.3002 147.7 35.6002C147.9 35.4002 148.1 35.3002 148.3 35.3002C148.8 35.3002 149.2 35.7002 149.2 36.3002C149.2 37.5002 148.3 39.0002 147.3 39.0002C146.6 39.0002 145.6 38.9002 139.8 38.9002C139.1 38.9002 138.3 39.0002 137.6 39.0002C137.3 38.8002 136.9 38.4002 136.9 37.8002Z" fill="white"/>
    <path d="M157.4 37.8C157.4 37.4 157.7 36.6 157.7 34.9V23.9C157.7 23.5 157.4 23.2 156.9 23.2H156C154.2 23.2 153.2 24.6 152.6 24.6C152.1 24.6 151.7 24.2 151.7 23.6C151.7 22.5 152.5 21 153.4 21C153.8 21 156 21.2 159.1 21.2C162.2 21.2 164.4 21 164.8 21C165.7 21 166.5 22.4 166.5 23.6C166.5 24.2 166.1 24.6 165.6 24.6C164.9 24.6 164 23.2 162.2 23.2H161.3C160.8 23.2 160.5 23.5 160.5 23.9V34.9C160.5 36.6 160.9 37.4 160.9 37.8C160.9 38.4 160.5 38.8 159.1 38.8C157.8 38.8 157.4 38.4 157.4 37.8Z" fill="white"/>
    <path d="M169.7 37.8008C169.7 37.4008 170 36.6008 170 34.9008V25.2008C170 23.5008 169.7 22.7008 169.7 22.3008C169.7 21.7008 170.1 21.3008 171.5 21.3008C173.1 21.3008 173.5 21.7008 173.5 22.3008C173.5 22.8008 173 23.5008 173 25.2008V27.5008C173 28.1008 173.2 28.2008 175.8 28.2008H176.5C181 28.2008 182.9 29.8008 182.9 33.4008C182.9 36.6008 180.1 38.9008 176.2 38.9008C175.1 38.9008 174 38.8008 173 38.8008C172.3 38.8008 171.6 38.9008 170.9 38.9008C170.1 38.8008 169.7 38.4008 169.7 37.8008ZM179.7 33.1008C179.7 31.1008 178.6 30.3008 176.3 30.3008C173.4 30.3008 173 30.4008 173 31.2008V35.8008C173 36.7008 173.3 36.7008 175.6 36.7008C178.2 36.7008 179.7 35.3008 179.7 33.1008Z" fill="white"/>
    <path d="M201.3 23.4004H195.7C194.8 23.4004 194.6 23.6004 194.6 24.3004V34.9004C194.6 36.6004 195.1 37.4004 195.1 37.8004C195.1 38.4004 194.7 38.8004 193.1 38.8004C191.7 38.8004 191.3 38.4004 191.3 37.8004C191.3 37.4004 191.6 36.6004 191.6 34.9004V25.2004C191.6 23.5004 191.3 22.7004 191.3 22.3004C191.3 21.7004 191.7 21.4004 193.1 21.4004H203.8C205.2 21.4004 205.6 21.7004 205.6 22.3004C205.6 22.8004 205.2 23.5004 205.2 25.2004V34.9004C205.2 36.6004 205.6 37.4004 205.6 37.8004C205.6 38.4004 205.2 38.8004 203.8 38.8004C202.3 38.8004 201.8 38.4004 201.8 37.8004C201.8 37.4004 202.3 36.6004 202.3 34.9004V24.3004C202.4 23.6004 202.2 23.4004 201.3 23.4004Z" fill="white"/>
    <path d="M209 30.3C209 24.9 212.5 21 217.2 21C222.1 21 225.4 24.6 225.4 29.7C225.4 35.1 221.9 39 217.2 39C212.4 39 209 35.4 209 30.3ZM222.3 29.7C222.3 25.7 220.3 23.1 217.2 23.1C214.3 23.1 212.1 26 212.1 30.3C212.1 34.3 214.1 36.9 217.2 36.9C220.2 36.9 222.3 33.9 222.3 29.7Z" fill="white"/>
    <path d="M226.9 35.6008C226.9 34.2008 227.7 33.3008 228.8 33.3008C229.7 33.3008 230.3 33.9008 230.3 34.8008C230.3 35.7008 229.7 36.0008 229.7 36.2008C229.7 36.6008 230 36.9008 230.5 36.9008C231.8 36.9008 232.6 35.4008 232.9 29.3008L233.2 22.9008C233.3 21.7008 233.6 21.3008 234.7 21.3008H242.4C243.8 21.3008 244.2 21.6008 244.2 22.2008C244.2 22.7008 243.9 23.4008 243.9 25.1008V34.8008C243.9 36.5008 244.2 37.3008 244.2 37.7008C244.2 38.3008 243.8 38.7008 242.4 38.7008C240.9 38.7008 240.4 38.3008 240.4 37.7008C240.4 37.3008 240.9 36.5008 240.9 34.8008V24.3008C240.9 23.6008 240.7 23.4008 239.8 23.4008H236.4C235.5 23.4008 235.3 23.6008 235.3 24.3008L235.1 29.3008C234.7 36.7008 233.2 39.0008 230.3 39.0008C228.3 39.0008 226.9 37.7008 226.9 35.6008Z" fill="white"/>
    <path d="M262.3 34.9008C262.3 36.6008 262.7 37.4008 262.7 37.8008C262.7 38.4008 262.3 38.8008 260.9 38.8008C259.4 38.8008 258.9 38.4008 258.9 37.8008C258.9 37.4008 259.4 36.6008 259.4 34.9008V31.6008C259.4 30.9008 259.2 30.7008 258.3 30.7008H252.4C251.5 30.7008 251.3 30.9008 251.3 31.6008V34.9008C251.3 36.6008 251.8 37.4008 251.8 37.8008C251.8 38.4008 251.4 38.8008 249.8 38.8008C248.4 38.8008 248 38.4008 248 37.8008C248 37.4008 248.3 36.6008 248.3 34.9008V25.2008C248.3 23.5008 248 22.7008 248 22.3008C248 21.7008 248.4 21.3008 249.8 21.3008C251.4 21.3008 251.8 21.7008 251.8 22.3008C251.8 22.8008 251.3 23.5008 251.3 25.2008V27.6008C251.3 28.4008 251.5 28.6008 252.4 28.6008H258.3C259.1 28.6008 259.4 28.4008 259.4 27.6008V25.2008C259.4 23.5008 258.9 22.7008 258.9 22.3008C258.9 21.7008 259.3 21.3008 260.9 21.3008C262.3 21.3008 262.7 21.7008 262.7 22.3008C262.7 22.8008 262.3 23.5008 262.3 25.2008V34.9008Z" fill="white"/>
    <path d="M266 30.3C266 24.9 269.5 21 274.2 21C279.1 21 282.4 24.6 282.4 29.7C282.4 35.1 278.9 39 274.2 39C269.4 39 266 35.4 266 30.3ZM279.4 29.7C279.4 25.7 277.4 23.1 274.3 23.1C271.4 23.1 269.2 26 269.2 30.3C269.2 34.3 271.2 36.9 274.3 36.9C277.2 36.9 279.4 33.9 279.4 29.7Z" fill="white"/>
    <path d="M285.4 29.6C285.4 24.4 288.6 21 293.5 21C295.1 21 296.3 21.5 296.8 21.5C297.1 21.5 297.4 21.4 297.7 21.4C298.3 21.4 298.8 22.1 299.2 23.1C299.4 23.7 299.6 24.4 299.6 25.2C299.6 25.8 299.2 26.3 298.7 26.3C298 26.3 297.7 25.9 297.3 25.3C296.4 24 295.5 23.2 293.5 23.2C290.3 23.2 288.5 25.6 288.5 29.7C288.5 33.8 290.5 36.4 294 36.4C295.2 36.4 296.5 36.1 297.9 35.4C298.2 35.2 298.4 35.2 298.7 35.2C298.9 35.2 299.1 35.3 299.3 35.4C299.5 35.5 299.5 35.7 299.5 36C299.5 36.2 299.4 36.5 299.3 36.7C298.2 38.1 295.9 39 293.9 39C288.6 39 285.4 35.3 285.4 29.6Z" fill="white"/>
    <path d="M307.8 37.8C307.8 37.4 308.1 36.6 308.1 34.9V23.9C308.1 23.5 307.8 23.2 307.3 23.2H306.4C304.6 23.2 303.6 24.6 303 24.6C302.5 24.6 302.1 24.2 302.1 23.6C302.1 22.5 302.9 21 303.8 21C304.2 21 306.4 21.2 309.5 21.2C312.6 21.2 314.8 21 315.2 21C316.1 21 316.9 22.4 316.9 23.6C316.9 24.2 316.5 24.6 316 24.6C315.3 24.6 314.4 23.2 312.6 23.2H311.7C311.2 23.2 310.9 23.5 310.9 23.9V34.9C310.9 36.6 311.3 37.4 311.3 37.8C311.3 38.4 310.9 38.8 309.5 38.8C308.1 38.8 307.8 38.4 307.8 37.8Z" fill="white"/>
    <path d="M320 37.8008C320 37.4008 320.3 36.6008 320.3 34.9008V25.2008C320.3 23.5008 320 22.7008 320 22.3008C320 21.7008 320.4 21.3008 321.8 21.3008C323.4 21.3008 323.8 21.7008 323.8 22.3008C323.8 22.8008 323.3 23.5008 323.3 25.2008V27.5008C323.3 28.1008 323.5 28.2008 326.1 28.2008H326.8C331.3 28.2008 333.2 29.8008 333.2 33.4008C333.2 36.6008 330.4 38.9008 326.5 38.9008C325.4 38.9008 324.3 38.8008 323.3 38.8008C322.6 38.8008 321.9 38.9008 321.2 38.9008C320.4 38.8008 320 38.4008 320 37.8008ZM330 33.1008C330 31.1008 328.9 30.3008 326.6 30.3008C323.7 30.3008 323.3 30.4008 323.3 31.2008V35.8008C323.3 36.7008 323.6 36.7008 325.9 36.7008C328.6 36.7008 330 35.3008 330 33.1008Z" fill="white"/>
    <path d="M358.9 29.7004C358.9 35.1004 355.4 39.0004 350.7 39.0004C346.2 39.0004 343 35.9004 342.5 31.3004C342.4 30.8004 342.2 30.6004 341.5 30.6004H340.7C339.8 30.6004 339.6 30.8004 339.6 31.5004V34.8004C339.6 36.5004 340.1 37.3004 340.1 37.7004C340.1 38.3004 339.7 38.7004 338.1 38.7004C336.7 38.7004 336.3 38.3004 336.3 37.7004C336.3 37.3004 336.6 36.5004 336.6 34.8004V25.1004C336.6 23.4004 336.3 22.6004 336.3 22.2004C336.3 21.6004 336.7 21.2004 338.1 21.2004C339.7 21.2004 340.1 21.6004 340.1 22.2004C340.1 22.7004 339.6 23.4004 339.6 25.1004V27.5004C339.6 28.3004 339.8 28.5004 340.7 28.5004H341.5C342.3 28.5004 342.6 28.3004 342.8 27.5004C343.7 23.6004 346.8 20.9004 350.7 20.9004C355.6 21.0004 358.9 24.6004 358.9 29.7004ZM355.8 29.7004C355.8 25.7004 353.8 23.1004 350.7 23.1004C347.8 23.1004 345.6 26.0004 345.6 30.3004C345.6 34.3004 347.6 36.9004 350.7 36.9004C353.7 36.9004 355.8 33.9004 355.8 29.7004Z" fill="white"/>
</svg>

