<svg width="39" height="63" viewBox="0 0 39 63" fill="none" xmlns="http://www.w3.org/2000/svg">
    <path d="M33.4792 1L35.6006 3.12132L3.22442 32.9569C2.61521 33.5183 1.64649 33.4985 1.0607 32.9127C0.474913 32.327 0.493895 31.397 1.10309 30.8356L33.4792 1Z" fill="white"/>
    <path d="M1.10305 33.1378C0.493854 32.5764 0.474874 31.6465 1.06066 31.0607C1.64645 30.4749 2.61518 30.4551 3.22438 31.0165L35.3256 60.5988L33.2043 62.7201L1.10305 33.1378Z" fill="white"/>
    <path d="M37.6686 5.68763C37.8717 5.5005 38.1946 5.50709 38.3899 5.70235C38.5851 5.89762 38.5788 6.20761 38.3757 6.39474L10.0748 32.4749C9.87168 32.6621 9.54877 32.6555 9.35351 32.4602C9.15825 32.2649 9.16458 31.955 9.36764 31.7678L37.6686 5.68763Z" fill="white"/>
    <rect width="1" height="38.9968" rx="0.5" transform="matrix(0.707107 -0.707107 0.73537 0.677666 9.00073 32.0208)" fill="white"/>
    <path d="M32.8652 1.57227L33.5723 0.865159L38.2813 5.57411C38.4765 5.76937 38.4765 6.08595 38.2813 6.28121C38.086 6.47647 37.7694 6.47647 37.5742 6.28121L32.8652 1.57227Z" fill="white"/>
    <path d="M37.3105 57.3926C37.5058 57.1974 37.8224 57.1974 38.0176 57.3926C38.2129 57.5879 38.2129 57.9045 38.0176 58.0997L33.2774 62.8399L32.5703 62.1328L37.3105 57.3926Z" fill="white"/>
</svg>


