<svg width="40" height="40" viewBox="0 0 40 40" fill="none" xmlns="http://www.w3.org/2000/svg">
    <g clip-path="url(#clip0)">
        <path opacity="0.1" d="M19.9649 40C30.9912 40 39.9298 31.0457 39.9298 20C39.9298 8.95431 30.9912 0 19.9649 0C8.9386 0 0 8.95431 0 20C0 31.0457 8.9386 40 19.9649 40Z" fill="#2A0C3E"/>
        <path d="M20.0351 40C9.05262 40 0.0701599 31.0526 0.0701599 20C0.0701599 8.98246 9.05262 0 20.0351 0C31.0175 0 40 8.94737 40 20C40 31.0526 31.0175 40 20.0351 40ZM20.0351 0.491228C9.29823 0.491228 0.561388 9.26316 0.561388 20C0.561388 30.7368 9.33332 39.5088 20.0351 39.5088C30.7368 39.5088 39.5088 30.7368 39.5088 20C39.5088 9.26316 30.7719 0.491228 20.0351 0.491228Z" fill="white"/>
        <path d="M12.7719 35.7895C12.7017 35.7544 12.6315 35.7193 12.5614 35.6842L11.8596 37.193C11.9298 37.2281 12 37.2632 12.0701 37.2982L12.7719 35.7895Z" fill="white"/>
        <path d="M7.33332 31.7895C7.26314 31.7193 7.22806 31.6842 7.15788 31.614L5.92981 32.7368C5.99999 32.807 6.03507 32.8421 6.10525 32.9123L7.33332 31.7895Z" fill="white"/>
        <path d="M9.57893 33.8246C9.50876 33.7544 9.47367 33.7193 9.36841 33.6842L8.35086 34.9825C8.42104 35.0526 8.45612 35.0877 8.56139 35.1228L9.57893 33.8246Z" fill="white"/>
        <path d="M8.98243 33.3684C8.91226 33.2982 8.87717 33.2632 8.807 33.193L7.75436 34.4912C7.82454 34.5614 7.85963 34.5965 7.9298 34.6667L8.98243 33.3684Z" fill="white"/>
        <path d="M6.35086 30.6667C6.28068 30.5965 6.2456 30.5614 6.21051 30.4561L4.91226 31.4737C4.98244 31.5439 4.98244 31.614 5.05261 31.6842L6.35086 30.6667Z" fill="white"/>
        <path d="M6.807 31.2281C6.73682 31.1579 6.70173 31.1228 6.63156 31.0526L5.33331 32.1053C5.40349 32.1754 5.43858 32.2105 5.50875 32.2807L6.807 31.2281Z" fill="white"/>
        <path d="M5.47367 29.4386C5.40349 29.3684 5.40349 29.2982 5.33332 29.2281L3.92981 30.1053C3.99999 30.1754 3.99999 30.2456 4.07016 30.3158L5.47367 29.4386Z" fill="white"/>
        <path d="M5.8947 30.0351C5.82452 29.9649 5.82452 29.8947 5.75435 29.8246L4.38593 30.7719C4.4561 30.8421 4.4561 30.9123 4.52628 30.9825L5.8947 30.0351Z" fill="white"/>
        <path d="M8.42102 32.8772C8.35084 32.807 8.31575 32.7719 8.24558 32.7017L7.12277 33.9298C7.19295 34 7.22804 34.0351 7.29821 34.1053L8.42102 32.8772Z" fill="white"/>
        <path d="M5.08768 28.7719C5.05259 28.7018 5.01751 28.6316 4.98242 28.5614L3.54382 29.4035C3.57891 29.4737 3.614 29.5439 3.64909 29.614L5.08768 28.7719Z" fill="white"/>
        <path d="M12.0702 35.4386C12 35.4035 11.9298 35.3684 11.8596 35.3333L11.0877 36.807C11.1579 36.8421 11.2281 36.8772 11.2982 36.9123L12.0702 35.4386Z" fill="white"/>
        <path d="M11.4386 35.0877C11.3684 35.0526 11.2982 35.0175 11.228 34.9825L10.3859 36.421C10.4561 36.4561 10.5263 36.4912 10.5965 36.5263L11.4386 35.0877Z" fill="white"/>
        <path d="M13.4737 36.1053C13.4035 36.0702 13.3333 36.0351 13.2631 36.0351L12.5965 37.5439C12.6666 37.5789 12.7368 37.614 12.807 37.614L13.4737 36.1053Z" fill="white"/>
        <path d="M14.9123 36.5965C14.8421 36.5614 14.7719 36.5263 14.7017 36.5263L14.2105 38.1053C14.2807 38.1403 14.3509 38.1754 14.421 38.1754L14.9123 36.5965Z" fill="white"/>
        <path d="M10.7719 34.7018C10.7017 34.6667 10.6315 34.6316 10.5614 34.5614L9.68417 35.9649C9.75435 36 9.82452 36.0351 9.8947 36.1053L10.7719 34.7018Z" fill="white"/>
        <path d="M10.1754 34.2807C10.1052 34.2105 10.0351 34.2105 9.96488 34.1404L9.01752 35.5088C9.08769 35.5789 9.15787 35.5789 9.22804 35.6491L10.1754 34.2807Z" fill="white"/>
        <path d="M14.1754 36.386C14.1053 36.3509 14.0351 36.3158 13.9649 36.3158L13.3684 37.8947C13.4386 37.9298 13.5088 37.9649 13.5789 37.9649L14.1754 36.386Z" fill="white"/>
        <path d="M3.78944 26.0702C3.75435 26 3.71927 25.9298 3.71927 25.8596L2.14032 26.4211C2.17541 26.4912 2.2105 26.5614 2.2105 26.6316L3.78944 26.0702Z" fill="white"/>
        <path d="M2.70174 19.3684C2.70174 19.2982 2.70174 19.193 2.70174 19.1228L1.05261 19.0175C1.05261 19.0877 1.05261 19.193 1.05261 19.2632L2.70174 19.3684Z" fill="white"/>
        <path d="M2.77189 18.5965C2.77189 18.5263 2.7719 18.421 2.80698 18.3509L1.15786 18.2105C1.15786 18.2807 1.15786 18.386 1.12277 18.4561L2.77189 18.5965Z" fill="white"/>
        <path d="M2.84209 17.8596C2.84209 17.7895 2.87717 17.6842 2.87717 17.614L1.22805 17.4035C1.22805 17.4737 1.19296 17.5789 1.19296 17.6491L2.84209 17.8596Z" fill="white"/>
        <path d="M2.70174 20.8772C2.70174 20.807 2.70174 20.7018 2.70174 20.6316L1.05261 20.6667C1.05261 20.7368 1.05261 20.8421 1.05261 20.9123L2.70174 20.8772Z" fill="white"/>
        <path d="M2.77189 21.614C2.77189 21.5439 2.77189 21.4386 2.7368 21.3684L1.08768 21.5088C1.08768 21.5789 1.08768 21.6842 1.12276 21.7544L2.77189 21.614Z" fill="white"/>
        <path d="M2.94734 17.0877C2.98243 17.0175 2.98243 16.9123 3.01752 16.8772L1.36839 16.5965C1.36839 16.6667 1.33331 16.7719 1.29822 16.807L2.94734 17.0877Z" fill="white"/>
        <path d="M3.26314 15.614C3.29823 15.5439 3.33332 15.4386 3.33332 15.4035L1.71928 14.9474C1.6842 15.0175 1.64911 15.1228 1.64911 15.1579L3.26314 15.614Z" fill="white"/>
        <path d="M3.0877 16.3509C3.12279 16.2807 3.12279 16.1754 3.15787 16.1404L1.54384 15.7895C1.50875 15.8596 1.50875 15.9649 1.47366 16L3.0877 16.3509Z" fill="white"/>
        <path d="M2.84208 22.386C2.84208 22.3158 2.80699 22.2105 2.80699 22.1403L1.15787 22.3509C1.15787 22.421 1.19296 22.5263 1.19296 22.5614L2.84208 22.386Z" fill="white"/>
        <path d="M4.70172 28.1053C4.66663 28.0351 4.63154 27.9649 4.59646 27.8947L3.12277 28.6667C3.15786 28.7368 3.19295 28.807 3.22804 28.8772L4.70172 28.1053Z" fill="white"/>
        <path d="M15.614 36.807C15.5438 36.7719 15.4386 36.7368 15.4035 36.7368L14.9473 38.3509C15.0175 38.386 15.0877 38.4211 15.1579 38.4211L15.614 36.807Z" fill="white"/>
        <path d="M4.07015 26.7368C4.03506 26.6667 3.99998 26.5965 3.99998 26.5263L2.45612 27.1579C2.4912 27.2281 2.52629 27.2982 2.52629 27.3684L4.07015 26.7368Z" fill="white"/>
        <path d="M4.35086 27.4386C4.31577 27.3684 4.28068 27.2982 4.28068 27.2281L2.77191 27.9298C2.807 28 2.84209 28.0702 2.84209 28.1403L4.35086 27.4386Z" fill="white"/>
        <path d="M3.54383 25.3333C3.50874 25.2631 3.47365 25.193 3.47365 25.1228L1.85962 25.614C1.89471 25.6842 1.92979 25.7544 1.92979 25.8246L3.54383 25.3333Z" fill="white"/>
        <path d="M3.33332 24.5965C3.29823 24.5263 3.26314 24.4561 3.26314 24.386L1.64911 24.807C1.6842 24.8772 1.71928 24.9474 1.71928 25.0175L3.33332 24.5965Z" fill="white"/>
        <path d="M2.98242 23.1228C2.94733 23.0526 2.94733 22.9474 2.91225 22.8772L1.26312 23.1579C1.26312 23.2281 1.29821 23.3333 1.3333 23.3684L2.98242 23.1228Z" fill="white"/>
        <path d="M3.12278 23.8947C3.08769 23.8246 3.08769 23.7544 3.0526 23.6842L1.43857 24.0351C1.47366 24.1053 1.47366 24.1754 1.50874 24.2456L3.12278 23.8947Z" fill="white"/>
        <path d="M31.2281 33.2632C31.1579 33.3333 31.1228 33.3684 31.0526 33.4386L32.1052 34.7368C32.1754 34.6667 32.2105 34.6316 32.2807 34.5965L31.2281 33.2632Z" fill="white"/>
        <path d="M32.8772 31.6491C32.807 31.7193 32.7719 31.7544 32.7017 31.8246L33.9298 32.9474C34 32.8772 34.0351 32.8421 34.1052 32.7719L32.8772 31.6491Z" fill="white"/>
        <path d="M31.7895 32.7368C31.7193 32.807 31.6842 32.8421 31.614 32.9123L32.7368 34.1403C32.807 34.0702 32.8421 34.0351 32.9123 33.9649L31.7895 32.7368Z" fill="white"/>
        <path d="M33.3684 31.0877C33.2982 31.1579 33.2631 31.193 33.193 31.2631L34.4912 32.3158C34.5614 32.2456 34.5965 32.2105 34.6666 32.1403L33.3684 31.0877Z" fill="white"/>
        <path d="M33.8245 30.4912C33.7543 30.5614 33.7193 30.6316 33.6842 30.7018L34.9824 31.7193C35.0526 31.6491 35.0877 31.5789 35.1228 31.5088L33.8245 30.4912Z" fill="white"/>
        <path d="M30.035 34.1754C29.9649 34.2456 29.8947 34.2456 29.8245 34.3158L30.7719 35.6842C30.8421 35.614 30.9122 35.614 30.9824 35.5439L30.035 34.1754Z" fill="white"/>
        <path d="M34.2807 29.8596C34.2105 29.9298 34.2105 30 34.1403 30.0702L35.5087 31.0175C35.5789 30.9474 35.5789 30.8772 35.6491 30.807L34.2807 29.8596Z" fill="white"/>
        <path d="M30.6666 33.7193C30.5965 33.7895 30.5614 33.8246 30.4561 33.8596L31.4737 35.1579C31.5438 35.0877 31.5789 35.0526 31.6842 35.0175L30.6666 33.7193Z" fill="white"/>
        <path d="M3.47366 14.9123C3.50875 14.8421 3.54384 14.7719 3.54384 14.7018L1.96489 14.2105C1.9298 14.2807 1.89471 14.3509 1.89471 14.4211L3.47366 14.9123Z" fill="white"/>
        <path d="M36.807 24.421C36.7719 24.4912 36.7368 24.5614 36.7368 24.6316L38.3509 25.0526C38.3859 24.9824 38.421 24.9123 38.421 24.8421L36.807 24.421Z" fill="white"/>
        <path d="M36.3508 25.8596C36.3158 25.9298 36.2807 26 36.2807 26.0702L37.8596 26.6316C37.8947 26.5614 37.9298 26.4912 37.9298 26.4211L36.3508 25.8596Z" fill="white"/>
        <path d="M36.5965 25.1228C36.5614 25.193 36.5263 25.2631 36.5263 25.3333L38.1052 25.8246C38.1403 25.7544 38.1754 25.6842 38.1754 25.614L36.5965 25.1228Z" fill="white"/>
        <path d="M16.3509 36.9825C16.2807 36.9474 16.1754 36.9474 16.1403 36.9123L15.7895 38.5263C15.8596 38.5614 15.9649 38.5614 16 38.5965L16.3509 36.9825Z" fill="white"/>
        <path d="M29.4736 34.5965C29.4035 34.6667 29.3333 34.6667 29.2631 34.7368L30.1403 36.1403C30.2105 36.1053 30.2807 36.0702 30.3508 36L29.4736 34.5965Z" fill="white"/>
        <path d="M35.4386 27.9649C35.4035 28.0351 35.3684 28.1053 35.3333 28.1754L36.807 28.9474C36.8421 28.8772 36.8772 28.807 36.9123 28.7368L35.4386 27.9649Z" fill="white"/>
        <path d="M35.0877 28.5965C35.0526 28.6667 35.0175 28.7368 34.9824 28.807L36.421 29.6491C36.4561 29.5789 36.4912 29.5088 36.5263 29.4386L35.0877 28.5965Z" fill="white"/>
        <path d="M34.7017 29.2632C34.6666 29.3333 34.6315 29.4035 34.5614 29.4737L35.9649 30.3509C36.0351 30.2807 36.0351 30.2105 36.1052 30.1404L34.7017 29.2632Z" fill="white"/>
        <path d="M35.7894 27.2632C35.7544 27.3333 35.7193 27.4035 35.6842 27.4737L37.1929 28.1754C37.228 28.1053 37.2631 28.0351 37.2982 27.9649L35.7894 27.2632Z" fill="white"/>
        <path d="M36.1052 26.5614C36.0702 26.6316 36.0351 26.7018 36.0351 26.7719L37.5789 27.4035C37.614 27.3333 37.6491 27.2632 37.6491 27.193L36.1052 26.5614Z" fill="white"/>
        <path d="M20.9122 37.3333C20.8421 37.3333 20.7368 37.3333 20.7017 37.3333L20.7719 39.0175C20.8421 39.0175 20.9473 39.0175 21.0175 39.0175L20.9122 37.3333Z" fill="white"/>
        <path d="M19.3684 37.3684C19.2982 37.3684 19.1929 37.3684 19.1579 37.3684L19.0877 39.0526C19.1579 39.0526 19.2631 39.0526 19.2982 39.0526L19.3684 37.3684Z" fill="white"/>
        <path d="M20.1403 39.0526V37.3684C20.1052 37.3684 20.0701 37.3684 20.035 37.3684C20 37.3684 19.9649 37.3684 19.9298 37.3684V39.0526C19.9649 39.0526 20 39.0526 20.035 39.0526C20.1052 39.0526 20.1052 39.0526 20.1403 39.0526Z" fill="white"/>
        <path d="M21.6842 37.2982C21.614 37.2982 21.5087 37.2982 21.4386 37.3333L21.5789 38.9825C21.6491 38.9825 21.7544 38.9825 21.8245 38.9474L21.6842 37.2982Z" fill="white"/>
        <path d="M17.0877 37.1228C17.0175 37.1228 16.9122 37.0877 16.8772 37.0877L16.5614 38.7368C16.6315 38.7368 16.7368 38.7719 16.7719 38.7719L17.0877 37.1228Z" fill="white"/>
        <path d="M22.421 37.2281C22.3509 37.2281 22.2456 37.2632 22.2105 37.2632L22.421 38.9123C22.4912 38.9123 22.5965 38.8772 22.6667 38.8772L22.421 37.2281Z" fill="white"/>
        <path d="M18.5965 37.3333C18.5263 37.3333 18.421 37.3333 18.3859 37.2982L18.2456 38.9474C18.3158 38.9474 18.421 38.9474 18.4561 38.9825L18.5965 37.3333Z" fill="white"/>
        <path d="M17.8596 37.2281C17.7894 37.2281 17.6842 37.193 17.6491 37.193L17.4386 38.8421C17.5087 38.8421 17.614 38.8772 17.6491 38.8772L17.8596 37.2281Z" fill="white"/>
        <path d="M28.1403 35.3684C28.0702 35.4035 28 35.4386 27.9298 35.4737L28.7017 36.9474C28.7719 36.9123 28.8421 36.8772 28.9123 36.8421L28.1403 35.3684Z" fill="white"/>
        <path d="M27.4737 35.7193C27.4035 35.7544 27.3333 35.7895 27.2631 35.8246L27.9649 37.3333C28.0351 37.2982 28.1052 37.2632 28.1754 37.2281L27.4737 35.7193Z" fill="white"/>
        <path d="M26.7719 36C26.7017 36.0351 26.6315 36.0702 26.5614 36.0702L27.1929 37.614C27.2631 37.5789 27.3333 37.5439 27.4035 37.5439L26.7719 36Z" fill="white"/>
        <path d="M23.1579 37.0877C23.0877 37.0877 22.9824 37.1228 22.9473 37.1228L23.228 38.7719C23.2982 38.7719 23.4035 38.7368 23.4386 38.7368L23.1579 37.0877Z" fill="white"/>
        <path d="M28.807 35.0175C28.7368 35.0526 28.6666 35.0877 28.5965 35.1228L29.4386 36.5614C29.5087 36.5263 29.5789 36.4912 29.6491 36.4561L28.807 35.0175Z" fill="white"/>
        <path d="M26.0701 36.2807C26 36.3158 25.9298 36.3509 25.8596 36.3509L26.421 37.9298C26.4912 37.8947 26.5614 37.8597 26.6315 37.8597L26.0701 36.2807Z" fill="white"/>
        <path d="M23.8947 36.9474C23.8245 36.9825 23.7193 36.9825 23.6842 37.0175L24.035 38.6316C24.1052 38.5965 24.2105 38.5965 24.2456 38.5614L23.8947 36.9474Z" fill="white"/>
        <path d="M25.3684 36.5263C25.2982 36.5614 25.228 36.5965 25.1579 36.5965L25.6491 38.1754C25.7193 38.1403 25.7894 38.1053 25.8596 38.1053L25.3684 36.5263Z" fill="white"/>
        <path d="M24.6315 36.7719C24.5614 36.807 24.4912 36.8421 24.421 36.8421L24.8421 38.4561C24.9123 38.421 25.0175 38.386 25.0526 38.386L24.6315 36.7719Z" fill="white"/>
        <path d="M15.4386 3.26316C15.5087 3.22807 15.5789 3.19298 15.6491 3.19298L15.228 1.57895C15.1579 1.61403 15.0526 1.64912 15.0175 1.64912L15.4386 3.26316Z" fill="white"/>
        <path d="M33.7193 9.36842C33.7894 9.4386 33.8245 9.47368 33.8596 9.57895L35.1579 8.5614C35.0877 8.49123 35.0526 8.45614 35.0175 8.35088L33.7193 9.36842Z" fill="white"/>
        <path d="M34.1754 10C34.2456 10.0702 34.2456 10.1403 34.3158 10.2105L35.6842 9.26316C35.614 9.19298 35.614 9.1228 35.5438 9.05263L34.1754 10Z" fill="white"/>
        <path d="M33.2631 8.77193C33.3333 8.84211 33.3684 8.8772 33.4386 8.94737L34.7368 7.89474C34.6666 7.82456 34.6315 7.78947 34.5614 7.7193L33.2631 8.77193Z" fill="white"/>
        <path d="M34.5965 10.5965C34.6316 10.6667 34.6666 10.7368 34.7368 10.807L36.1403 9.92982C36.1052 9.85965 36.0702 9.78947 36 9.7193L34.5965 10.5965Z" fill="white"/>
        <path d="M34.9824 11.2281C35.0175 11.2982 35.0526 11.3684 35.0877 11.4386L36.5263 10.5965C36.4912 10.5263 36.4561 10.4561 36.421 10.386L34.9824 11.2281Z" fill="white"/>
        <path d="M35.7193 12.5965C35.7544 12.6667 35.7894 12.7368 35.8245 12.807L37.3333 12.1053C37.2982 12.0351 37.2631 11.9649 37.228 11.8947L35.7193 12.5965Z" fill="white"/>
        <path d="M32.7368 8.24561C32.807 8.31579 32.8421 8.35088 32.9123 8.42105L34.1403 7.29824C34.0701 7.22807 34.0351 7.19298 33.9649 7.1228L32.7368 8.24561Z" fill="white"/>
        <path d="M35.3684 11.8947C35.4035 11.9649 35.4386 12.0351 35.4737 12.1053L36.9474 11.3333C36.9123 11.2632 36.8772 11.193 36.8421 11.1228L35.3684 11.8947Z" fill="white"/>
        <path d="M28.6666 4.94737C28.7368 4.98246 28.807 5.01754 28.8772 5.05263L29.7193 3.61404C29.6491 3.57895 29.5789 3.54386 29.5087 3.50877L28.6666 4.94737Z" fill="white"/>
        <path d="M28 4.5614C28.0701 4.59649 28.1403 4.63158 28.2105 4.66666L28.9824 3.19298C28.9122 3.15789 28.8421 3.1228 28.7719 3.08772L28 4.5614Z" fill="white"/>
        <path d="M36 13.2632C36.0351 13.3333 36.0701 13.4035 36.0701 13.4737L37.614 12.8421C37.5789 12.7719 37.5438 12.7018 37.5438 12.6316L36 13.2632Z" fill="white"/>
        <path d="M26.6316 3.92982C26.7017 3.96491 26.7719 4 26.8421 4L27.4737 2.45614C27.4035 2.45614 27.3333 2.42105 27.2631 2.38596L26.6316 3.92982Z" fill="white"/>
        <path d="M27.2982 4.24561C27.3684 4.2807 27.4386 4.31579 27.5087 4.35087L28.2105 2.8421C28.1403 2.80701 28.0701 2.77193 28 2.73684L27.2982 4.24561Z" fill="white"/>
        <path d="M30.5263 6.17544C30.5965 6.24561 30.6315 6.2807 30.7368 6.31579L31.7543 5.01754C31.6842 4.94737 31.6491 4.91228 31.5438 4.87719L30.5263 6.17544Z" fill="white"/>
        <path d="M3.71927 14.1754C3.75435 14.1053 3.78944 14.0351 3.78944 13.9649L2.2105 13.4035C2.17541 13.4737 2.14032 13.5439 2.14032 13.614L3.71927 14.1754Z" fill="white"/>
        <path d="M29.9298 5.75439C30 5.82456 30.0702 5.82456 30.1403 5.89474L31.0877 4.52632C31.0175 4.45614 30.9474 4.45614 30.8772 4.38597L29.9298 5.75439Z" fill="white"/>
        <path d="M31.6491 7.15789C31.7193 7.22807 31.7544 7.26316 31.8245 7.33333L32.9474 6.10526C32.8772 6.03509 32.8421 6 32.7719 5.92982L31.6491 7.15789Z" fill="white"/>
        <path d="M29.2982 5.33333C29.3684 5.36842 29.4386 5.40351 29.5087 5.47368L30.3859 4.07017C30.3158 4.03508 30.2456 4 30.1754 3.92982L29.2982 5.33333Z" fill="white"/>
        <path d="M2.70173 20C2.70173 19.9298 2.70173 19.9298 2.70173 19.8596H1.01752C1.01752 19.9298 1.01752 19.9298 1.01752 20C1.01752 20.0351 1.01752 20.0702 1.01752 20.0702H2.70173C2.70173 20.0702 2.70173 20.0702 2.70173 20Z" fill="white"/>
        <path d="M7.71927 7.82456C7.78944 7.75439 7.82453 7.7193 7.8947 7.64912L6.73681 6.49123C6.66663 6.5614 6.63155 6.59649 6.56137 6.66667L7.71927 7.82456Z" fill="white"/>
        <path d="M7.68417 32.1754L6.52628 33.3333C6.59645 33.4035 6.63154 33.4386 6.70171 33.5088L7.85961 32.3509C7.78943 32.3158 7.75435 32.2456 7.68417 32.1754Z" fill="white"/>
        <path d="M32.3859 7.82456L33.5438 6.66667C33.4737 6.59649 33.4386 6.5614 33.3684 6.49123L32.2105 7.68421C32.2807 7.7193 32.3158 7.78947 32.3859 7.82456Z" fill="white"/>
        <path d="M37.3684 20C37.3684 20.0702 37.3684 20.0702 37.3684 20.1403H39.0526C39.0526 20.0702 39.0526 20.0702 39.0526 20C39.0526 19.9649 39.0526 19.9298 39.0526 19.8947H37.3684C37.3684 19.9298 37.3684 19.9649 37.3684 20Z" fill="white"/>
        <path d="M32.3509 32.2105C32.2807 32.2807 32.2456 32.3158 32.1754 32.386L33.3333 33.5439C33.4035 33.4737 33.4386 33.4386 33.5088 33.3684L32.3509 32.2105Z" fill="white"/>
        <path d="M36.9123 16.1404C36.9473 16.2105 36.9474 16.3158 36.9824 16.3509L38.5965 16C38.5614 15.9298 38.5614 15.8246 38.5263 15.7895L36.9123 16.1404Z" fill="white"/>
        <path d="M36.7719 15.4386C36.807 15.5088 36.8421 15.614 36.8421 15.6491L38.4561 15.2281C38.421 15.1579 38.3859 15.0877 38.3859 15.0175L36.7719 15.4386Z" fill="white"/>
        <path d="M36.5263 14.7018C36.5614 14.7719 36.5965 14.8421 36.5965 14.9123L38.1754 14.4211C38.1403 14.3509 38.1052 14.2807 38.1052 14.2105L36.5263 14.7018Z" fill="white"/>
        <path d="M37.0877 16.9123C37.1228 16.9825 37.1228 17.0877 37.1228 17.1228L38.7719 16.8421C38.7368 16.7719 38.7368 16.6667 38.7368 16.6316L37.0877 16.9123Z" fill="white"/>
        <path d="M37.193 17.6491C37.193 17.7193 37.228 17.8246 37.228 17.8947L38.8772 17.6842C38.8772 17.614 38.8421 17.5088 38.8421 17.4386L37.193 17.6491Z" fill="white"/>
        <path d="M36.2807 13.9649C36.3158 14.0351 36.3508 14.1053 36.3508 14.1754L37.9298 13.614C37.8947 13.5439 37.8596 13.4737 37.8596 13.4035L36.2807 13.9649Z" fill="white"/>
        <path d="M38.9473 18.2807L37.2982 18.421C37.2982 18.4912 37.2982 18.5965 37.3333 18.6667L38.9824 18.5263C38.9824 18.421 38.9824 18.3158 38.9473 18.2807Z" fill="white"/>
        <path d="M31.0877 6.66667C31.1579 6.73684 31.1929 6.77193 31.2631 6.8421L32.3157 5.54386C32.2456 5.47368 32.2105 5.4386 32.1403 5.36842L31.0877 6.66667Z" fill="white"/>
        <path d="M9.40347 6.31579C9.47364 6.24561 9.50873 6.21053 9.614 6.17544L8.59645 4.87719C8.52628 4.94737 8.49119 4.98245 8.38593 5.01754L9.40347 6.31579Z" fill="white"/>
        <path d="M9.99998 5.85965C10.0702 5.78947 10.1403 5.78947 10.2105 5.7193L9.26314 4.35088C9.19296 4.42105 9.12279 4.42105 9.05261 4.49123L9.99998 5.85965Z" fill="white"/>
        <path d="M8.84209 6.77193C8.91227 6.70175 8.94735 6.66666 9.01753 6.59649L7.9649 5.29824C7.89472 5.36842 7.85963 5.4035 7.78946 5.47368L8.84209 6.77193Z" fill="white"/>
        <path d="M8.28067 7.26315C8.35085 7.19298 8.38594 7.15789 8.45611 7.08772L7.33331 5.85965C7.26313 5.92982 7.22804 5.96491 7.15787 6.03508L8.28067 7.26315Z" fill="white"/>
        <path d="M11.9298 4.66666C12 4.63158 12.0701 4.59649 12.1403 4.5614L11.3684 3.08772C11.2982 3.1228 11.228 3.15789 11.1579 3.19298L11.9298 4.66666Z" fill="white"/>
        <path d="M7.19294 8.35087C7.26312 8.2807 7.29821 8.24561 7.36838 8.17544L6.14031 7.05263C6.07014 7.1228 6.03505 7.15789 5.96487 7.22807L7.19294 8.35087Z" fill="white"/>
        <path d="M11.2631 5.01754C11.3333 4.98245 11.4035 4.94737 11.4737 4.91228L10.6315 3.47368C10.5614 3.50877 10.4912 3.54386 10.421 3.57895L11.2631 5.01754Z" fill="white"/>
        <path d="M12.5965 4.31579C12.6666 4.2807 12.7368 4.24561 12.807 4.21052L12.1052 2.70175C12.0351 2.73684 11.9649 2.77193 11.8947 2.80701L12.5965 4.31579Z" fill="white"/>
        <path d="M10.5965 5.43859C10.6666 5.40351 10.7368 5.36842 10.807 5.29824L9.92979 3.89473C9.85962 3.92982 9.78944 3.96491 9.71927 4.03508L10.5965 5.43859Z" fill="white"/>
        <path d="M4.28068 12.7719C4.31577 12.7018 4.35086 12.6316 4.35086 12.5614L2.84209 11.8596C2.84209 11.9298 2.807 12 2.77191 12.0702L4.28068 12.7719Z" fill="white"/>
        <path d="M4.98242 11.4386C5.01751 11.3684 5.05259 11.2982 5.08768 11.2281L3.64909 10.386C3.614 10.4561 3.57891 10.5263 3.54382 10.5965L4.98242 11.4386Z" fill="white"/>
        <path d="M4.63154 12.0702C4.66663 12 4.70172 11.9298 4.73681 11.8596L3.26312 11.0877C3.22804 11.1228 3.15786 11.2281 3.12277 11.2982L4.63154 12.0702Z" fill="white"/>
        <path d="M6.70172 8.91228C6.77189 8.8421 6.80698 8.80702 6.87716 8.73684L5.57891 7.68421C5.50874 7.75439 5.47365 7.78947 5.40347 7.85965L6.70172 8.91228Z" fill="white"/>
        <path d="M3.96489 13.4737C3.99998 13.4035 4.03506 13.3333 4.03506 13.2632L2.4912 12.6316C2.4912 12.7018 2.45612 12.7368 2.45612 12.8421L3.96489 13.4737Z" fill="white"/>
        <path d="M5.36838 10.7719C5.43856 10.7018 5.43856 10.6316 5.50873 10.5614L4.10523 9.68421C4.03505 9.75438 4.03505 9.82456 3.96487 9.89473L5.36838 10.7719Z" fill="white"/>
        <path d="M6.24557 9.54386C6.31575 9.47368 6.31575 9.4386 6.38592 9.33333L5.08768 8.31579C5.0175 8.38596 4.98241 8.42105 4.94733 8.52631L6.24557 9.54386Z" fill="white"/>
        <path d="M25.8947 3.64912C25.9649 3.68421 26.0351 3.7193 26.1052 3.7193L26.7017 2.14035C26.6316 2.14035 26.5614 2.10526 26.4912 2.10526L25.8947 3.64912Z" fill="white"/>
        <path d="M5.78944 10.1404C5.85962 10.0702 5.85962 10 5.92979 9.92982L4.56137 9.01754C4.4912 9.08772 4.4912 9.15789 4.42102 9.22807L5.78944 10.1404Z" fill="white"/>
        <path d="M22.2456 2.77193C22.3158 2.77193 22.421 2.80702 22.4912 2.80702L22.7017 1.15789C22.6315 1.15789 22.5263 1.1228 22.4561 1.1228L22.2456 2.77193Z" fill="white"/>
        <path d="M21.4737 2.70175C21.5438 2.70175 21.6491 2.70175 21.7193 2.73684L21.8596 1.08772C21.7895 1.08772 21.6842 1.08772 21.614 1.05263L21.4737 2.70175Z" fill="white"/>
        <path d="M20.7017 2.66667C20.7719 2.66667 20.8772 2.66667 20.9473 2.66667L21.0175 0.982454C20.9473 0.982454 20.8421 0.982454 20.7719 0.982454L20.7017 2.66667Z" fill="white"/>
        <path d="M22.9473 2.91228C23.0175 2.94736 23.1228 2.94736 23.1579 2.94736L23.4736 1.29824C23.4035 1.26315 23.2982 1.26315 23.2631 1.26315L22.9473 2.91228Z" fill="white"/>
        <path d="M13.2982 4C13.3684 3.96491 13.4386 3.92982 13.5087 3.92982L12.8772 2.38596C12.807 2.42105 12.7368 2.45614 12.6666 2.45614L13.2982 4Z" fill="white"/>
        <path d="M25.193 3.4386C25.2631 3.47368 25.3333 3.50877 25.4035 3.50877L25.9298 1.92982C25.8596 1.89474 25.7895 1.85965 25.7193 1.85965L25.193 3.4386Z" fill="white"/>
        <path d="M23.7193 3.05263C23.7894 3.08772 23.8947 3.08772 23.9298 3.1228L24.2807 1.50877C24.2105 1.47368 24.1052 1.47368 24.0701 1.43859L23.7193 3.05263Z" fill="white"/>
        <path d="M24.4561 3.19298C24.5263 3.22807 24.6316 3.26316 24.6666 3.26316L25.1228 1.64912C25.0526 1.61403 24.9473 1.57895 24.9123 1.57895L24.4561 3.19298Z" fill="white"/>
        <path d="M19.9298 0.982454V2.66667C19.9649 2.66667 20 2.66667 20.035 2.66667C20.0701 2.66667 20.1052 2.66667 20.1403 2.66667V0.982454C20.1052 0.982454 20.0701 0.982454 20.035 0.982454C20 0.982454 19.9649 0.982454 19.9298 0.982454Z" fill="white"/>
        <path d="M14.7017 3.47368C14.7719 3.43859 14.8421 3.40351 14.9123 3.40351L14.421 1.82456C14.3509 1.85965 14.2807 1.89473 14.2105 1.89473L14.7017 3.47368Z" fill="white"/>
        <path d="M36.9824 23.6842C36.9474 23.7544 36.9473 23.8246 36.9123 23.8947L38.5263 24.2456C38.5614 24.1754 38.5614 24.1053 38.5965 24.0351L36.9824 23.6842Z" fill="white"/>
        <path d="M16.1403 3.05263C16.2105 3.01754 16.3158 3.01754 16.3509 2.98246L16 1.36842C15.9298 1.40351 15.8245 1.40351 15.7895 1.4386L16.1403 3.05263Z" fill="white"/>
        <path d="M13.9649 3.75439C14.0351 3.7193 14.1052 3.68421 14.1754 3.68421L13.6491 2.10526C13.5789 2.14035 13.5087 2.17544 13.4386 2.17544L13.9649 3.75439Z" fill="white"/>
        <path d="M17.6491 2.80702C17.7193 2.80702 17.8245 2.77193 17.8596 2.77193L17.6491 1.1228C17.5789 1.1228 17.4737 1.15789 17.4386 1.15789L17.6491 2.80702Z" fill="white"/>
        <path d="M18.421 2.70175C18.4912 2.70175 18.5965 2.70175 18.6315 2.66667L18.4912 1.01754C18.421 1.01754 18.3158 1.01754 18.2807 1.05263L18.421 2.70175Z" fill="white"/>
        <path d="M19.1579 2.66667C19.228 2.66667 19.3333 2.66667 19.3684 2.66667L19.2982 0.982454C19.228 0.982454 19.1228 0.982454 19.0877 0.982454L19.1579 2.66667Z" fill="white"/>
        <path d="M16.9123 2.91228C16.9824 2.87719 17.0877 2.87719 17.1228 2.87719L16.8421 1.22807C16.7719 1.22807 16.6666 1.26316 16.6316 1.26316L16.9123 2.91228Z" fill="white"/>
        <path d="M37.1228 22.9123C37.0877 22.9825 37.0877 23.0877 37.0877 23.1579L38.7368 23.4386C38.7719 23.3684 38.7719 23.2632 38.7719 23.2281L37.1228 22.9123Z" fill="white"/>
        <path d="M37.3333 19.1579C37.3333 19.2281 37.3333 19.3333 37.3333 19.4035L39.0175 19.3333C39.0175 19.2632 39.0175 19.1579 39.0175 19.0877L37.3333 19.1579Z" fill="white"/>
        <path d="M37.228 22.1754C37.228 22.2456 37.193 22.3509 37.193 22.386L38.8421 22.5965C38.8421 22.5263 38.8772 22.421 38.8772 22.386L37.228 22.1754Z" fill="white"/>
        <path d="M37.3333 20.6667C37.3333 20.7368 37.3333 20.8421 37.3333 20.9123L39.0175 20.9825C39.0175 20.9123 39.0175 20.807 39.0175 20.7368L37.3333 20.6667Z" fill="white"/>
        <path d="M37.3333 21.4386C37.3333 21.5088 37.3333 21.614 37.2982 21.6842L38.9473 21.8246C38.9473 21.7544 38.9473 21.6491 38.9824 21.5789L37.3333 21.4386Z" fill="white"/>
        <path d="M20.0351 36.9123C10.7017 36.9123 3.15787 29.3333 3.15787 20C3.15787 10.6667 10.7017 3.08772 20.0351 3.08772C29.3684 3.08772 36.9123 10.6667 36.9123 20C36.9123 29.3333 29.3333 36.9123 20.0351 36.9123ZM20.0351 3.61403C10.9824 3.61403 3.6491 10.9825 3.6491 20.0351C3.6491 29.0877 11.0175 36.4561 20.0351 36.4561C29.0526 36.4561 36.421 29.0877 36.421 20.0351C36.421 10.9825 29.0877 3.61403 20.0351 3.61403Z" fill="white"/>
        <path d="M11.193 24.9123C11.193 25.1228 11.3333 25.2632 11.5439 25.2632H28.3509C28.5614 25.2632 28.7018 25.1228 28.7018 24.9123C28.7018 24.7018 28.5614 24.5614 28.3509 24.5614H11.5439C11.3684 24.5614 11.193 24.7018 11.193 24.9123Z" fill="white"/>
        <path d="M11.193 15.0526C11.193 15.2632 11.3333 15.4035 11.5439 15.4035H28.3509C28.5614 15.4035 28.7018 15.2632 28.7018 15.0526C28.7018 14.8421 28.5614 14.7018 28.3509 14.7018H11.5439C11.3684 14.7368 11.193 14.8772 11.193 15.0526Z" fill="white"/>
        <path d="M11.193 20C11.193 20.2105 11.3333 20.3509 11.5439 20.3509H28.3509C28.5614 20.3509 28.7018 20.2105 28.7018 20C28.7018 19.7895 28.5614 19.6491 28.3509 19.6491H11.5439C11.3684 19.6491 11.193 19.7895 11.193 20Z" fill="white"/>
    </g>
    <defs>
        <clipPath id="clip0">
            <rect width="40" height="40" fill="white"/>
        </clipPath>
    </defs>
</svg>
