<svg width="40" height="40" viewBox="0 0 40 40" fill="none" xmlns="http://www.w3.org/2000/svg">
    <path opacity="0.1" d="M20 40C31.0457 40 40 31.0457 40 20C40 8.95431 31.0457 0 20 0C8.95431 0 0 8.95431 0 20C0 31.0457 8.95431 40 20 40Z" fill="#2A0C3E"/>
    <path d="M20.0703 40C9.05277 40 0.0703125 31.0526 0.0703125 20C0.0703125 8.98246 9.05277 0 20.0703 0C31.0879 0 40.0703 8.94737 40.0703 20C40.0703 31.0526 31.0879 40 20.0703 40ZM20.0703 0.491228C9.29838 0.491228 0.561541 9.26316 0.561541 20C0.561541 30.7368 9.33347 39.5088 20.0703 39.5088C30.8072 39.5088 39.5791 30.7368 39.5791 20C39.5791 9.26316 30.8422 0.491228 20.0703 0.491228Z" fill="white"/>
    <path d="M12.8068 35.7895C12.7366 35.7544 12.6665 35.7193 12.5963 35.6842L11.8945 37.193C11.9647 37.2281 12.0349 37.2632 12.1051 37.2982L12.8068 35.7895Z" fill="white"/>
    <path d="M7.3332 31.7895C7.26302 31.7193 7.22793 31.6842 7.15776 31.614L5.92969 32.7368C5.99986 32.807 6.03495 32.8421 6.10513 32.9123L7.3332 31.7895Z" fill="white"/>
    <path d="M9.57914 33.8246C9.50897 33.7544 9.47388 33.7193 9.36862 33.6842L8.35107 34.9825C8.42125 35.0526 8.45634 35.0877 8.5616 35.1228L9.57914 33.8246Z" fill="white"/>
    <path d="M8.98247 33.3683C8.91229 33.2981 8.8772 33.263 8.80703 33.1929L7.75439 34.4911C7.82457 34.5613 7.85966 34.5964 7.92983 34.6666L8.98247 33.3683Z" fill="white"/>
    <path d="M6.35071 30.6666C6.28053 30.5964 6.24544 30.5613 6.21036 30.4561L4.91211 31.4736C4.98228 31.5438 4.98228 31.614 5.05246 31.6841L6.35071 30.6666Z" fill="white"/>
    <path d="M6.80718 31.2281C6.737 31.1579 6.70192 31.1228 6.63174 31.0526L5.3335 32.1052C5.40367 32.1754 5.43876 32.2105 5.50893 32.2807L6.80718 31.2281Z" fill="white"/>
    <path d="M5.47355 29.4386C5.40337 29.3684 5.40337 29.2982 5.3332 29.228L3.92969 30.1052C3.99986 30.1754 3.99986 30.2456 4.07004 30.3157L5.47355 29.4386Z" fill="white"/>
    <path d="M5.89451 30.0351C5.82434 29.9649 5.82434 29.8948 5.75416 29.8246L4.38574 30.772C4.45592 30.8421 4.45592 30.9123 4.52609 30.9825L5.89451 30.0351Z" fill="white"/>
    <path d="M8.42129 32.8771C8.35112 32.8069 8.31603 32.7718 8.24585 32.7017L7.12305 33.9297C7.19322 33.9999 7.22831 34.035 7.29849 34.1052L8.42129 32.8771Z" fill="white"/>
    <path d="M5.0878 28.7719C5.05272 28.7018 5.01763 28.6316 4.98254 28.5614L3.54395 29.4035C3.57903 29.4737 3.61412 29.5439 3.64921 29.614L5.0878 28.7719Z" fill="white"/>
    <path d="M12.1055 35.4385C12.0353 35.4034 11.9652 35.3683 11.895 35.3333L11.123 36.8069C11.1932 36.842 11.2634 36.8771 11.3336 36.9122L12.1055 35.4385Z" fill="white"/>
    <path d="M11.4735 35.0877C11.4034 35.0526 11.3332 35.0175 11.263 34.9824L10.4209 36.421C10.4911 36.4561 10.5612 36.4912 10.6314 36.5263L11.4735 35.0877Z" fill="white"/>
    <path d="M13.509 36.1052C13.4389 36.0701 13.3687 36.035 13.2985 36.035L12.6318 37.5438C12.702 37.5789 12.7722 37.614 12.8424 37.614L13.509 36.1052Z" fill="white"/>
    <path d="M14.9474 36.5964C14.8772 36.5613 14.807 36.5262 14.7368 36.5262L14.2456 38.1052C14.3158 38.1403 14.386 38.1754 14.4561 38.1754L14.9474 36.5964Z" fill="white"/>
    <path d="M10.807 34.7018C10.7368 34.6667 10.6666 34.6316 10.5964 34.5614L9.71924 35.9649C9.78941 36 9.85959 36.0351 9.92976 36.1053L10.807 34.7018Z" fill="white"/>
    <path d="M10.2106 34.2807C10.1405 34.2106 10.0703 34.2106 10.0001 34.1404L9.05273 35.5088C9.12291 35.579 9.19309 35.579 9.26326 35.6492L10.2106 34.2807Z" fill="white"/>
    <path d="M14.2108 36.386C14.1407 36.3509 14.0705 36.3158 14.0003 36.3158L13.4038 37.8947C13.474 37.9298 13.5442 37.9649 13.6143 37.9649L14.2108 36.386Z" fill="white"/>
    <path d="M3.78926 26.0701C3.75417 26 3.71908 25.9298 3.71908 25.8596L2.14014 26.421C2.17522 26.4912 2.21031 26.5614 2.21031 26.6315L3.78926 26.0701Z" fill="white"/>
    <path d="M2.70186 19.3683C2.70186 19.2982 2.70186 19.1929 2.70186 19.1227L1.05273 19.0175C1.05273 19.0876 1.05273 19.1929 1.05273 19.2631L2.70186 19.3683Z" fill="white"/>
    <path d="M2.77217 18.5964C2.77217 18.5262 2.77217 18.421 2.80726 18.3508L1.15813 18.2104C1.15813 18.2806 1.15813 18.3859 1.12305 18.4561L2.77217 18.5964Z" fill="white"/>
    <path d="M2.84199 17.8596C2.84199 17.7894 2.87708 17.6841 2.87708 17.614L1.22796 17.4034C1.22796 17.4736 1.19287 17.5789 1.19287 17.6491L2.84199 17.8596Z" fill="white"/>
    <path d="M2.70186 20.8772C2.70186 20.807 2.70186 20.7018 2.70186 20.6316L1.05273 20.6667C1.05273 20.7369 1.05273 20.8421 1.05273 20.9123L2.70186 20.8772Z" fill="white"/>
    <path d="M2.7721 21.614C2.7721 21.5438 2.7721 21.4386 2.73701 21.3684L1.08789 21.5088C1.08789 21.5789 1.08789 21.6842 1.12298 21.7544L2.7721 21.614Z" fill="white"/>
    <path d="M2.94746 17.0877C2.98255 17.0175 2.98255 16.9122 3.01764 16.8771L1.36852 16.5964C1.36852 16.6666 1.33343 16.7719 1.29834 16.807L2.94746 17.0877Z" fill="white"/>
    <path d="M3.26345 15.6139C3.29854 15.5438 3.33362 15.4385 3.33362 15.4034L1.71959 14.9473C1.6845 15.0174 1.64941 15.1227 1.64941 15.1578L3.26345 15.6139Z" fill="white"/>
    <path d="M3.08767 16.3508C3.12276 16.2807 3.12276 16.1754 3.15784 16.1403L1.54381 15.7894C1.50872 15.8596 1.50872 15.9649 1.47363 16L3.08767 16.3508Z" fill="white"/>
    <path d="M2.84241 22.3859C2.84241 22.3157 2.80733 22.2104 2.80733 22.1403L1.1582 22.3508C1.1582 22.421 1.19329 22.5262 1.19329 22.5613L2.84241 22.3859Z" fill="white"/>
    <path d="M4.70199 28.1053C4.66691 28.0351 4.63182 27.965 4.59673 27.8948L3.12305 28.6667C3.15813 28.7369 3.19322 28.8071 3.22831 28.8772L4.70199 28.1053Z" fill="white"/>
    <path d="M15.6491 36.807C15.5789 36.7719 15.4736 36.7368 15.4386 36.7368L14.9824 38.3509C15.0526 38.3859 15.1228 38.421 15.1929 38.421L15.6491 36.807Z" fill="white"/>
    <path d="M4.07009 26.7368C4.035 26.6666 3.99991 26.5964 3.99991 26.5262L2.45605 27.1578C2.49114 27.228 2.52623 27.2982 2.52623 27.3683L4.07009 26.7368Z" fill="white"/>
    <path d="M4.35092 27.4386C4.31583 27.3684 4.28074 27.2982 4.28074 27.228L2.77197 27.9298C2.80706 28 2.84215 28.0701 2.84215 28.1403L4.35092 27.4386Z" fill="white"/>
    <path d="M3.54407 25.3333C3.50899 25.2632 3.4739 25.193 3.4739 25.1228L1.85986 25.614C1.89495 25.6842 1.93004 25.7544 1.93004 25.8246L3.54407 25.3333Z" fill="white"/>
    <path d="M3.33362 24.5965C3.29854 24.5263 3.26345 24.4562 3.26345 24.386L1.64941 24.807C1.6845 24.8772 1.71959 24.9474 1.71959 25.0176L3.33362 24.5965Z" fill="white"/>
    <path d="M2.98248 23.1228C2.94739 23.0526 2.94739 22.9474 2.91231 22.8772L1.26318 23.1579C1.26318 23.2281 1.29827 23.3333 1.33336 23.3684L2.98248 23.1228Z" fill="white"/>
    <path d="M3.12269 23.8947C3.0876 23.8246 3.0876 23.7544 3.05251 23.6842L1.43848 24.0351C1.47356 24.1053 1.47356 24.1754 1.50865 24.2456L3.12269 23.8947Z" fill="white"/>
    <path d="M31.2985 33.2632C31.2283 33.3334 31.1932 33.3684 31.123 33.4386L32.1757 34.7369C32.2459 34.6667 32.2809 34.6316 32.3511 34.5965L31.2985 33.2632Z" fill="white"/>
    <path d="M32.9474 31.649C32.8772 31.7192 32.8421 31.7543 32.772 31.8245L34 32.9473C34.0702 32.8771 34.1053 32.842 34.1755 32.7719L32.9474 31.649Z" fill="white"/>
    <path d="M31.8595 32.7368C31.7893 32.807 31.7543 32.8421 31.6841 32.9123L32.8069 34.1403C32.8771 34.0701 32.9121 34.0351 32.9823 33.9649L31.8595 32.7368Z" fill="white"/>
    <path d="M33.4386 31.0876C33.3684 31.1578 33.3334 31.1929 33.2632 31.2631L34.5614 32.3157C34.6316 32.2455 34.6667 32.2105 34.7369 32.1403L33.4386 31.0876Z" fill="white"/>
    <path d="M33.8947 30.4912C33.8246 30.5614 33.7895 30.6316 33.7544 30.7017L35.0526 31.7193C35.1228 31.6491 35.1579 31.5789 35.193 31.5088L33.8947 30.4912Z" fill="white"/>
    <path d="M30.1055 34.1754C30.0354 34.2456 29.9652 34.2456 29.895 34.3158L30.8424 35.6842C30.9126 35.614 30.9827 35.614 31.0529 35.5438L30.1055 34.1754Z" fill="white"/>
    <path d="M34.3508 29.8596C34.2806 29.9298 34.2806 30 34.2104 30.0701L35.5789 31.0175C35.6491 30.9473 35.6491 30.8772 35.7192 30.807L34.3508 29.8596Z" fill="white"/>
    <path d="M30.7369 33.7192C30.6667 33.7894 30.6316 33.8245 30.5264 33.8596L31.5439 35.1578C31.6141 35.0877 31.6492 35.0526 31.7544 35.0175L30.7369 33.7192Z" fill="white"/>
    <path d="M3.47348 14.9122C3.50857 14.842 3.54365 14.7719 3.54365 14.7017L1.96471 14.2104C1.92962 14.2806 1.89453 14.3508 1.89453 14.421L3.47348 14.9122Z" fill="white"/>
    <path d="M36.8773 24.421C36.8422 24.4912 36.8071 24.5614 36.8071 24.6315L38.4212 25.0526C38.4563 24.9824 38.4913 24.9123 38.4913 24.8421L36.8773 24.421Z" fill="white"/>
    <path d="M36.4208 25.8596C36.3857 25.9298 36.3506 26 36.3506 26.0701L37.9295 26.6315C37.9646 26.5614 37.9997 26.4912 37.9997 26.421L36.4208 25.8596Z" fill="white"/>
    <path d="M36.6669 25.1228C36.6318 25.193 36.5967 25.2632 36.5967 25.3333L38.1756 25.8246C38.2107 25.7544 38.2458 25.6842 38.2458 25.614L36.6669 25.1228Z" fill="white"/>
    <path d="M16.3861 36.9824C16.3159 36.9473 16.2107 36.9473 16.1756 36.9122L15.8247 38.5263C15.8949 38.5614 16.0001 38.5614 16.0352 38.5964L16.3861 36.9824Z" fill="white"/>
    <path d="M29.5089 34.5964C29.4387 34.6666 29.3685 34.6666 29.2983 34.7368L30.1755 36.1403C30.2457 36.1052 30.3159 36.0701 30.3861 35.9999L29.5089 34.5964Z" fill="white"/>
    <path d="M35.5086 27.9648C35.4735 28.035 35.4384 28.1052 35.4033 28.1754L36.877 28.9473C36.9121 28.8771 36.9472 28.8069 36.9823 28.7368L35.5086 27.9648Z" fill="white"/>
    <path d="M35.158 28.5964C35.1229 28.6666 35.0878 28.7368 35.0527 28.807L36.4913 29.6491C36.5264 29.5789 36.5615 29.5087 36.5966 29.4385L35.158 28.5964Z" fill="white"/>
    <path d="M34.7717 29.2632C34.7366 29.3334 34.7015 29.4035 34.6313 29.4737L36.0349 30.3509C36.105 30.2807 36.105 30.2106 36.1752 30.1404L34.7717 29.2632Z" fill="white"/>
    <path d="M35.8597 27.2631C35.8246 27.3332 35.7895 27.4034 35.7544 27.4736L37.2632 28.1753C37.2983 28.1052 37.3333 28.035 37.3684 27.9648L35.8597 27.2631Z" fill="white"/>
    <path d="M36.1756 26.5614C36.1406 26.6316 36.1055 26.7018 36.1055 26.7719L37.6493 27.4035C37.6844 27.3333 37.7195 27.2632 37.7195 27.193L36.1756 26.5614Z" fill="white"/>
    <path d="M20.9473 37.3333C20.8772 37.3333 20.7719 37.3333 20.7368 37.3333L20.807 39.0175C20.8772 39.0175 20.9824 39.0175 21.0526 39.0175L20.9473 37.3333Z" fill="white"/>
    <path d="M19.4037 37.3684C19.3336 37.3684 19.2283 37.3684 19.1932 37.3684L19.123 39.0526C19.1932 39.0526 19.2985 39.0526 19.3336 39.0526L19.4037 37.3684Z" fill="white"/>
    <path d="M20.1754 39.0526V37.3684C20.1403 37.3684 20.1052 37.3684 20.0701 37.3684C20.035 37.3684 19.9999 37.3684 19.9648 37.3684V39.0526C19.9999 39.0526 20.035 39.0526 20.0701 39.0526C20.1403 39.0526 20.1403 39.0526 20.1754 39.0526Z" fill="white"/>
    <path d="M21.7192 37.2982C21.6491 37.2982 21.5438 37.2982 21.4736 37.3333L21.614 38.9824C21.6842 38.9824 21.7894 38.9824 21.8596 38.9473L21.7192 37.2982Z" fill="white"/>
    <path d="M17.123 37.1227C17.0528 37.1227 16.9476 37.0876 16.9125 37.0876L16.5967 38.7368C16.6669 38.7368 16.7721 38.7719 16.8072 38.7719L17.123 37.1227Z" fill="white"/>
    <path d="M22.4561 37.228C22.386 37.228 22.2807 37.2631 22.2456 37.2631L22.4561 38.9122C22.5263 38.9122 22.6316 38.8771 22.7017 38.8771L22.4561 37.228Z" fill="white"/>
    <path d="M18.6316 37.3333C18.5615 37.3333 18.4562 37.3333 18.4211 37.2982L18.2808 38.9473C18.3509 38.9473 18.4562 38.9473 18.4913 38.9824L18.6316 37.3333Z" fill="white"/>
    <path d="M17.8947 37.2281C17.8245 37.2281 17.7192 37.193 17.6842 37.193L17.4736 38.8421C17.5438 38.8421 17.6491 38.8772 17.6842 38.8772L17.8947 37.2281Z" fill="white"/>
    <path d="M28.1754 35.3684C28.1052 35.4035 28.035 35.4386 27.9648 35.4737L28.7368 36.9474C28.8069 36.9123 28.8771 36.8772 28.9473 36.8421L28.1754 35.3684Z" fill="white"/>
    <path d="M27.5089 35.7192C27.4387 35.7543 27.3685 35.7894 27.2983 35.8245L28.0001 37.3333C28.0703 37.2982 28.1404 37.2631 28.2106 37.228L27.5089 35.7192Z" fill="white"/>
    <path d="M26.8072 36C26.737 36.0351 26.6669 36.0702 26.5967 36.0702L27.2283 37.614C27.2984 37.5789 27.3686 37.5439 27.4388 37.5439L26.8072 36Z" fill="white"/>
    <path d="M23.1929 37.0876C23.1228 37.0876 23.0175 37.1227 22.9824 37.1227L23.2631 38.7719C23.3333 38.7719 23.4386 38.7368 23.4736 38.7368L23.1929 37.0876Z" fill="white"/>
    <path d="M28.8419 35.0176C28.7717 35.0527 28.7015 35.0878 28.6313 35.1228L29.4735 36.5614C29.5436 36.5263 29.6138 36.4913 29.684 36.4562L28.8419 35.0176Z" fill="white"/>
    <path d="M26.1055 36.2806C26.0354 36.3157 25.9652 36.3508 25.895 36.3508L26.4564 37.9298C26.5266 37.8947 26.5968 37.8596 26.6669 37.8596L26.1055 36.2806Z" fill="white"/>
    <path d="M23.9298 36.9474C23.8596 36.9825 23.7543 36.9825 23.7192 37.0176L24.0701 38.6316C24.1403 38.5965 24.2456 38.5965 24.2806 38.5614L23.9298 36.9474Z" fill="white"/>
    <path d="M25.4034 36.5262C25.3332 36.5613 25.263 36.5964 25.1929 36.5964L25.6841 38.1754C25.7543 38.1403 25.8244 38.1052 25.8946 38.1052L25.4034 36.5262Z" fill="white"/>
    <path d="M24.6666 36.7719C24.5964 36.8069 24.5262 36.842 24.4561 36.842L24.8771 38.4561C24.9473 38.421 25.0525 38.3859 25.0876 38.3859L24.6666 36.7719Z" fill="white"/>
    <path d="M15.4738 3.26319C15.544 3.2281 15.6141 3.19301 15.6843 3.19301L15.2633 1.57898C15.1931 1.61407 15.0878 1.64915 15.0527 1.64915L15.4738 3.26319Z" fill="white"/>
    <path d="M33.7896 9.36838C33.8597 9.43855 33.8948 9.47364 33.9299 9.5789L35.2281 8.56136C35.158 8.49118 35.1229 8.45609 35.0878 8.35083L33.7896 9.36838Z" fill="white"/>
    <path d="M34.2456 9.99998C34.3158 10.0702 34.3158 10.1403 34.386 10.2105L35.7544 9.26314C35.6842 9.19296 35.6842 9.12279 35.614 9.05261L34.2456 9.99998Z" fill="white"/>
    <path d="M33.3335 8.77187C33.4037 8.84205 33.4388 8.87713 33.5089 8.94731L34.8072 7.89468C34.737 7.8245 34.7019 7.78941 34.6317 7.71924L33.3335 8.77187Z" fill="white"/>
    <path d="M34.667 10.5964C34.7021 10.6666 34.7372 10.7368 34.8073 10.807L36.2109 9.92976C36.1758 9.85959 36.1407 9.78941 36.0705 9.71924L34.667 10.5964Z" fill="white"/>
    <path d="M35.0527 11.228C35.0878 11.2981 35.1229 11.3683 35.158 11.4385L36.5966 10.5964C36.5615 10.5262 36.5264 10.456 36.4913 10.3859L35.0527 11.228Z" fill="white"/>
    <path d="M35.7896 12.5965C35.8246 12.6667 35.8597 12.7369 35.8948 12.8071L37.4036 12.1053C37.3685 12.0351 37.3334 11.965 37.2983 11.8948L35.7896 12.5965Z" fill="white"/>
    <path d="M32.8071 8.24561C32.8773 8.31579 32.9124 8.35087 32.9826 8.42105L34.2106 7.29824C34.1405 7.22807 34.1054 7.19298 34.0352 7.1228L32.8071 8.24561Z" fill="white"/>
    <path d="M35.4385 11.8947C35.4736 11.9649 35.5087 12.0351 35.5437 12.1053L37.0174 11.3333C36.9823 11.2632 36.9472 11.193 36.9122 11.1228L35.4385 11.8947Z" fill="white"/>
    <path d="M28.7017 4.94739C28.7718 4.98247 28.842 5.01756 28.9122 5.05265L29.7543 3.61405C29.6841 3.57896 29.6139 3.54388 29.5438 3.50879L28.7017 4.94739Z" fill="white"/>
    <path d="M28.0352 4.56133C28.1053 4.59642 28.1755 4.63151 28.2457 4.66659L29.0176 3.19291C28.9474 3.15782 28.8773 3.12273 28.8071 3.08765L28.0352 4.56133Z" fill="white"/>
    <path d="M36.0703 13.2632C36.1054 13.3333 36.1405 13.4035 36.1405 13.4737L37.6843 12.8421C37.6493 12.7719 37.6142 12.7018 37.6142 12.6316L36.0703 13.2632Z" fill="white"/>
    <path d="M26.6665 3.92985C26.7367 3.96493 26.8069 4.00002 26.877 4.00002L27.5086 2.45616C27.4384 2.45616 27.3683 2.42107 27.2981 2.38599L26.6665 3.92985Z" fill="white"/>
    <path d="M27.3335 4.24559C27.4037 4.28068 27.4738 4.31576 27.544 4.35085L28.2458 2.84208C28.1756 2.80699 28.1054 2.7719 28.0352 2.73682L27.3335 4.24559Z" fill="white"/>
    <path d="M30.5967 6.17544C30.6669 6.24562 30.7019 6.28071 30.8072 6.31579L31.8247 5.01755C31.7546 4.94737 31.7195 4.91228 31.6142 4.8772L30.5967 6.17544Z" fill="white"/>
    <path d="M3.71908 14.1754C3.75417 14.1052 3.78926 14.035 3.78926 13.9648L2.21031 13.4034C2.17522 13.4736 2.14014 13.5438 2.14014 13.614L3.71908 14.1754Z" fill="white"/>
    <path d="M29.9648 5.75441C30.035 5.82458 30.1052 5.82458 30.1754 5.89476L31.1227 4.52634C31.0526 4.45616 30.9824 4.45616 30.9122 4.38599L29.9648 5.75441Z" fill="white"/>
    <path d="M31.7192 7.15788C31.7894 7.22806 31.8245 7.26314 31.8947 7.33332L33.0175 6.10525C32.9473 6.03507 32.9122 5.99999 32.842 5.92981L31.7192 7.15788Z" fill="white"/>
    <path d="M29.3335 5.33332C29.4037 5.36841 29.4738 5.40349 29.544 5.47367L30.4212 4.07016C30.351 4.03507 30.2809 3.99998 30.2107 3.92981L29.3335 5.33332Z" fill="white"/>
    <path d="M2.70179 20C2.70179 19.9298 2.70179 19.9298 2.70179 19.8596H1.01758C1.01758 19.9298 1.01758 19.9298 1.01758 20C1.01758 20.0351 1.01758 20.0701 1.01758 20.0701H2.70179C2.70179 20.0701 2.70179 20.0701 2.70179 20Z" fill="white"/>
    <path d="M7.71942 7.82454C7.78959 7.75437 7.82468 7.71928 7.89486 7.64911L6.73696 6.49121C6.66679 6.56139 6.6317 6.59647 6.56152 6.66665L7.71942 7.82454Z" fill="white"/>
    <path d="M7.68426 32.1754L6.52637 33.3333C6.59654 33.4035 6.63163 33.4386 6.70181 33.5088L7.8597 32.3509C7.78952 32.3158 7.75444 32.2456 7.68426 32.1754Z" fill="white"/>
    <path d="M32.4562 7.82454L33.6141 6.66665C33.5439 6.59647 33.5088 6.56139 33.4387 6.49121L32.2808 7.68419C32.3509 7.71928 32.386 7.78946 32.4562 7.82454Z" fill="white"/>
    <path d="M37.4385 19.9999C37.4385 20.0701 37.4385 20.0701 37.4385 20.1403H39.1227C39.1227 20.0701 39.1227 20.0701 39.1227 19.9999C39.1227 19.9648 39.1227 19.9297 39.1227 19.8947H37.4385C37.4385 19.9297 37.4385 19.9648 37.4385 19.9999Z" fill="white"/>
    <path d="M32.421 32.2104C32.3509 32.2806 32.3158 32.3157 32.2456 32.3859L33.4035 33.5438C33.4737 33.4736 33.5088 33.4385 33.5789 33.3683L32.421 32.2104Z" fill="white"/>
    <path d="M36.9824 16.1403C37.0175 16.2105 37.0175 16.3157 37.0526 16.3508L38.6666 16C38.6315 15.9298 38.6315 15.8245 38.5965 15.7894L36.9824 16.1403Z" fill="white"/>
    <path d="M36.8423 15.4385C36.8774 15.5087 36.9125 15.6139 36.9125 15.649L38.5265 15.228C38.4914 15.1578 38.4563 15.0876 38.4563 15.0175L36.8423 15.4385Z" fill="white"/>
    <path d="M36.5967 14.7017C36.6318 14.7719 36.6669 14.842 36.6669 14.9122L38.2458 14.421C38.2107 14.3508 38.1756 14.2806 38.1756 14.2104L36.5967 14.7017Z" fill="white"/>
    <path d="M37.1577 16.9123C37.1928 16.9825 37.1928 17.0877 37.1928 17.1228L38.8419 16.8421C38.8068 16.7719 38.8068 16.6667 38.8068 16.6316L37.1577 16.9123Z" fill="white"/>
    <path d="M37.2632 17.6491C37.2632 17.7193 37.2983 17.8246 37.2983 17.8947L38.9474 17.6842C38.9474 17.614 38.9123 17.5088 38.9123 17.4386L37.2632 17.6491Z" fill="white"/>
    <path d="M36.3506 13.9648C36.3857 14.035 36.4208 14.1052 36.4208 14.1754L37.9997 13.614C37.9646 13.5438 37.9295 13.4736 37.9295 13.4034L36.3506 13.9648Z" fill="white"/>
    <path d="M39.0173 18.2806L37.3682 18.421C37.3682 18.4912 37.3682 18.5964 37.4033 18.6666L39.0524 18.5263C39.0524 18.421 39.0524 18.3157 39.0173 18.2806Z" fill="white"/>
    <path d="M31.1582 6.66666C31.2284 6.73683 31.2635 6.77192 31.3336 6.84209L32.3863 5.54385C32.3161 5.47367 32.281 5.43858 32.2108 5.36841L31.1582 6.66666Z" fill="white"/>
    <path d="M9.40329 6.31579C9.47346 6.24562 9.50855 6.21053 9.61381 6.17544L8.59627 4.8772C8.52609 4.94737 8.49101 4.98246 8.38574 5.01755L9.40329 6.31579Z" fill="white"/>
    <path d="M10.0353 5.8596C10.1054 5.78943 10.1756 5.78943 10.2458 5.71925L9.29842 4.35083C9.22824 4.42101 9.15807 4.42101 9.08789 4.49118L10.0353 5.8596Z" fill="white"/>
    <path d="M8.84218 6.7719C8.91236 6.70173 8.94745 6.66664 9.01762 6.59646L7.96499 5.29822C7.89481 5.36839 7.85973 5.40348 7.78955 5.47366L8.84218 6.7719Z" fill="white"/>
    <path d="M8.28052 7.26313C8.3507 7.19295 8.38579 7.15786 8.45596 7.08769L7.33315 5.85962C7.26298 5.92979 7.22789 5.96488 7.15771 6.03506L8.28052 7.26313Z" fill="white"/>
    <path d="M11.9648 4.66659C12.035 4.63151 12.1052 4.59642 12.1753 4.56133L11.4034 3.08765C11.3332 3.12273 11.263 3.15782 11.1929 3.19291L11.9648 4.66659Z" fill="white"/>
    <path d="M7.19291 8.35086C7.26309 8.28068 7.29818 8.2456 7.36835 8.17542L6.14028 7.05261C6.07011 7.12279 6.03502 7.15788 5.96484 7.22805L7.19291 8.35086Z" fill="white"/>
    <path d="M11.2982 5.01749C11.3683 4.98241 11.4385 4.94732 11.5087 4.91223L10.6666 3.47363C10.5964 3.50872 10.5262 3.54381 10.4561 3.5789L11.2982 5.01749Z" fill="white"/>
    <path d="M12.6314 4.3157C12.7016 4.28061 12.7718 4.24552 12.842 4.21043L12.1402 2.70166C12.07 2.73675 11.9999 2.77184 11.9297 2.80692L12.6314 4.3157Z" fill="white"/>
    <path d="M10.6316 5.43851C10.7018 5.40343 10.7719 5.36834 10.8421 5.29816L9.96492 3.89465C9.89475 3.92974 9.82457 3.96483 9.75439 4.035L10.6316 5.43851Z" fill="white"/>
    <path d="M4.28074 12.7719C4.31583 12.7017 4.35092 12.6315 4.35092 12.5614L2.84215 11.8596C2.84215 11.9298 2.80706 12 2.77197 12.0701L4.28074 12.7719Z" fill="white"/>
    <path d="M4.98254 11.4385C5.01763 11.3683 5.05272 11.2981 5.0878 11.228L3.64921 10.3859C3.61412 10.456 3.57903 10.5262 3.54395 10.5964L4.98254 11.4385Z" fill="white"/>
    <path d="M4.63182 12.0701C4.66691 11.9999 4.70199 11.9298 4.73708 11.8596L3.2634 11.0876C3.22831 11.1227 3.15813 11.228 3.12305 11.2982L4.63182 12.0701Z" fill="white"/>
    <path d="M6.70157 8.91227C6.77174 8.8421 6.80683 8.80701 6.877 8.73684L5.57876 7.6842C5.50858 7.75438 5.4735 7.78947 5.40332 7.85964L6.70157 8.91227Z" fill="white"/>
    <path d="M3.96483 13.4737C3.99991 13.4035 4.035 13.3333 4.035 13.2632L2.49114 12.6316C2.49114 12.7018 2.45605 12.7369 2.45605 12.8421L3.96483 13.4737Z" fill="white"/>
    <path d="M5.36835 10.7719C5.43853 10.7017 5.43853 10.6316 5.5087 10.5614L4.10519 9.6842C4.03502 9.75438 4.03502 9.82456 3.96484 9.89473L5.36835 10.7719Z" fill="white"/>
    <path d="M6.24551 9.54387C6.31569 9.47369 6.31569 9.4386 6.38586 9.33334L5.08762 8.3158C5.01744 8.38597 4.98235 8.42106 4.94727 8.52632L6.24551 9.54387Z" fill="white"/>
    <path d="M25.9297 3.64908C25.9999 3.68417 26.07 3.71926 26.1402 3.71926L26.7367 2.14031C26.6665 2.14031 26.5964 2.10522 26.5262 2.10522L25.9297 3.64908Z" fill="white"/>
    <path d="M5.78932 10.1403C5.85949 10.0701 5.85949 9.99991 5.92967 9.92974L4.56125 9.01746C4.49107 9.08763 4.49107 9.15781 4.4209 9.22798L5.78932 10.1403Z" fill="white"/>
    <path d="M22.2808 2.77192C22.3509 2.77192 22.4562 2.80701 22.5264 2.80701L22.7369 1.15789C22.6667 1.15789 22.5615 1.1228 22.4913 1.1228L22.2808 2.77192Z" fill="white"/>
    <path d="M21.5088 2.70174C21.579 2.70174 21.6842 2.70174 21.7544 2.73682L21.8948 1.0877C21.8246 1.0877 21.7193 1.0877 21.6491 1.05261L21.5088 2.70174Z" fill="white"/>
    <path d="M20.7368 2.66663C20.807 2.66663 20.9123 2.66663 20.9824 2.66663L21.0526 0.982422C20.9824 0.982422 20.8772 0.982422 20.807 0.982422L20.7368 2.66663Z" fill="white"/>
    <path d="M22.9824 2.91218C23.0526 2.94727 23.1579 2.94727 23.1929 2.94727L23.5087 1.29815C23.4386 1.26306 23.3333 1.26306 23.2982 1.26306L22.9824 2.91218Z" fill="white"/>
    <path d="M13.3332 4.00002C13.4034 3.96493 13.4736 3.92985 13.5438 3.92985L12.9122 2.38599C12.842 2.42107 12.7718 2.45616 12.7017 2.45616L13.3332 4.00002Z" fill="white"/>
    <path d="M25.228 3.43857C25.2982 3.47365 25.3684 3.50874 25.4386 3.50874L25.9649 1.92979C25.8947 1.89471 25.8245 1.85962 25.7543 1.85962L25.228 3.43857Z" fill="white"/>
    <path d="M23.7544 3.05263C23.8246 3.08772 23.9298 3.08772 23.9649 3.12281L24.3158 1.50877C24.2456 1.47369 24.1404 1.47369 24.1053 1.4386L23.7544 3.05263Z" fill="white"/>
    <path d="M24.4912 3.19301C24.5614 3.2281 24.6666 3.26319 24.7017 3.26319L25.1579 1.64915C25.0877 1.61407 24.9824 1.57898 24.9473 1.57898L24.4912 3.19301Z" fill="white"/>
    <path d="M19.9648 0.982422V2.66663C19.9999 2.66663 20.035 2.66663 20.0701 2.66663C20.1052 2.66663 20.1403 2.66663 20.1754 2.66663V0.982422C20.1403 0.982422 20.1052 0.982422 20.0701 0.982422C20.035 0.982422 19.9999 0.982422 19.9648 0.982422Z" fill="white"/>
    <path d="M14.7368 3.47359C14.807 3.4385 14.8772 3.40341 14.9474 3.40341L14.4561 1.82446C14.386 1.85955 14.3158 1.89464 14.2456 1.89464L14.7368 3.47359Z" fill="white"/>
    <path d="M37.0526 23.6842C37.0175 23.7544 37.0175 23.8246 36.9824 23.8947L38.5965 24.2456C38.6315 24.1754 38.6315 24.1053 38.6666 24.0351L37.0526 23.6842Z" fill="white"/>
    <path d="M16.1756 3.05262C16.2458 3.01753 16.351 3.01753 16.3861 2.98244L16.0352 1.36841C15.9651 1.4035 15.8598 1.4035 15.8247 1.43858L16.1756 3.05262Z" fill="white"/>
    <path d="M13.9999 3.75435C14.0701 3.71926 14.1403 3.68417 14.2105 3.68417L13.6842 2.10522C13.614 2.14031 13.5438 2.1754 13.4736 2.1754L13.9999 3.75435Z" fill="white"/>
    <path d="M17.6842 2.80701C17.7543 2.80701 17.8596 2.77192 17.8947 2.77192L17.6842 1.1228C17.614 1.1228 17.5087 1.15789 17.4736 1.15789L17.6842 2.80701Z" fill="white"/>
    <path d="M18.4563 2.70179C18.5264 2.70179 18.6317 2.70179 18.6668 2.6667L18.5264 1.01758C18.4563 1.01758 18.351 1.01758 18.3159 1.05267L18.4563 2.70179Z" fill="white"/>
    <path d="M19.1932 2.66663C19.2634 2.66663 19.3687 2.66663 19.4037 2.66663L19.3336 0.982422C19.2634 0.982422 19.1581 0.982422 19.123 0.982422L19.1932 2.66663Z" fill="white"/>
    <path d="M16.9472 2.91224C17.0174 2.87715 17.1226 2.87715 17.1577 2.87715L16.877 1.22803C16.8069 1.22803 16.7016 1.26312 16.6665 1.26312L16.9472 2.91224Z" fill="white"/>
    <path d="M37.1928 22.9122C37.1577 22.9824 37.1577 23.0877 37.1577 23.1578L38.8068 23.4385C38.8419 23.3684 38.8419 23.2631 38.8419 23.228L37.1928 22.9122Z" fill="white"/>
    <path d="M37.4033 19.1578C37.4033 19.228 37.4033 19.3333 37.4033 19.4034L39.0875 19.3333C39.0875 19.2631 39.0875 19.1578 39.0875 19.0876L37.4033 19.1578Z" fill="white"/>
    <path d="M37.2983 22.1754C37.2983 22.2456 37.2632 22.3509 37.2632 22.3859L38.9123 22.5965C38.9123 22.5263 38.9474 22.421 38.9474 22.3859L37.2983 22.1754Z" fill="white"/>
    <path d="M37.4033 20.6666C37.4033 20.7368 37.4033 20.8421 37.4033 20.9122L39.0875 20.9824C39.0875 20.9122 39.0875 20.807 39.0875 20.7368L37.4033 20.6666Z" fill="white"/>
    <path d="M37.4033 21.4386C37.4033 21.5088 37.4033 21.614 37.3682 21.6842L39.0173 21.8246C39.0173 21.7544 39.0173 21.6491 39.0524 21.5789L37.4033 21.4386Z" fill="white"/>
    <path d="M20.0705 36.9122C10.7372 36.9122 3.1582 29.3333 3.1582 19.9999C3.1582 10.6666 10.7372 3.08765 20.0705 3.08765C29.4038 3.08765 36.9828 10.6666 36.9828 19.9999C36.9828 29.3333 29.3687 36.9122 20.0705 36.9122ZM20.0705 3.61396C11.0179 3.61396 3.64943 10.9824 3.64943 20.035C3.64943 29.0876 11.0179 36.4561 20.0705 36.4561C29.1231 36.4561 36.4915 29.0876 36.4915 20.035C36.4915 10.9824 29.1231 3.61396 20.0705 3.61396Z" fill="white"/>
    <path d="M26.2104 13.7895C26.07 13.6491 25.8595 13.6491 25.7192 13.7895L13.7893 25.7193C13.649 25.8596 13.649 26.0702 13.7893 26.2105C13.9297 26.3509 14.1402 26.3509 14.2806 26.2105L26.1753 14.3158C26.3507 14.1403 26.3507 13.9298 26.2104 13.7895Z" fill="white"/>
    <path d="M13.7893 13.7895C13.649 13.9298 13.649 14.1403 13.7893 14.2807L25.6841 26.1754C25.8244 26.3158 26.035 26.3158 26.1753 26.1754C26.3157 26.0351 26.3157 25.8246 26.1753 25.6842L14.2806 13.7895C14.1402 13.6491 13.9297 13.6491 13.7893 13.7895Z" fill="white"/>
</svg>
