<svg width="200" height="200" viewBox="0 0 200 200" fill="none" xmlns="http://www.w3.org/2000/svg">
    <g filter="url(#filter0_b)">
        <path opacity="0.4" d="M100 200C155.228 200 200 155.228 200 100C200 44.7715 155.228 0 100 0C44.7715 0 0 44.7715 0 100C0 155.228 44.7715 200 100 200Z" fill="#2A0C3E"/>
        <path d="M100 200C44.9 200 0 155.1 0 100C0 44.9 44.9 0 100 0C155.1 0 200 44.9 200 100C200 155.2 155.1 200 100 200ZM100 2.8C46.3 2.8 2.7 46.5 2.7 100.1C2.7 153.7 46.3 197.4 100 197.4C153.6 197.4 197.3 153.8 197.3 100.1C197.3 46.4 153.7 2.8 100 2.8Z" fill="white"/>
        <path d="M100.4 192.6C49.2001 192.6 7.6001 151 7.6001 99.8C7.6001 48.6 49.2001 7 100.4 7C151.6 7 193.2 48.7 193.2 99.8C193.2 150.9 151.5 192.6 100.4 192.6ZM100.4 8.4C50.0001 8.4 9.0001 49.4 9.0001 99.8C9.0001 150.2 50.0001 191.2 100.4 191.2C150.8 191.2 191.8 150.2 191.8 99.8C191.8 49.4 150.8 8.4 100.4 8.4Z" fill="white"/>
        <path d="M44.1445 109.425L9.18408 115.599L9.35798 116.583L44.3184 110.41L44.1445 109.425Z" fill="white"/>
        <path d="M54.3001 180.1L53.4001 179.6L71.2001 148.9L72.1001 149.4L54.3001 180.1Z" fill="white"/>
        <path d="M128.753 148.833L127.887 149.333L145.633 180.079L146.499 179.579L128.753 148.833Z" fill="white"/>
        <path d="M155.903 109.34L155.729 110.325L190.693 116.477L190.866 115.492L155.903 109.34Z" fill="white"/>
        <path d="M67.106 146.072L46.6829 175.107L47.5008 175.683L67.9239 146.647L67.106 146.072Z" fill="white"/>
        <path d="M63.2129 143.029L40.3616 170.198L41.1269 170.841L63.9782 143.673L63.2129 143.029Z" fill="white"/>
        <path d="M35.2 165.5L34.5 164.8L59.6 139.8L59.9 140.1H60.5V140.3L60.3 140.5L35.2 165.5Z" fill="white"/>
        <path d="M56.2064 136.009L29.0935 158.767L29.7364 159.533L56.8493 136.775L56.2064 136.009Z" fill="white"/>
        <path d="M53.2594 131.985L24.2097 152.39L24.7845 153.209L53.8342 132.803L53.2594 131.985Z" fill="white"/>
        <path d="M50.6519 127.888L19.916 145.653L20.4164 146.518L51.1523 128.754L50.6519 127.888Z" fill="white"/>
        <path d="M16.7001 139.4L16.3 138.5L48.4001 123.5L48.9001 124.5L16.7001 139.4Z" fill="white"/>
        <path d="M13.6 132L13.2 131L46.5999 119L47 119.9L13.6 132Z" fill="white"/>
        <path d="M11.1001 124.4L10.9001 123.4L45.1001 114.2L45.4001 115.2L11.1001 124.4Z" fill="white"/>
        <path d="M188.9 124.4L154.6 115.2L154.9 114.2L189.1 123.4L188.9 124.4Z" fill="white"/>
        <path d="M186.4 132L153.1 119.9L153.4 119L186.8 131L186.4 132Z" fill="white"/>
        <path d="M151.528 123.635L151.105 124.542L183.275 139.551L183.698 138.645L151.528 123.635Z" fill="white"/>
        <path d="M179.5 146.6L148.8 128.8L149.3 127.9L180.1 145.7L179.5 146.6Z" fill="white"/>
        <path d="M146.686 132.141L146.113 132.961L175.198 153.316L175.772 152.497L146.686 132.141Z" fill="white"/>
        <path d="M143.746 136.069L143.103 136.835L170.296 159.658L170.939 158.892L143.746 136.069Z" fill="white"/>
        <path d="M140.403 139.757L139.696 140.465L164.805 165.56L165.512 164.852L140.403 139.757Z" fill="white"/>
        <path d="M136.768 143.137L136.001 143.78L158.817 170.976L159.583 170.334L136.768 143.137Z" fill="white"/>
        <path d="M152.5 175.8L132.1 146.7L132.9 146.2L153.3 175.2L152.5 175.8Z" fill="white"/>
        <path d="M100 157.4C68.4001 157.4 42.6001 131.7 42.6001 100C42.6001 68.4 68.4001 42.6 100 42.6C131.6 42.6 157.4 68.3 157.4 100C157.4 131.7 131.6 157.4 100 157.4ZM100 44.1C69.1001 44.1 44.1001 69.2 44.1001 100.1C44.1001 131 69.2001 156 100 156C130.8 156 155.9 130.9 155.9 100.1C156 69.2 130.9 44.1 100 44.1Z" fill="white"/>
        <path d="M79.1999 145.3C78.9999 145.2 78.7999 145.1 78.5999 145L76.5999 149.3C76.7999 149.4 76.9999 149.5 77.1999 149.6L79.1999 145.3Z" fill="white"/>
        <path d="M63.3999 133.8C63.1999 133.6 63.0999 133.5 62.8999 133.3L59.3999 136.5C59.5999 136.7 59.6999 136.8 59.8999 137L63.3999 133.8Z" fill="white"/>
        <path d="M69.8999 139.7C69.6999 139.5 69.5999 139.4 69.2999 139.3L66.3999 143.1C66.5999 143.3 66.6999 143.4 66.9999 143.5L69.8999 139.7Z" fill="white"/>
        <path d="M68.2 138.3C68 138.1 67.9 138 67.7 137.8L64.7 141.5C64.9 141.7 65 141.8 65.2 142L68.2 138.3Z" fill="white"/>
        <path d="M60.5999 130.6C60.3999 130.4 60.2999 130.3 60.1999 130L56.3999 132.9C56.5999 133.1 56.5999 133.3 56.7999 133.5L60.5999 130.6Z" fill="white"/>
        <path d="M61.9998 132.2C61.7998 132 61.6998 131.9 61.4998 131.7L57.7998 134.7C57.9998 134.9 58.0998 135 58.2998 135.2L61.9998 132.2Z" fill="white"/>
        <path d="M58.1998 127C57.9998 126.8 57.9998 126.6 57.7998 126.4L53.7998 129C53.9998 129.2 53.9998 129.4 54.1998 129.6L58.1998 127Z" fill="white"/>
        <path d="M59.3999 128.8C59.1999 128.6 59.1999 128.4 58.9999 128.2L55.0999 130.9C55.2999 131.1 55.2999 131.3 55.4999 131.5L59.3999 128.8Z" fill="white"/>
        <path d="M66.5999 137C66.3999 136.8 66.2999 136.7 66.0999 136.5L62.8999 140C63.0999 140.2 63.1999 140.3 63.3999 140.5L66.5999 137Z" fill="white"/>
        <path d="M57 125.2C56.9 125 56.8 124.8 56.7 124.6L52.5 127C52.6 127.2 52.7 127.4 52.8 127.6L57 125.2Z" fill="white"/>
        <path d="M77.1999 144.3C76.9999 144.2 76.7999 144.1 76.5999 144L74.3999 148.2C74.5999 148.3 74.7999 148.4 74.9999 148.5L77.1999 144.3Z" fill="white"/>
        <path d="M75.3999 143.3C75.1999 143.2 74.9999 143.1 74.7999 143L72.3999 147.2C72.5999 147.3 72.7999 147.4 72.9999 147.5L75.3999 143.3Z" fill="white"/>
        <path d="M81.1998 146.2C80.9998 146.1 80.7998 146 80.5998 146L78.7998 150.4C78.9998 150.5 79.1998 150.6 79.3998 150.6L81.1998 146.2Z" fill="white"/>
        <path d="M85.2998 147.6C85.0998 147.5 84.8998 147.4 84.6998 147.4L83.2998 152C83.4998 152.1 83.6998 152.2 83.8998 152.2L85.2998 147.6Z" fill="white"/>
        <path d="M73.4 142.2C73.2 142.1 73 142 72.8 141.8L70.2 145.8C70.4 145.9 70.6 146 70.8 146.2L73.4 142.2Z" fill="white"/>
        <path d="M71.6999 141C71.4999 140.8 71.2999 140.8 71.0999 140.6L68.3999 144.5C68.5999 144.7 68.7999 144.7 68.9999 144.9L71.6999 141Z" fill="white"/>
        <path d="M83.1999 147C82.9999 146.9 82.7999 146.8 82.5999 146.8L80.8999 151.3C81.0999 151.4 81.2999 151.5 81.4999 151.5L83.1999 147Z" fill="white"/>
        <path d="M53.2999 117.4C53.1999 117.2 53.0999 117 53.0999 116.8L48.5999 118.4C48.6999 118.6 48.7999 118.8 48.7999 119L53.2999 117.4Z" fill="white"/>
        <path d="M50.1999 98.2C50.1999 98 50.1999 97.7 50.1999 97.5L45.3999 97.3C45.3999 97.5 45.3999 97.8 45.3999 98L50.1999 98.2Z" fill="white"/>
        <path d="M50.4 96C50.4 95.8 50.4 95.5 50.5 95.3L45.7999 94.9C45.7999 95.1 45.8 95.4 45.7 95.6L50.4 96Z" fill="white"/>
        <path d="M50.5999 93.8C50.5999 93.6 50.6999 93.3 50.6999 93.1L45.9999 92.5C45.9999 92.7 45.8999 93 45.8999 93.2L50.5999 93.8Z" fill="white"/>
        <path d="M50.1999 102.5C50.1999 102.3 50.1999 102 50.1999 101.8L45.3999 102C45.3999 102.2 45.3999 102.5 45.3999 102.7L50.1999 102.5Z" fill="white"/>
        <path d="M50.3999 104.6C50.3999 104.4 50.3999 104.1 50.2999 103.9L45.5999 104.3C45.5999 104.5 45.5999 104.8 45.6999 105L50.3999 104.6Z" fill="white"/>
        <path d="M50.9 91.7C51 91.5 50.9999 91.2 51.0999 91.1L46.4 90.3C46.4 90.5 46.3 90.8 46.2 90.9L50.9 91.7Z" fill="white"/>
        <path d="M51.7999 87.4C51.8999 87.2 52 86.9 52 86.8L47.4 85.5C47.3 85.7 47.2 86 47.2 86.1L51.7999 87.4Z" fill="white"/>
        <path d="M51.2999 89.5C51.3999 89.3 51.4 89 51.5 88.9L46.9 87.9C46.8 88.1 46.8 88.4 46.7 88.5L51.2999 89.5Z" fill="white"/>
        <path d="M50.5998 106.8C50.5998 106.6 50.4998 106.3 50.4998 106.1L45.7998 106.7C45.7998 106.9 45.8998 107.2 45.8998 107.3L50.5998 106.8Z" fill="white"/>
        <path d="M55.8999 123.3C55.7999 123.1 55.6999 122.9 55.5999 122.7L51.3999 124.9C51.4999 125.1 51.5999 125.3 51.6999 125.5L55.8999 123.3Z" fill="white"/>
        <path d="M87.4 148.2C87.2 148.1 86.9 148 86.8 148L85.5 152.6C85.7 152.7 85.9 152.8 86.1 152.8L87.4 148.2Z" fill="white"/>
        <path d="M54.1 119.4C54 119.2 53.9 119 53.9 118.8L49.5 120.6C49.6 120.8 49.7 121 49.7 121.2L54.1 119.4Z" fill="white"/>
        <path d="M55 121.4C54.9 121.2 54.8 121 54.8 120.8L50.5 122.8C50.6 123 50.7 123.2 50.7 123.4L55 121.4Z" fill="white"/>
        <path d="M52.5998 115.3C52.4998 115.1 52.3998 114.9 52.3998 114.7L47.7998 116.1C47.8998 116.3 47.9998 116.5 47.9998 116.7L52.5998 115.3Z" fill="white"/>
        <path d="M52 113.2C51.9 113 51.7999 112.8 51.7999 112.6L47.2 113.8C47.3 114 47.4 114.2 47.4 114.4L52 113.2Z" fill="white"/>
        <path d="M50.9999 109C50.8999 108.8 50.8999 108.5 50.7999 108.3L46.0999 109.1C46.0999 109.3 46.1999 109.6 46.2999 109.7L50.9999 109Z" fill="white"/>
        <path d="M51.3999 111.1C51.2999 110.9 51.2999 110.7 51.1999 110.5L46.5999 111.5C46.6999 111.7 46.6999 111.9 46.7999 112.1L51.3999 111.1Z" fill="white"/>
        <path d="M132.2 138C132 138.2 131.9 138.3 131.7 138.5L134.7 142.2C134.9 142 135 141.9 135.2 141.8L132.2 138Z" fill="white"/>
        <path d="M137 133.4C136.8 133.6 136.7 133.7 136.5 133.9L140 137.1C140.2 136.9 140.3 136.8 140.5 136.6L137 133.4Z" fill="white"/>
        <path d="M133.8 136.6C133.6 136.8 133.5 136.9 133.3 137.1L136.5 140.6C136.7 140.4 136.8 140.3 137 140.1L133.8 136.6Z" fill="white"/>
        <path d="M138.3 131.8C138.1 132 138 132.1 137.8 132.3L141.5 135.3C141.7 135.1 141.8 135 142 134.8L138.3 131.8Z" fill="white"/>
        <path d="M139.7 130.1C139.5 130.3 139.4 130.5 139.3 130.7L143.1 133.6C143.3 133.4 143.4 133.2 143.5 133L139.7 130.1Z" fill="white"/>
        <path d="M128.8 140.6C128.6 140.8 128.4 140.8 128.2 141L130.9 144.9C131.1 144.7 131.3 144.7 131.5 144.5L128.8 140.6Z" fill="white"/>
        <path d="M141 128.3C140.8 128.5 140.8 128.7 140.6 128.9L144.5 131.6C144.7 131.4 144.7 131.2 144.9 131L141 128.3Z" fill="white"/>
        <path d="M130.6 139.4C130.4 139.6 130.3 139.7 130 139.8L132.9 143.6C133.1 143.4 133.2 143.3 133.5 143.2L130.6 139.4Z" fill="white"/>
        <path d="M52.3998 85.4C52.4998 85.2 52.5998 85 52.5998 84.8L47.9998 83.4C47.8998 83.6 47.7998 83.8 47.7998 84L52.3998 85.4Z" fill="white"/>
        <path d="M148.2 112.6C148.1 112.8 148 113 148 113.2L152.6 114.4C152.7 114.2 152.8 114 152.8 113.8L148.2 112.6Z" fill="white"/>
        <path d="M146.9 116.8C146.8 117 146.7 117.2 146.7 117.4L151.2 119C151.3 118.8 151.4 118.6 151.4 118.4L146.9 116.8Z" fill="white"/>
        <path d="M147.6 114.7C147.5 114.9 147.4 115.1 147.4 115.3L152 116.7C152.1 116.5 152.2 116.3 152.2 116.1L147.6 114.7Z" fill="white"/>
        <path d="M89.3998 148.7C89.1998 148.6 88.8998 148.6 88.7998 148.5L87.7998 153.1C87.9998 153.2 88.2998 153.2 88.3998 153.3L89.3998 148.7Z" fill="white"/>
        <path d="M127 141.8C126.8 142 126.6 142 126.4 142.2L129 146.2C129.2 146.1 129.4 146 129.6 145.8L127 141.8Z" fill="white"/>
        <path d="M144.3 122.8C144.2 123 144.1 123.2 144 123.4L148.2 125.6C148.3 125.4 148.4 125.2 148.5 125L144.3 122.8Z" fill="white"/>
        <path d="M143.3 124.6C143.2 124.8 143.1 125 143 125.2L147.2 127.6C147.3 127.4 147.4 127.2 147.5 127L143.3 124.6Z" fill="white"/>
        <path d="M142.2 126.6C142.1 126.8 142 127 141.8 127.2L145.8 129.8C146 129.6 146 129.4 146.2 129.2L142.2 126.6Z" fill="white"/>
        <path d="M145.3 120.8C145.2 121 145.1 121.2 145 121.4L149.3 123.4C149.4 123.2 149.5 123 149.6 122.8L145.3 120.8Z" fill="white"/>
        <path d="M146.2 118.8C146.1 119 146 119.2 146 119.4L150.4 121.2C150.5 121 150.6 120.8 150.6 120.6L146.2 118.8Z" fill="white"/>
        <path d="M102.5 149.8C102.3 149.8 102 149.8 101.9 149.8L102.1 154.6C102.3 154.6 102.6 154.6 102.8 154.6L102.5 149.8Z" fill="white"/>
        <path d="M98.0998 149.8C97.8998 149.8 97.5998 149.8 97.4998 149.8L97.2998 154.6C97.4998 154.6 97.7998 154.6 97.8998 154.6L98.0998 149.8Z" fill="white"/>
        <path d="M100.3 154.6V149.8C100.2 149.8 100.1 149.8 100 149.8C99.9 149.8 99.8 149.8 99.7 149.8V154.6C99.8 154.6 99.9 154.6 100 154.6C100.2 154.6 100.2 154.6 100.3 154.6Z" fill="white"/>
        <path d="M104.7 149.6C104.5 149.6 104.2 149.6 104 149.7L104.4 154.4C104.6 154.4 104.9 154.4 105.1 154.3L104.7 149.6Z" fill="white"/>
        <path d="M91.5999 149.1C91.3999 149.1 91.0999 149 90.9999 149L90.0999 153.7C90.2999 153.7 90.5999 153.8 90.6999 153.8L91.5999 149.1Z" fill="white"/>
        <path d="M106.9 149.4C106.7 149.4 106.4 149.5 106.3 149.5L106.9 154.2C107.1 154.2 107.4 154.1 107.6 154.1L106.9 149.4Z" fill="white"/>
        <path d="M95.8999 149.7C95.6999 149.7 95.3999 149.7 95.2999 149.6L94.8999 154.3C95.0999 154.3 95.3999 154.3 95.4999 154.4L95.8999 149.7Z" fill="white"/>
        <path d="M93.7999 149.4C93.5999 149.4 93.2999 149.3 93.1999 149.3L92.5999 154C92.7999 154 93.0999 154.1 93.1999 154.1L93.7999 149.4Z" fill="white"/>
        <path d="M123.3 144.1C123.1 144.2 122.9 144.3 122.7 144.4L124.9 148.6C125.1 148.5 125.3 148.4 125.5 148.3L123.3 144.1Z" fill="white"/>
        <path d="M121.4 145C121.2 145.1 121 145.2 120.8 145.3L122.8 149.6C123 149.5 123.2 149.4 123.4 149.3L121.4 145Z" fill="white"/>
        <path d="M119.4 145.9C119.2 146 119 146.1 118.8 146.1L120.6 150.5C120.8 150.4 121 150.3 121.2 150.3L119.4 145.9Z" fill="white"/>
        <path d="M109 149C108.8 149 108.5 149.1 108.4 149.1L109.2 153.8C109.4 153.8 109.7 153.7 109.8 153.7L109 149Z" fill="white"/>
        <path d="M125.2 143C125 143.1 124.8 143.2 124.6 143.3L127 147.5C127.2 147.4 127.4 147.3 127.6 147.2L125.2 143Z" fill="white"/>
        <path d="M117.4 146.7C117.2 146.8 117 146.9 116.8 146.9L118.4 151.4C118.6 151.3 118.8 151.2 119 151.2L117.4 146.7Z" fill="white"/>
        <path d="M111.1 148.6C110.9 148.7 110.6 148.7 110.5 148.8L111.5 153.4C111.7 153.3 112 153.3 112.1 153.2L111.1 148.6Z" fill="white"/>
        <path d="M115.3 147.4C115.1 147.5 114.9 147.6 114.7 147.6L116.1 152.2C116.3 152.1 116.5 152 116.7 152L115.3 147.4Z" fill="white"/>
        <path d="M113.2 148.1C113 148.2 112.8 148.3 112.6 148.3L113.8 152.9C114 152.8 114.3 152.7 114.4 152.7L113.2 148.1Z" fill="white"/>
        <path d="M86.7999 52C86.9999 51.9 87.1999 51.8 87.3999 51.8L86.1999 47.2C85.9999 47.3 85.6999 47.4 85.5999 47.4L86.7999 52Z" fill="white"/>
        <path d="M139.4 69.5C139.6 69.7 139.7 69.8 139.8 70.1L143.6 67.2C143.4 67 143.3 66.9 143.2 66.6L139.4 69.5Z" fill="white"/>
        <path d="M140.6 71.3C140.8 71.5 140.8 71.7 141 71.9L144.9 69.2C144.7 69 144.7 68.8 144.5 68.6L140.6 71.3Z" fill="white"/>
        <path d="M138 67.8C138.2 68 138.3 68.1 138.5 68.3L142.2 65.3C142 65.1 141.9 65 141.7 64.8L138 67.8Z" fill="white"/>
        <path d="M141.8 73C141.9 73.2 142 73.4 142.2 73.6L146.2 71C146.1 70.8 146 70.6 145.8 70.4L141.8 73Z" fill="white"/>
        <path d="M143 74.9C143.1 75.1 143.2 75.3 143.3 75.5L147.5 73.1C147.4 72.9 147.3 72.7 147.2 72.5L143 74.9Z" fill="white"/>
        <path d="M145 78.7C145.1 78.9 145.2 79.1 145.3 79.3L149.6 77.3C149.5 77.1 149.4 76.9 149.3 76.7L145 78.7Z" fill="white"/>
        <path d="M136.6 66.2C136.8 66.4 136.9 66.5 137.1 66.7L140.6 63.5C140.4 63.3 140.3 63.2 140.1 63L136.6 66.2Z" fill="white"/>
        <path d="M144.1 76.8C144.2 77 144.3 77.2 144.4 77.4L148.6 75.2C148.5 75 148.4 74.8 148.3 74.6L144.1 76.8Z" fill="white"/>
        <path d="M124.7 56.8C124.9 56.9 125.1 57 125.3 57.1L127.7 52.9C127.5 52.8 127.3 52.7 127.1 52.6L124.7 56.8Z" fill="white"/>
        <path d="M122.8 55.8C123 55.9 123.2 56 123.4 56.1L125.6 51.9C125.4 51.8 125.2 51.7 125 51.6L122.8 55.8Z" fill="white"/>
        <path d="M145.9 80.7C146 80.9 146.1 81.1 146.1 81.3L150.5 79.5C150.4 79.3 150.3 79.1 150.3 78.9L145.9 80.7Z" fill="white"/>
        <path d="M118.9 53.9C119.1 54 119.3 54.1 119.5 54.1L121.3 49.7C121.1 49.6 120.9 49.5 120.7 49.5L118.9 53.9Z" fill="white"/>
        <path d="M120.9 54.8C121.1 54.9 121.3 55 121.5 55.1L123.5 50.8C123.3 50.7 123.1 50.6 122.9 50.5L120.9 54.8Z" fill="white"/>
        <path d="M130.2 60.4C130.4 60.6 130.5 60.7 130.8 60.8L133.7 57C133.5 56.8 133.4 56.7 133.1 56.6L130.2 60.4Z" fill="white"/>
        <path d="M53.0999 83.3C53.1999 83.1 53.2999 82.9 53.2999 82.7L48.7999 81.1C48.6999 81.3 48.5999 81.5 48.5999 81.7L53.0999 83.3Z" fill="white"/>
        <path d="M128.4 59.1C128.6 59.3 128.8 59.3 129 59.5L131.7 55.6C131.5 55.4 131.3 55.4 131.1 55.2L128.4 59.1Z" fill="white"/>
        <path d="M133.4 63.1C133.6 63.3 133.7 63.4 133.9 63.6L137.1 60.1C136.9 59.9 136.8 59.8 136.6 59.6L133.4 63.1Z" fill="white"/>
        <path d="M126.6 57.9C126.8 58 127 58.1 127.2 58.3L129.8 54.3C129.6 54.2 129.4 54.1 129.2 53.9L126.6 57.9Z" fill="white"/>
        <path d="M50.1999 100C50.1999 99.8 50.1999 99.8 50.1999 99.6H45.3999C45.3999 99.8 45.3999 99.8 45.3999 100C45.3999 100.1 45.3999 100.2 45.3999 100.2H50.1999C50.1999 100.2 50.1999 100.2 50.1999 100Z" fill="white"/>
        <path d="M64.5999 65C64.7999 64.8 64.8999 64.7 65.0999 64.5L61.7 61.1C61.5 61.3 61.4 61.4 61.2 61.6L64.5999 65Z" fill="white"/>
        <path d="M64.4999 135L61.0999 138.4C61.2999 138.6 61.3999 138.7 61.5999 138.9L64.9999 135.5C64.7999 135.3 64.5999 135.1 64.4999 135Z" fill="white"/>
        <path d="M135.5 65.1L138.9 61.7C138.7 61.5 138.6 61.4 138.4 61.2L135 64.6C135.2 64.8 135.4 65 135.5 65.1Z" fill="white"/>
        <path d="M149.8 100C149.8 100.2 149.8 100.2 149.8 100.4H154.6C154.6 100.2 154.6 100.2 154.6 100C154.6 99.9 154.6 99.8 154.6 99.7H149.8C149.8 99.8 149.8 99.9 149.8 100Z" fill="white"/>
        <path d="M135.4 135C135.2 135.2 135.1 135.3 134.9 135.5L138.3 138.9C138.5 138.7 138.6 138.6 138.8 138.4L135.4 135Z" fill="white"/>
        <path d="M148.6 89C148.7 89.2 148.7 89.5 148.8 89.6L153.4 88.6C153.3 88.4 153.3 88.1 153.2 88L148.6 89Z" fill="white"/>
        <path d="M148.1 86.9C148.2 87.1 148.3 87.4 148.3 87.5L152.9 86.3C152.8 86.1 152.7 85.9 152.7 85.7L148.1 86.9Z" fill="white"/>
        <path d="M147.4 84.8C147.5 85 147.6 85.2 147.6 85.4L152.2 84C152.1 83.8 152 83.6 152 83.4L147.4 84.8Z" fill="white"/>
        <path d="M149 91.1C149.1 91.3 149.1 91.6 149.1 91.7L153.8 90.9C153.7 90.7 153.7 90.4 153.7 90.3L149 91.1Z" fill="white"/>
        <path d="M149.4 93.3C149.4 93.5 149.5 93.8 149.5 94L154.2 93.4C154.2 93.2 154.1 92.9 154.1 92.7L149.4 93.3Z" fill="white"/>
        <path d="M146.7 82.7C146.8 82.9 146.9 83.1 146.9 83.3L151.4 81.7C151.3 81.5 151.2 81.3 151.2 81.1L146.7 82.7Z" fill="white"/>
        <path d="M154.3 95L149.6 95.4C149.6 95.6 149.6 95.9 149.7 96.1L154.4 95.7C154.4 95.4 154.4 95.2 154.3 95Z" fill="white"/>
        <path d="M131.8 61.8C132 62 132.1 62.1 132.3 62.3L135.3 58.6C135.1 58.4 135 58.3 134.8 58.1L131.8 61.8Z" fill="white"/>
        <path d="M69.4 60.7C69.6 60.5 69.7 60.4 70 60.3L67.1 56.5C66.9 56.7 66.8 56.8 66.5 56.9L69.4 60.7Z" fill="white"/>
        <path d="M71.2 59.4C71.4 59.2 71.6 59.2 71.8 59L69.1 55.1C68.9 55.3 68.7 55.3 68.5 55.5L71.2 59.4Z" fill="white"/>
        <path d="M67.7998 62.1C67.9998 61.9 68.0998 61.8 68.2998 61.6L65.2998 57.9C65.0998 58.1 64.9998 58.2 64.7998 58.4L67.7998 62.1Z" fill="white"/>
        <path d="M66.2 63.5C66.4 63.3 66.5 63.2 66.7 63L63.5 59.5C63.3 59.7 63.2 59.8 63 60L66.2 63.5Z" fill="white"/>
        <path d="M76.7 56C76.9 55.9 77.1 55.8 77.3 55.7L75.1 51.5C74.9 51.6 74.7 51.7 74.5 51.8L76.7 56Z" fill="white"/>
        <path d="M63.0999 66.6C63.2999 66.4 63.3999 66.3 63.5999 66.1L60.0999 62.9C59.8999 63.1 59.7999 63.2 59.5999 63.4L63.0999 66.6Z" fill="white"/>
        <path d="M74.7999 57C74.9999 56.9 75.1999 56.8 75.3999 56.7L72.9999 52.5C72.7999 52.6 72.5999 52.7 72.3999 52.8L74.7999 57Z" fill="white"/>
        <path d="M78.5999 55C78.7999 54.9 78.9999 54.8 79.1999 54.7L77.1999 50.4C76.9999 50.5 76.7999 50.6 76.5999 50.7L78.5999 55Z" fill="white"/>
        <path d="M72.9999 58.2001C73.1999 58.1001 73.3999 58 73.5999 57.8L70.9999 53.8C70.7999 53.9 70.5999 54.0001 70.3999 54.2001L72.9999 58.2001Z" fill="white"/>
        <path d="M54.6999 79.3C54.7999 79.1 54.8999 78.9 54.8999 78.7L50.5999 76.7C50.4999 76.9 50.3999 77.1 50.3999 77.3L54.6999 79.3Z" fill="white"/>
        <path d="M56.7 75.4C56.8 75.2 56.9 75 57 74.8L52.8 72.4C52.7 72.6 52.6 72.8 52.5 73L56.7 75.4Z" fill="white"/>
        <path d="M55.7 77.3C55.8 77.1 55.9 76.9 56 76.7L51.8 74.5C51.7 74.7 51.6 74.9 51.5 75.1L55.7 77.3Z" fill="white"/>
        <path d="M61.7 68.2C61.9 68 62 67.9 62.2 67.7L58.5 64.7C58.3 64.9 58.2 65 58 65.2L61.7 68.2Z" fill="white"/>
        <path d="M53.7999 81.3C53.8999 81.1 53.9999 80.9 53.9999 80.7L49.5999 78.9C49.4999 79.1 49.3999 79.3 49.3999 79.5L53.7999 81.3Z" fill="white"/>
        <path d="M57.7998 73.5C57.9998 73.3 57.9998 73.1 58.1998 72.9L54.1998 70.3C53.9998 70.5 53.9998 70.7 53.7998 70.9L57.7998 73.5Z" fill="white"/>
        <path d="M60.3 70C60.5 69.8 60.5 69.7 60.7 69.4L56.9 66.5C56.7 66.7 56.6 66.8 56.5 67.1L60.3 70Z" fill="white"/>
        <path d="M116.8 53.1C117 53.2 117.2 53.3 117.4 53.3L119.1 48.8C118.9 48.7 118.7 48.6 118.5 48.6L116.8 53.1Z" fill="white"/>
        <path d="M58.9999 71.8C59.1999 71.6 59.1999 71.4 59.3999 71.2L55.4999 68.5C55.2999 68.7 55.2999 68.9 55.0999 69.1L58.9999 71.8Z" fill="white"/>
        <path d="M106.3 50.6C106.5 50.6 106.8 50.7 107 50.7L107.6 46C107.4 46 107.1 45.9 106.9 45.9L106.3 50.6Z" fill="white"/>
        <path d="M104.2 50.4C104.4 50.4 104.7 50.4 104.9 50.5L105.3 45.8C105.1 45.8 104.8 45.8 104.6 45.7L104.2 50.4Z" fill="white"/>
        <path d="M101.9 50.2C102.1 50.2 102.4 50.2 102.6 50.2L102.8 45.4C102.6 45.4 102.3 45.4 102.1 45.4L101.9 50.2Z" fill="white"/>
        <path d="M108.4 51C108.6 51.1 108.9 51.1 109 51.1L109.9 46.4001C109.7 46.3001 109.4 46.3 109.3 46.3L108.4 51Z" fill="white"/>
        <path d="M80.5998 54.2C80.7998 54.1 80.9998 54 81.1998 54L79.3998 49.6C79.1998 49.7 78.9998 49.8 78.7998 49.8L80.5998 54.2Z" fill="white"/>
        <path d="M114.8 52.5C115 52.6 115.2 52.7 115.4 52.7L116.8 48.1C116.6 48 116.4 47.9 116.2 47.9L114.8 52.5Z" fill="white"/>
        <path d="M110.6 51.4001C110.8 51.5001 111.1 51.5 111.2 51.6L112.2 47C112 46.9 111.7 46.9 111.6 46.8L110.6 51.4001Z" fill="white"/>
        <path d="M112.7 51.8C112.9 51.9 113.2 52 113.3 52L114.6 47.4C114.4 47.3 114.1 47.2 114 47.2L112.7 51.8Z" fill="white"/>
        <path d="M99.7 45.4V50.2C99.8 50.2 99.9 50.2 100 50.2C100.1 50.2 100.2 50.2 100.3 50.2V45.4C100.2 45.4 100.1 45.4 100 45.4C99.9 45.4 99.8 45.4 99.7 45.4Z" fill="white"/>
        <path d="M84.6998 52.6C84.8998 52.5 85.0998 52.4001 85.2998 52.4001L83.8998 47.8C83.6998 47.9 83.4998 48 83.2998 48L84.6998 52.6Z" fill="white"/>
        <path d="M148.7 110.6C148.6 110.8 148.6 111 148.5 111.2L153.1 112.2C153.2 112 153.2 111.8 153.3 111.6L148.7 110.6Z" fill="white"/>
        <path d="M88.8999 51.4C89.0999 51.3 89.3999 51.3 89.4999 51.2L88.4999 46.6C88.2999 46.7 87.9999 46.7 87.8999 46.8L88.8999 51.4Z" fill="white"/>
        <path d="M82.6 53.4C82.8 53.3 83 53.2 83.2 53.2L81.6 48.7C81.4 48.8 81.2 48.9 81 48.9L82.6 53.4Z" fill="white"/>
        <path d="M93.1999 50.7C93.3999 50.7 93.6999 50.6 93.7999 50.6L93.1999 45.9C92.9999 45.9 92.6999 46 92.5999 46L93.1999 50.7Z" fill="white"/>
        <path d="M95.4 50.4C95.6 50.4 95.9 50.4 96 50.3L95.6 45.6C95.4 45.6 95.1 45.6 95 45.7L95.4 50.4Z" fill="white"/>
        <path d="M97.4998 50.2C97.6998 50.2 97.9998 50.2 98.0998 50.2L97.8998 45.4C97.6998 45.4 97.3998 45.4 97.2998 45.4L97.4998 50.2Z" fill="white"/>
        <path d="M91 51C91.2 50.9 91.5 50.9 91.6 50.9L90.8 46.2C90.6 46.2 90.3 46.3 90.2 46.3L91 51Z" fill="white"/>
        <path d="M149.1 108.4C149 108.6 149 108.9 149 109.1L153.7 109.9C153.8 109.7 153.8 109.4 153.8 109.3L149.1 108.4Z" fill="white"/>
        <path d="M149.8 97.6C149.8 97.8 149.8 98.1 149.8 98.3L154.6 98.1C154.6 97.9 154.6 97.6 154.6 97.4L149.8 97.6Z" fill="white"/>
        <path d="M149.4 106.2C149.4 106.4 149.3 106.7 149.3 106.8L154 107.4C154 107.2 154.1 106.9 154.1 106.8L149.4 106.2Z" fill="white"/>
        <path d="M149.8 101.9C149.8 102.1 149.8 102.4 149.8 102.6L154.6 102.8C154.6 102.6 154.6 102.3 154.6 102.1L149.8 101.9Z" fill="white"/>
        <path d="M149.7 104.1C149.7 104.3 149.7 104.6 149.6 104.8L154.3 105.2C154.3 105 154.3 104.7 154.4 104.5L149.7 104.1Z" fill="white"/>
        <path d="M100 148.5C73.3 148.5 51.5 126.7 51.5 100C51.5 73.3 73.3 51.5 100 51.5C126.7 51.5 148.5 73.3 148.5 100C148.5 126.7 126.7 148.5 100 148.5ZM100 53C74 53 52.9 74.1 52.9 100.1C52.9 126.1 74 147.2 100 147.2C126 147.2 147.1 126.1 147.1 100.1C147.1 74.1 126 53 100 53Z" fill="white"/>
        <path d="M46.8998 176.5C46.6998 176.3 46.2998 176.1 46.0998 175.9L45.2998 177.1C45.4998 177.3 45.8998 177.5 46.0998 177.7L46.8998 176.5Z" fill="white"/>
        <path d="M24 153.7C23.8 153.4 23.6 153.1 23.4 152.9L22.2 153.7C22.4 154 22.5999 154.3 22.7999 154.5L24 153.7Z" fill="white"/>
        <path d="M26.4 157C26.1999 156.8 25.9999 156.4 25.7999 156.2L24.7 157.1C24.9 157.3 25.0999 157.7 25.2999 157.9L26.4 157Z" fill="white"/>
        <path d="M28.9998 160.2C28.7998 160 28.4998 159.7 28.3998 159.4L27.2998 160.3C27.4998 160.5 27.7998 160.8 27.8998 161.1L28.9998 160.2Z" fill="white"/>
        <path d="M31.5999 163.2C31.3999 163 31.0999 162.7 30.8999 162.5L29.8999 163.5C30.0999 163.7 30.3999 164 30.5999 164.2L31.5999 163.2Z" fill="white"/>
        <path d="M37.4 168.9C37.2 168.7 36.9 168.4 36.7 168.2L35.7 169.2C35.9 169.4 36.2 169.7 36.4 169.9L37.4 168.9Z" fill="white"/>
        <path d="M21.6999 150.3C21.4999 150 21.2999 149.7 21.0999 149.4L19.8999 150.2C20.0999 150.5 20.2999 150.8 20.4999 151.1L21.6999 150.3Z" fill="white"/>
        <path d="M43.5999 174.1C43.3999 173.9 42.9999 173.7 42.7999 173.5L41.8999 174.6C42.0999 174.8 42.4999 175 42.6999 175.2L43.5999 174.1Z" fill="white"/>
        <path d="M40.5 171.5C40.3 171.3 40 171 39.7 170.9L38.7 172C38.9 172.2 39.2 172.5 39.5 172.6L40.5 171.5Z" fill="white"/>
        <path d="M72.2999 189C71.9999 188.9 71.6999 188.8 71.2999 188.7L70.8999 190.1C71.1999 190.2 71.4999 190.3 71.8999 190.4L72.2999 189Z" fill="white"/>
        <path d="M50.2 178.7C49.9 178.5 49.6 178.3 49.3 178.1L48.5 179.3C48.8 179.5 49.1 179.7 49.4 179.9L50.2 178.7Z" fill="white"/>
        <path d="M68.5 187.7C68.2 187.6 67.9 187.5 67.5 187.4L67 188.8C67.3 188.9 67.6 189 68 189.1L68.5 187.7Z" fill="white"/>
        <path d="M76.1998 190.1C75.8998 190 75.5998 189.9 75.1998 189.8L74.7998 191.2C75.0998 191.3 75.3998 191.4 75.7998 191.5L76.1998 190.1Z" fill="white"/>
        <path d="M64.6 186.2C64.3 186 64 186 63.6 185.8L63 187.2C63.3 187.4 63.6 187.4 64 187.6L64.6 186.2Z" fill="white"/>
        <path d="M60.9999 184.6C60.6999 184.4 60.3999 184.3 59.9999 184.2L59.3999 185.5C59.6999 185.7 59.9999 185.8 60.3999 185.9L60.9999 184.6Z" fill="white"/>
        <path d="M53.7999 180.8C53.4999 180.6 53.2 180.5 52.9 180.3L52.2 181.6C52.5 181.8 52.7999 181.9 53.0999 182.1L53.7999 180.8Z" fill="white"/>
        <path d="M57.3999 182.7C57.0999 182.5 56.7999 182.4 56.4999 182.2L55.8999 183.5C56.1999 183.7 56.4999 183.8 56.7999 184L57.3999 182.7Z" fill="white"/>
        <path d="M9.19985 120.6C9.09985 120.3 8.99985 120 8.99985 119.6L7.59985 119.9C7.69985 120.2 7.79985 120.5 7.79985 120.9L9.19985 120.6Z" fill="white"/>
        <path d="M7.79995 112.6C7.69995 112.3 7.69995 111.9 7.59995 111.6L6.19995 111.8C6.29995 112.1 6.29995 112.5 6.39995 112.8L7.79995 112.6Z" fill="white"/>
        <path d="M6.99985 104.5C6.99985 104.2 6.99985 103.8 6.99985 103.5L5.59985 103.6C5.59985 103.9 5.59985 104.3 5.59985 104.6L6.99985 104.5Z" fill="white"/>
        <path d="M7.1998 92.3C7.1998 92 7.2998 91.6 7.2998 91.3L5.8998 91.1C5.8998 91.4 5.7998 91.8 5.7998 92.1L7.1998 92.3Z" fill="white"/>
        <path d="M7.2998 108.6C7.2998 108.3 7.1998 107.9 7.1998 107.6L5.7998 107.8C5.7998 108.1 5.8998 108.5 5.8998 108.8L7.2998 108.6Z" fill="white"/>
        <path d="M6.99985 96.4C6.99985 96.1 6.99985 95.7 6.99985 95.4L5.59985 95.3C5.59985 95.6 5.59985 96 5.59985 96.3L6.99985 96.4Z" fill="white"/>
        <path d="M8.99985 80.3C9.09985 80 9.19985 79.7 9.19985 79.3L7.79985 79C7.69985 79.3 7.59985 79.6 7.59985 80L8.99985 80.3Z" fill="white"/>
        <path d="M8.1998 84.2C8.2998 83.9 8.2998 83.6 8.3998 83.2L6.9998 83C6.8998 83.3 6.8998 83.6 6.7998 84L8.1998 84.2Z" fill="white"/>
        <path d="M19.5998 146.9C19.3998 146.6 19.2998 146.3 19.0998 146L17.7998 146.7C17.9998 147 18.0998 147.3 18.2998 147.6L19.5998 146.9Z" fill="white"/>
        <path d="M7.6998 88.3C7.7998 88 7.7998 87.6 7.8998 87.3L6.4998 87.1C6.3998 87.4 6.3998 87.8 6.2998 88.1L7.6998 88.3Z" fill="white"/>
        <path d="M14.1999 136C13.9999 135.7 13.9999 135.4 13.7999 135L12.3999 135.6C12.5999 135.9 12.5999 136.2 12.7999 136.6L14.1999 136Z" fill="white"/>
        <path d="M15.7999 139.7C15.5999 139.4 15.4999 139.1 15.3999 138.7L14.0999 139.3C14.2999 139.6 14.3999 139.9 14.4999 140.3L15.7999 139.7Z" fill="white"/>
        <path d="M17.5998 143.4C17.3998 143.1 17.2998 142.8 17.0998 142.5L15.7998 143.1C15.9998 143.4 16.0998 143.7 16.2998 144L17.5998 143.4Z" fill="white"/>
        <path d="M12.5999 132.2C12.4999 131.9 12.3999 131.6 12.2999 131.2L10.8999 131.7C10.9999 132 11.0999 132.3 11.1999 132.7L12.5999 132.2Z" fill="white"/>
        <path d="M10.2 124.5C10.1 124.2 10 123.9 9.9 123.5L8.5 123.9C8.6 124.2 8.7 124.5 8.8 124.9L10.2 124.5Z" fill="white"/>
        <path d="M80.1999 191C79.8999 190.9 79.5999 190.8 79.1999 190.8L78.8999 192.2C79.1999 192.3 79.4999 192.4 79.8999 192.4L80.1999 191Z" fill="white"/>
        <path d="M8.3998 116.6C8.2998 116.3 8.2998 116 8.1998 115.6L6.7998 115.9C6.8998 116.2 6.8998 116.5 6.9998 116.9L8.3998 116.6Z" fill="white"/>
        <path d="M11.2999 128.4C11.1999 128.1 11.0999 127.8 10.9999 127.4L9.59985 127.8C9.69985 128.1 9.79985 128.4 9.89985 128.8L11.2999 128.4Z" fill="white"/>
        <path d="M160.2 171C160 171.2 159.7 171.5 159.4 171.6L160.4 172.7C160.6 172.5 160.9 172.2 161.2 172.1L160.2 171Z" fill="white"/>
        <path d="M169 162.6C168.8 162.8 168.5 163.1 168.3 163.3L169.3 164.3C169.5 164.1 169.8 163.8 170 163.6L169 162.6Z" fill="white"/>
        <path d="M174.1 156.3C173.9 156.5 173.7 156.9 173.5 157.1L174.6 158C174.8 157.8 175 157.4 175.2 157.2L174.1 156.3Z" fill="white"/>
        <path d="M178.7 149.7C178.5 150 178.3 150.3 178.1 150.6L179.3 151.4C179.5 151.1 179.7 150.8 179.9 150.5L178.7 149.7Z" fill="white"/>
        <path d="M176.5 153C176.3 153.3 176.1 153.6 175.9 153.8L177.1 154.6C177.3 154.3 177.5 154 177.7 153.8L176.5 153Z" fill="white"/>
        <path d="M171.6 159.5C171.4 159.7 171.1 160 171 160.3L172.1 161.3C172.3 161.1 172.6 160.8 172.7 160.5L171.6 159.5Z" fill="white"/>
        <path d="M157 173.6C156.8 173.8 156.4 174 156.2 174.2L157.1 175.3C157.3 175.1 157.7 174.9 157.9 174.7L157 173.6Z" fill="white"/>
        <path d="M163.2 168.3C163 168.5 162.7 168.8 162.5 169L163.5 170C163.7 169.8 164 169.5 164.2 169.3L163.2 168.3Z" fill="white"/>
        <path d="M9.9 76.3C10 76 10.1 75.7 10.2 75.3L8.8 74.9C8.7 75.2 8.6 75.5 8.5 75.9L9.9 76.3Z" fill="white"/>
        <path d="M184.6 139C184.4 139.3 184.3 139.6 184.2 140L185.5 140.6C185.7 140.3 185.8 140 185.9 139.6L184.6 139Z" fill="white"/>
        <path d="M189 127.6C188.9 127.9 188.8 128.2 188.7 128.6L190.1 129C190.2 128.7 190.3 128.4 190.4 128L189 127.6Z" fill="white"/>
        <path d="M190.1 123.8C190 124.1 189.9 124.4 189.8 124.8L191.2 125.2C191.3 124.9 191.4 124.6 191.5 124.2L190.1 123.8Z" fill="white"/>
        <path d="M187.7 131.5C187.6 131.8 187.5 132.1 187.4 132.5L188.8 133C188.9 132.7 189 132.4 189.1 132L187.7 131.5Z" fill="white"/>
        <path d="M84.2 191.8C83.9 191.7 83.6 191.7 83.2 191.6L83 193C83.3 193.1 83.6 193.1 84 193.2L84.2 191.8Z" fill="white"/>
        <path d="M182.8 142.6C182.6 142.9 182.5 143.2 182.3 143.5L183.6 144.1C183.8 143.8 183.9 143.5 184.1 143.2L182.8 142.6Z" fill="white"/>
        <path d="M180.8 146.2C180.6 146.5 180.5 146.8 180.3 147.1L181.6 147.8C181.8 147.5 181.9 147.2 182.1 146.9L180.8 146.2Z" fill="white"/>
        <path d="M153.8 176C153.5 176.2 153.2 176.4 153 176.6L153.8 177.8C154.1 177.6 154.4 177.4 154.6 177.2L153.8 176Z" fill="white"/>
        <path d="M186.2 135.3C186 135.6 186 135.9 185.8 136.3L187.2 136.9C187.4 136.6 187.4 136.3 187.6 135.9L186.2 135.3Z" fill="white"/>
        <path d="M191 119.8C190.9 120.1 190.8 120.4 190.8 120.8L192.2 121.1C192.3 120.8 192.4 120.5 192.4 120.1L191 119.8Z" fill="white"/>
        <path d="M150.4 178.2C150.1 178.4 149.8 178.6 149.5 178.8L150.3 180C150.6 179.8 150.9 179.6 151.2 179.4L150.4 178.2Z" fill="white"/>
        <path d="M100.6 194.6V193.2C100.4 193.2 100.3 193.2 100.1 193.2C99.8999 193.2 99.7999 193.2 99.5999 193.2V194.6C99.7999 194.6 99.8999 194.6 100.1 194.6C100.2 194.6 100.3 194.6 100.6 194.6Z" fill="white"/>
        <path d="M104.6 193C104.3 193 103.9 193 103.6 193L103.7 194.4C104 194.4 104.4 194.4 104.7 194.4L104.6 193Z" fill="white"/>
        <path d="M112.6 192.2C112.3 192.3 111.9 192.3 111.6 192.4L111.8 193.8C112.1 193.8 112.5 193.7 112.8 193.6L112.6 192.2Z" fill="white"/>
        <path d="M88.2 192.4C87.9 192.4 87.6 192.3 87.2 192.2L87 193.6C87.3 193.7 87.6 193.7 88 193.8L88.2 192.4Z" fill="white"/>
        <path d="M116.6 191.6C116.3 191.7 116 191.8 115.6 191.8L115.8 193.2C116.1 193.1 116.4 193.1 116.8 193L116.6 191.6Z" fill="white"/>
        <path d="M96.1999 193C95.8999 193 95.4999 193 95.1999 193L95.0999 194.4C95.3999 194.4 95.6999 194.4 96.0999 194.4L96.1999 193Z" fill="white"/>
        <path d="M92.2 192.8C91.9 192.8 91.6 192.7 91.2 192.7L91 194.1C91.3 194.1 91.6 194.2 92 194.2L92.2 192.8Z" fill="white"/>
        <path d="M108.6 192.7C108.3 192.7 107.9 192.8 107.6 192.8L107.8 194.2C108.1 194.2 108.5 194.1 108.8 194.1L108.6 192.7Z" fill="white"/>
        <path d="M136.1 185.9C135.8 186.1 135.5 186.1 135.1 186.3L135.7 187.7C136 187.5 136.3 187.5 136.7 187.3L136.1 185.9Z" fill="white"/>
        <path d="M120.6 190.8C120.3 190.9 120 191 119.6 191L119.9 192.4C120.2 192.3 120.5 192.2 120.9 192.2L120.6 190.8Z" fill="white"/>
        <path d="M143.4 182.4C143.1 182.6 142.8 182.7 142.5 182.9L143.1 184.2C143.4 184 143.7 183.9 144 183.7L143.4 182.4Z" fill="white"/>
        <path d="M147 180.4C146.7 180.6 146.4 180.7 146.1 180.9L146.8 182.2C147.1 182 147.4 181.9 147.7 181.7L147 180.4Z" fill="white"/>
        <path d="M139.8 184.2C139.5 184.4 139.2 184.5 138.8 184.6L139.4 185.9C139.7 185.7 140 185.7 140.4 185.5L139.8 184.2Z" fill="white"/>
        <path d="M124.6 189.8C124.3 189.9 124 190 123.6 190.1L124 191.5C124.3 191.4 124.6 191.3 125 191.2L124.6 189.8Z" fill="white"/>
        <path d="M128.5 188.7C128.2 188.8 127.9 188.9 127.5 189L127.9 190.4C128.2 190.3 128.5 190.2 128.9 190.1L128.5 188.7Z" fill="white"/>
        <path d="M132.3 187.4C132 187.5 131.7 187.6 131.3 187.7L131.8 189.1C132.1 189 132.4 188.9 132.8 188.8L132.3 187.4Z" fill="white"/>
        <path d="M25.8998 43.8C26.0998 43.6 26.2998 43.2 26.4998 43L25.3998 42.1C25.1998 42.3 24.9998 42.7 24.7998 42.9L25.8998 43.8Z" fill="white"/>
        <path d="M173.6 43.1C173.8 43.3 174 43.7 174.2 43.9L175.3 43C175.1 42.8 174.9 42.4 174.7 42.2L173.6 43.1Z" fill="white"/>
        <path d="M185.9 64.1C186.1 64.4 186.1 64.7 186.3 65.1L187.7 64.5C187.5 64.2 187.5 63.9 187.3 63.5L185.9 64.1Z" fill="white"/>
        <path d="M178.3 49.8C178.5 50.1 178.7 50.4 178.9 50.7L180.1 49.9C179.9 49.6 179.7 49.3 179.5 49L178.3 49.8Z" fill="white"/>
        <path d="M171 39.9C171.2 40.1 171.5 40.4 171.6 40.7L172.7 39.8C172.5 39.6 172.2 39.3 172.1 39L171 39.9Z" fill="white"/>
        <path d="M168.4 36.9C168.6 37.1 168.9 37.4 169.1 37.6L170.1 36.6C169.9 36.4 169.6 36.1 169.4 35.9L168.4 36.9Z" fill="white"/>
        <path d="M184.2 60.4C184.4 60.7 184.5 61 184.6 61.4L185.9 60.8C185.7 60.5 185.6 60.2 185.5 59.8L184.2 60.4Z" fill="white"/>
        <path d="M180.4 53.2C180.6 53.5 180.7 53.8 180.9 54.1L182.2 53.4C182 53.1 181.9 52.8 181.7 52.5L180.4 53.2Z" fill="white"/>
        <path d="M182.4 56.7C182.6 57 182.7 57.3 182.9 57.6L184.2 57C184 56.7 183.9 56.4 183.7 56.1L182.4 56.7Z" fill="white"/>
        <path d="M176 46.4C176.2 46.7 176.4 47 176.6 47.3L177.8 46.5C177.6 46.2 177.4 45.9 177.2 45.7L176 46.4Z" fill="white"/>
        <path d="M142.7 17.3C143 17.5 143.3 17.6 143.6 17.8L144.2 16.5C143.9 16.3 143.6 16.2 143.3 16L142.7 17.3Z" fill="white"/>
        <path d="M146.2 19.3C146.5 19.5 146.8 19.6 147.1 19.8L147.8 18.5C147.5 18.3 147.2 18.2 146.9 18L146.2 19.3Z" fill="white"/>
        <path d="M131.5 12.4C131.8 12.5 132.1 12.6 132.5 12.7L133 11.3C132.7 11.2 132.4 11.1 132 11L131.5 12.4Z" fill="white"/>
        <path d="M162.6 31.2C162.8 31.4 163.1 31.7 163.3 31.9L164.3 30.9C164.1 30.7 163.8 30.4 163.6 30.2L162.6 31.2Z" fill="white"/>
        <path d="M135.4 13.9C135.7 14.1 136 14.1 136.4 14.3L137 12.9C136.7 12.7 136.4 12.7 136 12.5L135.4 13.9Z" fill="white"/>
        <path d="M156.4 26C156.6 26.2 157 26.4 157.2 26.6L158.1 25.5C157.9 25.3 157.5 25.1 157.3 24.9L156.4 26Z" fill="white"/>
        <path d="M149.8 21.4C150.1 21.6 150.4 21.8 150.7 22L151.5 20.8C151.2 20.6 150.9 20.4 150.6 20.2L149.8 21.4Z" fill="white"/>
        <path d="M153.1 23.6C153.4 23.8 153.7 24 153.9 24.2L154.7 23C154.4 22.8 154.1 22.6 153.9 22.4L153.1 23.6Z" fill="white"/>
        <path d="M139 15.5C139.3 15.7 139.6 15.7 140 15.9L140.6 14.6C140.3 14.4 140 14.3 139.6 14.2L139 15.5Z" fill="white"/>
        <path d="M6.8999 100C6.8999 99.8 6.8999 99.6 6.8999 99.4H5.3999C5.3999 99.6 5.3999 99.8 5.3999 100C5.3999 100.2 5.3999 100.2 5.3999 100.4H6.7999C6.8999 100.3 6.8999 100.2 6.8999 100Z" fill="white"/>
        <path d="M33.7998 165.4L32.7998 166.4C32.9998 166.6 33.2998 166.9 33.4998 167.1L34.4998 166.1C34.1998 165.8 33.9998 165.6 33.7998 165.4Z" fill="white"/>
        <path d="M166.3 34.7L167.3 33.7C167.1 33.5 166.8 33.2 166.6 33L165.6 34C165.8 34.2 166.1 34.5 166.3 34.7Z" fill="white"/>
        <path d="M33.7998 34.6C33.9998 34.4 34.2998 34.1 34.4998 33.9L33.4998 32.9C33.2998 33.1 32.9998 33.4 32.7998 33.6L33.7998 34.6Z" fill="white"/>
        <path d="M193.1 100C193.1 100.2 193.1 100.4 193.1 100.6H194.5C194.5 100.4 194.5 100.2 194.5 100C194.5 99.8 194.5 99.8 194.5 99.6H193.1C193.1 99.8 193.1 99.9 193.1 100Z" fill="white"/>
        <path d="M166.2 165.5C166 165.7 165.7 166 165.5 166.2L166.5 167.2C166.7 167 167 166.7 167.2 166.5L166.2 165.5Z" fill="white"/>
        <path d="M188.7 71.7C188.8 72 188.9 72.3 189 72.7L190.4 72.3C190.3 72 190.2 71.7 190.1 71.3L188.7 71.7Z" fill="white"/>
        <path d="M190.8 79.5C190.9 79.8 191 80.1 191 80.5L192.4 80.2C192.3 79.9 192.2 79.6 192.2 79.2L190.8 79.5Z" fill="white"/>
        <path d="M191.6 83.5C191.7 83.8 191.8 84.1 191.8 84.5L193.2 84.3C193.1 84 193.1 83.7 193 83.3L191.6 83.5Z" fill="white"/>
        <path d="M189.8 75.6C189.9 75.9 190 76.2 190.1 76.6L191.5 76.2C191.4 75.9 191.3 75.6 191.2 75.2L189.8 75.6Z" fill="white"/>
        <path d="M187.4 67.8C187.5 68.1 187.6 68.4 187.7 68.8L189.1 68.3C189 68 188.9 67.7 188.8 67.3L187.4 67.8Z" fill="white"/>
        <path d="M192.2 87.5C192.3 87.8 192.3 88.2 192.4 88.5L193.8 88.3C193.7 88 193.7 87.6 193.6 87.3L192.2 87.5Z" fill="white"/>
        <path d="M194.2 91.4L192.8 91.5C192.8 91.8 192.9 92.2 192.9 92.5L194.3 92.3C194.2 92.1 194.2 91.8 194.2 91.4Z" fill="white"/>
        <path d="M28.3998 40.6C28.5998 40.4 28.8998 40.1 28.9998 39.8L27.8998 38.8C27.6998 39 27.3998 39.3 27.2998 39.6L28.3998 40.6Z" fill="white"/>
        <path d="M56.6 17.7C56.9 17.5 57.2 17.4 57.5 17.2L56.9 15.9C56.6 16.1 56.3 16.2 56 16.4L56.6 17.7Z" fill="white"/>
        <path d="M36.7998 31.8C36.9998 31.6 37.2998 31.3 37.4998 31.1L36.4998 30.1C36.2998 30.3 35.9998 30.6 35.7998 30.8L36.7998 31.8Z" fill="white"/>
        <path d="M42.9999 26.5C43.1999 26.3 43.5999 26.1 43.7999 25.9L42.8999 24.8C42.6999 25 42.2999 25.2 42.0999 25.4L42.9999 26.5Z" fill="white"/>
        <path d="M31 37.5C31.2 37.3 31.5 37 31.7 36.8L30.7 35.8C30.5 36 30.2 36.3 30 36.5L31 37.5Z" fill="white"/>
        <path d="M39.7998 29C39.9998 28.8 40.2998 28.5 40.5998 28.4L39.5998 27.3C39.3998 27.5 39.0998 27.8 38.7998 27.9L39.7998 29Z" fill="white"/>
        <path d="M127.7 11.1C128 11.2 128.3 11.3 128.7 11.4L129.1 10C128.8 9.90001 128.5 9.80001 128.1 9.70001L127.7 11.1Z" fill="white"/>
        <path d="M46.1999 24.1C46.3999 23.9 46.7999 23.7 46.9999 23.5L46.1999 22.3C45.9999 22.5 45.5999 22.7 45.3999 22.9L46.1999 24.1Z" fill="white"/>
        <path d="M49.5998 21.8C49.8998 21.6 50.1998 21.4 50.4998 21.2L49.6998 20C49.3998 20.2 49.0998 20.4 48.7998 20.6L49.5998 21.8Z" fill="white"/>
        <path d="M10.9999 72.4C11.0999 72.1 11.1999 71.8 11.2999 71.4L9.89985 71C9.79985 71.3 9.69985 71.6 9.59985 72L10.9999 72.4Z" fill="white"/>
        <path d="M13.7999 64.8C13.9999 64.5 13.9999 64.2 14.1999 63.8L12.7999 63.2C12.5999 63.5 12.5999 63.8 12.3999 64.2L13.7999 64.8Z" fill="white"/>
        <path d="M15.3999 61.1C15.5999 60.8 15.5999 60.5 15.7999 60.1L14.4999 59.5C14.2999 59.8 14.1999 60.1 14.0999 60.5L15.3999 61.1Z" fill="white"/>
        <path d="M17.1999 57.4C17.3999 57.1 17.4999 56.8 17.6999 56.5L16.3999 55.9C16.1999 56.2 16.0999 56.5 15.8999 56.8L17.1999 57.4Z" fill="white"/>
        <path d="M12.4 68.6C12.6 68.3 12.6 68 12.7 67.6L11.3 67.1C11.2 67.4 11.1 67.7 11 68.1L12.4 68.6Z" fill="white"/>
        <path d="M21.2999 50.4C21.4999 50.1 21.6999 49.8 21.8999 49.5L20.6999 48.7C20.4999 49 20.2999 49.3 20.0999 49.6L21.2999 50.4Z" fill="white"/>
        <path d="M23.4998 47C23.6998 46.7 23.8998 46.4 24.0998 46.2L22.8998 45.4C22.6998 45.7 22.4998 46 22.2998 46.2L23.4998 47Z" fill="white"/>
        <path d="M191.8 115.8C191.7 116.1 191.7 116.4 191.6 116.8L193 117C193.1 116.7 193.2 116.4 193.2 116L191.8 115.8Z" fill="white"/>
        <path d="M19.1999 53.8C19.3999 53.5 19.4999 53.2 19.6999 52.9L18.3999 52.2C18.1999 52.5 18.0999 52.8 17.8999 53.1L19.1999 53.8Z" fill="white"/>
        <path d="M52.9998 19.7C53.2998 19.5 53.5998 19.4 53.8998 19.2L53.1998 17.9C52.8998 18.1 52.5998 18.2 52.2998 18.4L52.9998 19.7Z" fill="white"/>
        <path d="M95.3998 6.99998C95.6998 6.99998 95.9998 6.99998 96.3998 6.99998L96.2998 5.59998C95.9998 5.59998 95.6998 5.59998 95.2998 5.59998L95.3998 6.99998Z" fill="white"/>
        <path d="M103.8 6.99998C104.1 6.99998 104.5 6.99998 104.8 6.99998L104.9 5.59998C104.6 5.59998 104.2 5.59998 103.9 5.59998L103.8 6.99998Z" fill="white"/>
        <path d="M107.8 7.30002C108.1 7.30002 108.5 7.40002 108.8 7.40002L109 6.00002C108.7 6.00002 108.3 5.90002 108 5.90002L107.8 7.30002Z" fill="white"/>
        <path d="M99.5 5.5V6.9C99.7 6.9 99.8 6.9 100 6.9C100.2 6.9 100.3 6.9 100.5 6.9V5.5C100.3 5.5 100.2 5.5 100 5.5C99.8 5.5 99.7 5.5 99.5 5.5Z" fill="white"/>
        <path d="M111.8 7.69999C112.1 7.79999 112.5 7.79999 112.8 7.89999L113 6.49999C112.7 6.39999 112.3 6.39999 112 6.29999L111.8 7.69999Z" fill="white"/>
        <path d="M123.8 9.99998C124.1 10.1 124.4 10.2 124.8 10.3L125.2 8.89997C124.9 8.79997 124.6 8.69998 124.2 8.59998L123.8 9.99998Z" fill="white"/>
        <path d="M115.9 8.30002C116.2 8.40002 116.5 8.40002 116.9 8.50002L117.1 7.10002C116.8 7.00002 116.5 7.00002 116.1 6.90002L115.9 8.30002Z" fill="white"/>
        <path d="M119.8 8.99998C120.1 9.09998 120.4 9.19998 120.8 9.19998L121.1 7.79998C120.8 7.69998 120.5 7.59998 120.1 7.59998L119.8 8.99998Z" fill="white"/>
        <path d="M71.4999 11.4C71.7999 11.3 72.0999 11.2 72.4999 11.1L72.0999 9.70001C71.7999 9.80001 71.4999 9.90001 71.0999 10L71.4999 11.4Z" fill="white"/>
        <path d="M75.4 10.2C75.7 10.1 76 10 76.4 9.9L76 8.5C75.7 8.6 75.4 8.7 75 8.8L75.4 10.2Z" fill="white"/>
        <path d="M91.4 7.40002C91.7 7.40002 92 7.30002 92.4 7.30002L92.2 5.90002C91.9 5.90002 91.6 6.00002 91.2 6.00002L91.4 7.40002Z" fill="white"/>
        <path d="M60.1999 15.8C60.4999 15.6 60.7999 15.5 61.1999 15.4L60.5999 14.1C60.2999 14.3 59.9999 14.4 59.5999 14.5L60.1999 15.8Z" fill="white"/>
        <path d="M63.8998 14.2C64.1998 14 64.4998 14 64.8998 13.8L64.2998 12.4C63.9998 12.6 63.6998 12.6 63.2998 12.8L63.8998 14.2Z" fill="white"/>
        <path d="M67.7 12.7C68 12.6 68.3 12.5 68.7 12.4L68.2 11C67.9 11.1 67.6 11.2 67.2 11.3L67.7 12.7Z" fill="white"/>
        <path d="M87.4 7.80001C87.7 7.70001 88 7.70001 88.4 7.60001L88.2 6.20001C87.9 6.30001 87.6 6.30001 87.2 6.40001L87.4 7.80001Z" fill="white"/>
        <path d="M83.4 8.39999C83.7 8.29999 84 8.19999 84.4 8.19999L84.2 6.79999C83.9 6.89999 83.6 6.89999 83.2 6.99999L83.4 8.39999Z" fill="white"/>
        <path d="M79.3999 9.30001C79.6999 9.20001 79.9999 9.10001 80.3999 9.10001L80.0999 7.70001C79.7999 7.80001 79.4999 7.90001 79.0999 7.90001L79.3999 9.30001Z" fill="white"/>
        <path d="M159.6 28.6C159.8 28.8 160.1 29.1 160.4 29.2L161.4 28.1C161.2 27.9 160.9 27.6 160.6 27.5L159.6 28.6Z" fill="white"/>
        <path d="M192.3 111.8C192.2 112.1 192.2 112.5 192.1 112.8L193.5 113C193.6 112.7 193.6 112.3 193.7 112L192.3 111.8Z" fill="white"/>
        <path d="M192.8 107.8C192.8 108.1 192.7 108.5 192.7 108.8L194.1 109C194.1 108.7 194.2 108.3 194.2 108L192.8 107.8Z" fill="white"/>
        <path d="M193 103.7C193 104 193 104.4 193 104.7L194.4 104.8C194.4 104.5 194.4 104.1 194.4 103.8L193 103.7Z" fill="white"/>
        <path d="M193 95.6C193 95.9 193 96.3 193 96.6L194.4 96.5C194.4 96.2 194.4 95.8 194.4 95.5L193 95.6Z" fill="white"/>
        <path d="M29.7 73.4C26.5 71.9 25.3 68.9 26.7 65.8C27.2 64.8 27.9 64.2 28 63.9C28.1 63.7 28.1 63.5 28.2 63.3C28.4 62.9 29 62.8 29.7 62.8C30.1 62.9 30.6 62.9 31.1 63.2C31.5 63.4 31.7 63.8 31.5 64.1C31.3 64.5 31 64.6 30.4 64.7C29.3 64.9 28.6 65.2 28 66.5C27.1 68.5 28.1 70.3 30.6 71.5C33.2 72.7 35.4 72.2 36.4 70C36.8 69.2 36.9 68.3 36.9 67.2C36.9 67 36.9 66.8 37 66.7C37.1 66.6 37.2 66.5 37.3 66.4C37.4 66.3 37.6 66.4 37.8 66.4C37.9 66.5 38.1 66.6 38.2 66.8C38.8 67.9 38.7 69.6 38.1 70.9C36.5 74.2 33.3 75.1 29.7 73.4Z" fill="white"/>
        <path d="M43.0001 58C40.3001 57 39.7001 57.2 38.6001 58.7C38.3001 59.2 38.2001 59.6 38.5001 59.9L40.3001 61.2C41.3001 61.9 41.9001 61.9 42.1001 62.1C42.5001 62.4 42.5001 62.8 41.9001 63.6C41.3001 64.4 40.9001 64.4 40.6001 64.2C40.4001 64 40.1001 63.5 39.1001 62.8L33.6001 58.9C32.6001 58.2 32.1001 58.1 31.8001 57.9C31.5001 57.7 31.4001 57.3 32.0001 56.5C32.6001 55.6 33.0001 55.6 33.4001 55.8C33.7001 56 33.8001 56.6 34.8001 57.3L36.5001 58.5C36.8001 58.7 36.9001 58.7 37.1001 58.5C38.1001 57 38.3001 56.3 37.0001 55.3C35.3001 53.9 34.9001 52.5 35.8001 51.1C36.5001 50.1 37.6001 49.8 38.4001 50.4C39.1001 50.9 39.2001 51.5 38.8001 52.1C38.5001 52.6 37.9001 52.7 37.5001 52.4C37.2001 52.2 37.2001 52 37.2001 52C37.1001 51.9 36.9001 52 36.8001 52.1C36.4001 52.6 36.7001 53.3 37.7001 54.1C39.1001 55.3 39.0001 56 39.1001 56.1C39.2001 56.1 39.2001 56.1 39.4001 56C40.2001 55.3 41.3001 55.1 43.0001 55.8C44.6001 56.4 45.2001 56.5 45.5001 56C45.7001 55.7 45.9001 55.7 46.2001 55.9C46.7001 56.3 46.7001 57 46.3001 57.6C45.7001 58.5 44.9001 58.7 43.0001 58Z" fill="white"/>
        <path d="M48.0001 54.1C47.7001 53.8 47.9001 53.4 47.3001 52L43.6001 43.3C43.4001 42.8 43.6001 42.5 44.1001 42C44.6001 41.5 44.9001 41.4 45.4001 41.6L53.9001 45.7C55.3001 46.4 55.7001 46.2 56.0001 46.5C56.4001 47 56.2001 47.3 55.4001 48C54.5001 48.8 54.3001 49 53.8001 48.5C53.6001 48.3 53.6001 48.1 53.4001 47.9C53.3001 47.7 52.8001 47.5 51.7001 46.9C51.6001 46.8 51.4001 46.8 51.2001 47L48.3001 49.7C48.1001 49.9 48.1001 50.1 48.2001 50.3C48.7001 51.3 48.8001 51.7 49.1001 51.9C49.3001 52.2 49.6001 52.2 49.7001 52.4C50.1001 52.8 49.9001 53.2 49.3001 53.8C48.7001 54.4 48.4001 54.5 48.0001 54.1ZM49.9001 46C49.8001 45.9 49.6001 45.8 47.7001 44.9C45.8001 44 45.7001 44 45.7001 44.1C45.6001 44.2 45.7001 44.3 46.5001 46.2C47.3001 48.1 47.4001 48.3 47.5001 48.4C47.6001 48.5 47.7001 48.5 47.8001 48.4L49.9001 46.4C49.9001 46.3 50.0001 46.2 49.9001 46Z" fill="white"/>
        <path d="M63.1999 39.3C63.8999 40.3 64.2999 40.6 64.4999 40.8C64.6999 41.2 64.6999 41.5 63.8999 42.1C62.9999 42.7 62.5999 42.6 62.3999 42.3C62.1999 42 62.2999 41.4 61.5999 40.4L60.6999 39.1C60.3999 38.7 60.2999 38.6 60.1999 38.7C59.9999 38.8 59.5999 39.7 58.3999 40.5C56.1999 42 54.2999 41.7 52.8999 39.6L52.1999 38.5C51.4999 37.5 51.0999 37.2 50.8999 37C50.6999 36.7 50.6999 36.3 51.4999 35.7C52.3999 35.1 52.7999 35.2 52.9999 35.5C53.1999 35.8 53.0999 36.4 53.7999 37.4L54.4999 38.5C55.3999 39.8 56.4999 40.1 57.7999 39.1C58.9999 38.3 59.4999 37.4 58.9999 36.6L57.6999 34.7C56.9999 33.7 56.3999 33.5 56.2999 33.2C56.0999 32.9 56.0999 32.5 56.9999 31.9C57.7999 31.4 58.1999 31.4 58.3999 31.8C58.5999 32.1 58.6999 32.6 59.2999 33.6L63.1999 39.3Z" fill="white"/>
        <path d="M67 39.3C66.9 39 67.2 38.6 67.1 37.1L66.7 27.7C66.7 27.2 66.9 27 67.6 26.7C68.3 26.4 68.6 26.4 68.9 26.8L75.4 33.6C76.5 34.7 76.9 34.7 77.1 35.1C77.3 35.7 77 35.9 76 36.3C74.9 36.8 74.6 36.8 74.3 36.2C74.2 36 74.3 35.8 74.1 35.4C74 35.2 73.7 34.8 72.9 33.9C72.8 33.8 72.7 33.7 72.4 33.8L68.7 35.4C68.4 35.5 68.4 35.7 68.4 35.9C68.5 37 68.5 37.4 68.6 37.7C68.7 38 68.9 38.1 69 38.4C69.2 38.9 69 39.2 68.1 39.6C67.6 39.9 67.2 39.8 67 39.3ZM71.5 32.4C71.4 32.3 71.3 32.1 69.8 30.6C68.4 29.1 68.3 29.1 68.2 29.1C68.1 29.1 68.1 29.3 68.2 31.4C68.3 33.5 68.3 33.7 68.4 33.8C68.5 33.9 68.6 34 68.7 33.9L71.3 32.8C71.5 32.7 71.6 32.6 71.5 32.4Z" fill="white"/>
        <path d="M81.4 33.8999C81.3 33.5999 81.4 33.0999 81.1 31.8999L79.3 24.4999C79.2 24.1999 79 24.0999 78.7 24.1999L78.1 24.2999C76.9 24.5999 76.5 25.6999 76 25.7999C75.7 25.8999 75.4 25.6999 75.3 25.2999C75.1 24.4999 75.4 23.4999 76 23.2999C76.3 23.1999 77.8 22.9999 79.9 22.3999C82 21.8999 83.4 21.3999 83.7 21.2999C84.3 21.0999 85.1 21.9999 85.3 22.6999C85.4 23.0999 85.2 23.3999 84.9 23.4999C84.4 23.5999 83.6 22.7999 82.4 23.0999L81.8 23.2999C81.5 23.3999 81.3 23.5999 81.4 23.8999L83.2 31.2999C83.5 32.4999 83.9 32.8999 83.9 33.1999C84 33.5999 83.8 33.9999 82.9 34.1999C81.9 34.4999 81.5 34.2999 81.4 33.8999Z" fill="white"/>
        <path d="M90.5999 32C90.5999 31.7 90.7999 31.2 90.6999 30L90.2999 23.3C90.1999 22.1 89.9999 21.6 89.8999 21.3C89.8999 20.9 90.0999 20.6 91.0999 20.5C92.1999 20.4 92.4999 20.7 92.4999 21.1C92.4999 21.4 92.1999 21.9 92.1999 23.1L92.2999 24.7C92.2999 25.1 92.4999 25.2 94.2999 25H94.6999C97.7999 24.8 99.1999 25.8 99.2999 28.3C99.3999 30.5 97.5999 32.2 94.8999 32.3C94.0999 32.3 93.3999 32.3 92.6999 32.4C92.1999 32.4 91.6999 32.5 91.1999 32.5C90.8999 32.7 90.6999 32.4 90.5999 32ZM97.2999 28.3C97.1999 26.9 96.3999 26.4 94.7999 26.5C92.7999 26.6 92.4999 26.7 92.5999 27.3L92.7999 30.4C92.7999 31 92.9999 31 94.5999 30.9C96.4999 30.9 97.3999 29.9 97.2999 28.3Z" fill="white"/>
        <path d="M108.3 26.3C109 22.8 111.6 20.9 114.9 21.6C116 21.8 116.8 22.3 117.1 22.4C117.3 22.4 117.5 22.4 117.7 22.4C118.1 22.5 118.4 23 118.5 23.7C118.5 24.1 118.6 24.6 118.5 25.2C118.4 25.6 118.1 25.9 117.7 25.8C117.2 25.7 117.1 25.4 116.9 24.9C116.4 23.9 116 23.2 114.6 23C112.4 22.6 110.9 24 110.4 26.8C109.9 29.6 110.9 31.6 113.3 32.1C114.1 32.3 115.1 32.2 116.1 31.9C116.3 31.8 116.5 31.8 116.6 31.8C116.8 31.8 116.9 31.9 117 32C117.1 32.1 117.1 32.3 117.1 32.5C117.1 32.7 117 32.8 116.8 32.9C115.9 33.7 114.2 34 112.8 33.8C109.3 33.1 107.6 30.2 108.3 26.3Z" fill="white"/>
        <path d="M123.1 35.9C123.2 35.6 123.6 35.2 124.1 34.1L126.9 27C127 26.7 126.9 26.5 126.6 26.4L126 26.2C124.8 25.7 123.9 26.4 123.4 26.2C123.1 26.1 122.9 25.7 123.1 25.4C123.4 24.7 124.3 24 124.9 24.2C125.2 24.3 126.5 25 128.5 25.7C130.5 26.5 131.9 26.9 132.2 27C132.8 27.2 132.9 28.4 132.7 29.1C132.5 29.5 132.2 29.6 131.9 29.5C131.5 29.3 131.2 28.2 130 27.7L129.4 27.5C129.1 27.4 128.8 27.5 128.7 27.7L125.9 34.8C125.5 35.9 125.5 36.5 125.4 36.8C125.2 37.2 124.9 37.4 124 37C123.1 36.6 122.9 36.3 123.1 35.9Z" fill="white"/>
        <path d="M129.5 38.4C129.7 38.1 130.2 38.1 131.4 37.2L138.8 31.3C139.2 31 139.5 31 140.2 31.4C140.9 31.8 141 32 140.9 32.5L139.2 41.8C138.9 43.3 139.2 43.7 139 44C138.7 44.5 138.3 44.4 137.4 43.9C136.4 43.3 136.2 43.1 136.5 42.5C136.6 42.3 136.8 42.2 137 41.9C137.1 41.7 137.2 41.2 137.5 40C137.5 39.9 137.5 39.7 137.3 39.6L133.9 37.6C133.6 37.4 133.5 37.5 133.3 37.6C132.5 38.3 132.1 38.6 132 38.9C131.8 39.2 131.8 39.4 131.7 39.6C131.4 40.1 131 40 130.3 39.6C129.4 39.2 129.2 38.9 129.5 38.4ZM137.8 38C137.9 37.9 137.9 37.6 138.3 35.6C138.7 33.6 138.6 33.5 138.5 33.4C138.4 33.3 138.3 33.4 136.7 34.8C135.1 36.1 134.9 36.3 134.9 36.3C134.8 36.4 134.9 36.5 135 36.6L137.4 38.1C137.6 38.1 137.7 38.1 137.8 38Z" fill="white"/>
        <path d="M142.4 46.9C142.6 46.7 143.1 46.4 143.9 45.5L148.8 39.7C149 39.5 149 39.2 148.7 39L148.2 38.6C147.2 37.8 146.1 38.1 145.8 37.8C145.5 37.6 145.5 37.2 145.8 36.9C146.3 36.3 147.4 35.9 147.8 36.3C148 36.5 149.1 37.5 150.8 38.9C152.5 40.3 153.7 41.2 153.9 41.3C154.4 41.7 154.2 42.8 153.7 43.4C153.4 43.7 153.1 43.7 152.8 43.5C152.4 43.2 152.6 42 151.6 41.2L151 41C150.7 40.8 150.5 40.8 150.3 41L145.4 46.8C144.6 47.7 144.5 48.3 144.3 48.5C144 48.8 143.6 48.9 142.9 48.3C142.1 47.6 142.1 47.2 142.4 46.9Z" fill="white"/>
        <path d="M149.3 53.2C149.5 53 150.1 52.9 151 52.1L156.2 47.8C157.1 47 157.4 46.5 157.6 46.3C157.9 46 158.3 46.1 158.9 46.8C159.6 47.6 159.6 48 159.2 48.3C159 48.5 158.3 48.5 157.4 49.3L156.2 50.3C155.9 50.6 155.9 50.7 157.1 52.1L157.4 52.4C159.4 54.8 159.4 56.5 157.4 58.1C155.7 59.5 153.3 59 151.5 56.9C151 56.3 150.6 55.7 150.1 55.1C149.8 54.7 149.4 54.4 149.1 54C148.9 53.8 149 53.4 149.3 53.2ZM156.2 56.4C157.3 55.5 157.2 54.5 156.2 53.3C154.9 51.7 154.7 51.6 154.3 51.9L151.9 53.9C151.4 54.3 151.5 54.5 152.5 55.7C153.7 57.2 155 57.4 156.2 56.4Z" fill="white"/>
        <path d="M169 73.9C165.7 75.6 162.2 74.6 160.7 71.7C159.3 68.9 160.2 66 162.9 64.3C163.2 64.1 163.2 63.9 163 63.4L162.8 62.9C162.5 62.4 162.3 62.3 161.9 62.5L159.9 63.5C158.8 64 158.5 64.6 158.3 64.7C157.9 64.9 157.5 64.8 157 63.8C156.6 62.9 156.7 62.6 157.1 62.4C157.4 62.3 157.9 62.2 159 61.7L165 58.7C166.1 58.2 166.4 57.7 166.7 57.6C167.1 57.4 167.4 57.5 167.9 58.4C168.4 59.4 168.3 59.8 167.9 59.9C167.6 60 167 59.9 165.9 60.5L164.4 61.3C163.9 61.5 163.9 61.8 164.1 62.3L164.4 62.8C164.6 63.3 164.9 63.4 165.4 63.3C168.1 62.6 170.7 63.7 171.9 66.1C173.3 69.1 172.2 72.3 169 73.9ZM168.1 72C170.6 70.7 171.5 68.7 170.6 66.8C169.7 65 167.2 64.6 164.6 65.9C162.1 67.2 161.2 69.2 162.1 71.1C163 72.9 165.5 73.3 168.1 72Z" fill="white"/>
        <path d="M85.9999 182.4C85.9999 182.1 86.2999 181.6 86.2999 180.4V172.8C86.2999 171.6 85.8999 171.3 85.8999 170.7C85.8999 170.2 86.2999 170.1 86.8999 169.9C87.3999 169.8 87.6999 169.8 87.7999 169.8C88.0999 169.8 88.2999 170 88.2999 170.3V170.9C88.2999 171 88.2999 171.1 88.3999 171.1C88.6999 171.1 89.2999 169.9 91.0999 169.9C93.2999 169.9 94.7999 171.8 94.7999 174.5C94.7999 177.3 92.9999 179.3 90.4999 179.3C89.4999 179.3 88.7999 178.8 88.4999 178.8C88.2999 178.8 88.2999 178.9 88.2999 179.2V180.4C88.2999 181.6 88.6999 182.1 88.6999 182.4C88.6999 182.8 88.3999 183.1 87.2999 183.1C86.2999 183.1 85.9999 182.8 85.9999 182.4ZM92.6999 174.4C92.6999 172.3 91.8999 171.1 90.5999 171.1C89.2999 171.1 88.1999 172.3 88.1999 173.9V176.5C88.1999 177.1 88.9999 177.8 90.2999 177.8C91.7999 178 92.6999 176.7 92.6999 174.4Z" fill="white"/>
        <path d="M96.7998 174.7C96.7998 171.9 98.5998 169.8 101.2 169.8C102.4 169.8 103 170.3 103.2 170.3C103.4 170.3 103.4 170.2 103.4 170V168.7C103.4 167.5 103 167.2 103 166.6C103 166.1 103.4 166 104 165.8C104.5 165.7 104.8 165.7 104.9 165.7C105.2 165.7 105.4 165.9 105.4 166.2V176C105.4 177.3 106 177.8 106 178.3C106 178.7 105.7 178.9 105 179.1C104.5 179.2 104.4 179.3 104.2 179.3C103.9 179.3 103.8 179 103.7 178.6C103.7 178 103.6 177.9 103.5 177.9C103.3 177.9 102.4 179.2 100.6 179.2C98.2998 179.3 96.7998 177.4 96.7998 174.7ZM103.3 175.1V172.5C103.3 171.9 102.5 171.2 101.2 171.2C99.6998 171.2 98.7998 172.4 98.7998 174.7C98.7998 176.8 99.5998 178 100.9 178C102.3 178 103.3 176.8 103.3 175.1Z" fill="white"/>
        <path d="M108.7 178.4C108.7 178.1 109 177.6 109 176.4V171.8C109 171.4 108.9 171.3 108.5 171.3H108.1C107.7 171.3 107.6 171.1 107.6 170.6C107.6 170.1 107.7 170 108.1 170H108.6C108.9 170 109 169.9 109 169.5V169.4C109 167.4 110.2 165.7 111.9 165.7C112.6 165.7 112.9 166 112.9 166.6C112.9 167.1 112.6 167.4 112.1 167.4C111.4 167.4 111.1 168 111.1 169V169.3C111.1 169.7 111.2 169.9 111.6 169.9H112.5C112.9 169.9 113 170.1 113 170.5C113 170.9 112.9 171.2 112.5 171.2H111.6C111.2 171.2 111.1 171.3 111.1 171.7V176.3C111.1 177.5 111.5 178 111.5 178.3C111.5 178.7 111.2 179 110.1 179C109 179.1 108.7 178.9 108.7 178.4Z" fill="white"/>
        <path d="M105.6 100.8C105.9 101.1 106.4 101.1 106.6 100.9C106.8 100.7 106.9 100.3 106.7 100.1C107.6 100.4 108.4 100.4 108.9 100C109.3 99.6 109.4 98.9 109.1 98.1C110.7 97.7 112.7 97.9 114.2 98.3C116.4 98.8 118.5 99.3 120.9 98.5C122.1 98.2 123.2 97.5 124.2 96.5C126.9 93.8 127.2 89.6 124.9 87.2C124.4 86.7 123.9 86.3 123.3 86.1C123.2 86.1 123.2 85.9 123.3 85.8C123.5 85.7 123.7 85.5 123.9 85.3C125.6 83.6 125.6 80.9 123.9 79.2C122.2 77.5 119.5 77.5 117.8 79.2C117.6 79.4 117.4 79.6 117.3 79.8C117.2 79.9 117.1 79.9 117 79.8C116.7 79.2 116.4 78.6 115.9 78.2C113.5 75.8 109.4 76.1 106.6 78.9C105.6 79.9 105 81 104.6 82.2C103.8 84.6 104.3 86.6 104.8 88.9C105.2 90.5 105.3 92.5 105 94.1C104.2 93.9 103.6 93.9 103.2 94.3C102.7 94.8 102.7 95.5 103.1 96.4C102.8 96.2 102.5 96.3 102.3 96.5C102 96.8 102 97.2 102.3 97.5L102.4 97.6L77.5 122.5C77.1 122.9 77.1 123.7 77.5 124.1L79.3 125.9C79.7 126.3 80.5 126.3 80.9 125.9L105.6 100.8ZM120.7 88.3C120.7 87.9 121.1 87.6 121.5 87.7C122.2 87.8 122.9 88.1 123.4 88.7C125 90.3 124.7 93.1 122.7 95.1C120.8 97 117.9 97.3 116.3 95.8C115.8 95.3 115.5 94.6 115.3 93.9C115.2 93.5 115.5 93.2 115.9 93.1C117.1 93 118.2 92.4 119 91.6C120.1 90.6 120.6 89.5 120.7 88.3ZM119.5 80.4C120.3 79.8 121.3 79.8 122.1 80.4C122.2 80.5 122.3 80.6 122.4 80.7C122.5 80.8 122.6 80.9 122.7 81C123.3 81.8 123.3 82.8 122.7 83.6C121.9 84.8 120.2 84.9 119.2 83.9C118.2 82.9 118.3 81.3 119.5 80.4ZM117.7 85.3C119.1 86.7 119 89 117.4 90.3C116.2 91.2 114.5 91.2 113.4 90.3C113.3 90.2 113.2 90.1 113.1 90C113 89.9 112.9 89.8 112.8 89.7C111.9 88.5 111.9 86.8 112.8 85.7C114 84 116.4 83.9 117.7 85.3ZM108 80.3C109.9 78.4 112.8 78.1 114.4 79.6C114.9 80.1 115.2 80.8 115.4 81.5C115.5 81.9 115.2 82.2 114.8 82.3C113.7 82.4 112.5 83 111.7 83.8C110.8 84.7 110.3 85.8 110.2 86.9C110.2 87.3 109.8 87.6 109.4 87.5C108.7 87.4 108 87.1 107.5 86.5C105.8 85.1 106.1 82.2 108 80.3ZM107.1 89.5C107.1 89.3 107.3 89.1 107.5 89.2C108.3 89.6 109.3 89.8 110.3 89.7C110.4 89.7 110.5 89.8 110.6 89.9C110.9 90.5 111.2 91 111.7 91.5C112.2 92 112.7 92.3 113.3 92.6C113.4 92.6 113.5 92.7 113.5 92.9C113.5 93.9 113.6 94.8 114 95.7C114.1 95.9 113.9 96.1 113.7 96.1C112.1 95.7 110.4 95.3 108.2 95.4C108.1 95.4 108.1 95.4 108 95.3C107.9 95.2 107.9 95.2 107.9 95.1C107.9 92.8 107.5 91.1 107.1 89.5Z" fill="white"/>
        <path d="M82.4999 115C80.1999 113.8 79.6999 113.7 78.2999 115C77.7999 115.5 77.7999 115.7 78.0999 116L79.1999 117.1C80.1999 118.1 80.7999 118.1 81.0999 118.3C81.4999 118.7 81.4999 119.3 80.4999 120.3C79.5999 121.2 78.9999 121.2 78.5999 120.8C78.2999 120.5 78.1999 120 77.1999 119L72.4999 114.3C71.4999 113.3 70.9999 113.2 70.6999 112.9C70.2999 112.5 70.2999 111.9 70.6999 111.5C70.9999 111.2 71.3999 110.9 71.7999 110.6C72.3999 110 72.8999 109.4 73.4999 108.8C75.8999 106.4 77.7999 106.1 79.4999 107.8C80.2999 108.6 80.4999 110 79.9999 111.3C79.8999 111.5 79.9999 111.5 79.9999 111.6C79.9999 111.6 80.0999 111.7 80.2999 111.6C81.0999 111.3 81.7999 111.4 82.8999 112C84.4999 112.9 84.9999 113 85.4999 112.6C85.7999 112.3 85.9999 112.4 86.2999 112.7C86.7999 113.2 86.7999 114.2 86.0999 114.9C85.3999 115.7 84.4999 116.1 82.4999 115ZM77.5999 110C76.6999 109.1 75.7999 109.3 74.6999 110.5C73.6999 111.5 73.6999 111.7 74.4999 112.5L75.8999 113.9C76.1999 114.2 76.5999 114 77.0999 113.5C78.4999 112.2 78.5999 111 77.5999 110Z" fill="white"/>
        <path d="M94.6 102.4C94.8 102.6 94.8 102.7 94.9 103.1C95.1 104.8 94.4 106.7 93 108.1C90.2 110.9 86.7 110.5 83.7 107.5C81 104.8 80.9 101.4 83.6 98.7C84.4 97.9 85.2 97.6 85.4 97.3C85.6 97.1 85.7 96.8 85.9 96.6C86.3 96.2 87.1 96.3 87.9 96.7C88.4 96.9 88.9 97.3 89.3 97.7C89.7 98.1 89.8 98.7 89.4 99.1C88.9 99.6 88.4 99.5 87.7 99.3C86.7 99.1 85.8 99 84.8 100C83.4 101.4 83.7 103.4 85.7 105.4C87.7 107.4 89.9 108.1 91.5 106.5C92.5 105.5 92.6 104.4 91.7 103.4L91.3 103C91.1 102.8 90.7 102.8 90.5 103L89.4 104.1C88.9 104.6 88.4 104.6 88 104.2C87.5 103.7 87.7 103.2 89.5 101.4C91.3 99.6 91.8 99.5 92.3 100.1C92.6 100.4 92.8 101 93.8 102C94 102.1 94.3 102 94.6 102.4Z" fill="white"/>
    </g>
    <defs>
        <filter id="filter0_b" x="-7" y="-7" width="214" height="214" filterUnits="userSpaceOnUse" color-interpolation-filters="sRGB">
            <feFlood flood-opacity="0" result="BackgroundImageFix"/>
            <feGaussianBlur in="BackgroundImage" stdDeviation="3.5"/>
            <feComposite in2="SourceAlpha" operator="in" result="effect1_backgroundBlur"/>
            <feBlend mode="normal" in="SourceGraphic" in2="effect1_backgroundBlur" result="shape"/>
        </filter>
    </defs>
</svg>
