<svg width="150" height="30" viewBox="0 0 150 30" fill="none" xmlns="http://www.w3.org/2000/svg">
    <g clip-path="url(#clip0)">
        <path opacity="0.1" d="M135 30H15C6.75 30 0 23.25 0 15C0 6.75 6.75 0 15 0H135C143.25 0 150 6.75 150 15C150 23.25 143.25 30 135 30Z" fill="#2A0C3E"/>
        <path d="M135 0H127.5H22.5H15C6.75 0 0 6.75 0 15C0 23.25 6.75 30 15 30H22.5H127.5H135C143.25 30 150 23.25 150 15C150 6.75 143.25 0 135 0ZM148.5 15C148.5 15.15 148.5 15.375 148.5 15.525H142.5C142.5 15.375 142.5 15.15 142.5 15C142.5 14.775 142.5 14.625 142.5 14.4H148.5C148.5 14.625 148.5 14.775 148.5 15ZM18 28.5C12.375 26.625 8.25 21.3 8.25 15C8.25 8.7 12.3 3.375 18 1.5H132C136.5 3 139.95 6.675 141.225 11.325V11.4C141.525 12.525 141.675 13.725 141.675 15C141.675 16.2 141.525 17.4 141.225 18.525H141.15V18.675C140.025 23.325 136.5 27 132 28.5H18ZM1.5 15C1.5 14.775 1.5 14.625 1.5 14.4H7.5C7.5 14.625 7.5 14.775 7.5 15C7.5 15.15 7.5 15.375 7.5 15.525H1.5C1.5 15.375 1.5 15.15 1.5 15ZM5.55 5.4H11.025C10.725 5.775 10.425 6.15 10.2 6.525H4.5C4.8 6.15 5.175 5.775 5.55 5.4ZM12.825 3.525H7.875C8.625 3.075 9.375 2.7 10.125 2.4H14.325C13.875 2.775 13.35 3.15 12.825 3.525ZM12.45 3.9C12.075 4.275 11.7 4.65 11.325 5.025H5.925C6.375 4.65 6.825 4.275 7.35 3.9H12.45ZM9.9 6.9C9.675 7.275 9.45 7.65 9.225 8.025H3.45C3.675 7.65 3.975 7.275 4.2 6.9H9.9ZM9.075 8.4C8.925 8.775 8.7 9.15 8.55 9.525H2.7C2.85 9.15 3.075 8.775 3.3 8.4H9.075ZM8.4 9.9C8.25 10.275 8.175 10.65 8.025 11.025H2.1C2.25 10.65 2.325 10.275 2.475 9.9H8.4ZM7.95 11.4C7.875 11.775 7.8 12.15 7.725 12.525H1.725C1.8 12.15 1.875 11.775 2.025 11.4H7.95ZM7.65 12.9C7.575 13.275 7.575 13.65 7.5 14.025H1.5C1.5 13.65 1.575 13.275 1.65 12.9H7.65ZM7.575 15.9C7.575 16.275 7.65 16.65 7.65 17.025H1.65C1.575 16.65 1.575 16.275 1.5 15.9H7.575ZM7.725 17.4C7.8 17.775 7.875 18.15 7.95 18.525H1.95C1.875 18.15 1.8 17.775 1.725 17.4H7.725ZM8.025 18.9C8.1 19.275 8.25 19.65 8.4 20.025H2.475C2.325 19.65 2.175 19.275 2.1 18.9H8.025ZM8.55 20.4C8.7 20.775 8.85 21.15 9.075 21.525H3.15C2.925 21.15 2.775 20.775 2.625 20.4H8.55ZM9.225 21.9C9.45 22.275 9.675 22.65 9.9 23.025H4.125C3.825 22.65 3.6 22.275 3.375 21.9H9.225ZM10.05 23.4C10.35 23.775 10.575 24.15 10.875 24.525H5.4C5.025 24.15 4.725 23.775 4.425 23.4H10.05ZM11.25 24.9C11.625 25.275 12 25.65 12.375 26.025H7.2C6.75 25.65 6.225 25.275 5.85 24.9H11.25ZM12.75 26.4C13.2 26.775 13.725 27.15 14.25 27.525H9.975C9.225 27.225 8.475 26.85 7.8 26.4H12.75ZM142.05 3.525H137.1C136.65 3.15 136.125 2.775 135.6 2.4H139.8C140.625 2.7 141.375 3.075 142.05 3.525ZM140.925 8.4H146.775C147 8.775 147.15 9.15 147.375 9.525H141.525C141.3 9.15 141.15 8.775 140.925 8.4ZM140.775 8.025C140.55 7.65 140.325 7.275 140.1 6.9H145.8C146.1 7.275 146.325 7.65 146.55 8.025H140.775ZM139.875 6.525C139.575 6.15 139.35 5.775 139.05 5.4H144.525C144.9 5.775 145.2 6.15 145.575 6.525H139.875ZM138.675 5.025C138.3 4.65 137.925 4.275 137.55 3.9H142.65C143.175 4.275 143.625 4.65 144.075 5.025H138.675ZM137.25 26.4H142.2C141.525 26.85 140.775 27.225 140.025 27.525H135.75C136.275 27.15 136.8 26.775 137.25 26.4ZM137.625 26.025C138 25.65 138.375 25.275 138.75 24.9H144.15C143.7 25.275 143.25 25.65 142.8 26.025H137.625ZM139.125 24.525C139.425 24.15 139.725 23.775 139.95 23.4H145.575C145.275 23.775 144.9 24.15 144.6 24.525H139.125ZM140.175 23.025C140.4 22.65 140.625 22.275 140.85 21.9H146.625C146.4 22.275 146.175 22.65 145.875 23.025H140.175ZM141 21.525C141.15 21.15 141.375 20.775 141.525 20.4H147.45C147.3 20.775 147.075 21.15 146.925 21.525H141ZM141.6 20.025C141.75 19.65 141.825 19.275 141.975 18.9H147.9C147.75 19.275 147.675 19.65 147.525 20.025H141.6ZM142.05 18.525C142.125 18.15 142.2 17.775 142.275 17.4H148.275C148.2 17.775 148.125 18.15 148.05 18.525H142.05ZM142.35 17.025C142.425 16.65 142.425 16.275 142.425 15.9H148.425C148.425 16.275 148.35 16.65 148.275 17.025H142.35ZM142.425 14.025C142.425 13.65 142.35 13.275 142.275 12.9H148.275C148.35 13.275 148.35 13.65 148.425 14.025H142.425ZM142.275 12.525C142.2 12.15 142.125 11.775 142.05 11.4H147.975C148.05 11.775 148.2 12.15 148.275 12.525H142.275ZM141.975 11.025C141.9 10.65 141.75 10.275 141.6 9.9H147.525C147.675 10.275 147.825 10.65 147.9 11.025H141.975ZM135 1.5C136.275 1.5 137.475 1.725 138.675 2.025H135C134.7 1.875 134.325 1.65 134.025 1.5H135ZM15.975 1.5C15.675 1.65 15.3 1.8 15 2.025H11.325C12.525 1.725 13.725 1.5 15 1.5H15.975ZM15 28.5C13.575 28.5 12.3 28.275 11.025 27.9H14.925C15.3 28.125 15.675 28.35 16.05 28.5H15ZM134.025 28.5C134.4 28.35 134.775 28.125 135.15 27.9H139.05C137.775 28.275 136.425 28.5 135.075 28.5H134.025Z" fill="white"/>
        <path d="M49.35 11.7C50.325 11.7 50.775 12.075 51.225 12.75C51.45 13.05 51.6 13.275 51.975 13.275C52.2 13.275 52.425 13.05 52.425 12.75C52.425 12.375 52.275 12 52.2 11.7C51.975 11.175 51.75 10.875 51.45 10.875C51.225 10.875 51.15 10.95 51 10.95C50.775 10.95 50.175 10.725 49.35 10.725C46.875 10.725 45.3 12.45 45.3 15C45.3 17.85 46.875 19.725 49.575 19.725C50.55 19.725 51.75 19.275 52.35 18.525C52.425 18.375 52.5 18.3 52.5 18.225C52.5 18.075 52.5 18 52.35 17.925C52.275 17.85 52.125 17.775 52.125 17.775C51.975 17.775 51.9 17.85 51.75 17.925C51 18.225 50.4 18.45 49.8 18.45C48.075 18.45 47.025 17.175 47.025 15.075C46.875 12.9 47.775 11.7 49.35 11.7Z" fill="white"/>
        <path d="M61.275 18.525C60.9 18.525 60.6 18.15 60.375 16.95C60.075 15.675 59.475 15.15 58.725 14.925C58.575 14.85 58.575 14.85 58.575 14.775C58.575 14.625 59.025 14.475 59.175 13.05C59.25 12.075 59.475 11.625 59.925 11.625C60.075 11.625 60.15 11.7 60.15 11.85C60.15 11.925 60 11.925 60 12.225C60 12.6 60.3 12.825 60.75 12.825C61.275 12.825 61.575 12.45 61.575 11.85C61.575 11.1 60.975 10.575 60.075 10.575C58.875 10.575 58.275 11.325 58.125 12.975C58.05 14.175 57.6 14.4 56.325 14.4C56.1 14.4 56.1 14.325 56.1 14.1V12.6C56.1 11.775 56.325 11.325 56.325 11.175C56.325 10.875 56.1 10.65 55.35 10.65C54.6 10.65 54.45 10.875 54.45 11.175C54.45 11.4 54.675 11.775 54.675 12.6V17.475C54.675 18.3 54.45 18.75 54.45 18.9C54.45 19.2 54.675 19.425 55.35 19.425C56.1 19.425 56.325 19.2 56.325 18.9C56.325 18.675 56.1 18.3 56.1 17.475V15.9C56.1 15.6 56.325 15.45 56.85 15.45C58.2 15.45 58.575 15.75 59.1 17.7C59.475 19.05 59.925 19.425 60.75 19.425C61.275 19.425 61.725 19.125 61.725 18.675C61.65 18.6 61.575 18.525 61.275 18.525Z" fill="white"/>
        <path d="M68.025 11.175C67.875 10.875 67.725 10.725 67.2 10.725C66.675 10.725 66.45 10.8 66.3 11.175L63.9 17.55C63.525 18.6 63.15 18.75 63.15 18.975C63.15 19.35 63.375 19.5 63.9 19.5C64.575 19.5 64.8 19.35 64.8 18.975C64.8 18.75 64.725 18.675 64.725 18.375C64.725 18.075 64.875 17.85 65.1 17.1C65.175 16.95 65.25 16.875 65.4 16.875H68.25C68.475 16.875 68.475 16.95 68.475 17.1C68.7 17.925 68.85 18.3 68.85 18.45C68.85 18.675 68.775 18.825 68.775 19.05C68.775 19.5 69 19.575 69.9 19.575C70.65 19.575 70.95 19.5 70.95 19.05C70.95 18.825 70.65 18.675 70.2 17.625L68.025 11.175ZM67.875 15.9H65.775C65.625 15.9 65.55 15.825 65.55 15.75C65.55 15.675 65.625 15.525 66.15 14.1C66.675 12.675 66.75 12.6 66.825 12.6C66.9 12.6 66.975 12.675 67.5 14.025C68.025 15.45 68.1 15.6 68.1 15.75C68.175 15.825 68.025 15.9 67.875 15.9Z" fill="white"/>
        <path d="M78.15 11.25C78.15 10.95 77.925 10.725 77.25 10.725C76.5 10.725 76.275 10.95 76.275 11.25C76.275 11.475 76.5 11.85 76.5 12.675V14.4C76.5 15.075 75.825 15.375 74.775 15.375C73.575 15.375 73.05 14.775 73.05 13.65V12.75C73.05 11.925 73.275 11.475 73.275 11.325C73.275 11.025 73.05 10.8 72.3 10.8C71.55 10.8 71.4 11.025 71.4 11.325C71.4 11.55 71.625 11.925 71.625 12.75V13.725C71.625 15.525 72.6 16.5 74.55 16.5C75.6 16.5 76.2 16.125 76.35 16.125C76.5 16.125 76.575 16.275 76.575 16.575V17.7C76.575 18.525 76.35 18.975 76.35 19.125C76.35 19.425 76.575 19.65 77.325 19.65C78.075 19.65 78.225 19.425 78.225 19.125C78.225 18.9 78 18.525 78 17.7V12.825C77.925 11.85 78.15 11.475 78.15 11.25Z" fill="white"/>
        <path d="M84.825 11.175C84.675 10.875 84.525 10.725 84 10.725C83.475 10.725 83.25 10.8 83.1 11.175L80.7 17.55C80.325 18.6 79.95 18.75 79.95 18.975C79.95 19.35 80.175 19.5 80.7 19.5C81.375 19.5 81.6 19.35 81.6 18.975C81.6 18.75 81.525 18.675 81.525 18.375C81.525 18.075 81.675 17.85 81.9 17.1C81.975 16.95 82.05 16.875 82.2 16.875H85.05C85.275 16.875 85.275 16.95 85.275 17.1C85.5 17.925 85.65 18.3 85.65 18.45C85.65 18.675 85.575 18.825 85.575 19.05C85.575 19.5 85.8 19.575 86.7 19.575C87.45 19.575 87.75 19.5 87.75 19.05C87.75 18.825 87.45 18.675 87 17.625L84.825 11.175ZM84.75 15.9H82.65C82.5 15.9 82.425 15.825 82.425 15.75C82.425 15.675 82.5 15.525 83.025 14.1C83.55 12.675 83.625 12.6 83.7 12.6C83.775 12.6 83.85 12.675 84.375 14.025C84.9 15.45 84.975 15.6 84.975 15.75C84.9 15.825 84.825 15.9 84.75 15.9Z" fill="white"/>
        <path d="M94.425 10.725C94.2 10.725 93.15 10.8 91.575 10.8C90 10.8 88.875 10.725 88.725 10.725C88.275 10.725 87.9 11.475 87.9 12C87.9 12.3 88.125 12.45 88.35 12.45C88.65 12.45 89.175 11.7 90.075 11.7H90.525C90.75 11.7 90.9 11.85 90.9 12V17.475C90.9 18.3 90.675 18.75 90.675 18.9C90.675 19.2 90.9 19.425 91.575 19.425C92.25 19.425 92.475 19.2 92.475 18.9C92.475 18.675 92.25 18.3 92.25 17.475V12C92.25 11.775 92.4 11.7 92.625 11.7H93.075C93.975 11.7 94.425 12.45 94.8 12.45C95.025 12.45 95.25 12.225 95.25 12C95.325 11.4 94.875 10.725 94.425 10.725Z" fill="white"/>
        <path d="M100.5 14.25H100.2C98.925 14.25 98.85 14.175 98.85 13.95V12.75C98.85 11.925 99.075 11.475 99.075 11.325C99.075 11.025 98.85 10.8 98.1 10.8C97.35 10.8 97.2 11.025 97.2 11.325C97.2 11.55 97.425 11.925 97.425 12.75V17.625C97.425 18.45 97.2 18.9 97.2 19.05C97.2 19.35 97.425 19.575 97.725 19.575C98.025 19.575 98.475 19.5 98.775 19.5C99.3 19.5 99.825 19.575 100.425 19.575C102.375 19.575 103.8 18.45 103.8 16.8C103.725 15 102.825 14.25 100.5 14.25ZM100.05 18.45C98.925 18.45 98.775 18.45 98.775 18V15.75C98.775 15.375 99 15.3 100.425 15.3C101.55 15.3 102.15 15.675 102.15 16.725C102.15 17.85 101.4 18.45 100.05 18.45Z" fill="white"/>
    </g>
    <defs>
        <clipPath id="clip0">
            <rect width="150" height="30" fill="white"/>
        </clipPath>
    </defs>
</svg>
