<svg width="200" height="420" viewBox="0 0 200 420" fill="none" xmlns="http://www.w3.org/2000/svg">
    <path d="M100 310.4C44.9 310.4 0 265.5 0 210.4C0 155.3 44.9 110.4 100 110.4C155.1 110.4 200 155.3 200 210.4C200 265.6 155.1 310.4 100 310.4ZM100 113.2C46.3 113.2 2.7 156.9 2.7 210.5C2.7 264.1 46.3 307.8 100 307.8C153.6 307.8 197.3 264.2 197.3 210.5C197.3 156.8 153.7 113.2 100 113.2Z" fill="white"/>
    <path d="M100.4 303C49.2 303 7.59998 261.4 7.59998 210.2C7.59998 159 49.2 117.4 100.4 117.4C151.6 117.4 193.2 159.1 193.2 210.2C193.2 261.3 151.5 303 100.4 303ZM100.4 118.8C50 118.8 8.99998 159.8 8.99998 210.2C8.99998 260.6 50 301.6 100.4 301.6C150.8 301.6 191.8 260.6 191.8 210.2C191.8 159.8 150.8 118.8 100.4 118.8Z" fill="white"/>
    <path d="M44.1451 219.829L9.18469 226.002L9.35859 226.987L44.319 220.814L44.1451 219.829Z" fill="white"/>
    <path d="M54.3 290.5L53.4 290L71.2 259.3L72.1 259.8L54.3 290.5Z" fill="white"/>
    <path d="M128.754 259.234L127.888 259.734L145.634 290.48L146.5 289.981L128.754 259.234Z" fill="white"/>
    <path d="M155.906 219.74L155.733 220.725L190.697 226.877L190.87 225.892L155.906 219.74Z" fill="white"/>
    <path d="M67.1029 256.47L46.6797 285.505L47.4976 286.08L67.9208 257.045L67.1029 256.47Z" fill="white"/>
    <path d="M63.2143 253.431L40.3629 280.599L41.1282 281.243L63.9796 254.074L63.2143 253.431Z" fill="white"/>
    <path d="M35.2 275.9L34.5 275.2L59.6 250.2L59.9 250.5H60.5V250.7L60.3 250.9L35.2 275.9Z" fill="white"/>
    <path d="M56.2037 246.406L29.0908 269.164L29.7337 269.93L56.8466 247.171L56.2037 246.406Z" fill="white"/>
    <path d="M53.2596 242.385L24.2099 262.791L24.7847 263.609L53.8344 243.204L53.2596 242.385Z" fill="white"/>
    <path d="M50.6523 238.289L19.9164 256.053L20.4168 256.919L51.1527 239.155L50.6523 238.289Z" fill="white"/>
    <path d="M16.7 249.8L16.3 248.9L48.4 233.9L48.9 234.9L16.7 249.8Z" fill="white"/>
    <path d="M13.6 242.4L13.2 241.4L46.6 229.4L47 230.3L13.6 242.4Z" fill="white"/>
    <path d="M11.1 234.8L10.9 233.8L45.1 224.6L45.4 225.6L11.1 234.8Z" fill="white"/>
    <path d="M188.9 234.8L154.6 225.6L154.9 224.6L189.1 233.8L188.9 234.8Z" fill="white"/>
    <path d="M186.4 242.4L153.1 230.3L153.4 229.4L186.8 241.4L186.4 242.4Z" fill="white"/>
    <path d="M151.526 234.034L151.103 234.941L183.273 249.95L183.696 249.044L151.526 234.034Z" fill="white"/>
    <path d="M179.5 257L148.8 239.2L149.3 238.3L180.1 256.1L179.5 257Z" fill="white"/>
    <path d="M146.688 242.542L146.115 243.362L175.2 263.717L175.773 262.898L146.688 242.542Z" fill="white"/>
    <path d="M143.749 246.471L143.106 247.237L170.299 270.06L170.942 269.294L143.749 246.471Z" fill="white"/>
    <path d="M140.402 250.157L139.695 250.864L164.804 275.959L165.511 275.252L140.402 250.157Z" fill="white"/>
    <path d="M136.767 253.536L136 254.179L158.816 281.375L159.582 280.733L136.767 253.536Z" fill="white"/>
    <path d="M152.5 286.2L132.1 257.1L132.9 256.6L153.3 285.6L152.5 286.2Z" fill="white"/>
    <path d="M100 267.8C68.4 267.8 42.6 242.1 42.6 210.4C42.6 178.8 68.4 153 100 153C131.6 153 157.4 178.7 157.4 210.4C157.4 242.1 131.6 267.8 100 267.8ZM100 154.5C69.1 154.5 44.1 179.6 44.1 210.5C44.1 241.4 69.2 266.4 100 266.4C130.8 266.4 155.9 241.3 155.9 210.5C156 179.6 130.9 154.5 100 154.5Z" fill="white"/>
    <path d="M79.2 255.7C79 255.6 78.8 255.5 78.6 255.4L76.6 259.7C76.8 259.8 77 259.9 77.2 260L79.2 255.7Z" fill="white"/>
    <path d="M63.4 244.2C63.2 244 63.1 243.9 62.9 243.7L59.4 246.9C59.6 247.1 59.7 247.2 59.9 247.4L63.4 244.2Z" fill="white"/>
    <path d="M69.9 250.1C69.7 249.9 69.6 249.8 69.3 249.7L66.4 253.5C66.6 253.7 66.7 253.8 67 253.9L69.9 250.1Z" fill="white"/>
    <path d="M68.2 248.7C68 248.5 67.9 248.4 67.7 248.2L64.7 251.9C64.9 252.1 65 252.2 65.2 252.4L68.2 248.7Z" fill="white"/>
    <path d="M60.6 241C60.4 240.8 60.3 240.7 60.2 240.4L56.4 243.3C56.6 243.5 56.6 243.7 56.8 243.9L60.6 241Z" fill="white"/>
    <path d="M62 242.6C61.8 242.4 61.7 242.3 61.5 242.1L57.8 245.1C58 245.3 58.1 245.4 58.3 245.6L62 242.6Z" fill="white"/>
    <path d="M58.2001 237.4C58.0001 237.2 58 237 57.8 236.8L53.8 239.4C54 239.6 54.0001 239.8 54.2001 240L58.2001 237.4Z" fill="white"/>
    <path d="M59.4 239.2C59.2 239 59.2 238.8 59 238.6L55.1 241.3C55.3 241.5 55.3 241.7 55.5 241.9L59.4 239.2Z" fill="white"/>
    <path d="M66.6 247.4C66.4 247.2 66.3 247.1 66.1 246.9L62.9 250.4C63.1 250.6 63.2 250.7 63.4 250.9L66.6 247.4Z" fill="white"/>
    <path d="M57 235.6C56.9 235.4 56.8 235.2 56.7 235L52.5 237.4C52.6 237.6 52.7 237.8 52.8 238L57 235.6Z" fill="white"/>
    <path d="M77.2 254.7C77 254.6 76.8 254.5 76.6 254.4L74.4 258.6C74.6 258.7 74.8 258.8 75 258.9L77.2 254.7Z" fill="white"/>
    <path d="M75.4 253.7C75.2 253.6 75 253.5 74.8 253.4L72.4 257.6C72.6 257.7 72.8 257.8 73 257.9L75.4 253.7Z" fill="white"/>
    <path d="M81.2 256.6C81 256.5 80.8 256.4 80.6 256.4L78.8 260.8C79 260.9 79.2 261 79.4 261L81.2 256.6Z" fill="white"/>
    <path d="M85.3 258C85.1 257.9 84.9 257.8 84.7 257.8L83.3 262.4C83.5 262.5 83.7 262.6 83.9 262.6L85.3 258Z" fill="white"/>
    <path d="M73.4 252.6C73.2 252.5 73 252.4 72.8 252.2L70.2 256.2C70.4 256.3 70.6 256.4 70.8 256.6L73.4 252.6Z" fill="white"/>
    <path d="M71.7 251.4C71.5 251.2 71.3 251.2 71.1 251L68.4 254.9C68.6 255.1 68.8 255.1 69 255.3L71.7 251.4Z" fill="white"/>
    <path d="M83.2 257.4C83 257.3 82.8 257.2 82.6 257.2L80.9 261.7C81.1 261.8 81.3 261.9 81.5 261.9L83.2 257.4Z" fill="white"/>
    <path d="M53.3 227.8C53.2 227.6 53.1 227.4 53.1 227.2L48.6 228.8C48.7 229 48.8 229.2 48.8 229.4L53.3 227.8Z" fill="white"/>
    <path d="M50.2 208.6C50.2 208.4 50.2 208.1 50.2 207.9L45.4 207.7C45.4 207.9 45.4 208.2 45.4 208.4L50.2 208.6Z" fill="white"/>
    <path d="M50.4 206.4C50.4 206.2 50.4 205.9 50.5 205.7L45.8 205.3C45.8 205.5 45.8 205.8 45.7 206L50.4 206.4Z" fill="white"/>
    <path d="M50.6 204.2C50.6 204 50.7 203.7 50.7 203.5L46 202.9C46 203.1 45.9 203.4 45.9 203.6L50.6 204.2Z" fill="white"/>
    <path d="M50.2 212.9C50.2 212.7 50.2 212.4 50.2 212.2L45.4 212.4C45.4 212.6 45.4 212.9 45.4 213.1L50.2 212.9Z" fill="white"/>
    <path d="M50.4 215C50.4 214.8 50.4 214.5 50.3 214.3L45.6 214.7C45.6 214.9 45.6 215.2 45.7 215.4L50.4 215Z" fill="white"/>
    <path d="M50.9 202.1C51 201.9 51 201.6 51.1 201.5L46.4 200.7C46.4 200.9 46.3 201.2 46.2 201.3L50.9 202.1Z" fill="white"/>
    <path d="M51.8 197.8C51.9 197.6 52 197.3 52 197.2L47.4 195.9C47.3 196.1 47.2 196.4 47.2 196.5L51.8 197.8Z" fill="white"/>
    <path d="M51.3 199.9C51.4 199.7 51.4 199.4 51.5 199.3L46.9 198.3C46.8 198.5 46.8 198.8 46.7 198.9L51.3 199.9Z" fill="white"/>
    <path d="M50.6 217.2C50.6 217 50.5 216.7 50.5 216.5L45.8 217.1C45.8 217.3 45.9001 217.6 45.9001 217.7L50.6 217.2Z" fill="white"/>
    <path d="M55.9 233.7C55.8 233.5 55.7 233.3 55.6 233.1L51.4 235.3C51.5 235.5 51.6 235.7 51.7 235.9L55.9 233.7Z" fill="white"/>
    <path d="M87.4 258.6C87.2 258.5 86.9 258.4 86.8 258.4L85.5 263C85.7 263.1 85.9 263.2 86.1 263.2L87.4 258.6Z" fill="white"/>
    <path d="M54.1 229.8C54 229.6 53.9 229.4 53.9 229.2L49.5 231C49.6 231.2 49.7 231.4 49.7 231.6L54.1 229.8Z" fill="white"/>
    <path d="M55 231.8C54.9 231.6 54.8 231.4 54.8 231.2L50.5 233.2C50.6 233.4 50.7 233.6 50.7 233.8L55 231.8Z" fill="white"/>
    <path d="M52.6 225.7C52.5 225.5 52.4001 225.3 52.4001 225.1L47.8 226.5C47.9 226.7 48 226.9 48 227.1L52.6 225.7Z" fill="white"/>
    <path d="M52 223.6C51.9 223.4 51.8 223.2 51.8 223L47.2 224.2C47.3 224.4 47.4 224.6 47.4 224.8L52 223.6Z" fill="white"/>
    <path d="M51 219.4C50.9 219.2 50.9 218.9 50.8 218.7L46.1 219.5C46.1 219.7 46.2 220 46.3 220.1L51 219.4Z" fill="white"/>
    <path d="M51.4 221.5C51.3 221.3 51.3 221.1 51.2 220.9L46.6 221.9C46.7 222.1 46.7 222.3 46.8 222.5L51.4 221.5Z" fill="white"/>
    <path d="M132.2 248.4C132 248.6 131.9 248.7 131.7 248.9L134.7 252.6C134.9 252.4 135 252.3 135.2 252.2L132.2 248.4Z" fill="white"/>
    <path d="M137 243.8C136.8 244 136.7 244.1 136.5 244.3L140 247.5C140.2 247.3 140.3 247.2 140.5 247L137 243.8Z" fill="white"/>
    <path d="M133.8 247C133.6 247.2 133.5 247.3 133.3 247.5L136.5 251C136.7 250.8 136.8 250.7 137 250.5L133.8 247Z" fill="white"/>
    <path d="M138.3 242.2C138.1 242.4 138 242.5 137.8 242.7L141.5 245.7C141.7 245.5 141.8 245.4 142 245.2L138.3 242.2Z" fill="white"/>
    <path d="M139.7 240.5C139.5 240.7 139.4 240.9 139.3 241.1L143.1 244C143.3 243.8 143.4 243.6 143.5 243.4L139.7 240.5Z" fill="white"/>
    <path d="M128.8 251C128.6 251.2 128.4 251.2 128.2 251.4L130.9 255.3C131.1 255.1 131.3 255.1 131.5 254.9L128.8 251Z" fill="white"/>
    <path d="M141 238.7C140.8 238.9 140.8 239.1 140.6 239.3L144.5 242C144.7 241.8 144.7 241.6 144.9 241.4L141 238.7Z" fill="white"/>
    <path d="M130.6 249.8C130.4 250 130.3 250.1 130 250.2L132.9 254C133.1 253.8 133.2 253.7 133.5 253.6L130.6 249.8Z" fill="white"/>
    <path d="M52.4001 195.8C52.5001 195.6 52.6 195.4 52.6 195.2L48 193.8C47.9 194 47.8 194.2 47.8 194.4L52.4001 195.8Z" fill="white"/>
    <path d="M148.2 223C148.1 223.2 148 223.4 148 223.6L152.6 224.8C152.7 224.6 152.8 224.4 152.8 224.2L148.2 223Z" fill="white"/>
    <path d="M146.9 227.2C146.8 227.4 146.7 227.6 146.7 227.8L151.2 229.4C151.3 229.2 151.4 229 151.4 228.8L146.9 227.2Z" fill="white"/>
    <path d="M147.6 225.1C147.5 225.3 147.4 225.5 147.4 225.7L152 227.1C152.1 226.9 152.2 226.7 152.2 226.5L147.6 225.1Z" fill="white"/>
    <path d="M89.4 259.1C89.2 259 88.9 259 88.8 258.9L87.8 263.5C88 263.6 88.3 263.6 88.4 263.7L89.4 259.1Z" fill="white"/>
    <path d="M127 252.2C126.8 252.4 126.6 252.4 126.4 252.6L129 256.6C129.2 256.5 129.4 256.4 129.6 256.2L127 252.2Z" fill="white"/>
    <path d="M144.3 233.2C144.2 233.4 144.1 233.6 144 233.8L148.2 236C148.3 235.8 148.4 235.6 148.5 235.4L144.3 233.2Z" fill="white"/>
    <path d="M143.3 235C143.2 235.2 143.1 235.4 143 235.6L147.2 238C147.3 237.8 147.4 237.6 147.5 237.4L143.3 235Z" fill="white"/>
    <path d="M142.2 237C142.1 237.2 142 237.4 141.8 237.6L145.8 240.2C146 240 146 239.8 146.2 239.6L142.2 237Z" fill="white"/>
    <path d="M145.3 231.2C145.2 231.4 145.1 231.6 145 231.8L149.3 233.8C149.4 233.6 149.5 233.4 149.6 233.2L145.3 231.2Z" fill="white"/>
    <path d="M146.2 229.2C146.1 229.4 146 229.6 146 229.8L150.4 231.6C150.5 231.4 150.6 231.2 150.6 231L146.2 229.2Z" fill="white"/>
    <path d="M102.5 260.2C102.3 260.2 102 260.2 101.9 260.2L102.1 265C102.3 265 102.6 265 102.8 265L102.5 260.2Z" fill="white"/>
    <path d="M98.1 260.2C97.9 260.2 97.6 260.2 97.5 260.2L97.3 265C97.5 265 97.8 265 97.9 265L98.1 260.2Z" fill="white"/>
    <path d="M100.3 265V260.2C100.2 260.2 100.1 260.2 100 260.2C99.9 260.2 99.8 260.2 99.7 260.2V265C99.8 265 99.9 265 100 265C100.2 265 100.2 265 100.3 265Z" fill="white"/>
    <path d="M104.7 260C104.5 260 104.2 260 104 260.1L104.4 264.8C104.6 264.8 104.9 264.8 105.1 264.7L104.7 260Z" fill="white"/>
    <path d="M91.6 259.5C91.4 259.5 91.1 259.4 91 259.4L90.1 264.1C90.3 264.1 90.6 264.2 90.7 264.2L91.6 259.5Z" fill="white"/>
    <path d="M106.9 259.8C106.7 259.8 106.4 259.9 106.3 259.9L106.9 264.6C107.1 264.6 107.4 264.5 107.6 264.5L106.9 259.8Z" fill="white"/>
    <path d="M95.9 260.1C95.7 260.1 95.4 260.1 95.3 260L94.9 264.7C95.1 264.7 95.4 264.7 95.5 264.8L95.9 260.1Z" fill="white"/>
    <path d="M93.8 259.8C93.6 259.8 93.3 259.7 93.2 259.7L92.6 264.4C92.8 264.4 93.1 264.5 93.2 264.5L93.8 259.8Z" fill="white"/>
    <path d="M123.3 254.5C123.1 254.6 122.9 254.7 122.7 254.8L124.9 259C125.1 258.9 125.3 258.8 125.5 258.7L123.3 254.5Z" fill="white"/>
    <path d="M121.4 255.4C121.2 255.5 121 255.6 120.8 255.7L122.8 260C123 259.9 123.2 259.8 123.4 259.7L121.4 255.4Z" fill="white"/>
    <path d="M119.4 256.3C119.2 256.4 119 256.5 118.8 256.5L120.6 260.9C120.8 260.8 121 260.7 121.2 260.7L119.4 256.3Z" fill="white"/>
    <path d="M109 259.4C108.8 259.4 108.5 259.5 108.4 259.5L109.2 264.2C109.4 264.2 109.7 264.1 109.8 264.1L109 259.4Z" fill="white"/>
    <path d="M125.2 253.4C125 253.5 124.8 253.6 124.6 253.7L127 257.9C127.2 257.8 127.4 257.7 127.6 257.6L125.2 253.4Z" fill="white"/>
    <path d="M117.4 257.1C117.2 257.2 117 257.3 116.8 257.3L118.4 261.8C118.6 261.7 118.8 261.6 119 261.6L117.4 257.1Z" fill="white"/>
    <path d="M111.1 259C110.9 259.1 110.6 259.1 110.5 259.2L111.5 263.8C111.7 263.7 112 263.7 112.1 263.6L111.1 259Z" fill="white"/>
    <path d="M115.3 257.8C115.1 257.9 114.9 258 114.7 258L116.1 262.6C116.3 262.5 116.5 262.4 116.7 262.4L115.3 257.8Z" fill="white"/>
    <path d="M113.2 258.5C113 258.6 112.8 258.7 112.6 258.7L113.8 263.3C114 263.2 114.3 263.1 114.4 263.1L113.2 258.5Z" fill="white"/>
    <path d="M86.8 162.4C87 162.3 87.2 162.2 87.4 162.2L86.2 157.6C86 157.7 85.7 157.8 85.6 157.8L86.8 162.4Z" fill="white"/>
    <path d="M139.4 179.9C139.6 180.1 139.7 180.2 139.8 180.5L143.6 177.6C143.4 177.4 143.3 177.3 143.2 177L139.4 179.9Z" fill="white"/>
    <path d="M140.6 181.7C140.8 181.9 140.8 182.1 141 182.3L144.9 179.6C144.7 179.4 144.7 179.2 144.5 179L140.6 181.7Z" fill="white"/>
    <path d="M138 178.2C138.2 178.4 138.3 178.5 138.5 178.7L142.2 175.7C142 175.5 141.9 175.4 141.7 175.2L138 178.2Z" fill="white"/>
    <path d="M141.8 183.4C141.9 183.6 142 183.8 142.2 184L146.2 181.4C146.1 181.2 146 181 145.8 180.8L141.8 183.4Z" fill="white"/>
    <path d="M143 185.3C143.1 185.5 143.2 185.7 143.3 185.9L147.5 183.5C147.4 183.3 147.3 183.1 147.2 182.9L143 185.3Z" fill="white"/>
    <path d="M145 189.1C145.1 189.3 145.2 189.5 145.3 189.7L149.6 187.7C149.5 187.5 149.4 187.3 149.3 187.1L145 189.1Z" fill="white"/>
    <path d="M136.6 176.6C136.8 176.8 136.9 176.9 137.1 177.1L140.6 173.9C140.4 173.7 140.3 173.6 140.1 173.4L136.6 176.6Z" fill="white"/>
    <path d="M144.1 187.2C144.2 187.4 144.3 187.6 144.4 187.8L148.6 185.6C148.5 185.4 148.4 185.2 148.3 185L144.1 187.2Z" fill="white"/>
    <path d="M124.7 167.2C124.9 167.3 125.1 167.4 125.3 167.5L127.7 163.3C127.5 163.2 127.3 163.1 127.1 163L124.7 167.2Z" fill="white"/>
    <path d="M122.8 166.2C123 166.3 123.2 166.4 123.4 166.5L125.6 162.3C125.4 162.2 125.2 162.1 125 162L122.8 166.2Z" fill="white"/>
    <path d="M145.9 191.1C146 191.3 146.1 191.5 146.1 191.7L150.5 189.9C150.4 189.7 150.3 189.5 150.3 189.3L145.9 191.1Z" fill="white"/>
    <path d="M118.9 164.3C119.1 164.4 119.3 164.5 119.5 164.5L121.3 160.1C121.1 160 120.9 159.9 120.7 159.9L118.9 164.3Z" fill="white"/>
    <path d="M120.9 165.2C121.1 165.3 121.3 165.4 121.5 165.5L123.5 161.2C123.3 161.1 123.1 161 122.9 160.9L120.9 165.2Z" fill="white"/>
    <path d="M130.2 170.8C130.4 171 130.5 171.1 130.8 171.2L133.7 167.4C133.5 167.2 133.4 167.1 133.1 167L130.2 170.8Z" fill="white"/>
    <path d="M53.1 193.7C53.2 193.5 53.3 193.3 53.3 193.1L48.8 191.5C48.7 191.7 48.6 191.9 48.6 192.1L53.1 193.7Z" fill="white"/>
    <path d="M128.4 169.5C128.6 169.7 128.8 169.7 129 169.9L131.7 166C131.5 165.8 131.3 165.8 131.1 165.6L128.4 169.5Z" fill="white"/>
    <path d="M133.4 173.5C133.6 173.7 133.7 173.8 133.9 174L137.1 170.5C136.9 170.3 136.8 170.2 136.6 170L133.4 173.5Z" fill="white"/>
    <path d="M126.6 168.3C126.8 168.4 127 168.5 127.2 168.7L129.8 164.7C129.6 164.6 129.4 164.5 129.2 164.3L126.6 168.3Z" fill="white"/>
    <path d="M50.2 210.4C50.2 210.2 50.2 210.2 50.2 210H45.4C45.4 210.2 45.4 210.2 45.4 210.4C45.4 210.5 45.4 210.6 45.4 210.6H50.2C50.2 210.6 50.2 210.6 50.2 210.4Z" fill="white"/>
    <path d="M64.6 175.4C64.8 175.2 64.9 175.1 65.1 174.9L61.7 171.5C61.5 171.7 61.4 171.8 61.2 172L64.6 175.4Z" fill="white"/>
    <path d="M64.5 245.4L61.1 248.8C61.3 249 61.4 249.1 61.6 249.3L65 245.9C64.8 245.7 64.6 245.5 64.5 245.4Z" fill="white"/>
    <path d="M135.5 175.5L138.9 172.1C138.7 171.9 138.6 171.8 138.4 171.6L135 175C135.2 175.2 135.4 175.4 135.5 175.5Z" fill="white"/>
    <path d="M149.8 210.4C149.8 210.6 149.8 210.6 149.8 210.8H154.6C154.6 210.6 154.6 210.6 154.6 210.4C154.6 210.3 154.6 210.2 154.6 210.1H149.8C149.8 210.2 149.8 210.3 149.8 210.4Z" fill="white"/>
    <path d="M135.4 245.4C135.2 245.6 135.1 245.7 134.9 245.9L138.3 249.3C138.5 249.1 138.6 249 138.8 248.8L135.4 245.4Z" fill="white"/>
    <path d="M148.6 199.4C148.7 199.6 148.7 199.9 148.8 200L153.4 199C153.3 198.8 153.3 198.5 153.2 198.4L148.6 199.4Z" fill="white"/>
    <path d="M148.1 197.3C148.2 197.5 148.3 197.8 148.3 197.9L152.9 196.7C152.8 196.5 152.7 196.3 152.7 196.1L148.1 197.3Z" fill="white"/>
    <path d="M147.4 195.2C147.5 195.4 147.6 195.6 147.6 195.8L152.2 194.4C152.1 194.2 152 194 152 193.8L147.4 195.2Z" fill="white"/>
    <path d="M149 201.5C149.1 201.7 149.1 202 149.1 202.1L153.8 201.3C153.7 201.1 153.7 200.8 153.7 200.7L149 201.5Z" fill="white"/>
    <path d="M149.4 203.7C149.4 203.9 149.5 204.2 149.5 204.4L154.2 203.8C154.2 203.6 154.1 203.3 154.1 203.1L149.4 203.7Z" fill="white"/>
    <path d="M146.7 193.1C146.8 193.3 146.9 193.5 146.9 193.7L151.4 192.1C151.3 191.9 151.2 191.7 151.2 191.5L146.7 193.1Z" fill="white"/>
    <path d="M154.3 205.4L149.6 205.8C149.6 206 149.6 206.3 149.7 206.5L154.4 206.1C154.4 205.8 154.4 205.6 154.3 205.4Z" fill="white"/>
    <path d="M131.8 172.2C132 172.4 132.1 172.5 132.3 172.7L135.3 169C135.1 168.8 135 168.7 134.8 168.5L131.8 172.2Z" fill="white"/>
    <path d="M69.4 171.1C69.6 170.9 69.7 170.8 70 170.7L67.1 166.9C66.9 167.1 66.8 167.2 66.5 167.3L69.4 171.1Z" fill="white"/>
    <path d="M71.2 169.8C71.4 169.6 71.6 169.6 71.8 169.4L69.1 165.5C68.9 165.7 68.7 165.7 68.5 165.9L71.2 169.8Z" fill="white"/>
    <path d="M67.8 172.5C68 172.3 68.1 172.2 68.3 172L65.3 168.3C65.1 168.5 65 168.6 64.8 168.8L67.8 172.5Z" fill="white"/>
    <path d="M66.2 173.9C66.4 173.7 66.5 173.6 66.7 173.4L63.5 169.9C63.3 170.1 63.2 170.2 63 170.4L66.2 173.9Z" fill="white"/>
    <path d="M76.7 166.4C76.9 166.3 77.1 166.2 77.3 166.1L75.1 161.9C74.9 162 74.7 162.1 74.5 162.2L76.7 166.4Z" fill="white"/>
    <path d="M63.1 177C63.3 176.8 63.4 176.7 63.6 176.5L60.1 173.3C59.9 173.5 59.8 173.6 59.6 173.8L63.1 177Z" fill="white"/>
    <path d="M74.8 167.4C75 167.3 75.2 167.2 75.4 167.1L73 162.9C72.8 163 72.6 163.1 72.4 163.2L74.8 167.4Z" fill="white"/>
    <path d="M78.6 165.4C78.8 165.3 79 165.2 79.2 165.1L77.2 160.8C77 160.9 76.8 161 76.6 161.1L78.6 165.4Z" fill="white"/>
    <path d="M73 168.6C73.2 168.5 73.4 168.4 73.6 168.2L71 164.2C70.8 164.3 70.6 164.4 70.4 164.6L73 168.6Z" fill="white"/>
    <path d="M54.7 189.7C54.8 189.5 54.9 189.3 54.9 189.1L50.6 187.1C50.5 187.3 50.4 187.5 50.4 187.7L54.7 189.7Z" fill="white"/>
    <path d="M56.7 185.8C56.8 185.6 56.9 185.4 57 185.2L52.8 182.8C52.7 183 52.6 183.2 52.5 183.4L56.7 185.8Z" fill="white"/>
    <path d="M55.7 187.7C55.8 187.5 55.9 187.3 56 187.1L51.8 184.9C51.7 185.1 51.6 185.3 51.5 185.5L55.7 187.7Z" fill="white"/>
    <path d="M61.7 178.6C61.9 178.4 62 178.3 62.2 178.1L58.5 175.1C58.3 175.3 58.2 175.4 58 175.6L61.7 178.6Z" fill="white"/>
    <path d="M53.8 191.7C53.9 191.5 54 191.3 54 191.1L49.6 189.3C49.5 189.5 49.4 189.7 49.4 189.9L53.8 191.7Z" fill="white"/>
    <path d="M57.8 183.9C58 183.7 58.0001 183.5 58.2001 183.3L54.2001 180.7C54.0001 180.9 54 181.1 53.8 181.3L57.8 183.9Z" fill="white"/>
    <path d="M60.3 180.4C60.5 180.2 60.5 180.1 60.7 179.8L56.9 176.9C56.7 177.1 56.6 177.2 56.5 177.5L60.3 180.4Z" fill="white"/>
    <path d="M116.8 163.5C117 163.6 117.2 163.7 117.4 163.7L119.1 159.2C118.9 159.1 118.7 159 118.5 159L116.8 163.5Z" fill="white"/>
    <path d="M59 182.2C59.2 182 59.2 181.8 59.4 181.6L55.5 178.9C55.3 179.1 55.3 179.3 55.1 179.5L59 182.2Z" fill="white"/>
    <path d="M106.3 161C106.5 161 106.8 161.1 107 161.1L107.6 156.4C107.4 156.4 107.1 156.3 106.9 156.3L106.3 161Z" fill="white"/>
    <path d="M104.2 160.8C104.4 160.8 104.7 160.8 104.9 160.9L105.3 156.2C105.1 156.2 104.8 156.2 104.6 156.1L104.2 160.8Z" fill="white"/>
    <path d="M101.9 160.6C102.1 160.6 102.4 160.6 102.6 160.6L102.8 155.8C102.6 155.8 102.3 155.8 102.1 155.8L101.9 160.6Z" fill="white"/>
    <path d="M108.4 161.4C108.6 161.5 108.9 161.5 109 161.5L109.9 156.8C109.7 156.7 109.4 156.7 109.3 156.7L108.4 161.4Z" fill="white"/>
    <path d="M80.6 164.6C80.8 164.5 81 164.4 81.2 164.4L79.4 160C79.2 160.1 79 160.2 78.8 160.2L80.6 164.6Z" fill="white"/>
    <path d="M114.8 162.9C115 163 115.2 163.1 115.4 163.1L116.8 158.5C116.6 158.4 116.4 158.3 116.2 158.3L114.8 162.9Z" fill="white"/>
    <path d="M110.6 161.8C110.8 161.9 111.1 161.9 111.2 162L112.2 157.4C112 157.3 111.7 157.3 111.6 157.2L110.6 161.8Z" fill="white"/>
    <path d="M112.7 162.2C112.9 162.3 113.2 162.4 113.3 162.4L114.6 157.8C114.4 157.7 114.1 157.6 114 157.6L112.7 162.2Z" fill="white"/>
    <path d="M99.7 155.8V160.6C99.8 160.6 99.9 160.6 100 160.6C100.1 160.6 100.2 160.6 100.3 160.6V155.8C100.2 155.8 100.1 155.8 100 155.8C99.9 155.8 99.8 155.8 99.7 155.8Z" fill="white"/>
    <path d="M84.7 163C84.9 162.9 85.1 162.8 85.3 162.8L83.9 158.2C83.7 158.3 83.5 158.4 83.3 158.4L84.7 163Z" fill="white"/>
    <path d="M148.7 221C148.6 221.2 148.6 221.4 148.5 221.6L153.1 222.6C153.2 222.4 153.2 222.2 153.3 222L148.7 221Z" fill="white"/>
    <path d="M88.9 161.8C89.1 161.7 89.4 161.7 89.5 161.6L88.5 157C88.3 157.1 88 157.1 87.9 157.2L88.9 161.8Z" fill="white"/>
    <path d="M82.6 163.8C82.8 163.7 83 163.6 83.2 163.6L81.6 159.1C81.4 159.2 81.2 159.3 81 159.3L82.6 163.8Z" fill="white"/>
    <path d="M93.2 161.1C93.4 161.1 93.7 161 93.8 161L93.2 156.3C93 156.3 92.7 156.4 92.6 156.4L93.2 161.1Z" fill="white"/>
    <path d="M95.4 160.8C95.6 160.8 95.9 160.8 96 160.7L95.6 156C95.4 156 95.1 156 95 156.1L95.4 160.8Z" fill="white"/>
    <path d="M97.5 160.6C97.7 160.6 98 160.6 98.1 160.6L97.9 155.8C97.7 155.8 97.4 155.8 97.3 155.8L97.5 160.6Z" fill="white"/>
    <path d="M91 161.4C91.2 161.3 91.5 161.3 91.6 161.3L90.8 156.6C90.6 156.6 90.3 156.7 90.2 156.7L91 161.4Z" fill="white"/>
    <path d="M149.1 218.8C149 219 149 219.3 149 219.5L153.7 220.3C153.8 220.1 153.8 219.8 153.8 219.7L149.1 218.8Z" fill="white"/>
    <path d="M149.8 208C149.8 208.2 149.8 208.5 149.8 208.7L154.6 208.5C154.6 208.3 154.6 208 154.6 207.8L149.8 208Z" fill="white"/>
    <path d="M149.4 216.6C149.4 216.8 149.3 217.1 149.3 217.2L154 217.8C154 217.6 154.1 217.3 154.1 217.2L149.4 216.6Z" fill="white"/>
    <path d="M149.8 212.3C149.8 212.5 149.8 212.8 149.8 213L154.6 213.2C154.6 213 154.6 212.7 154.6 212.5L149.8 212.3Z" fill="white"/>
    <path d="M149.7 214.5C149.7 214.7 149.7 215 149.6 215.2L154.3 215.6C154.3 215.4 154.3 215.1 154.4 214.9L149.7 214.5Z" fill="white"/>
    <path d="M100 258.9C73.3 258.9 51.5 237.1 51.5 210.4C51.5 183.7 73.3 161.9 100 161.9C126.7 161.9 148.5 183.7 148.5 210.4C148.5 237.1 126.7 258.9 100 258.9ZM100 163.4C74 163.4 52.9 184.5 52.9 210.5C52.9 236.5 74 257.6 100 257.6C126 257.6 147.1 236.5 147.1 210.5C147.1 184.5 126 163.4 100 163.4Z" fill="white"/>
    <path d="M46.9001 286.9C46.7001 286.7 46.3 286.5 46.1 286.3L45.3 287.5C45.5 287.7 45.9 287.9 46.1 288.1L46.9001 286.9Z" fill="white"/>
    <path d="M24 264.1C23.8 263.8 23.6 263.5 23.4 263.3L22.2 264.1C22.4 264.4 22.6 264.7 22.8 264.9L24 264.1Z" fill="white"/>
    <path d="M26.4 267.4C26.2 267.2 26 266.8 25.8 266.6L24.7 267.5C24.9 267.7 25.1 268.1 25.3 268.3L26.4 267.4Z" fill="white"/>
    <path d="M29 270.6C28.8 270.4 28.5 270.1 28.4 269.8L27.3 270.7C27.5 270.9 27.8 271.2 27.9 271.5L29 270.6Z" fill="white"/>
    <path d="M31.6 273.6C31.4 273.4 31.1 273.1 30.9 272.9L29.9 273.9C30.1 274.1 30.4 274.4 30.6 274.6L31.6 273.6Z" fill="white"/>
    <path d="M37.4 279.3C37.2 279.1 36.9 278.8 36.7 278.6L35.7 279.6C35.9 279.8 36.2 280.1 36.4 280.3L37.4 279.3Z" fill="white"/>
    <path d="M21.7 260.7C21.5 260.4 21.3 260.1 21.1 259.8L19.9 260.6C20.1 260.9 20.3 261.2 20.5 261.5L21.7 260.7Z" fill="white"/>
    <path d="M43.6 284.5C43.4 284.3 43 284.1 42.8 283.9L41.9 285C42.1 285.2 42.5 285.4 42.7 285.6L43.6 284.5Z" fill="white"/>
    <path d="M40.5 281.9C40.3 281.7 40 281.4 39.7 281.3L38.7 282.4C38.9 282.6 39.2 282.9 39.5 283L40.5 281.9Z" fill="white"/>
    <path d="M72.3 299.4C72 299.3 71.7 299.2 71.3 299.1L70.9 300.5C71.2 300.6 71.5 300.7 71.9 300.8L72.3 299.4Z" fill="white"/>
    <path d="M50.2 289.1C49.9 288.9 49.6 288.7 49.3 288.5L48.5 289.7C48.8 289.9 49.1 290.1 49.4 290.3L50.2 289.1Z" fill="white"/>
    <path d="M68.5 298.1C68.2 298 67.9 297.9 67.5 297.8L67 299.2C67.3 299.3 67.6 299.4 68 299.5L68.5 298.1Z" fill="white"/>
    <path d="M76.2 300.5C75.9 300.4 75.6 300.3 75.2 300.2L74.8 301.6C75.1 301.7 75.4 301.8 75.8 301.9L76.2 300.5Z" fill="white"/>
    <path d="M64.6 296.6C64.3 296.4 64 296.4 63.6 296.2L63 297.6C63.3 297.8 63.6 297.8 64 298L64.6 296.6Z" fill="white"/>
    <path d="M61 295C60.7 294.8 60.4 294.7 60 294.6L59.4 295.9C59.7 296.1 60 296.2 60.4 296.3L61 295Z" fill="white"/>
    <path d="M53.8 291.2C53.5 291 53.2 290.9 52.9 290.7L52.2 292C52.5 292.2 52.8 292.3 53.1 292.5L53.8 291.2Z" fill="white"/>
    <path d="M57.4 293.1C57.1 292.9 56.8 292.8 56.5 292.6L55.9 293.9C56.2 294.1 56.5 294.2 56.8 294.4L57.4 293.1Z" fill="white"/>
    <path d="M9.20004 231C9.10004 230.7 9.00004 230.4 9.00004 230L7.60004 230.3C7.70004 230.6 7.80004 230.9 7.80004 231.3L9.20004 231Z" fill="white"/>
    <path d="M7.80001 223C7.70001 222.7 7.70001 222.3 7.60001 222L6.20001 222.2C6.30001 222.5 6.30001 222.9 6.40001 223.2L7.80001 223Z" fill="white"/>
    <path d="M7.00004 214.9C7.00004 214.6 7.00004 214.2 7.00004 213.9L5.60004 214C5.60004 214.3 5.60004 214.7 5.60004 215L7.00004 214.9Z" fill="white"/>
    <path d="M7.20005 202.7C7.20005 202.4 7.30005 202 7.30005 201.7L5.90005 201.5C5.90005 201.8 5.80005 202.2 5.80005 202.5L7.20005 202.7Z" fill="white"/>
    <path d="M7.30005 219C7.30005 218.7 7.20005 218.3 7.20005 218L5.80005 218.2C5.80005 218.5 5.90005 218.9 5.90005 219.2L7.30005 219Z" fill="white"/>
    <path d="M7.00004 206.8C7.00004 206.5 7.00004 206.1 7.00004 205.8L5.60004 205.7C5.60004 206 5.60004 206.4 5.60004 206.7L7.00004 206.8Z" fill="white"/>
    <path d="M9.00004 190.7C9.10004 190.4 9.20004 190.1 9.20004 189.7L7.80004 189.4C7.70004 189.7 7.60004 190 7.60004 190.4L9.00004 190.7Z" fill="white"/>
    <path d="M8.20005 194.6C8.30005 194.3 8.30005 194 8.40005 193.6L7.00005 193.4C6.90005 193.7 6.90005 194 6.80005 194.4L8.20005 194.6Z" fill="white"/>
    <path d="M19.6 257.3C19.4 257 19.3001 256.7 19.1 256.4L17.8 257.1C18 257.4 18.1 257.7 18.3 258L19.6 257.3Z" fill="white"/>
    <path d="M7.70005 198.7C7.80005 198.4 7.80005 198 7.90005 197.7L6.50005 197.5C6.40005 197.8 6.40005 198.2 6.30005 198.5L7.70005 198.7Z" fill="white"/>
    <path d="M14.2 246.4C14 246.1 14 245.8 13.8 245.4L12.4 246C12.6 246.3 12.6 246.6 12.8 247L14.2 246.4Z" fill="white"/>
    <path d="M15.8 250.1C15.6 249.8 15.5 249.5 15.4 249.1L14.1 249.7C14.3 250 14.4 250.3 14.5 250.7L15.8 250.1Z" fill="white"/>
    <path d="M17.6 253.8C17.4 253.5 17.3 253.2 17.1 252.9L15.8 253.5C16 253.8 16.1 254.1 16.3 254.4L17.6 253.8Z" fill="white"/>
    <path d="M12.6 242.6C12.5 242.3 12.4 242 12.3 241.6L10.9 242.1C11 242.4 11.1 242.7 11.2 243.1L12.6 242.6Z" fill="white"/>
    <path d="M10.2 234.9C10.1 234.6 10 234.3 9.9 233.9L8.5 234.3C8.6 234.6 8.7 234.9 8.8 235.3L10.2 234.9Z" fill="white"/>
    <path d="M80.2 301.4C79.9 301.3 79.6 301.2 79.2 301.2L78.9 302.6C79.2 302.7 79.5 302.8 79.9 302.8L80.2 301.4Z" fill="white"/>
    <path d="M8.40005 227C8.30005 226.7 8.30005 226.4 8.20005 226L6.80005 226.3C6.90005 226.6 6.90005 226.9 7.00005 227.3L8.40005 227Z" fill="white"/>
    <path d="M11.3 238.8C11.2 238.5 11.1 238.2 11 237.8L9.60004 238.2C9.70004 238.5 9.80004 238.8 9.90004 239.2L11.3 238.8Z" fill="white"/>
    <path d="M160.2 281.4C160 281.6 159.7 281.9 159.4 282L160.4 283.1C160.6 282.9 160.9 282.6 161.2 282.5L160.2 281.4Z" fill="white"/>
    <path d="M169 273C168.8 273.2 168.5 273.5 168.3 273.7L169.3 274.7C169.5 274.5 169.8 274.2 170 274L169 273Z" fill="white"/>
    <path d="M174.1 266.7C173.9 266.9 173.7 267.3 173.5 267.5L174.6 268.4C174.8 268.2 175 267.8 175.2 267.6L174.1 266.7Z" fill="white"/>
    <path d="M178.7 260.1C178.5 260.4 178.3 260.7 178.1 261L179.3 261.8C179.5 261.5 179.7 261.2 179.9 260.9L178.7 260.1Z" fill="white"/>
    <path d="M176.5 263.4C176.3 263.7 176.1 264 175.9 264.2L177.1 265C177.3 264.7 177.5 264.4 177.7 264.2L176.5 263.4Z" fill="white"/>
    <path d="M171.6 269.9C171.4 270.1 171.1 270.4 171 270.7L172.1 271.7C172.3 271.5 172.6 271.2 172.7 270.9L171.6 269.9Z" fill="white"/>
    <path d="M157 284C156.8 284.2 156.4 284.4 156.2 284.6L157.1 285.7C157.3 285.5 157.7 285.3 157.9 285.1L157 284Z" fill="white"/>
    <path d="M163.2 278.7C163 278.9 162.7 279.2 162.5 279.4L163.5 280.4C163.7 280.2 164 279.9 164.2 279.7L163.2 278.7Z" fill="white"/>
    <path d="M9.9 186.7C10 186.4 10.1 186.1 10.2 185.7L8.8 185.3C8.7 185.6 8.6 185.9 8.5 186.3L9.9 186.7Z" fill="white"/>
    <path d="M184.6 249.4C184.4 249.7 184.3 250 184.2 250.4L185.5 251C185.7 250.7 185.8 250.4 185.9 250L184.6 249.4Z" fill="white"/>
    <path d="M189 238C188.9 238.3 188.8 238.6 188.7 239L190.1 239.4C190.2 239.1 190.3 238.8 190.4 238.4L189 238Z" fill="white"/>
    <path d="M190.1 234.2C190 234.5 189.9 234.8 189.8 235.2L191.2 235.6C191.3 235.3 191.4 235 191.5 234.6L190.1 234.2Z" fill="white"/>
    <path d="M187.7 241.9C187.6 242.2 187.5 242.5 187.4 242.9L188.8 243.4C188.9 243.1 189 242.8 189.1 242.4L187.7 241.9Z" fill="white"/>
    <path d="M84.2 302.2C83.9 302.1 83.6 302.1 83.2 302L83 303.4C83.3 303.5 83.6 303.5 84 303.6L84.2 302.2Z" fill="white"/>
    <path d="M182.8 253C182.6 253.3 182.5 253.6 182.3 253.9L183.6 254.5C183.8 254.2 183.9 253.9 184.1 253.6L182.8 253Z" fill="white"/>
    <path d="M180.8 256.6C180.6 256.9 180.5 257.2 180.3 257.5L181.6 258.2C181.8 257.9 181.9 257.6 182.1 257.3L180.8 256.6Z" fill="white"/>
    <path d="M153.8 286.4C153.5 286.6 153.2 286.8 153 287L153.8 288.2C154.1 288 154.4 287.8 154.6 287.6L153.8 286.4Z" fill="white"/>
    <path d="M186.2 245.7C186 246 186 246.3 185.8 246.7L187.2 247.3C187.4 247 187.4 246.7 187.6 246.3L186.2 245.7Z" fill="white"/>
    <path d="M191 230.2C190.9 230.5 190.8 230.8 190.8 231.2L192.2 231.5C192.3 231.2 192.4 230.9 192.4 230.5L191 230.2Z" fill="white"/>
    <path d="M150.4 288.6C150.1 288.8 149.8 289 149.5 289.2L150.3 290.4C150.6 290.2 150.9 290 151.2 289.8L150.4 288.6Z" fill="white"/>
    <path d="M100.6 305V303.6C100.4 303.6 100.3 303.6 100.1 303.6C99.9 303.6 99.8 303.6 99.6 303.6V305C99.8 305 99.9 305 100.1 305C100.2 305 100.3 305 100.6 305Z" fill="white"/>
    <path d="M104.6 303.4C104.3 303.4 103.9 303.4 103.6 303.4L103.7 304.8C104 304.8 104.4 304.8 104.7 304.8L104.6 303.4Z" fill="white"/>
    <path d="M112.6 302.6C112.3 302.7 111.9 302.7 111.6 302.8L111.8 304.2C112.1 304.2 112.5 304.1 112.8 304L112.6 302.6Z" fill="white"/>
    <path d="M88.2 302.8C87.9 302.8 87.6 302.7 87.2 302.6L87 304C87.3 304.1 87.6 304.1 88 304.2L88.2 302.8Z" fill="white"/>
    <path d="M116.6 302C116.3 302.1 116 302.2 115.6 302.2L115.8 303.6C116.1 303.5 116.4 303.5 116.8 303.4L116.6 302Z" fill="white"/>
    <path d="M96.2 303.4C95.9 303.4 95.5 303.4 95.2 303.4L95.1 304.8C95.4 304.8 95.7 304.8 96.1 304.8L96.2 303.4Z" fill="white"/>
    <path d="M92.2 303.2C91.9 303.2 91.6 303.1 91.2 303.1L91 304.5C91.3 304.5 91.6 304.6 92 304.6L92.2 303.2Z" fill="white"/>
    <path d="M108.6 303.1C108.3 303.1 107.9 303.2 107.6 303.2L107.8 304.6C108.1 304.6 108.5 304.5 108.8 304.5L108.6 303.1Z" fill="white"/>
    <path d="M136.1 296.3C135.8 296.5 135.5 296.5 135.1 296.7L135.7 298.1C136 297.9 136.3 297.9 136.7 297.7L136.1 296.3Z" fill="white"/>
    <path d="M120.6 301.2C120.3 301.3 120 301.4 119.6 301.4L119.9 302.8C120.2 302.7 120.5 302.6 120.9 302.6L120.6 301.2Z" fill="white"/>
    <path d="M143.4 292.8C143.1 293 142.8 293.1 142.5 293.3L143.1 294.6C143.4 294.4 143.7 294.3 144 294.1L143.4 292.8Z" fill="white"/>
    <path d="M147 290.8C146.7 291 146.4 291.1 146.1 291.3L146.8 292.6C147.1 292.4 147.4 292.3 147.7 292.1L147 290.8Z" fill="white"/>
    <path d="M139.8 294.6C139.5 294.8 139.2 294.9 138.8 295L139.4 296.3C139.7 296.1 140 296.1 140.4 295.9L139.8 294.6Z" fill="white"/>
    <path d="M124.6 300.2C124.3 300.3 124 300.4 123.6 300.5L124 301.9C124.3 301.8 124.6 301.7 125 301.6L124.6 300.2Z" fill="white"/>
    <path d="M128.5 299.1C128.2 299.2 127.9 299.3 127.5 299.4L127.9 300.8C128.2 300.7 128.5 300.6 128.9 300.5L128.5 299.1Z" fill="white"/>
    <path d="M132.3 297.8C132 297.9 131.7 298 131.3 298.1L131.8 299.5C132.1 299.4 132.4 299.3 132.8 299.2L132.3 297.8Z" fill="white"/>
    <path d="M25.9 154.2C26.1 154 26.3 153.6 26.5 153.4L25.4 152.5C25.2 152.7 25 153.1 24.8 153.3L25.9 154.2Z" fill="white"/>
    <path d="M173.6 153.5C173.8 153.7 174 154.1 174.2 154.3L175.3 153.4C175.1 153.2 174.9 152.8 174.7 152.6L173.6 153.5Z" fill="white"/>
    <path d="M185.9 174.5C186.1 174.8 186.1 175.1 186.3 175.5L187.7 174.9C187.5 174.6 187.5 174.3 187.3 173.9L185.9 174.5Z" fill="white"/>
    <path d="M178.3 160.2C178.5 160.5 178.7 160.8 178.9 161.1L180.1 160.3C179.9 160 179.7 159.7 179.5 159.4L178.3 160.2Z" fill="white"/>
    <path d="M171 150.3C171.2 150.5 171.5 150.8 171.6 151.1L172.7 150.2C172.5 150 172.2 149.7 172.1 149.4L171 150.3Z" fill="white"/>
    <path d="M168.4 147.3C168.6 147.5 168.9 147.8 169.1 148L170.1 147C169.9 146.8 169.6 146.5 169.4 146.3L168.4 147.3Z" fill="white"/>
    <path d="M184.2 170.8C184.4 171.1 184.5 171.4 184.6 171.8L185.9 171.2C185.7 170.9 185.6 170.6 185.5 170.2L184.2 170.8Z" fill="white"/>
    <path d="M180.4 163.6C180.6 163.9 180.7 164.2 180.9 164.5L182.2 163.8C182 163.5 181.9 163.2 181.7 162.9L180.4 163.6Z" fill="white"/>
    <path d="M182.4 167.1C182.6 167.4 182.7 167.7 182.9 168L184.2 167.4C184 167.1 183.9 166.8 183.7 166.5L182.4 167.1Z" fill="white"/>
    <path d="M176 156.8C176.2 157.1 176.4 157.4 176.6 157.7L177.8 156.9C177.6 156.6 177.4 156.3 177.2 156.1L176 156.8Z" fill="white"/>
    <path d="M142.7 127.7C143 127.9 143.3 128 143.6 128.2L144.2 126.9C143.9 126.7 143.6 126.6 143.3 126.4L142.7 127.7Z" fill="white"/>
    <path d="M146.2 129.7C146.5 129.9 146.8 130 147.1 130.2L147.8 128.9C147.5 128.7 147.2 128.6 146.9 128.4L146.2 129.7Z" fill="white"/>
    <path d="M131.5 122.8C131.8 122.9 132.1 123 132.5 123.1L133 121.7C132.7 121.6 132.4 121.5 132 121.4L131.5 122.8Z" fill="white"/>
    <path d="M162.6 141.6C162.8 141.8 163.1 142.1 163.3 142.3L164.3 141.3C164.1 141.1 163.8 140.8 163.6 140.6L162.6 141.6Z" fill="white"/>
    <path d="M135.4 124.3C135.7 124.5 136 124.5 136.4 124.7L137 123.3C136.7 123.1 136.4 123.1 136 122.9L135.4 124.3Z" fill="white"/>
    <path d="M156.4 136.4C156.6 136.6 157 136.8 157.2 137L158.1 135.9C157.9 135.7 157.5 135.5 157.3 135.3L156.4 136.4Z" fill="white"/>
    <path d="M149.8 131.8C150.1 132 150.4 132.2 150.7 132.4L151.5 131.2C151.2 131 150.9 130.8 150.6 130.6L149.8 131.8Z" fill="white"/>
    <path d="M153.1 134C153.4 134.2 153.7 134.4 153.9 134.6L154.7 133.4C154.4 133.2 154.1 133 153.9 132.8L153.1 134Z" fill="white"/>
    <path d="M139 125.9C139.3 126.1 139.6 126.1 140 126.3L140.6 125C140.3 124.8 140 124.7 139.6 124.6L139 125.9Z" fill="white"/>
    <path d="M6.90002 210.4C6.90002 210.2 6.90002 210 6.90002 209.8H5.40002C5.40002 210 5.40002 210.2 5.40002 210.4C5.40002 210.6 5.40002 210.6 5.40002 210.8H6.80002C6.90002 210.7 6.90002 210.6 6.90002 210.4Z" fill="white"/>
    <path d="M33.8 275.8L32.8 276.8C33 277 33.3 277.3 33.5 277.5L34.5 276.5C34.2 276.2 34 276 33.8 275.8Z" fill="white"/>
    <path d="M166.3 145.1L167.3 144.1C167.1 143.9 166.8 143.6 166.6 143.4L165.6 144.4C165.8 144.6 166.1 144.9 166.3 145.1Z" fill="white"/>
    <path d="M33.8 145C34 144.8 34.3 144.5 34.5 144.3L33.5 143.3C33.3 143.5 33 143.8 32.8 144L33.8 145Z" fill="white"/>
    <path d="M193.1 210.4C193.1 210.6 193.1 210.8 193.1 211H194.5C194.5 210.8 194.5 210.6 194.5 210.4C194.5 210.2 194.5 210.2 194.5 210H193.1C193.1 210.2 193.1 210.3 193.1 210.4Z" fill="white"/>
    <path d="M166.2 275.9C166 276.1 165.7 276.4 165.5 276.6L166.5 277.6C166.7 277.4 167 277.1 167.2 276.9L166.2 275.9Z" fill="white"/>
    <path d="M188.7 182.1C188.8 182.4 188.9 182.7 189 183.1L190.4 182.7C190.3 182.4 190.2 182.1 190.1 181.7L188.7 182.1Z" fill="white"/>
    <path d="M190.8 189.9C190.9 190.2 191 190.5 191 190.9L192.4 190.6C192.3 190.3 192.2 190 192.2 189.6L190.8 189.9Z" fill="white"/>
    <path d="M191.6 193.9C191.7 194.2 191.8 194.5 191.8 194.9L193.2 194.7C193.1 194.4 193.1 194.1 193 193.7L191.6 193.9Z" fill="white"/>
    <path d="M189.8 186C189.9 186.3 190 186.6 190.1 187L191.5 186.6C191.4 186.3 191.3 186 191.2 185.6L189.8 186Z" fill="white"/>
    <path d="M187.4 178.2C187.5 178.5 187.6 178.8 187.7 179.2L189.1 178.7C189 178.4 188.9 178.1 188.8 177.7L187.4 178.2Z" fill="white"/>
    <path d="M192.2 197.9C192.3 198.2 192.3 198.6 192.4 198.9L193.8 198.7C193.7 198.4 193.7 198 193.6 197.7L192.2 197.9Z" fill="white"/>
    <path d="M194.2 201.8L192.8 201.9C192.8 202.2 192.9 202.6 192.9 202.9L194.3 202.7C194.2 202.5 194.2 202.2 194.2 201.8Z" fill="white"/>
    <path d="M28.4 151C28.6 150.8 28.9 150.5 29 150.2L27.9 149.2C27.7 149.4 27.4 149.7 27.3 150L28.4 151Z" fill="white"/>
    <path d="M56.6 128.1C56.9 127.9 57.2 127.8 57.5 127.6L56.9 126.3C56.6 126.5 56.3 126.6 56 126.8L56.6 128.1Z" fill="white"/>
    <path d="M36.8 142.2C37 142 37.3 141.7 37.5 141.5L36.5 140.5C36.3 140.7 36 141 35.8 141.2L36.8 142.2Z" fill="white"/>
    <path d="M43 136.9C43.2 136.7 43.6 136.5 43.8 136.3L42.9 135.2C42.7 135.4 42.3 135.6 42.1 135.8L43 136.9Z" fill="white"/>
    <path d="M31 147.9C31.2 147.7 31.5 147.4 31.7 147.2L30.7 146.2C30.5 146.4 30.2 146.7 30 146.9L31 147.9Z" fill="white"/>
    <path d="M39.8 139.4C40 139.2 40.3 138.9 40.6 138.8L39.6 137.7C39.4 137.9 39.1 138.2 38.8 138.3L39.8 139.4Z" fill="white"/>
    <path d="M127.7 121.5C128 121.6 128.3 121.7 128.7 121.8L129.1 120.4C128.8 120.3 128.5 120.2 128.1 120.1L127.7 121.5Z" fill="white"/>
    <path d="M46.2 134.5C46.4 134.3 46.8 134.1 47 133.9L46.2 132.7C46 132.9 45.6 133.1 45.4 133.3L46.2 134.5Z" fill="white"/>
    <path d="M49.6 132.2C49.9 132 50.2 131.8 50.5 131.6L49.7001 130.4C49.4001 130.6 49.1 130.8 48.8 131L49.6 132.2Z" fill="white"/>
    <path d="M11 182.8C11.1 182.5 11.2 182.2 11.3 181.8L9.90004 181.4C9.80004 181.7 9.70004 182 9.60004 182.4L11 182.8Z" fill="white"/>
    <path d="M13.8 175.2C14 174.9 14 174.6 14.2 174.2L12.8 173.6C12.6 173.9 12.6 174.2 12.4 174.6L13.8 175.2Z" fill="white"/>
    <path d="M15.4 171.5C15.6 171.2 15.6 170.9 15.8 170.5L14.5 169.9C14.3 170.2 14.2 170.5 14.1 170.9L15.4 171.5Z" fill="white"/>
    <path d="M17.2 167.8C17.4 167.5 17.5 167.2 17.7 166.9L16.4 166.3C16.2 166.6 16.1 166.9 15.9 167.2L17.2 167.8Z" fill="white"/>
    <path d="M12.4 179C12.6 178.7 12.6 178.4 12.7 178L11.3 177.5C11.2 177.8 11.1 178.1 11 178.5L12.4 179Z" fill="white"/>
    <path d="M21.3 160.8C21.5 160.5 21.7 160.2 21.9 159.9L20.7 159.1C20.5 159.4 20.3 159.7 20.1 160L21.3 160.8Z" fill="white"/>
    <path d="M23.5 157.4C23.7 157.1 23.9 156.8 24.1 156.6L22.9 155.8C22.7 156.1 22.5 156.4 22.3 156.6L23.5 157.4Z" fill="white"/>
    <path d="M191.8 226.2C191.7 226.5 191.7 226.8 191.6 227.2L193 227.4C193.1 227.1 193.2 226.8 193.2 226.4L191.8 226.2Z" fill="white"/>
    <path d="M19.2 164.2C19.4 163.9 19.5 163.6 19.7 163.3L18.4 162.6C18.2 162.9 18.1 163.2 17.9 163.5L19.2 164.2Z" fill="white"/>
    <path d="M53 130.1C53.3 129.9 53.6001 129.8 53.9001 129.6L53.2001 128.3C52.9001 128.5 52.6 128.6 52.3 128.8L53 130.1Z" fill="white"/>
    <path d="M95.4 117.4C95.7 117.4 96 117.4 96.4 117.4L96.3 116C96 116 95.7 116 95.3 116L95.4 117.4Z" fill="white"/>
    <path d="M103.8 117.4C104.1 117.4 104.5 117.4 104.8 117.4L104.9 116C104.6 116 104.2 116 103.9 116L103.8 117.4Z" fill="white"/>
    <path d="M107.8 117.7C108.1 117.7 108.5 117.8 108.8 117.8L109 116.4C108.7 116.4 108.3 116.3 108 116.3L107.8 117.7Z" fill="white"/>
    <path d="M99.5 115.9V117.3C99.7 117.3 99.8 117.3 100 117.3C100.2 117.3 100.3 117.3 100.5 117.3V115.9C100.3 115.9 100.2 115.9 100 115.9C99.8 115.9 99.7 115.9 99.5 115.9Z" fill="white"/>
    <path d="M111.8 118.1C112.1 118.2 112.5 118.2 112.8 118.3L113 116.9C112.7 116.8 112.3 116.8 112 116.7L111.8 118.1Z" fill="white"/>
    <path d="M123.8 120.4C124.1 120.5 124.4 120.6 124.8 120.7L125.2 119.3C124.9 119.2 124.6 119.1 124.2 119L123.8 120.4Z" fill="white"/>
    <path d="M115.9 118.7C116.2 118.8 116.5 118.8 116.9 118.9L117.1 117.5C116.8 117.4 116.5 117.4 116.1 117.3L115.9 118.7Z" fill="white"/>
    <path d="M119.8 119.4C120.1 119.5 120.4 119.6 120.8 119.6L121.1 118.2C120.8 118.1 120.5 118 120.1 118L119.8 119.4Z" fill="white"/>
    <path d="M71.5 121.8C71.8 121.7 72.1 121.6 72.5 121.5L72.1 120.1C71.8 120.2 71.5 120.3 71.1 120.4L71.5 121.8Z" fill="white"/>
    <path d="M75.4 120.6C75.7 120.5 76 120.4 76.4 120.3L76 118.9C75.7 119 75.4 119.1 75 119.2L75.4 120.6Z" fill="white"/>
    <path d="M91.4 117.8C91.7 117.8 92 117.7 92.4 117.7L92.2 116.3C91.9 116.3 91.6 116.4 91.2 116.4L91.4 117.8Z" fill="white"/>
    <path d="M60.2 126.2C60.5 126 60.8 125.9 61.2 125.8L60.6 124.5C60.3 124.7 60 124.8 59.6 124.9L60.2 126.2Z" fill="white"/>
    <path d="M63.9001 124.6C64.2001 124.4 64.5001 124.4 64.9001 124.2L64.3001 122.8C64.0001 123 63.7 123 63.3 123.2L63.9001 124.6Z" fill="white"/>
    <path d="M67.7 123.1C68 123 68.3 122.9 68.7 122.8L68.2 121.4C67.9 121.5 67.6 121.6 67.2 121.7L67.7 123.1Z" fill="white"/>
    <path d="M87.4 118.2C87.7 118.1 88 118.1 88.4 118L88.2 116.6C87.9 116.7 87.6 116.7 87.2 116.8L87.4 118.2Z" fill="white"/>
    <path d="M83.4 118.8C83.7 118.7 84 118.6 84.4 118.6L84.2 117.2C83.9 117.3 83.6 117.3 83.2 117.4L83.4 118.8Z" fill="white"/>
    <path d="M79.4 119.7C79.7 119.6 80 119.5 80.4 119.5L80.1 118.1C79.8 118.2 79.5 118.3 79.1 118.3L79.4 119.7Z" fill="white"/>
    <path d="M159.6 139C159.8 139.2 160.1 139.5 160.4 139.6L161.4 138.5C161.2 138.3 160.9 138 160.6 137.9L159.6 139Z" fill="white"/>
    <path d="M192.3 222.2C192.2 222.5 192.2 222.9 192.1 223.2L193.5 223.4C193.6 223.1 193.6 222.7 193.7 222.4L192.3 222.2Z" fill="white"/>
    <path d="M192.8 218.2C192.8 218.5 192.7 218.9 192.7 219.2L194.1 219.4C194.1 219.1 194.2 218.7 194.2 218.4L192.8 218.2Z" fill="white"/>
    <path d="M193 214.1C193 214.4 193 214.8 193 215.1L194.4 215.2C194.4 214.9 194.4 214.5 194.4 214.2L193 214.1Z" fill="white"/>
    <path d="M193 206C193 206.3 193 206.7 193 207L194.4 206.9C194.4 206.6 194.4 206.2 194.4 205.9L193 206Z" fill="white"/>
    <path d="M99.5 420C100.3 420 101 419.3 101 418.5C101 417.7 100.3 417 99.5 417C98.7 417 98 417.7 98 418.5C98 419.3 98.7 420 99.5 420Z" fill="white"/>
    <path d="M99.5 405.8C105.1 405.8 109.5 401.4 109.5 395.8C109.5 390.2 104.9 385.8 99.5 385.8C94.1 385.8 89.5 390.2 89.5 395.8C89.5 401.4 93.9 405.8 99.5 405.8ZM99.5 387.1C104.4 387.1 108.2 391 108.2 395.8C108.2 400.7 104.3 404.5 99.5 404.5C94.7 404.5 90.8 400.6 90.8 395.8C90.8 390.9 94.6 387.1 99.5 387.1Z" fill="white"/>
    <path d="M99.5 374.8C113.3 374.8 124.5 363.6 124.5 349.8C124.5 336 113.3 324.8 99.5 324.8C85.7 324.8 74.5 336 74.5 349.8C74.5 363.6 85.8 374.8 99.5 374.8ZM99.5 327.8C111.7 327.8 121.5 337.6 121.5 349.8C121.5 362.1 111.7 371.8 99.5 371.8C87.3 371.8 77.5 362 77.5 349.8C77.5 337.5 87.3 327.8 99.5 327.8Z" fill="white"/>
    <path d="M100.5 405.3H98.5V411.3H100.5V405.3Z" fill="white"/>
    <path d="M100.5 372.3H98.5V386.3H100.5V372.3Z" fill="white"/>
    <path d="M101 309.3H98V327.3H101V309.3Z" fill="white"/>
    <path d="M99.5 0C98.7 0 98 0.7 98 1.5C98 2.3 98.7 3 99.5 3C100.3 3 101 2.3 101 1.5C101 0.7 100.3 0 99.5 0Z" fill="white"/>
    <path d="M99.5 14.3C93.9 14.3 89.5 18.9 89.5 24.3C89.5 29.7 93.9 34.3 99.5 34.3C105.1 34.3 109.5 29.7 109.5 24.3C109.5 18.9 105.1 14.3 99.5 14.3ZM99.5 33.2C94.6 33.2 90.8 29.3 90.8 24.5C90.8 19.7 94.7 15.8 99.5 15.8C104.3 15.8 108.2 19.7 108.2 24.5C108.2 29.3 104.4 33.2 99.5 33.2Z" fill="white"/>
    <path d="M99.5 45.4C85.7 45.4 74.5 56.6 74.5 70.4C74.5 84.2 85.7 95.4 99.5 95.4C113.3 95.4 124.5 84.2 124.5 70.4C124.5 56.6 113.2 45.4 99.5 45.4ZM99.5 92.4C87.3 92.4 77.5 82.6 77.5 70.4C77.5 58.2 87.3 48.4 99.5 48.4C111.7 48.4 121.5 58.1 121.5 70.4C121.5 82.7 111.8 92.4 99.5 92.4Z" fill="white"/>
    <path d="M100.5 8.79999H98.5V14.8H100.5V8.79999Z" fill="white"/>
    <path d="M100.5 33.8H98.5V47.8H100.5V33.8Z" fill="white"/>
    <path d="M101 92.8H98V110.8H101V92.8Z" fill="white"/>
    <path d="M78.4 284.5C78.5 284.3 78.6 284.1 79 284.2C79.2 284.2 79.2 284.4 79.4 284.5C79.9 285.4 80.5 285.9 81.5 286.2C83.3 286.6 84.5 285.6 84.9 284C85 283.8 85 283.7 84.7 283.6L81.8 282.9C81.5 282.8 81.3 282.6 81.4 282.2C81.5 281.8 81.7 281.6 82 281.7L84.9 282.4C85.1 282.5 85.2 282.4 85.3 282.2C85.6 280.8 85.1 279.4 83.5 279C82.5 278.8 81.7 279.1 81 279.6C80.7 279.8 80.4 280.1 80.1 280C79.8 279.9 79.7 279.7 79.8 279.3C79.9 278.9 80.1 278.5 80.3 278.3C80.6 277.8 81 277.5 81.3 277.6C81.5 277.7 81.6 277.8 81.8 277.8C82 277.9 82.9 277.7 83.8 278C86.5 278.6 87.6 280.8 86.8 283.6C86 286.9 83.9 288.2 81.3 287.6C79.2 287 78.2 285.4 78.4 284.5Z" fill="white"/>
    <path d="M91.3 288.7C91.3 288.5 91.5 288.1 91.7 287.1L92.4 281.1C92.4 280.9 92.3 280.7 92 280.7L91.5 280.6C90.5 280.4 89.9 281.2 89.5 281.2C89.3 281.2 89 281 89.1 280.6C89.2 280 89.7 279.2 90.2 279.3C90.4 279.3 91.6 279.5 93.3 279.8C95 280.1 96.2 280 96.4 280.1C96.9 280.2 97.3 281 97.2 281.6C97.1 281.9 97 282.1 96.6 282.1C96.2 282 95.8 281.2 94.8 281.1L94.3 281C94.1 281 93.8 281.1 93.8 281.3L93.1 287.3C93 288.3 93.1 288.7 93.1 288.9C93 289.2 92.8 289.5 92.1 289.4C91.4 289.3 91.2 289 91.3 288.7Z" fill="white"/>
    <path d="M97.8 289.5C97.8 289.2 98.1 289 98.5 287.9L100.9 280.8C101.1 280.4 101.3 280.3 101.9 280.3C102.5 280.3 102.7 280.4 102.9 280.8L105.8 287.8C106.3 288.9 106.6 289.1 106.6 289.4C106.6 289.9 106.3 290 105.4 290C104.4 290 104.2 290 104.2 289.4C104.2 289.2 104.3 289.1 104.3 288.8C104.3 288.6 104.1 288.2 103.8 287.4C103.8 287.3 103.6 287.2 103.5 287.2L100.3 287.3C100.1 287.3 100 287.4 99.9 287.5C99.7 288.4 99.5 288.7 99.6 288.9C99.6 289.2 99.7 289.3 99.7 289.5C99.7 290 99.5 290.1 98.7 290.1C98.1 290.1 97.8 289.9 97.8 289.5ZM103.2 285.7C103.2 285.6 103.1 285.4 102.5 283.9C101.9 282.4 101.8 282.3 101.7 282.3C101.6 282.3 101.5 282.5 101.1 284C100.5 285.6 100.5 285.8 100.5 285.8C100.5 285.8 100.6 286 100.7 286L102.9 285.9C103.1 285.8 103.2 285.8 103.2 285.7Z" fill="white"/>
    <path d="M110 288.9C109.9 288.7 110 288.5 110.3 288.4C110.8 288.3 110.9 287.8 110.9 286.5C111 285.1 111.5 284.3 112.3 283.9C112.4 283.8 112.5 283.7 112.5 283.7C112.5 283.5 111.9 283.5 111.5 282C111.2 281 110.9 280.6 110.3 280.6C110.1 280.6 110.1 280.8 110.1 280.8C110.1 280.8 110.3 280.9 110.3 281.2C110.4 281.6 110.1 281.9 109.7 282C109.1 282.1 108.7 281.8 108.6 281.1C108.4 280.3 109 279.7 110 279.4C111.3 279.2 112.2 279.9 112.6 281.6C113 282.9 113.5 283 114.7 282.8C114.9 282.8 114.9 282.6 114.9 282.4L114.6 280.8C114.4 279.8 114 279.5 114 279.3C113.9 279 114.1 278.7 115 278.5C115.9 278.3 116.1 278.5 116.2 278.8C116.3 279 116 279.5 116.2 280.5L116.5 282.1C116.6 282.4 116.7 282.4 116.8 282.4C118 282.2 118.5 281.8 118.2 280.5C118 278.7 118.5 277.7 119.8 277.4C120.8 277.2 121.6 277.6 121.7 278.4C121.9 279 121.5 279.5 121.1 279.6C120.7 279.7 120.2 279.5 120.1 279.1C120 278.8 120.2 278.7 120.2 278.7C120.2 278.6 120 278.5 119.9 278.5C119.4 278.6 119.2 279.1 119.3 280.2C119.5 281.6 119.1 282 119.1 282.1C119.1 282.2 119.2 282.2 119.3 282.2C120.2 282.3 120.9 282.7 121.5 284C122.1 285.2 122.4 285.6 122.9 285.5C123.1 285.4 123.3 285.5 123.3 285.8C123.4 286.3 123 286.8 122.4 286.8C121.5 287 121 286.6 120.2 285.3C119.2 283.3 118.7 283 117.4 283.3C116.9 283.4 116.7 283.6 116.8 283.9L117.1 285.6C117.3 286.6 117.7 286.9 117.7 287.1C117.8 287.4 117.6 287.7 116.7 287.9C115.9 288.1 115.6 287.9 115.5 287.6C115.4 287.4 115.7 286.9 115.4 286L115.1 284.3C115 284 114.7 283.9 114.2 284C112.9 284.2 112.6 284.7 112.4 287C112.3 288.6 111.9 289.1 111 289.3C110.6 289.6 110.1 289.4 110 288.9Z" fill="white"/>
    <path d="M32.6 205.9L30.4 205.6C29.8 205.5 29.7 205.2 29.8 204.8C30 203.8 29.2 203.1 25.1 202.2L20.8 201.3C20 201.1 19.7 200.8 19.9 200.1L20.7 194.8C20.8 193.9 21.1 193.6 21.5 193.7C21.8 193.8 22.3 194.1 23.5 194.3L30.4 195.4C31.1 195.5 31.3 195.3 31.4 194.8C31.5 194.4 31.7 194.1 32.3 194.2L34.5 194.5C35 194.6 35.2 194.8 35.1 195.2C35 195.6 34.8 195.7 33.9 196L33.3 196.1C32.8 196.2 32.6 196.4 32.5 197L31.6 202.9C31.5 203.5 31.6 203.7 32.1 204L32.6 204.2C33.3 204.7 33.5 204.9 33.5 205.3C33.3 205.8 33.1 205.9 32.6 205.9ZM30.8 198.2C30.9 197.6 30.8 197.5 30.3 197.4L22.5 196.2C22 196.1 21.9 196.2 21.8 196.8L21.4 199.2C21.3 199.8 21.4 199.9 21.9 200L25.3 200.7C27.5 201.2 28.9 201.7 29.7 202.2C29.9 202.3 30 202.3 30 202.3C30.1 202.3 30.1 202.3 30.1 202.2L30.8 198.2Z" fill="white"/>
    <path d="M28 190.2C24.5 188.9 22.9 185.7 24 182.6C25.2 179.5 28.3 178.1 31.6 179.4C35.1 180.7 36.8 183.9 35.6 186.9C34.5 190.1 31.3 191.4 28 190.2ZM30.8 181.4C28.2 180.4 26.1 181.1 25.3 183.1C24.6 185 26 187.1 28.7 188.1C31.3 189.1 33.4 188.4 34.2 186.4C34.9 184.5 33.6 182.4 30.8 181.4Z" fill="white"/>
    <path d="M38.3001 178.5C38.0001 178.3 37.7001 177.9 36.7001 177.2L31.0001 173.7C30.0001 173.1 29.4001 173 29.2001 172.8C28.8001 172.6 28.7001 172.2 29.0001 171.9C29.3001 171.5 29.6001 171.1 29.8001 170.7C31.9001 167.3 32.1001 166.8 32.3001 166.3C32.6001 165.8 33.8001 165.8 34.4001 166.2C34.8001 166.4 34.8001 166.8 34.7001 167.1C34.6001 167.2 34.5001 167.3 34.3001 167.4C33.6001 167.8 32.9001 168.1 31.8001 170C31.1001 171.2 31.1001 171.4 31.6001 171.7L33.5001 172.9C33.8001 173.1 34.0001 173 34.9001 171.5L35.2001 171C36.9001 168.3 38.4001 167.8 40.6001 169.1C42.5001 170.3 42.8001 172.7 41.3001 175.1C40.9001 175.7 40.5001 176.3 40.1001 177C39.8001 177.4 39.6001 177.9 39.4001 178.3C39.1001 178.7 38.7001 178.7 38.3001 178.5ZM39.3001 170.9C38.1001 170.2 37.2001 170.6 36.3001 172C35.2001 173.7 35.2001 174 35.6001 174.3L38.3001 175.9C38.8001 176.2 38.9001 176.1 39.8001 174.7C40.8001 173 40.5001 171.6 39.3001 170.9Z" fill="white"/>
    <path d="M45 168.2C44.8 168 44.6 167.5 43.7 166.7L38.7 162.2C37.8 161.4 37.3 161.2 37 161C36.7 160.7 36.6 160.3 36.9 160C37.2 159.7 37.6 159.3 37.9 159C38.4 158.4 38.8 157.9 39.3 157.3C41.3 155.1 43.2 154.7 45 156.3C46.9 158 46.9 160.2 44.8 162.5L44 163.4C43.6 163.8 43.7 164.1 44.1 164.5L44.9 165.2C45.8 166 46.4 166.1 46.7 166.3C47 166.6 47 167 46.3 167.8C45.7 168.5 45.4 168.5 45 168.2ZM43.6 157.9C42.5 157 41.5 157.2 40.3 158.5C39.2 159.8 39.1 159.9 39.9 160.6L42.2 162.6C42.5 162.9 42.8 162.6 43.7 161.6C44.9 160.2 44.9 159.1 43.6 157.9Z" fill="white"/>
    <path d="M49.8 155.5C47.5 152.5 47.8 148.9 50.4 147C53.1 145 56.4 145.5 58.6 148.3C60.9 151.3 60.6 154.8 58 156.8C55.3 158.8 51.9 158.3 49.8 155.5ZM56.8 149.6C55.1 147.4 52.9 146.8 51.2 148.1C49.6 149.3 49.6 151.9 51.4 154.2C53.1 156.4 55.3 157 57 155.7C58.7 154.4 58.6 151.9 56.8 149.6Z" fill="white"/>
    <path d="M71.5001 137L67.9001 138.5C67.3001 138.7 67.2001 138.9 67.4001 139.4L70.1001 146.2C70.6001 147.3 71.1001 147.6 71.2001 147.9C71.4001 148.3 71.2001 148.7 70.2001 149.1C69.3001 149.5 68.9001 149.3 68.8001 148.9C68.7001 148.6 68.7001 148.1 68.3001 146.9L65.8001 140.7C65.3001 139.6 64.9001 139.2 64.8001 138.9C64.6001 138.5 64.8001 138.2 65.7001 137.8L72.5001 135C73.4001 134.6 73.7001 134.8 73.9001 135.1C74.0001 135.4 74.0001 135.9 74.4001 137.1L76.9001 143.3C77.4001 144.4 77.8001 144.8 77.9001 145.1C78.1001 145.5 77.9001 145.9 77.0001 146.2C76.0001 146.6 75.6001 146.4 75.5001 146C75.4001 145.7 75.5001 145.1 75.1001 144L72.4001 137.2C72.3001 136.9 72.1001 136.8 71.5001 137Z" fill="white"/>
    <path d="M80.1 139.1C79.4 135.4 81.3 132.4 84.5 131.8C87.8 131.2 90.5 133.2 91.2 136.7C91.9 140.4 90 143.4 86.8 144C83.5 144.6 80.8 142.6 80.1 139.1ZM89.1 137C88.6 134.3 86.9 132.8 84.8 133.2C82.8 133.6 81.7 135.8 82.2 138.7C82.7 141.4 84.4 142.9 86.5 142.5C88.6 142.1 89.7 139.9 89.1 137Z" fill="white"/>
    <path d="M94.4 141.4C94.4 141.1 94.6 140.9 94.9 140.9C95.5 140.9 95.8 140.4 96.3 138.8C96.8 137.1 97.7 136.4 98.7 136.1C98.9 136.1 98.9 136 98.9 135.9C98.9 135.7 98.3 135.4 98.2 133.6C98.2 132.3 97.9 131.6 97.2 131.6C97 131.6 96.9 131.7 96.9 131.8C96.9 131.9 97.1 131.9 97.1 132.3C97.1 132.8 96.6 133.1 96 133.1C95.3 133.1 94.9 132.5 94.9 131.7C95 130.7 95.8 130 97.1 130.1C98.8 130.2 99.6 131.4 99.6 133.6C99.6 135.3 100.2 135.6 101.8 135.7C102 135.7 102.1 135.6 102.2 135.3L102.3 133.3C102.4 132.1 102 131.6 102 131.3C102 130.9 102.3 130.6 103.4 130.7C104.5 130.8 104.7 131.1 104.7 131.5C104.7 131.8 104.3 132.3 104.2 133.5L104.1 135.5C104.1 135.9 104.2 136 104.4 136C105.9 136.1 106.6 135.8 106.8 134.2C107.1 132 108.1 130.9 109.7 131C111 131.1 111.7 131.8 111.7 132.8C111.7 133.6 111.2 134.1 110.5 134.1C109.9 134.1 109.5 133.7 109.5 133.2C109.5 132.8 109.7 132.8 109.7 132.7C109.7 132.6 109.6 132.5 109.4 132.4C108.8 132.4 108.4 133 108.2 134.3C108 136.1 107.3 136.4 107.3 136.6C107.3 136.7 107.3 136.7 107.5 136.8C108.5 137.1 109.2 137.9 109.6 139.7C109.9 141.4 110.2 141.9 110.8 141.9C111.1 141.9 111.2 142.1 111.2 142.4C111.2 143 110.5 143.4 109.8 143.4C108.7 143.3 108.1 142.8 107.7 140.8C107.1 138 106.6 137.5 104.9 137.5C104.3 137.5 103.9 137.6 103.9 138.1L103.8 140.3C103.7 141.5 104.1 142 104 142.3C104 142.7 103.7 143 102.6 142.9C101.5 142.8 101.3 142.5 101.3 142.1C101.3 141.8 101.7 141.3 101.8 140.1L101.9 137.9C101.9 137.5 101.5 137.3 100.9 137.2C99.3 137.1 98.7 137.5 97.8 140.2C97.2 142.1 96.5 142.6 95.4 142.5C95 142.5 94.4 142 94.4 141.4Z" fill="white"/>
    <path d="M113.7 143.3C113.8 142.9 114.3 142.9 115.2 141.6L120.9 134.1C121.2 133.7 121.6 133.7 122.3 133.9C123 134.1 123.2 134.3 123.2 134.8L123.8 144.2C123.9 145.7 124.3 146 124.2 146.4C124 147 123.6 147 122.6 146.7C121.5 146.4 121.2 146.2 121.4 145.6C121.5 145.4 121.6 145.2 121.7 144.9C121.8 144.7 121.8 144.2 121.7 143C121.7 142.9 121.6 142.7 121.4 142.6L117.6 141.5C117.3 141.4 117.2 141.5 117 141.7C116.4 142.6 116.1 143 116 143.3C115.9 143.6 116 143.9 115.9 144.1C115.7 144.7 115.3 144.7 114.5 144.4C113.8 144.1 113.5 143.9 113.7 143.3ZM121.6 140.9C121.6 140.8 121.6 140.5 121.5 138.4C121.4 136.3 121.3 136.3 121.2 136.2C121.1 136.2 121 136.3 119.7 138C118.5 139.7 118.3 139.8 118.3 139.9C118.3 140 118.3 140.1 118.5 140.2L121.2 141C121.4 141.1 121.5 141.1 121.6 140.9Z" fill="white"/>
    <path d="M127.2 146C127.6 145.2 128.4 144.9 129.1 145.3C129.7 145.6 129.8 146.1 129.5 146.7C129.2 147.3 128.8 147.2 128.7 147.3C128.6 147.6 128.7 147.8 128.9 148C129.7 148.4 130.7 147.8 132.8 144.2L135.1 140.4C135.5 139.7 135.9 139.6 136.5 139.9L141.2 142.4C142 142.8 142.2 143.2 142 143.6C141.8 143.9 141.4 144.2 140.8 145.3L137.6 151.2C137 152.3 137 152.8 136.8 153.1C136.6 153.5 136.2 153.6 135.4 153.1C134.5 152.6 134.3 152.2 134.5 151.8C134.6 151.5 135.2 151.3 135.8 150.2L139.3 143.8C139.5 143.4 139.5 143.2 138.9 142.9L136.8 141.8C136.3 141.5 136.1 141.5 135.8 142L134 145C131.3 149.4 129.7 150.3 127.9 149.3C126.9 148.6 126.5 147.3 127.2 146Z" fill="white"/>
    <path d="M143 150.9C145.4 148.1 149 147.6 151.5 149.8C154 152 154.2 155.4 151.9 158.1C149.5 160.9 145.9 161.4 143.4 159.2C140.8 157 140.7 153.6 143 150.9ZM150.2 156.6C152 154.5 152.1 152.2 150.5 150.9C149 149.6 146.5 150.1 144.6 152.4C142.8 154.5 142.7 156.8 144.3 158.1C145.9 159.4 148.3 158.8 150.2 156.6Z" fill="white"/>
    <path d="M150.4 164.7C150.6 164.5 151.2 164.4 152.1 163.6L157.4 159.4C158.3 158.7 158.6 158.2 158.8 158C159.1 157.7 159.5 157.8 159.8 158.1C160.1 158.5 160.4 159 160.7 159.4C161.2 160 161.7 160.6 162.1 161.1C163.9 163.4 164 165 162.5 166.1C161.7 166.7 160.8 166.8 159.7 166.4C159.5 166.3 159.4 166.3 159.3 166.3C159.2 166.4 159.2 166.5 159.3 166.7C159.7 168 159.4 169.2 158.3 170.1C156.6 171.5 154.3 170.8 152.4 168.4C151.9 167.8 151.5 167.2 151.1 166.6C150.8 166.2 150.4 165.9 150.2 165.5C149.9 165.3 150 164.9 150.4 164.7ZM157.2 168.4C158.2 167.6 158.1 166.5 157 165.1C155.8 163.6 155.6 163.4 155.1 163.8L152.8 165.6C152.3 166 152.4 166.1 153.4 167.4C154.8 169.1 156 169.3 157.2 168.4ZM161 164.7C161.9 164 161.8 163.1 160.8 161.8C159.8 160.5 159.6 160.3 159.1 160.7L157.2 162.2C156.9 162.4 156.9 162.6 157.9 163.8C158.8 165.1 160.1 165.4 161 164.7Z" fill="white"/>
    <path d="M157.4 173.8C157.7 173.6 158.1 173.9 159.6 173.7L169 172.5C169.5 172.4 169.8 172.7 170.1 173.3C170.5 174 170.4 174.3 170.1 174.6L163.8 181.7C162.8 182.8 162.8 183.3 162.5 183.5C161.9 183.8 161.7 183.5 161.2 182.5C160.7 181.5 160.6 181.1 161.1 180.8C161.3 180.7 161.5 180.7 161.8 180.6C162 180.5 162.4 180.1 163.2 179.3C163.3 179.2 163.4 179.1 163.2 178.8L161.3 175.3C161.1 175 161 175 160.8 175C159.7 175.2 159.3 175.2 159 175.4C158.7 175.6 158.6 175.8 158.4 175.9C157.9 176.2 157.6 175.9 157.2 175.1C156.9 174.4 156.9 174.1 157.4 173.8ZM164.6 177.7C164.7 177.6 164.9 177.4 166.3 175.9C167.7 174.3 167.7 174.3 167.6 174.2C167.5 174.1 167.4 174.1 165.3 174.4C163.2 174.7 163 174.7 162.9 174.8C162.8 174.9 162.7 175 162.8 175.1L164.1 177.6C164.4 177.8 164.5 177.8 164.6 177.7Z" fill="white"/>
    <path d="M163.9 187.7C164.2 187.6 164.7 187.7 165.9 187.3L173.1 184.9C173.4 184.8 173.5 184.6 173.4 184.2L173.2 183.6C172.8 182.4 171.7 182.1 171.5 181.7C171.4 181.4 171.6 181.1 171.9 180.9C172.6 180.7 173.7 180.9 174 181.5C174.1 181.8 174.5 183.2 175.2 185.3C175.9 187.3 176.5 188.7 176.5 189C176.7 189.6 175.9 190.4 175.2 190.7C174.8 190.8 174.5 190.7 174.4 190.3C174.3 189.9 175 188.9 174.6 187.7L174.4 187.1C174.3 186.8 174.1 186.6 173.8 186.7L166.6 189.1C165.5 189.5 165.1 189.9 164.8 190C164.4 190.1 164 190 163.7 189.1C163.3 188.2 163.5 187.9 163.9 187.7Z" fill="white"/>
    <path d="M166.6 196.7C166.9 196.7 167.4 196.8 168.6 196.6L175.2 195.7C176.4 195.5 176.8 195.2 177.2 195.2C177.6 195.1 177.9 195.4 178.1 196.3C178.3 197.4 178 197.7 177.6 197.8C177.3 197.8 176.7 197.5 175.6 197.7L174 197.9C173.6 198 173.6 198.1 173.8 199.9L173.9 200.3C174.3 203.4 173.4 204.8 171 205.2C168.8 205.5 167 203.8 166.6 201.1C166.5 200.4 166.4 199.6 166.3 198.9C166.2 198.4 166.1 197.9 166 197.5C165.9 197.1 166.1 196.8 166.6 196.7ZM170.7 203.1C172.1 202.9 172.5 202 172.3 200.5C172 198.5 171.9 198.2 171.4 198.3L168.3 198.7C167.7 198.8 167.7 199 167.9 200.5C168.1 202.4 169.2 203.3 170.7 203.1Z" fill="white"/>
</svg>
