<svg width="318" height="206" viewBox="0 0 318 206" fill="none" xmlns="http://www.w3.org/2000/svg">
    <g clip-path="url(#clip0)">
        <path d="M5.99998 80.8C4.89998 81.5 3.79998 82.3 2.69998 83.1C1.89998 83.6 1.19998 84.1 0.399977 84.6C-0.100023 84.9 -0.100023 85.4 0.199977 85.9C0.499977 86.3 1.49998 87.1 2.59998 88.7L10.2 100C11.3 101.7 11.7 102.9 11.9 103.3C12.2 103.8 12.7 103.9 13.9 103.1C15.2 102.2 15.4 101.7 15 101.2C14.7 100.8 13.6 100.1 12.4 98.5L10.7 95.9C10.2 95.2 10.2 94.8 11.2 94.1L13.6 92.5C18.3 89.3 19.4 85.4 16.7 81.4C14.3 77.8 10.6 77.7 5.99998 80.8ZM12.2 90.9C9.39998 92.8 8.89998 93 8.49998 92.4L4.49998 86.4C3.69998 85.2 3.89998 84.9 6.99998 82.8C10.2 80.6 12.7 80.6 14.4 83.2C16.4 86.2 15.7 88.5 12.2 90.9Z" fill="white"/>
        <path d="M36.9 62.3C31.6 65 29.7 71.5 32.9 77.9C35.9 83.9 42 86 47.4 83.3C52.7 80.6 54.6 74 51.4 67.7C48.5 61.7 42.4 59.6 36.9 62.3ZM46.5 81.4C42.5 83.4 38.1 81.6 35.6 76.6C33 71.4 34.1 66.2 37.9 64.3C41.9 62.3 46.3 64.1 48.8 69.1C51.5 74.3 50.3 79.5 46.5 81.4Z" fill="white"/>
        <path d="M80.3 69.7C82.7 68.9 85.1 67 86 64.9C86.1 64.7 86.1 64.4 86 64.1C85.9 63.8 85.8 63.7 85.6 63.5C85.4 63.4 85.2 63.4 84.9 63.5C84.7 63.6 84.4 63.8 84.2 64.1C83 65.6 81.2 66.7 79.6 67.3C74.8 68.9 70.9 66.3 69 60.8C67.2 55.4 68.7 51.3 73.1 49.7C75.6 48.8 77.1 49.3 79.1 50.6C79.8 51.1 80.2 51.2 80.7 51.1C81.2 50.9 81.4 50.5 81.2 50C80.9 49.1 80.4 48.4 79.9 47.9C79.1 47 78.4 46.5 77.8 46.7C77.5 46.8 77.2 47 77 47.1C76.5 47.3 74.5 47.1 72.3 47.8C66.3 49.9 63.9 55.5 66 61.9C68.5 68.7 74 71.9 80.3 69.7Z" fill="white"/>
        <path d="M111.4 61.6C113.9 61.1 116.5 59.5 117.7 57.6C117.8 57.4 117.9 57.1 117.8 56.8C117.7 56.5 117.6 56.3 117.4 56.2C117.2 56.1 117 56 116.8 56.1C116.6 56.1 116.3 56.3 116 56.6C114.6 58 112.7 58.8 111 59.2C106.1 60.2 102.5 57.1 101.3 51.3C100.2 45.8 102.2 41.8 106.8 40.9C109.4 40.4 110.8 41 112.6 42.5C113.3 43.1 113.6 43.3 114.2 43.2C114.7 43.1 114.9 42.7 114.8 42.2C114.6 41.3 114.2 40.6 113.8 39.9C113.1 38.9 112.5 38.3 111.9 38.4C111.6 38.5 111.3 38.6 111.1 38.7C110.6 38.8 108.6 38.3 106.4 38.8C100.2 40.1 97 45.3 98.4 51.9C99.9 59 104.9 62.9 111.4 61.6Z" fill="white"/>
        <path d="M133.2 53.3C133.3 55.3 133 56.5 133 57C133 57.6 133.4 57.9 134.9 57.8C136.1 57.7 136.4 57.4 137.6 55.3L145.3 40.5C146 39.1 146.2 38.9 146.4 38.9C146.6 38.9 146.7 39 146.8 39.7L147.6 52.3C147.7 54.3 147.2 55.5 147.2 56C147.2 56.6 147.7 56.9 149.2 56.8C150.6 56.7 151 56.3 151 55.7C151 55.2 150.5 54.1 150.3 52L149.4 38.4C149.3 36.4 149.6 35.2 149.6 34.7C149.6 34.1 149.1 33.8 147.7 33.9C146.5 34 146.2 34.2 145.1 36.4L137.4 51.2C136.7 52.6 136.5 52.8 136.3 52.8C136.1 52.8 136 52.7 136 52L135.2 39.4C135.1 37.4 135.6 36.2 135.5 35.7C135.5 35.1 135 34.8 133.5 34.9C132.1 35 131.7 35.4 131.8 36C131.8 36.5 132.3 37.6 132.5 39.7L133.2 53.3Z" fill="white"/>
        <path d="M168.4 56.8C169.6 56.9 170 56.6 171.4 54.7L181 41.1C181.9 39.8 182.1 39.7 182.3 39.7C182.5 39.7 182.6 39.8 182.6 40.5L181.7 53C181.6 55 180.9 56.2 180.8 56.7C180.8 57.3 181.2 57.7 182.7 57.8C184.1 57.9 184.6 57.5 184.6 57C184.6 56.5 184.3 55.3 184.4 53.3L185.3 39.7C185.4 37.7 185.9 36.5 186 36C186 35.4 185.7 35 184.2 34.9C183 34.8 182.7 35 181.3 37L171.7 50.6C170.8 51.9 170.6 52 170.4 52C170.2 52 170.1 51.9 170.2 51.2L171 38.6C171.1 36.6 171.8 35.4 171.8 34.9C171.8 34.3 171.5 33.9 169.9 33.8C168.5 33.7 168.1 34.1 168 34.6C168 35.1 168.3 36.3 168.2 38.3L167.3 51.9C167.2 53.9 166.7 55.1 166.6 55.6C166.6 56.3 167 56.7 168.4 56.8Z" fill="white"/>
        <path d="M177.4 33C179.7 33.2 181.4 31.5 181.5 29.5C181.5 28.9 181.2 28.5 180.6 28.5C180.1 28.5 179.8 28.7 179.6 29.1C179.1 30.4 178.4 30.9 177.5 30.8C176.6 30.7 175.9 30.2 175.6 28.8C175.5 28.3 175.2 28.1 174.7 28.1C174.2 28.1 173.8 28.4 173.7 29C173.7 30.9 175.1 32.8 177.4 33Z" fill="white"/>
        <path d="M209.9 62.3C212.4 62.8 215.4 62.4 217.2 61C217.4 60.8 217.6 60.6 217.6 60.3C217.7 60 217.6 59.8 217.5 59.6C217.4 59.4 217.2 59.3 216.9 59.2C216.7 59.2 216.3 59.2 216 59.3C214.2 60 212.1 60.1 210.4 59.7C205.5 58.7 203.3 54.5 204.5 48.7C205.6 43.2 209 40.3 213.6 41.2C216.2 41.7 217.3 42.8 218.3 45C218.7 45.8 218.9 46.1 219.5 46.2C220 46.3 220.4 46.1 220.5 45.5C220.7 44.6 220.6 43.7 220.5 43C220.3 41.8 219.9 41 219.3 40.9C219 40.8 218.6 40.9 218.4 40.8C217.9 40.7 216.2 39.5 214 39.1C207.8 37.9 202.9 41.5 201.5 48.1C200.2 55.4 203.4 60.9 209.9 62.3Z" fill="white"/>
        <path d="M252.5 49.9C249.7 48.9 247.5 50.4 245.8 54.5C244.4 57.8 243 57.8 239.2 56.5C238.7 56.3 238.5 56 238.7 55.3L240.2 51C240.9 49.1 241.8 48.2 241.9 47.7C242.1 47.2 241.8 46.7 240.3 46.2C238.9 45.7 238.5 46 238.3 46.5C238.1 47 238.2 48.2 237.5 50.1L233.2 63C232.5 64.9 231.8 65.9 231.6 66.4C231.4 66.9 231.6 67.4 233 67.9C234.5 68.4 235 68.2 235.2 67.6C235.4 67.1 235.2 65.8 235.8 63.9L237.3 59.3C237.6 58.5 238.6 58.6 239.9 59C243.8 60.3 244.7 61.4 244.2 66.9C243.9 70.9 244.7 72.1 246.3 72.6C247.3 72.9 248.4 72.7 248.7 71.8C248.9 71.3 248.7 71 248.2 70.9C247.1 70.5 246.9 69.3 247.2 66C247.5 62 246.7 60.4 245.1 59.3C244.9 59.1 244.8 59 244.9 58.9C245 58.6 246.4 58.6 247.8 55.2C248.9 52.6 250.2 51.4 251.5 51.9C252 52.1 252.1 52.3 252 52.5C252 52.6 251.6 52.6 251.4 53.3C251.1 54.1 251.6 54.8 252.5 55.1C253.5 55.4 254.4 54.9 254.8 53.7C255.4 52.1 254.5 50.6 252.5 49.9Z" fill="white"/>
        <path d="M280.1 62C279.2 61.6 278.7 61.5 278.2 62L264.5 74.7C262.4 76.6 261.6 76.6 261.3 77.2C260.9 78 261.2 78.3 262.4 78.8C263.7 79.4 264.2 79.5 264.5 78.8C264.7 78.5 264.7 78.1 264.9 77.7C265.2 77 266 76.3 268.1 74.3C268.4 74 268.7 73.8 269.2 74.1L276.6 77.7C277 77.9 277.1 78.2 277 78.4C276.6 81.6 276.4 82.8 276.2 83.2C276 83.6 275.8 83.8 275.6 84.2C275.2 85 275.5 85.3 277.1 86C278.5 86.7 279.1 86.9 279.5 86.1C279.8 85.5 279.2 84.8 279.5 82L281.2 63.4C281.3 62.8 281.1 62.5 280.1 62ZM277.9 70.2C277.5 74.6 277.4 75.1 277.3 75.3C277.2 75.5 277 75.5 276.8 75.4L270.9 72.5C270.7 72.4 270.6 72.2 270.7 72.1C270.8 71.9 271.2 71.6 274.3 68.7C277.8 65.4 278 65.2 278.2 65.3C278.2 65.3 278.3 65.4 277.9 70.2Z" fill="white"/>
        <path d="M317.6 84.2C316.8 83.7 315.9 83.2 315.1 82.6C313.9 81.8 312.8 81 311.7 80.2C307.5 77.4 304 78 301.7 81.4C300.3 83.6 300.4 86 302 88.1C302.1 88.3 302.1 88.4 302.1 88.5C302.1 88.6 302 88.6 301.7 88.5C300.3 88.1 298.8 88.4 296.5 90.5C294.2 92.5 293.2 93.1 292.2 92.4C291.7 92.1 291.4 92.2 291.2 92.6C290.7 93.3 291.1 94.4 292 95C293.3 95.9 294.6 95.9 297.8 93.2C301.6 89.9 302.7 90.1 306.7 92.8L307 93C308.1 93.8 308.2 94.1 307.8 94.7L305.5 98.2C304.4 99.9 303.2 100.5 303 101C302.7 101.5 302.8 102 304.1 102.9C305.3 103.7 305.8 103.6 306.1 103.1C306.4 102.7 306.7 101.5 307.8 99.8L315.4 88.5C316.5 86.8 317.5 86.1 317.8 85.6C318.1 85 318.1 84.5 317.6 84.2ZM313.6 86L310.1 91.2C309.7 91.9 308.9 91.6 306.9 90.3C303.6 88.1 302.4 85.8 304.2 83.3C305.8 80.8 308.2 80.6 310.9 82.4C314.3 84.6 314.3 84.9 313.6 86Z" fill="white"/>
        <path d="M91.5 94.6C90.1 95.1 89.5 95.7 79.9 99.2C78.7 99.6 77.4 99.9 76.3 100.3C74.9 100.8 74.3 102.1 74.8 103.4C75.1 104.3 76.1 105 77.4 108.4L83 124C84.2 127.3 83.9 128.5 84.2 129.4C84.7 130.8 85.9 131.4 88.9 130.3C92.2 129.1 92.8 127.8 92.3 126.5C92 125.6 90.5 125.1 89.3 121.7L83.2 104.6C82.6 103.1 83.1 102.6 85.6 101.7C89.8 100.2 91.6 100.5 94.3 101.1C95 101.3 95.5 101.3 95.9 101.1C97 100.7 97.5 99.6 97 98.3C96.2 96.2 93.5 93.8 91.5 94.6Z" fill="white"/>
        <path d="M127.8 119.3C131.2 118.5 132.5 118 132 115.9C131.8 114.8 130.4 114.5 128.1 111L115.2 90.8C114.4 89.5 113.4 89.2 110.9 89.7C108.4 90.3 107.5 90.8 107.2 92.5L104 116.3C103.5 120.5 102.4 121.3 102.6 122.4C103 124.1 104.1 124.5 106.5 124C109.2 123.4 110.2 122.6 109.8 120.8C109.6 120 109 119.7 108.7 118.4C108.6 117.7 108.6 116.9 108.7 115.1C108.7 114.6 109 114.2 109.9 114L119.4 111.9C120.2 111.7 120.5 112 120.7 112.4C121.6 114 122 114.9 122.2 115.4C122.5 116.7 122.1 117.3 122.2 118C122.8 120.1 124.1 120.1 127.8 119.3ZM116.6 107.8L110.9 109.1C110.3 109.2 109.9 109 109.8 108.5C109.7 108.3 109.8 107.9 110.4 102.9C110.9 98.6 111.1 98 111.4 97.9C111.7 97.8 111.9 98 114.3 101.7C116.9 105.7 117.3 106.4 117.4 106.8C117.5 107.4 117.1 107.6 116.6 107.8Z" fill="white"/>
        <path d="M146.2 84.5C143.1 84.7 141.4 85.6 140.5 85.7C139.9 85.7 139.3 85.5 138.6 85.5C137.4 85.6 136.1 87 135.6 89C135.3 90.6 135.1 92 135.2 93C135.3 94.4 136.2 95.4 137.3 95.4C138.8 95.3 139.4 94.4 140.1 93.1C141.2 91.2 142.3 89.5 145.2 89.4C147.9 89.2 149.8 91 149.9 93.9C150.1 96.6 148.3 98.3 144.8 98.5L143.1 98.6C141.6 98.7 141.1 99.4 141.2 101.1C141.3 102.8 142 103.4 143.4 103.3L145.8 103.2C149.6 103 151.4 104.5 151.5 107C151.7 110.1 149.5 112.1 145.9 112.3C143.5 112.4 141.2 111.6 138.9 109.6C138.2 109 137.7 108.9 137.1 108.9C136 109 135.5 109.7 135.5 110.8C135.7 114.4 141.1 118.1 147.5 117.8C154.5 117.4 159.1 112.7 158.8 107.2C158.6 104.1 156.8 101.2 154 100.3C153.3 100.1 153.1 99.9 153.1 99.7C153.1 99.5 153.1 99.4 153.8 99C156.1 97.7 157.3 95.3 157.2 92.4C156.7 87.4 152 84.1 146.2 84.5Z" fill="white"/>
        <path d="M166.2 116.9C167.3 117 168.8 116.9 170 117C179.5 117.8 182 118.2 183.3 118.3C185.4 118.5 187.5 115.4 187.7 112.9C187.8 111.6 187.1 110.6 185.8 110.5C185.4 110.5 185 110.7 184.4 111C181.8 112.4 180.3 113.3 175.4 112.8C171.9 112.5 171.5 111.7 171.7 110L172.1 104.7C172.2 103.3 172.9 102.8 174.4 103C180.5 103.5 180.3 104.4 181.7 104.5C183 104.6 183.7 103.7 183.9 101.4C184.1 99.1 183.6 98 182.2 97.9C180.7 97.8 180.9 98.8 174.5 98.2C173.1 98.1 172.6 97.7 172.7 96.3L173.1 91.3C173.2 89.9 173.7 89.4 176.4 89.6C181 90 182.5 91 184.7 92.7C185.2 93.1 185.7 93.4 186.1 93.4C187.3 93.5 188.2 92.7 188.3 91.3C188.5 89 187 85.7 184.9 85.6C183.5 85.5 181.7 85.7 172.3 84.9C171.1 84.8 169.8 84.5 168.6 84.4C167.1 84.3 166.1 85.2 166 86.6C165.9 87.6 166.6 88.6 166.3 92.2L164.9 108.8C164.6 112.3 163.8 113.3 163.7 114.3C163.9 115.7 164.7 116.8 166.2 116.9Z" fill="white"/>
        <path d="M206.3 120.4C206.5 119.5 206.1 118.3 206.9 114.9L211.1 96.6C211.3 95.8 212 95.5 212.8 95.7L213.6 95.9C216.6 96.6 217.6 99.8 219.1 100.2C220.2 100.5 221.3 99.8 221.6 98.5C222.1 96.3 221.1 92.8 219.1 92.3C218.3 92.1 214 91.5 209.1 90.4C204.2 89.3 200 87.9 199.3 87.7C197.2 87.2 194.8 89.9 194.3 92.1C194 93.4 194.6 94.5 195.8 94.8C197.3 95.1 199.6 92.7 202.6 93.4L203.4 93.6C204.2 93.8 204.7 94.4 204.6 95.2L200.4 113.5C199.6 117 198.7 117.8 198.5 118.7C198.2 120.1 198.8 121.3 201.9 122C204.8 122.6 205.9 121.8 206.3 120.4Z" fill="white"/>
        <path d="M241.8 132.6C242.2 131.6 241.2 130.6 241.3 126.3L241.6 102.3C241.6 100.7 241 99.9 238.6 99.1C236.2 98.2 235.2 98.1 234 99.5L218.2 117.6C215.4 120.8 214.1 120.9 213.7 121.9C213.1 123.6 213.8 124.5 216.1 125.4C218.7 126.4 220 126.3 220.6 124.6C220.9 123.9 220.6 123.2 221 122C221.2 121.4 221.8 120.7 222.8 119.3C223.1 118.9 223.5 118.7 224.4 119L233.5 122.5C234.2 122.8 234.4 123.2 234.3 123.6C234.2 125.5 234.1 126.4 233.9 126.9C233.4 128.1 232.8 128.4 232.5 129.1C231.8 131 232.8 131.8 236.3 133.1C239.7 134.4 241.1 134.6 241.8 132.6ZM234.8 110.9C234.7 115.7 234.7 116.5 234.6 116.9C234.4 117.4 234 117.5 233.4 117.3L227.9 115.2C227.3 115 227.1 114.6 227.3 114.2C227.4 114 227.6 113.6 230.9 109.8C233.7 106.5 234.2 106.1 234.5 106.2C234.7 106.3 234.8 106.5 234.8 110.9Z" fill="white"/>
        <path d="M159.2 135.9C139.9 135.9 124.1 151.7 124.1 171C124.1 190.4 139.8 206.1 159.2 206.1C178.6 206.1 194.3 190.4 194.3 171C194.3 151.6 178.5 135.9 159.2 135.9ZM159.2 205.2C140.4 205.2 125 189.9 125 171C125 152.1 140.3 136.8 159.2 136.8C178.1 136.8 193.4 152.2 193.4 171C193.3 189.8 178 205.2 159.2 205.2Z" fill="white"/>
        <path d="M146.1 198.4L144.9 201C145 201 145.1 201.1 145.3 201.2L146.5 198.6C146.3 198.6 146.2 198.5 146.1 198.4Z" fill="white"/>
        <path d="M136.5 191.3L134.3 193.3C134.4 193.4 134.5 193.5 134.6 193.6L136.8 191.6C136.7 191.5 136.6 191.4 136.5 191.3Z" fill="white"/>
        <path d="M140.4 194.9L138.6 197.2C138.7 197.3 138.8 197.4 138.9 197.4L140.7 195.1C140.7 195.1 140.6 195 140.4 194.9Z" fill="white"/>
        <path d="M139.4 194.1L137.5 196.4C137.6 196.5 137.7 196.6 137.8 196.7L139.7 194.4C139.6 194.3 139.5 194.2 139.4 194.1Z" fill="white"/>
        <path d="M134.9 189.3L132.6 191.1C132.7 191.2 132.7 191.3 132.8 191.4L135.1 189.6C135 189.5 134.9 189.4 134.9 189.3Z" fill="white"/>
        <path d="M135.6 190.3L133.4 192.2C133.5 192.3 133.6 192.4 133.7 192.5L135.9 190.6C135.8 190.5 135.7 190.4 135.6 190.3Z" fill="white"/>
        <path d="M133.4 187.1L131 188.7C131.1 188.8 131.1 188.9 131.2 189L133.6 187.4C133.5 187.4 133.4 187.2 133.4 187.1Z" fill="white"/>
        <path d="M134.1 188.2L131.7 189.9C131.8 190 131.8 190.1 131.9 190.2L134.3 188.5C134.2 188.4 134.2 188.3 134.1 188.2Z" fill="white"/>
        <path d="M138.4 193.2L136.4 195.4C136.5 195.5 136.6 195.6 136.7 195.7L138.7 193.5C138.6 193.4 138.5 193.3 138.4 193.2Z" fill="white"/>
        <path d="M132.7 186L130.2 187.5C130.2 187.6 130.3 187.7 130.4 187.8L132.9 186.3C132.9 186.2 132.8 186.1 132.7 186Z" fill="white"/>
        <path d="M144.8 197.8L143.4 200.4C143.5 200.4 143.6 200.5 143.8 200.6L145.2 198C145.1 198 145 197.9 144.8 197.8Z" fill="white"/>
        <path d="M143.8 197.2L142.3 199.7C142.4 199.7 142.5 199.8 142.6 199.9L144.1 197.4C144 197.3 143.9 197.2 143.8 197.2Z" fill="white"/>
        <path d="M147.3 199L146.2 201.7C146.3 201.7 146.4 201.8 146.6 201.8L147.7 199.1C147.5 199.1 147.4 199.1 147.3 199Z" fill="white"/>
        <path d="M148.9 202.7C149 202.7 149.1 202.8 149.3 202.8L150.2 200C150.1 200 150 199.9 149.8 199.9L148.9 202.7Z" fill="white"/>
        <path d="M142.6 196.5L141 198.9C141.1 198.9 141.2 199 141.3 199.1L142.9 196.7C142.8 196.7 142.7 196.6 142.6 196.5Z" fill="white"/>
        <path d="M141.5 195.7L139.8 198.1C139.9 198.2 140 198.2 140.1 198.3L141.8 195.9C141.8 195.9 141.6 195.8 141.5 195.7Z" fill="white"/>
        <path d="M148.5 199.5L147.5 202.2C147.6 202.2 147.7 202.3 147.9 202.3L148.9 199.6C148.8 199.6 148.7 199.5 148.5 199.5Z" fill="white"/>
        <path d="M130.5 181.2L127.8 182.2C127.8 182.3 127.9 182.4 127.9 182.6L130.6 181.6C130.6 181.4 130.5 181.3 130.5 181.2Z" fill="white"/>
        <path d="M128.8 169.4L125.9 169.3C125.9 169.4 125.9 169.6 125.9 169.7L128.8 169.8C128.8 169.7 128.8 169.5 128.8 169.4Z" fill="white"/>
        <path d="M128.9 168L126 167.8C126 167.9 126 168.1 126 168.2L128.9 168.4C128.9 168.3 128.9 168.2 128.9 168Z" fill="white"/>
        <path d="M129 166.7L126.1 166.3C126.1 166.4 126.1 166.6 126.1 166.7L129 167.1C129 167 129 166.9 129 166.7Z" fill="white"/>
        <path d="M128.8 172L125.9 172.1C125.9 172.2 125.9 172.4 125.9 172.5L128.8 172.4C128.8 172.3 128.8 172.1 128.8 172Z" fill="white"/>
        <path d="M128.8 173.3L125.9 173.5C125.9 173.6 125.9 173.8 125.9 173.9L128.8 173.7C128.9 173.6 128.9 173.5 128.8 173.3Z" fill="white"/>
        <path d="M129.2 165.4L126.3 164.9C126.3 165 126.3 165.2 126.2 165.3L129.1 165.8C129.2 165.7 129.2 165.5 129.2 165.4Z" fill="white"/>
        <path d="M129.8 162.9L127 162.1C127 162.2 126.9 162.4 126.9 162.5L129.7 163.3C129.8 163.1 129.8 163 129.8 162.9Z" fill="white"/>
        <path d="M129.5 164.1L126.7 163.5C126.7 163.6 126.7 163.8 126.6 163.9L129.4 164.5C129.4 164.4 129.4 164.2 129.5 164.1Z" fill="white"/>
        <path d="M129 174.6L126.1 175C126.1 175.1 126.1 175.3 126.1 175.4L129 175.1C129 174.9 129 174.8 129 174.6Z" fill="white"/>
        <path d="M132 184.8L129.4 186.2C129.4 186.3 129.5 186.4 129.6 186.6L132.2 185.2C132.2 185.1 132.1 184.9 132 184.8Z" fill="white"/>
        <path d="M150.3 203.2C150.4 203.2 150.5 203.3 150.7 203.3L151.5 200.5C151.4 200.5 151.2 200.4 151.1 200.4L150.3 203.2Z" fill="white"/>
        <path d="M131 182.4L128.3 183.5C128.3 183.6 128.4 183.7 128.4 183.9L131.1 182.8C131.1 182.6 131 182.5 131 182.4Z" fill="white"/>
        <path d="M131.5 183.6L128.9 184.8C128.9 184.9 129 185 129 185.2L131.6 184C131.6 183.8 131.5 183.7 131.5 183.6Z" fill="white"/>
        <path d="M130 179.9L127.2 180.8C127.2 180.9 127.3 181 127.3 181.2L130.1 180.3C130.1 180.1 130.1 180 130 179.9Z" fill="white"/>
        <path d="M129.7 178.6L126.9 179.3C126.9 179.4 127 179.5 127 179.7L129.8 179C129.8 178.9 129.7 178.8 129.7 178.6Z" fill="white"/>
        <path d="M129.1 176L126.2 176.5C126.2 176.6 126.2 176.8 126.3 176.9L129.2 176.5C129.1 176.3 129.1 176.1 129.1 176Z" fill="white"/>
        <path d="M129.4 177.3L126.6 177.9C126.6 178 126.6 178.1 126.7 178.3L129.5 177.7C129.4 177.6 129.4 177.5 129.4 177.3Z" fill="white"/>
        <path d="M178.6 194.5L180.5 196.8C180.6 196.7 180.7 196.6 180.8 196.6L178.9 194.3C178.8 194.3 178.7 194.4 178.6 194.5Z" fill="white"/>
        <path d="M181.5 191.7L183.7 193.7C183.8 193.6 183.9 193.5 184 193.4L181.8 191.4C181.7 191.5 181.6 191.6 181.5 191.7Z" fill="white"/>
        <path d="M179.6 193.6L181.6 195.8C181.7 195.7 181.8 195.6 181.9 195.5L179.9 193.3C179.8 193.4 179.7 193.5 179.6 193.6Z" fill="white"/>
        <path d="M182.3 190.7L184.5 192.6C184.6 192.5 184.7 192.4 184.8 192.3L182.6 190.4C182.5 190.5 182.4 190.6 182.3 190.7Z" fill="white"/>
        <path d="M183.2 189.7L185.5 191.5C185.6 191.4 185.7 191.3 185.7 191.2L183.4 189.4C183.3 189.4 183.2 189.6 183.2 189.7Z" fill="white"/>
        <path d="M176.4 196L178.1 198.4C178.2 198.3 178.3 198.3 178.4 198.2L176.7 195.8C176.7 195.9 176.5 195.9 176.4 196Z" fill="white"/>
        <path d="M184 188.6L186.4 190.3C186.5 190.2 186.5 190.1 186.6 190L184.2 188.3C184.1 188.3 184.1 188.5 184 188.6Z" fill="white"/>
        <path d="M177.5 195.2L179.3 197.5C179.4 197.4 179.5 197.3 179.6 197.3L177.8 195C177.8 195.1 177.7 195.2 177.5 195.2Z" fill="white"/>
        <path d="M130.2 161.6L127.4 160.7C127.4 160.8 127.3 160.9 127.3 161.1L130.1 162C130.1 161.8 130.2 161.7 130.2 161.6Z" fill="white"/>
        <path d="M188.6 179L191.4 179.7C191.4 179.6 191.5 179.5 191.5 179.3L188.7 178.6C188.6 178.8 188.6 178.9 188.6 179Z" fill="white"/>
        <path d="M187.7 181.6L190.4 182.6C190.4 182.5 190.5 182.4 190.5 182.2L187.8 181.2C187.8 181.3 187.7 181.4 187.7 181.6Z" fill="white"/>
        <path d="M188.1 180.3L190.9 181.2C190.9 181.1 191 181 191 180.8L188.2 179.9C188.2 180.1 188.2 180.2 188.1 180.3Z" fill="white"/>
        <path d="M151.7 203.5C151.8 203.5 152 203.5 152.1 203.6L152.7 200.8C152.6 200.8 152.4 200.8 152.3 200.7L151.7 203.5Z" fill="white"/>
        <path d="M175.4 196.8L177 199.2C177.1 199.2 177.2 199.1 177.3 199L175.7 196.6C175.6 196.6 175.5 196.7 175.4 196.8Z" fill="white"/>
        <path d="M186.1 185.3L188.7 186.7C188.7 186.6 188.8 186.5 188.9 186.3L186.3 184.9C186.2 185 186.1 185.1 186.1 185.3Z" fill="white"/>
        <path d="M185.4 186.4L187.9 187.9C187.9 187.8 188 187.7 188.1 187.6L185.6 186.1C185.6 186.1 185.5 186.2 185.4 186.4Z" fill="white"/>
        <path d="M184.7 187.5L187.1 189.1C187.2 189 187.2 188.9 187.3 188.8L184.9 187.2C184.9 187.3 184.8 187.4 184.7 187.5Z" fill="white"/>
        <path d="M186.7 184L189.3 185.2C189.3 185.1 189.4 185 189.5 184.8L186.9 183.6C186.8 183.8 186.7 183.9 186.7 184Z" fill="white"/>
        <path d="M187.2 182.8L189.9 183.9C189.9 183.8 190 183.7 190 183.5L187.3 182.4C187.3 182.6 187.3 182.7 187.2 182.8Z" fill="white"/>
        <path d="M160.3 201.4L160.4 204.3C160.5 204.3 160.7 204.3 160.8 204.3L160.6 201.4C160.5 201.4 160.4 201.4 160.3 201.4Z" fill="white"/>
        <path d="M157.5 204.3C157.6 204.3 157.8 204.3 157.9 204.3L158 201.4C157.9 201.4 157.7 201.4 157.6 201.4L157.5 204.3Z" fill="white"/>
        <path d="M159 201.4V204.3C159 204.3 159.1 204.3 159.2 204.3C159.3 204.3 159.3 204.3 159.4 204.3V201.4C159.4 201.4 159.3 201.4 159.2 201.4C159.1 201.4 159 201.4 159 201.4Z" fill="white"/>
        <path d="M161.6 201.3L161.8 204.2C161.9 204.2 162.1 204.2 162.2 204.2L162 201.3C161.9 201.3 161.8 201.3 161.6 201.3Z" fill="white"/>
        <path d="M153.1 203.8C153.2 203.8 153.4 203.8 153.5 203.8L154 200.9C153.9 200.9 153.7 200.9 153.6 200.9L153.1 203.8Z" fill="white"/>
        <path d="M163 201.2L163.4 204.1C163.5 204.1 163.7 204.1 163.8 204.1L163.4 201.2C163.2 201.1 163.1 201.2 163 201.2Z" fill="white"/>
        <path d="M156 204.1C156.1 204.1 156.3 204.1 156.4 204.1L156.6 201.2C156.5 201.2 156.3 201.2 156.2 201.2L156 204.1Z" fill="white"/>
        <path d="M154.6 204C154.7 204 154.9 204 155 204L155.4 201.1C155.3 201.1 155.1 201.1 155 201.1L154.6 204Z" fill="white"/>
        <path d="M173 198.1L174.4 200.7C174.5 200.7 174.6 200.6 174.8 200.5L173.4 197.9C173.3 197.9 173.2 198 173 198.1Z" fill="white"/>
        <path d="M171.8 198.7L173 201.3C173.1 201.3 173.2 201.2 173.4 201.1L172.2 198.5C172.1 198.5 172 198.6 171.8 198.7Z" fill="white"/>
        <path d="M170.6 199.2L171.7 201.9C171.8 201.9 171.9 201.8 172.1 201.8L171 199C170.9 199.1 170.8 199.1 170.6 199.2Z" fill="white"/>
        <path d="M164.3 201L164.8 203.9C164.9 203.9 165.1 203.9 165.2 203.9L164.7 201C164.5 200.9 164.4 201 164.3 201Z" fill="white"/>
        <path d="M174.2 197.4L175.7 199.9C175.8 199.9 175.9 199.8 176 199.7L174.5 197.2C174.5 197.3 174.3 197.4 174.2 197.4Z" fill="white"/>
        <path d="M169.4 199.6L170.4 202.3C170.5 202.3 170.6 202.2 170.8 202.2L169.8 199.5C169.6 199.5 169.5 199.6 169.4 199.6Z" fill="white"/>
        <path d="M165.6 200.7L166.2 203.5C166.3 203.5 166.5 203.5 166.6 203.4L166 200.6C165.8 200.7 165.7 200.7 165.6 200.7Z" fill="white"/>
        <path d="M168.1 200.1L169 202.9C169.1 202.9 169.2 202.8 169.4 202.8L168.5 200C168.4 200 168.3 200 168.1 200.1Z" fill="white"/>
        <path d="M166.8 200.4L167.5 203.2C167.6 203.2 167.8 203.1 167.9 203.1L167.2 200.3C167.1 200.4 167 200.4 166.8 200.4Z" fill="white"/>
        <path d="M151.5 141.5L150.8 138.7C150.7 138.7 150.5 138.8 150.4 138.8L151.1 141.6C151.2 141.5 151.3 141.5 151.5 141.5Z" fill="white"/>
        <path d="M183.5 152.6L185.8 150.8C185.7 150.7 185.6 150.6 185.6 150.5L183.3 152.3C183.3 152.4 183.4 152.5 183.5 152.6Z" fill="white"/>
        <path d="M184.3 153.7L186.7 152C186.6 151.9 186.6 151.8 186.5 151.7L184.1 153.4C184.1 153.5 184.2 153.6 184.3 153.7Z" fill="white"/>
        <path d="M182.7 151.6L184.9 149.7C184.8 149.6 184.7 149.5 184.6 149.4L182.4 151.3C182.5 151.4 182.6 151.5 182.7 151.6Z" fill="white"/>
        <path d="M185 154.8L187.4 153.2C187.4 153.1 187.3 153 187.2 152.9L184.8 154.5C184.8 154.5 184.9 154.7 185 154.8Z" fill="white"/>
        <path d="M185.6 155.9L188.1 154.4C188.1 154.3 188 154.2 187.9 154.1L185.4 155.6C185.5 155.7 185.6 155.8 185.6 155.9Z" fill="white"/>
        <path d="M186.9 158.3L189.5 157.1C189.5 157 189.4 156.9 189.3 156.7L186.7 157.9C186.7 158 186.8 158.2 186.9 158.3Z" fill="white"/>
        <path d="M181.8 150.6L184 148.6C183.9 148.5 183.8 148.4 183.7 148.3L181.5 150.3C181.6 150.4 181.7 150.5 181.8 150.6Z" fill="white"/>
        <path d="M186.3 157.1L188.9 155.7C188.9 155.6 188.8 155.5 188.7 155.3L186.1 156.7C186.2 156.8 186.3 157 186.3 157.1Z" fill="white"/>
        <path d="M174.6 144.7L176.1 142.2C176 142.2 175.9 142.1 175.8 142L174.3 144.5C174.4 144.6 174.5 144.7 174.6 144.7Z" fill="white"/>
        <path d="M173.5 144.1L174.9 141.5C174.8 141.5 174.7 141.4 174.5 141.3L173.1 143.9C173.2 143.9 173.4 144 173.5 144.1Z" fill="white"/>
        <path d="M187.4 159.5L190.1 158.4C190.1 158.3 190 158.2 190 158L187.3 159.1C187.3 159.3 187.3 159.4 187.4 159.5Z" fill="white"/>
        <path d="M171.1 142.9L172.2 140.2C172.1 140.2 172 140.1 171.8 140.1L170.7 142.8C170.9 142.8 171 142.8 171.1 142.9Z" fill="white"/>
        <path d="M172.3 143.5L173.5 140.9C173.4 140.9 173.3 140.8 173.1 140.7L171.9 143.3C172.1 143.3 172.2 143.4 172.3 143.5Z" fill="white"/>
        <path d="M177.9 147L179.7 144.7C179.6 144.6 179.5 144.5 179.4 144.5L177.6 146.8C177.7 146.8 177.8 146.9 177.9 147Z" fill="white"/>
        <path d="M130.7 160.3L128 159.3C128 159.4 127.9 159.5 127.9 159.7L130.6 160.7C130.6 160.6 130.6 160.5 130.7 160.3Z" fill="white"/>
        <path d="M176.9 146.2L178.6 143.8C178.5 143.7 178.4 143.7 178.3 143.6L176.6 146C176.6 146 176.8 146.1 176.9 146.2Z" fill="white"/>
        <path d="M179.9 148.7L181.9 146.5C181.8 146.4 181.7 146.3 181.6 146.2L179.6 148.4C179.7 148.5 179.8 148.6 179.9 148.7Z" fill="white"/>
        <path d="M175.7 145.4L177.3 143C177.2 143 177.1 142.9 177 142.8L175.4 145.2C175.5 145.2 175.6 145.3 175.7 145.4Z" fill="white"/>
        <path d="M128.7 170.9C128.7 170.8 128.7 170.8 128.7 170.7H125.8C125.8 170.8 125.8 170.8 125.8 170.9V171H128.7C128.7 171.1 128.7 171 128.7 170.9Z" fill="white"/>
        <path d="M137.8 149.3L135.7 147.2C135.6 147.3 135.5 147.4 135.4 147.5L137.5 149.6C137.6 149.5 137.7 149.4 137.8 149.3Z" fill="white"/>
        <path d="M137.5 192.3L135.4 194.4C135.5 194.5 135.6 194.6 135.7 194.7L137.8 192.6C137.7 192.5 137.6 192.4 137.5 192.3Z" fill="white"/>
        <path d="M180.9 149.6L183 147.5C182.9 147.4 182.8 147.3 182.7 147.2L180.6 149.3C180.7 149.4 180.8 149.5 180.9 149.6Z" fill="white"/>
        <path d="M189.6 170.9C189.6 171 189.6 171 189.6 171.1H192.5C192.5 171 192.5 171 192.5 170.9C192.5 170.9 192.5 170.8 192.5 170.7H189.6C189.6 170.8 189.6 170.9 189.6 170.9Z" fill="white"/>
        <path d="M180.5 192.6L182.6 194.7C182.7 194.6 182.8 194.5 182.9 194.4L180.8 192.3C180.7 192.4 180.6 192.5 180.5 192.6Z" fill="white"/>
        <path d="M188.9 164.6L191.7 164C191.7 163.9 191.7 163.7 191.6 163.6L188.8 164.2C188.9 164.3 188.9 164.5 188.9 164.6Z" fill="white"/>
        <path d="M188.7 163.3L191.5 162.6C191.5 162.5 191.4 162.4 191.4 162.2L188.6 162.9C188.6 163.1 188.7 163.2 188.7 163.3Z" fill="white"/>
        <path d="M188.3 162L191.1 161.1C191.1 161 191 160.9 191 160.7L188.2 161.6C188.2 161.8 188.3 161.9 188.3 162Z" fill="white"/>
        <path d="M189.2 165.9L192.1 165.4C192.1 165.3 192.1 165.1 192.1 165L189.2 165.5C189.2 165.6 189.2 165.8 189.2 165.9Z" fill="white"/>
        <path d="M189.4 167.3L192.3 166.9C192.3 166.8 192.3 166.6 192.3 166.5L189.4 166.9C189.3 167 189.4 167.1 189.4 167.3Z" fill="white"/>
        <path d="M187.9 160.8L190.6 159.8C190.6 159.7 190.5 159.6 190.5 159.4L187.8 160.4C187.8 160.5 187.8 160.6 187.9 160.8Z" fill="white"/>
        <path d="M189.5 168.6L192.4 168.4C192.4 168.2 192.4 168.1 192.4 168L189.5 168.2C189.5 168.3 189.5 168.4 189.5 168.6Z" fill="white"/>
        <path d="M178.9 147.8L180.8 145.5C180.7 145.4 180.6 145.3 180.5 145.2L178.6 147.5C178.7 147.6 178.8 147.7 178.9 147.8Z" fill="white"/>
        <path d="M140.8 146.7L139 144.4C138.9 144.5 138.8 144.6 138.7 144.6L140.5 146.9C140.6 146.8 140.7 146.7 140.8 146.7Z" fill="white"/>
        <path d="M141.9 145.9L140.2 143.5C140.1 143.6 140 143.6 139.9 143.7L141.6 146.1C141.7 146 141.8 146 141.9 145.9Z" fill="white"/>
        <path d="M139.8 147.4L137.9 145.1C137.8 145.2 137.7 145.3 137.6 145.4L139.5 147.7C139.6 147.6 139.7 147.5 139.8 147.4Z" fill="white"/>
        <path d="M138.8 148.3L136.8 146.1C136.7 146.2 136.6 146.3 136.5 146.4L138.5 148.6C138.6 148.5 138.7 148.4 138.8 148.3Z" fill="white"/>
        <path d="M145.3 143.8L143.9 141.2C143.8 141.2 143.7 141.3 143.5 141.4L144.9 144C145 144 145.2 143.9 145.3 143.8Z" fill="white"/>
        <path d="M136.9 150.2L134.7 148.2C134.6 148.3 134.5 148.4 134.4 148.5L136.6 150.5C136.7 150.4 136.8 150.3 136.9 150.2Z" fill="white"/>
        <path d="M144.1 144.5L142.6 142C142.5 142 142.4 142.1 142.3 142.2L143.8 144.7C143.9 144.6 144 144.5 144.1 144.5Z" fill="white"/>
        <path d="M146.5 143.2L145.3 140.6C145.2 140.6 145.1 140.7 144.9 140.8L146.1 143.4C146.3 143.4 146.4 143.3 146.5 143.2Z" fill="white"/>
        <path d="M143 145.1L141.4 142.7C141.3 142.7 141.2 142.8 141.1 142.9L142.7 145.3C142.7 145.3 142.9 145.2 143 145.1Z" fill="white"/>
        <path d="M131.6 157.9L129 156.7C129 156.8 128.9 156.9 128.9 157.1L131.5 158.3C131.5 158.1 131.6 158 131.6 157.9Z" fill="white"/>
        <path d="M132.9 155.6L130.4 154.1C130.4 154.2 130.3 154.3 130.2 154.4L132.7 155.9C132.8 155.8 132.9 155.7 132.9 155.6Z" fill="white"/>
        <path d="M132.3 156.6L129.7 155.2C129.7 155.3 129.6 155.4 129.5 155.6L132.1 157C132.1 156.9 132.2 156.8 132.3 156.6Z" fill="white"/>
        <path d="M136 151.2L133.8 149.3C133.7 149.4 133.6 149.5 133.5 149.6L135.7 151.5C135.8 151.4 135.9 151.3 136 151.2Z" fill="white"/>
        <path d="M131.1 159.1L128.4 158C128.4 158.1 128.3 158.2 128.3 158.4L131 159.5C131 159.3 131.1 159.2 131.1 159.1Z" fill="white"/>
        <path d="M133.6 154.4L131.2 152.8C131.1 152.9 131.1 153 131 153.1L133.4 154.7C133.5 154.6 133.5 154.5 133.6 154.4Z" fill="white"/>
        <path d="M135.2 152.2L132.9 150.4C132.8 150.5 132.7 150.6 132.7 150.7L135 152.5C135 152.5 135.1 152.4 135.2 152.2Z" fill="white"/>
        <path d="M169.8 142.4L170.8 139.7C170.7 139.7 170.6 139.6 170.4 139.6L169.4 142.3C169.6 142.3 169.7 142.4 169.8 142.4Z" fill="white"/>
        <path d="M134.4 153.3L132 151.6C131.9 151.7 131.9 151.8 131.8 151.9L134.2 153.6C134.2 153.6 134.3 153.4 134.4 153.3Z" fill="white"/>
        <path d="M163.9 137.9C163.8 137.9 163.6 137.9 163.5 137.9L163.1 140.8C163.2 140.8 163.4 140.8 163.5 140.8L163.9 137.9Z" fill="white"/>
        <path d="M162.4 137.8C162.3 137.8 162.1 137.8 162 137.8L161.8 140.7C161.9 140.7 162.1 140.7 162.2 140.7L162.4 137.8Z" fill="white"/>
        <path d="M160.9 137.6C160.8 137.6 160.6 137.6 160.5 137.6L160.4 140.5C160.5 140.5 160.7 140.5 160.8 140.5L160.9 137.6Z" fill="white"/>
        <path d="M165.2 138.1C165.1 138.1 164.9 138.1 164.8 138.1L164.3 141C164.4 141 164.6 141 164.7 141L165.2 138.1Z" fill="white"/>
        <path d="M147.7 142.8L146.6 140.1C146.5 140.1 146.4 140.2 146.2 140.2L147.3 142.9C147.5 142.8 147.6 142.8 147.7 142.8Z" fill="white"/>
        <path d="M169.5 139.2C169.4 139.2 169.3 139.1 169.1 139.1L168.2 141.9C168.3 141.9 168.4 142 168.6 142L169.5 139.2Z" fill="white"/>
        <path d="M166.7 138.4C166.6 138.4 166.4 138.4 166.3 138.3L165.7 141.1C165.8 141.1 166 141.1 166.1 141.2L166.7 138.4Z" fill="white"/>
        <path d="M168.1 138.7C168 138.7 167.8 138.6 167.7 138.6L166.9 141.4C167 141.4 167.2 141.5 167.3 141.5L168.1 138.7Z" fill="white"/>
        <path d="M159.4 140.5V137.6C159.4 137.6 159.3 137.6 159.2 137.6C159.1 137.6 159.1 137.6 159 137.6V140.5C159 140.5 159.1 140.5 159.2 140.5C159.3 140.5 159.3 140.5 159.4 140.5Z" fill="white"/>
        <path d="M150.2 141.8L149.3 139C149.2 139 149.1 139.1 148.9 139.1L149.8 141.9C150 141.9 150.1 141.9 150.2 141.8Z" fill="white"/>
        <path d="M188.9 177.8L191.7 178.4C191.7 178.3 191.7 178.2 191.8 178L189 177.4C188.9 177.5 188.9 177.6 188.9 177.8Z" fill="white"/>
        <path d="M152.8 141.1L152.2 138.3C152.1 138.3 151.9 138.3 151.8 138.4L152.4 141.2C152.5 141.2 152.7 141.2 152.8 141.1Z" fill="white"/>
        <path d="M148.9 142.3L147.9 139.6C147.8 139.6 147.7 139.7 147.5 139.7L148.5 142.4C148.7 142.4 148.8 142.3 148.9 142.3Z" fill="white"/>
        <path d="M155.4 140.7L155 137.8C154.9 137.8 154.7 137.8 154.6 137.8L155 140.7C155.2 140.8 155.3 140.7 155.4 140.7Z" fill="white"/>
        <path d="M156.7 140.5L156.5 137.6C156.4 137.6 156.2 137.6 156.1 137.6L156.3 140.5C156.5 140.6 156.6 140.6 156.7 140.5Z" fill="white"/>
        <path d="M158 140.5L157.9 137.6C157.8 137.6 157.6 137.6 157.5 137.6L157.6 140.5C157.8 140.5 157.9 140.5 158 140.5Z" fill="white"/>
        <path d="M154.1 140.9L153.6 138C153.5 138 153.3 138 153.2 138L153.7 140.9C153.8 140.9 154 140.9 154.1 140.9Z" fill="white"/>
        <path d="M189.1 176.5L192 177C192 176.9 192 176.7 192 176.6L189.1 176.1C189.1 176.2 189.1 176.4 189.1 176.5Z" fill="white"/>
        <path d="M189.6 169.9L192.5 169.8C192.5 169.7 192.5 169.5 192.5 169.4L189.6 169.5C189.6 169.6 189.6 169.8 189.6 169.9Z" fill="white"/>
        <path d="M189.3 175.1L192.2 175.5C192.2 175.4 192.2 175.2 192.2 175.1L189.3 174.7C189.4 174.9 189.3 175 189.3 175.1Z" fill="white"/>
        <path d="M189.6 172.5L192.5 172.6C192.5 172.5 192.5 172.3 192.5 172.2L189.6 172.1C189.6 172.2 189.6 172.4 189.6 172.5Z" fill="white"/>
        <path d="M189.5 173.9L192.4 174.1C192.4 174 192.4 173.8 192.4 173.7L189.5 173.5C189.5 173.6 189.5 173.7 189.5 173.9Z" fill="white"/>
        <path d="M159.2 141.3C142.9 141.3 129.6 154.6 129.6 170.9C129.6 187.2 142.9 200.5 159.2 200.5C175.5 200.5 188.8 187.2 188.8 170.9C188.8 154.6 175.5 141.3 159.2 141.3ZM159.2 199.8C143.3 199.8 130.4 186.9 130.4 171C130.4 155.1 143.3 142.2 159.2 142.2C175.1 142.2 188 155.1 188 171C188 186.9 175.1 199.8 159.2 199.8Z" fill="white"/>
        <path d="M176 180.9C175.7 180.6 175.5 180.4 175.2 180.1C174.2 179.1 173.3 179 172.6 179.7C172.2 180.1 172.1 180.7 172.4 181.4C172.4 181.5 172.4 181.5 172.4 181.5C172.4 181.5 172.4 181.5 172.3 181.5C172 181.3 171.6 181.4 171 181.7C170.3 182.1 170 182.2 169.8 182L168.9 181.1C169.7 181.1 170.5 180.7 171.2 180C172.4 178.8 172.5 177.2 171.3 176C170.9 175.6 170.5 175.5 170.4 175.3C170.3 175.2 170.3 175.1 170.2 175.1C170.1 175 169.8 175 169.4 175.1C169.2 175.2 169 175.3 168.8 175.5C168.7 175.6 168.6 175.8 168.8 176C169 176.2 169.1 176.1 169.4 176.1C169.9 176 170.3 176 170.8 176.5C171.5 177.2 171.4 178.3 170.4 179.2C169.4 180.2 168.3 180.5 167.5 179.7C166.9 179.1 166.9 178.5 167.4 178L167.7 177.7C167.8 177.6 167.9 177.6 168 177.7L168.7 178.4C168.9 178.6 169.1 178.6 169.2 178.4C169.4 178.2 169.3 178 168.5 177.2C167.7 176.4 167.5 176.3 167.3 176.5C167.2 176.6 167.1 176.9 166.6 177.3C166.5 177.4 166.4 177.4 166.2 177.5C166.1 177.6 166.1 177.6 166.1 177.8C166.1 177.9 166.1 178.1 166.1 178.3L161.2 173.3L163.1 171.4C163.3 171.6 163.6 171.6 163.7 171.4C163.8 171.3 163.9 171 163.8 170.9C164.4 171.1 164.9 171.1 165.2 170.8C165.5 170.5 165.5 170.1 165.3 169.6C166.3 169.4 167.6 169.5 168.6 169.7C170 170 171.4 170.4 172.9 169.9C173.7 169.7 174.4 169.2 175 168.6C176.8 166.8 177 164.1 175.4 162.6C175.1 162.3 174.7 162 174.3 161.9C174.2 161.9 174.2 161.8 174.3 161.7C174.4 161.6 174.6 161.5 174.7 161.4C175.8 160.3 175.8 158.5 174.7 157.4C173.6 156.3 171.8 156.3 170.7 157.4C170.6 157.5 170.5 157.7 170.4 157.8C170.4 157.9 170.3 157.9 170.2 157.8C170 157.4 169.8 157.1 169.5 156.7C168 155.2 165.3 155.4 163.5 157.1C162.9 157.7 162.4 158.5 162.2 159.2C161.7 160.7 162 162.1 162.4 163.5C162.6 164.5 162.7 165.8 162.5 166.8C162 166.7 161.6 166.7 161.3 166.9C161 167.2 161 167.7 161.2 168.3C161 168.2 160.8 168.2 160.7 168.4C160.5 168.6 160.5 168.9 160.7 169L160.8 169.1L158.9 171L157 169.1L157.1 169C157.3 168.8 157.3 168.5 157.1 168.4C157 168.3 156.7 168.2 156.6 168.3C156.8 167.7 156.8 167.2 156.5 166.9C156.2 166.6 155.8 166.6 155.3 166.8C155.1 165.8 155.2 164.5 155.4 163.5C155.7 162.1 156.1 160.7 155.6 159.2C155.4 158.4 154.9 157.7 154.3 157.1C152.5 155.3 149.8 155.1 148.3 156.7C148 157 147.7 157.4 147.6 157.8C147.6 157.9 147.5 157.9 147.4 157.8C147.3 157.7 147.2 157.5 147.1 157.4C146 156.3 144.2 156.3 143.1 157.4C142 158.5 142 160.3 143.1 161.4C143.2 161.5 143.4 161.6 143.5 161.7C143.6 161.7 143.6 161.8 143.5 161.9C143.1 162.1 142.8 162.3 142.4 162.6C140.9 164.1 141.1 166.8 142.8 168.6C143.4 169.2 144.2 169.7 144.9 169.9C146.4 170.4 147.8 170.1 149.2 169.7C150.2 169.5 151.5 169.4 152.5 169.6C152.3 170.1 152.4 170.6 152.6 170.8C152.9 171.1 153.4 171.1 154 170.9C153.9 171.1 153.9 171.3 154.1 171.4C154.3 171.6 154.6 171.6 154.7 171.4L156.6 173.3L151.7 178.3C151.7 178.1 151.7 178 151.7 177.8C151.7 177.6 151.6 177.6 151.6 177.5C151.5 177.4 151.4 177.4 151.2 177.3C150.7 176.8 150.7 176.6 150.5 176.5C150.3 176.3 150.1 176.3 149.3 177.2C148.5 178 148.4 178.2 148.6 178.4C148.8 178.6 148.9 178.5 149.1 178.4L149.8 177.7C149.9 177.6 150 177.6 150.1 177.7L150.4 178C150.9 178.5 150.9 179.1 150.3 179.7C149.5 180.5 148.4 180.3 147.4 179.2C146.4 178.2 146.3 177.2 147 176.5C147.5 176 147.9 176 148.4 176.1C148.6 176.1 148.8 176.2 149 176C149.1 175.9 149.1 175.7 149 175.5C148.8 175.3 148.6 175.2 148.4 175.1C148.1 174.9 147.8 174.9 147.6 175.1C147.5 175.2 147.5 175.3 147.4 175.3C147.3 175.4 146.9 175.6 146.5 176C145.3 177.2 145.4 178.7 146.6 180C147.3 180.7 148.1 181.1 148.9 181.1L148 182C147.8 182.2 147.5 182.1 146.8 181.7C146.2 181.4 145.8 181.3 145.5 181.5C145.4 181.5 145.4 181.5 145.4 181.5C145.4 181.5 145.4 181.5 145.4 181.4C145.7 180.8 145.6 180.2 145.2 179.7C144.4 178.9 143.6 179.1 142.6 180.1C142.3 180.4 142.1 180.6 141.8 180.9C141.6 181.1 141.4 181.2 141.3 181.4C141.2 181.5 141.2 181.7 141.3 181.9C141.4 182 141.7 182.1 142.1 182.5L144.4 184.8C144.6 185 144.7 185.2 144.8 185.3L144.5 185.6C144.2 185.9 144.2 186.3 144.5 186.6L145.6 187.7C145.9 188 146.3 188 146.6 187.7L158.7 175.6L170.8 187.7C171.1 188 171.5 188 171.8 187.7L172.9 186.6C173.2 186.3 173.2 185.9 172.9 185.6L172.6 185.3C172.7 185.2 172.8 185 173 184.8L175.3 182.5C175.7 182.1 176 182 176.1 181.9C176.2 181.8 176.3 181.6 176.1 181.4C176.4 181.2 176.2 181 176 180.9ZM168.2 168.5C167.1 168.3 166.1 168 164.6 168C164.5 168 164.5 168 164.5 168C164.5 168 164.4 167.9 164.5 167.9C164.6 166.5 164.3 165.4 164 164.3C164 164.2 164.1 164.1 164.2 164.1C164.7 164.4 165.4 164.5 166 164.4C166.1 164.4 166.1 164.4 166.2 164.5C166.4 164.9 166.6 165.2 166.9 165.5C167.2 165.8 167.6 166 167.9 166.2C168 166.2 168 166.3 168 166.4C168 167 168.1 167.7 168.3 168.2C168.5 168.4 168.4 168.5 168.2 168.5ZM174.6 163.7C175.6 164.7 175.4 166.6 174.2 167.8C172.9 169.1 171.1 169.2 170.1 168.2C169.8 167.9 169.6 167.4 169.5 167C169.5 166.7 169.6 166.5 169.9 166.5C170.6 166.4 171.4 166.1 171.9 165.5C172.5 164.9 172.8 164.2 172.9 163.5C172.9 163.2 173.2 163.1 173.4 163.1C173.9 163.2 174.3 163.4 174.6 163.7ZM172.1 158.4C172.6 158 173.3 158 173.8 158.4C173.9 158.4 173.9 158.5 174 158.6C174.1 158.7 174.1 158.7 174.2 158.8C174.6 159.3 174.6 160 174.2 160.5C173.7 161.3 172.6 161.3 172 160.7C171.3 160 171.3 158.9 172.1 158.4ZM171 161.6C171.9 162.5 171.8 164 170.8 164.8C170 165.4 168.9 165.4 168.2 164.8C168.1 164.7 168.1 164.7 168 164.6C167.9 164.5 167.9 164.5 167.8 164.4C167.2 163.6 167.2 162.5 167.8 161.8C168.5 160.7 170 160.7 171 161.6ZM164.7 158.3C166 157 167.8 156.9 168.8 157.9C169.1 158.2 169.3 158.7 169.4 159.1C169.4 159.4 169.3 159.6 169 159.6C168.3 159.7 167.5 160 167 160.6C166.4 161.2 166.1 161.9 166 162.6C166 162.9 165.7 163 165.5 163C165 162.9 164.6 162.7 164.3 162.4C163.2 161.4 163.4 159.6 164.7 158.3ZM144 158.7C144 158.6 144.1 158.6 144.2 158.5C144.3 158.4 144.3 158.4 144.4 158.3C144.9 157.9 145.6 157.9 146.1 158.3C146.9 158.8 146.9 159.9 146.3 160.5C145.7 161.1 144.6 161.1 144.1 160.3C143.7 159.9 143.7 159.2 144 158.7ZM148.1 168.3C147.1 169.3 145.2 169.1 144 167.9C142.7 166.6 142.6 164.8 143.6 163.8C143.9 163.5 144.4 163.3 144.8 163.2C145.1 163.2 145.3 163.3 145.3 163.6C145.4 164.3 145.7 165.1 146.3 165.6C146.9 166.2 147.6 166.5 148.3 166.6C148.6 166.6 148.7 166.9 148.7 167.1C148.6 167.5 148.4 168 148.1 168.3ZM147.4 164.8C146.4 164 146.3 162.5 147.2 161.6C148.1 160.7 149.6 160.8 150.4 161.8C151 162.6 151 163.7 150.4 164.4C150.3 164.5 150.3 164.5 150.2 164.6C150.1 164.7 150.1 164.7 150 164.8C149.3 165.4 148.2 165.4 147.4 164.8ZM153.6 167.8C153.6 167.9 153.6 167.9 153.6 167.9C153.6 167.9 153.5 168 153.5 167.9C152.1 167.8 151 168.1 149.9 168.4C149.8 168.4 149.7 168.3 149.7 168.2C150 167.7 150.1 167 150 166.4C150 166.3 150 166.3 150.1 166.2C150.5 166 150.8 165.8 151.1 165.5C151.4 165.2 151.6 164.8 151.8 164.5C151.8 164.4 151.9 164.4 152 164.4C152.6 164.4 153.3 164.3 153.8 164.1C153.9 164 154.1 164.2 154 164.3C153.8 165.3 153.5 166.4 153.6 167.8ZM153.9 162.4C153.6 162.7 153.1 162.9 152.7 163C152.4 163 152.2 162.9 152.2 162.6C152.1 161.9 151.8 161.1 151.2 160.6C150.6 160 149.9 159.7 149.2 159.6C148.9 159.6 148.8 159.3 148.8 159.1C148.9 158.6 149.1 158.2 149.4 157.9C150.4 156.9 152.3 157.1 153.5 158.3C154.7 159.6 154.9 161.4 153.9 162.4ZM143.9 182.5L143 181.6C142.7 181.3 142.7 181.2 143.3 180.6C143.9 180 144.3 179.9 144.8 180.4C145.3 180.9 145.2 181.5 144.5 182.2C144.2 182.6 144 182.7 143.9 182.5ZM145.9 184.4C145.8 184.3 145.6 184.2 145.4 184L144.7 183.3C144.6 183.2 144.6 183.1 144.8 182.8C145.5 182.1 145.8 182 146.9 182.6C147.1 182.7 147.2 182.8 147.3 182.8L145.9 184.4ZM173.4 183.4L172.7 184.1C172.5 184.3 172.3 184.4 172.2 184.5L170.7 183C170.8 182.9 171 182.9 171.1 182.8C172.2 182.2 172.5 182.2 173.2 183C173.5 183.2 173.5 183.3 173.4 183.4ZM175.1 181.6L174.2 182.5C174.1 182.6 173.9 182.6 173.6 182.2C172.9 181.5 172.8 180.9 173.3 180.4C173.8 179.9 174.2 180 174.8 180.6C175.4 181.3 175.4 181.3 175.1 181.6Z" fill="white"/>
        <path d="M69.7 168C69.7 167.9 69.6 167.8 69.5 167.8C69.4 167.8 69.2 167.9 68.8 168.1C68.4 168.3 68.3 168.4 68.3 168.5C68.3 168.6 68.4 168.6 68.6 168.6H68.8C68.9 168.6 69 168.7 69 168.8V172.7C69 173.2 68.6 173.2 68.6 173.5C68.6 173.6 68.7 173.7 69.4 173.7C69.9 173.7 70 173.6 70 173.5C70 173.3 69.7 173.2 69.7 172.7V168Z" fill="white"/>
        <path d="M77.7 166.8C76.2 166.8 75 168 75 169.4C75 170.8 76.1 171.9 77.5 171.9C78.1 171.9 78.5 171.7 78.6 171.7C78.6 171.9 77.9 172.9 76.9 174C76.7 174.3 76.6 174.4 76.6 174.5C76.6 174.7 76.9 174.9 77.1 174.9C77.3 174.9 77.5 174.8 77.7 174.6C79.5 172.7 80.6 171.1 80.6 169.5C80.5 167.9 79.4 166.8 77.7 166.8ZM77.7 170.9C76.8 170.9 76.3 170.3 76.3 169.4C76.3 168.4 76.9 167.8 77.7 167.8C78.6 167.8 79.2 168.4 79.2 169.3C79.2 170.3 78.5 170.9 77.7 170.9Z" fill="white"/>
        <path d="M89.7 164.8C87.3 164.8 85.5 166.5 85.5 168.7C85.5 170.8 87.1 172.4 89.2 172.4C89.9 172.4 90.3 172.2 90.4 172.2C90.4 172.2 90.4 172.2 90.4 172.3C90.4 172.5 89.8 173.4 88.2 175.2C87.7 175.7 87.6 175.9 87.6 176.1C87.6 176.4 88.1 176.9 88.5 176.9C88.9 176.9 89.2 176.7 89.6 176.4C92.4 173.7 94 171.3 94 168.9C94.1 166.5 92.4 164.8 89.7 164.8ZM89.8 170.7C88.7 170.7 88 169.9 88 168.7C88 167.4 88.8 166.5 89.8 166.5C90.9 166.5 91.6 167.2 91.6 168.5C91.6 169.8 90.8 170.7 89.8 170.7Z" fill="white"/>
        <path d="M106.5 161.9C102.2 161.9 99.3 165.6 99.3 171.1C99.3 176.5 102.1 179.9 106.5 179.9C110.8 179.9 113.8 176.2 113.8 170.7C113.8 165.4 110.9 161.9 106.5 161.9ZM106.5 177.4C104.4 177.4 103.1 175.2 103.1 171.2C103.1 167.1 104.4 164.4 106.5 164.4C108.7 164.4 109.9 166.6 109.9 170.6C109.9 174.7 108.6 177.4 106.5 177.4Z" fill="white"/>
        <path d="M216.2 175.6C216 175.6 215.8 175.7 215.5 175.9C214.2 176.7 213.5 177.3 210.7 177.3H209.8C209.4 177.3 209.3 177.2 209.3 176.9C209.3 176.7 210.2 176 211.4 174.9C214.5 172.1 216.4 169.8 216.4 167.1C216.4 163.9 214.1 161.9 210.7 161.9C208.3 161.9 206.5 163 205.7 164.3C205.3 164.8 205.1 165.4 205.1 166C205.1 166.6 205.4 167 206 167C206.5 167 206.8 166.7 207.3 166.3C207.8 165.8 208.6 165.2 210 165.2C211.8 165.2 212.7 166.3 212.7 167.7C212.7 169.5 210.7 171.9 207.3 175.2C205.4 177.1 204.7 177.9 204.7 178.4V178.6C204.7 179.3 205.2 179.9 206 179.9C206.7 179.9 207.4 179.8 208.1 179.8C213.4 179.8 214.7 179.9 215.4 179.9C216.5 179.9 217.5 178.1 217.5 176.8C217.2 176.1 216.8 175.6 216.2 175.6Z" fill="white"/>
        <path d="M227.2 165C224.3 165 222.4 167.5 222.4 171.2C222.4 174.8 224.3 177.1 227.2 177.1C230.1 177.1 232 174.6 232 170.9C232.1 167.3 230.2 165 227.2 165ZM227.2 175.3C225.8 175.3 225 173.8 225 171.2C225 168.5 225.9 166.7 227.2 166.7C228.6 166.7 229.5 168.2 229.5 170.8C229.5 173.5 228.6 175.3 227.2 175.3Z" fill="white"/>
        <path d="M242.1 173.3C242 173.3 241.9 173.3 241.8 173.4C241.4 173.7 241 174 239.5 174H238.8C238.7 174 238.6 174 238.6 173.9C238.6 173.8 238.9 173.6 239.3 173.2C241.2 171.4 242 170.4 242 169.3C242 167.9 241 167.1 239.5 167.1C238.4 167.1 237.7 167.6 237.3 168.2C237.1 168.4 237.1 168.7 237.1 168.9C237.1 169.1 237.2 169.3 237.4 169.3C237.6 169.3 237.7 169.2 237.9 169C238.1 168.7 238.5 168.3 239.3 168.3C240.2 168.3 240.7 168.8 240.7 169.6C240.7 170.4 240 171.2 238 173.2C237.1 174.1 236.9 174.4 236.9 174.6V174.7C236.9 175 237.1 175.2 237.3 175.2C237.6 175.2 238 175.2 238.3 175.2C240.9 175.2 241.4 175.2 241.7 175.2C242.1 175.2 242.5 174.5 242.5 174C242.5 173.5 242.3 173.3 242.1 173.3Z" fill="white"/>
        <path d="M249.8 168C248.4 168 247.5 169.3 247.5 171.1C247.5 172.9 248.4 174 249.8 174C251.2 174 252.1 172.7 252.1 170.9C252.1 169.1 251.2 168 249.8 168ZM249.8 173.5C248.8 173.5 248.3 172.6 248.3 171.1C248.3 169.6 248.9 168.5 249.8 168.5C250.8 168.5 251.3 169.4 251.3 170.9C251.4 172.4 250.7 173.5 249.8 173.5Z" fill="white"/>
        <path d="M98.9 1.6H102.3V0.0999985H96.8V8.9H98.9V1.6Z" fill="white"/>
        <path d="M106.8 5.9H107.9C108.5 5.9 109 5.8 109.5 5.7C109.9 5.6 110.3 5.4 110.6 5.1C110.9 4.8 111.1 4.5 111.2 4.2C111.3 3.8 111.4 3.4 111.4 3C111.4 2.6 111.3 2.2 111.2 1.9C111.1 1.6 110.9 1.2 110.6 0.999997C110.3 0.699997 109.9 0.499997 109.5 0.399997C109.1 0.299997 108.5 0.199997 107.9 0.199997H104.8V9H106.8V5.9ZM106.8 1.6H107.9C108.2 1.6 108.4 1.6 108.6 1.7C108.8 1.8 108.9 1.9 109.1 2C109.2 2.1 109.3 2.3 109.4 2.4C109.5 2.6 109.5 2.7 109.5 2.9C109.5 3.4 109.4 3.7 109.2 4C109 4.3 108.6 4.4 108.1 4.4H107V1.6H106.8Z" fill="white"/>
        <path d="M114.3 8.7C114.4 8.6 114.5 8.5 114.5 8.4L115 6.9H118.3L118.8 8.4C118.9 8.5 118.9 8.6 119 8.7C119.1 8.8 119.3 8.8 119.4 8.8H121L117.6 0H115.5L112.1 8.8H113.7C114 8.9 114.2 8.8 114.3 8.7ZM116.3 3.1C116.4 2.9 116.4 2.8 116.5 2.6C116.6 2.4 116.6 2.2 116.7 1.9C116.8 2.1 116.8 2.4 116.9 2.6C117 2.8 117 3 117.1 3.1L117.9 5.5H115.5L116.3 3.1Z" fill="white"/>
        <path d="M125.3 5.2H128.9V8.9H130.9V0.0999985H128.9V3.8H125.3V0.0999985H123.2V8.9H125.3V5.2Z" fill="white"/>
        <path d="M135 10.8C135.1 10.7 135.2 10.6 135.2 10.4V8.9H141.1V10.9H142.3C142.5 10.9 142.6 10.8 142.8 10.7C142.9 10.6 143 10.5 143 10.3V7.3H141.7V0.0999985H135.8C135.8 0.999998 135.7 1.8 135.7 2.5C135.7 3.2 135.6 3.8 135.5 4.3C135.4 4.8 135.3 5.3 135.3 5.6C135.2 6 135.1 6.3 135 6.5C134.9 6.7 134.8 6.9 134.7 7C134.6 7.1 134.5 7.2 134.4 7.3H133.4V10.9H134.6C134.7 10.9 134.8 10.9 135 10.8ZM136.8 6.5C136.9 6.2 137 5.7 137.1 5.3C137.2 4.8 137.3 4.3 137.4 3.7C137.5 3.1 137.5 2.4 137.6 1.7H139.5V7.4H136.4C136.6 7.1 136.7 6.8 136.8 6.5Z" fill="white"/>
        <path d="M175.7 7.7C176.1 8.1 176.6 8.4 177.1 8.6C177.7 8.8 178.3 8.9 179 8.9C179.7 8.9 180.3 8.8 180.9 8.6C181.5 8.4 181.9 8.1 182.3 7.7C182.7 7.3 183 6.8 183.2 6.3C183.4 5.8 183.5 5.2 183.5 4.5C183.5 3.9 183.4 3.3 183.2 2.7C183 2.2 182.7 1.7 182.3 1.3C181.9 0.9 181.4 0.6 180.9 0.4C180.3 0.1 179.7 0 179 0C178.3 0 177.7 0.1 177.1 0.3C176.5 0.5 176.1 0.8 175.7 1.2C175.3 1.6 175 2.1 174.8 2.6C174.6 3.1 174.5 3.7 174.5 4.4C174.5 5 174.6 5.6 174.8 6.2C175 6.8 175.3 7.3 175.7 7.7ZM176.7 3.3C176.8 3 177 2.7 177.2 2.4C177.4 2.2 177.7 2 178 1.8C178.3 1.7 178.7 1.6 179 1.6C179.4 1.6 179.7 1.7 180 1.8C180.3 1.9 180.6 2.1 180.8 2.4C181 2.6 181.2 2.9 181.3 3.3C181.4 3.6 181.5 4 181.5 4.5C181.5 4.9 181.4 5.3 181.3 5.7C181.2 6 181 6.3 180.8 6.6C180.6 6.8 180.3 7 180 7.1C179.7 7.2 179.3 7.3 179 7.3C178.6 7.3 178.3 7.2 178 7.1C177.7 7 177.4 6.8 177.2 6.6C177 6.4 176.8 6.1 176.7 5.7C176.6 5.4 176.5 5 176.5 4.5C176.5 4 176.6 3.7 176.7 3.3Z" fill="white"/>
        <path d="M187.8 8.9H189.8V1.7H192.3V0.0999985H185.3V1.7H187.8V8.9Z" fill="white"/>
        <path d="M200.4 7.3H196.8V5.2H199.5V3.7H196.8V1.7H200.4V0.0999985H194.8V8.9H200.4V7.3Z" fill="white"/>
        <path d="M202.4 8.9C202.5 9 202.8 9 203.2 9C203.5 9 203.8 9 204 8.9C204.3 8.8 204.5 8.7 204.7 8.5C204.9 8.3 205.1 8.1 205.3 7.7C205.5 7.4 205.7 6.9 205.8 6.4C206 5.9 206.1 5.2 206.2 4.4C206.3 3.6 206.4 2.7 206.5 1.6H208.4V8.9H210.4V0.0999985H204.5C204.5 0.999998 204.4 1.7 204.4 2.4C204.4 3.1 204.3 3.7 204.2 4.2C204.1 4.7 204.1 5.1 204 5.5C203.9 5.9 203.8 6.1 203.7 6.4C203.6 6.6 203.5 6.8 203.4 7C203.3 7.1 203.2 7.2 203.1 7.3C203 7.4 202.9 7.4 202.8 7.4C202.7 7.4 202.6 7.4 202.5 7.4H202V8.6C202.2 8.7 202.3 8.8 202.4 8.9Z" fill="white"/>
        <path d="M218.3 8.7C218.7 8.6 219.1 8.4 219.3 8.1C219.6 7.9 219.8 7.6 220 7.2C220.2 6.9 220.2 6.5 220.2 6C220.2 5.7 220.1 5.4 220 5.1C219.9 4.8 219.7 4.5 219.4 4.3C219.1 4.1 218.8 3.9 218.4 3.8C218 3.7 217.5 3.6 216.9 3.6H215.7V0.0999985H213.7V8.9H216.9C217.4 8.9 217.9 8.8 218.3 8.7ZM215.7 5.1H216.9C217.2 5.1 217.4 5.1 217.6 5.2C217.8 5.3 217.9 5.3 218 5.4C218.1 5.5 218.2 5.6 218.2 5.8C218.2 5.9 218.3 6.1 218.3 6.2C218.3 6.3 218.3 6.5 218.2 6.6C218.2 6.7 218.1 6.8 218 6.9C217.9 7 217.8 7.1 217.6 7.1C217.4 7.2 217.2 7.2 216.9 7.2H215.7V5.1Z" fill="white"/>
        <path d="M157.8 8C158.6 8.8 159.8 8.8 160.6 8L162.6 6C163.4 5.2 163.4 4 162.6 3.2L160.6 1.2C159.8 0.399998 158.6 0.399998 157.8 1.2L155.8 3.2C155 4 155 5.2 155.8 6L157.8 8Z" fill="white"/>
    </g>
    <defs>
        <clipPath id="clip0">
            <rect width="318" height="206" fill="white"/>
        </clipPath>
    </defs>
</svg>
