<svg width="85" height="26" viewBox="0 0 85 26" fill="none" xmlns="http://www.w3.org/2000/svg">
    <path d="M6.02494 4.68825H10.5677C13.7308 4.68825 14.9298 5.6705 14.9298 7.7073C14.9298 9.99719 13.6224 11.0156 10.5677 11.0156H6.02494V4.68825ZM0 0.00602617V25.4359H6.02494V15.6617H9.26033L15.2913 25.4359H22.2983L15.6166 14.7879C19.2858 14.0286 21.2801 11.1964 21.2801 7.62896C21.2801 2.79608 17.7254 0 10.8208 0H0V0.00602617Z" fill="white"/>
    <path d="M42.8731 4.84464C40.4571 1.57251 37.1254 0.0057373 32.9139 0.0057373C25.5454 0.0057373 20.605 4.91695 20.605 12.8231C20.605 20.5605 25.7563 25.4296 32.7693 25.4296C36.6614 25.4296 39.9932 23.9351 42.9033 20.8016V11.5034H31.7873V15.9566H37.0832V18.8853C35.8179 19.7591 34.384 20.2472 32.8718 20.2472C29.0459 20.2472 26.6962 17.7705 26.6962 12.9316C26.6962 7.70701 29.0821 5.01939 33.0465 5.01939C35.4685 5.01939 37.4688 6.13421 39.0774 8.33371L42.8731 4.84464Z" fill="white"/>
    <path d="M48.9351 4.68825H53.4779C56.641 4.68825 57.8399 5.6705 57.8399 7.7073C57.8399 9.99719 56.5325 11.0156 53.4779 11.0156H48.9351V4.68825ZM42.9102 0.00602617V23.387H48.9351V15.6617H52.1705L58.2014 25.4359H65.2084L58.5328 14.7879C62.202 14.0286 64.1962 11.1964 64.1962 7.62896C64.1962 2.79608 60.6415 0 53.737 0H42.9102V0.00602617Z" fill="#ED6832"/>
    <path d="M64.0695 0.0057373V16.4749C64.0695 22.1635 67.7145 25.4356 74.6613 25.4356C81.5719 25.4356 85.0001 22.061 85.0001 16.3724V0.0057373H79.3487V15.5167C79.3487 18.578 77.8786 20.4581 74.6553 20.4581C71.3958 20.4581 69.998 18.5719 69.998 15.5167V0.0057373H64.0695Z" fill="#ED6832"/>
    <path d="M45.916 25.4364C47.7356 25.4364 49.2117 23.96 49.2117 22.1402C49.2117 20.3203 47.7356 18.8379 45.916 18.8379C44.0965 18.8379 42.6144 20.3143 42.6144 22.1402C42.6144 23.966 44.0905 25.4364 45.916 25.4364Z" fill="white"/>
</svg>
