<svg width="320" height="207" viewBox="0 0 320 207" fill="none" xmlns="http://www.w3.org/2000/svg">
        <path d="M6.03811 80.6881C4.93119 81.3915 3.82427 82.1954 2.71735 82.9993C1.91232 83.5017 1.20792 84.0042 0.402888 84.5066C-0.100256 84.808 -0.100256 85.3105 0.201631 85.8129C0.503517 86.2148 1.50981 87.0187 2.61672 88.6265L10.2645 99.9813C11.3714 101.69 11.774 102.895 11.9752 103.297C12.2771 103.8 12.7802 103.9 13.9878 103.096C15.296 102.192 15.4972 101.69 15.0947 101.187C14.7928 100.785 13.6859 100.082 12.4784 98.474L10.7677 95.8614C10.2645 95.158 10.2645 94.7561 11.2708 94.0527L13.6859 92.4449C18.4155 89.2294 19.5224 85.3105 16.8054 81.2911C14.3903 77.6736 10.667 77.5731 6.03811 80.6881ZM12.2771 90.8372C9.45949 92.7464 8.95635 92.9473 8.55383 92.3444L4.52867 86.3153C3.72364 85.1095 3.9249 84.808 7.0444 82.6978C10.2645 80.4872 12.7802 80.4872 14.4909 83.0998C16.5035 86.1143 15.7991 88.4255 12.2771 90.8372Z" fill="white"/>
        <path d="M37.1326 62.1011C31.7993 64.8142 29.8874 71.3458 33.1075 77.7768C36.1264 83.806 42.2647 85.9162 47.6987 83.2031C53.032 80.4899 54.944 73.8579 51.7238 67.5273C48.8056 61.4982 42.6672 59.388 37.1326 62.1011ZM46.793 81.2938C42.7679 83.3035 38.3402 81.4948 35.8245 76.4705C33.2081 71.2453 34.315 66.02 38.1389 64.1108C42.1641 62.1011 46.5918 63.9098 49.1075 68.9341C51.8245 74.1594 50.6169 79.3846 46.793 81.2938Z" fill="white"/>
        <path d="M80.8056 69.5346C83.2207 68.7307 85.6358 66.8215 86.5414 64.7113C86.642 64.5103 86.642 64.2088 86.5414 63.9074C86.4408 63.6059 86.3402 63.5054 86.1389 63.3045C85.9376 63.204 85.7364 63.204 85.4345 63.3045C85.2332 63.4049 84.9314 63.6059 84.7301 63.9074C83.5225 65.4147 81.7112 66.52 80.1012 67.1229C75.271 68.7307 71.3464 66.1181 69.4345 60.5913C67.6232 55.1651 69.1326 51.0452 73.5603 49.4375C76.076 48.5331 77.5854 49.0355 79.598 50.3418C80.3024 50.8443 80.7049 50.9447 81.2081 50.8443C81.7112 50.6433 81.9125 50.2413 81.7112 49.7389C81.4093 48.8345 80.9062 48.1311 80.403 47.6287C79.598 46.7244 78.8936 46.2219 78.2898 46.4229C77.988 46.5234 77.6861 46.7243 77.4848 46.8248C76.9817 47.0258 74.9691 46.8248 72.7552 47.5282C66.7175 49.6384 64.3024 55.2656 66.4156 61.6967C68.9313 68.5297 74.4659 71.7452 80.8056 69.5346Z" fill="white"/>
        <path d="M112.101 61.3977C114.617 60.8953 117.233 59.2875 118.441 57.3783C118.541 57.1773 118.642 56.8759 118.541 56.5744C118.441 56.273 118.34 56.072 118.139 55.9715C117.938 55.871 117.736 55.7705 117.535 55.871C117.334 55.871 117.032 56.072 116.73 56.3734C115.321 57.7802 113.409 58.5841 111.699 58.9861C106.768 59.9909 103.145 56.8759 101.938 51.0477C100.831 45.521 102.843 41.5016 107.472 40.5972C110.089 40.0948 111.497 40.6977 113.309 42.205C114.013 42.8079 114.315 43.0089 114.919 42.9084C115.422 42.8079 115.623 42.406 115.523 41.9035C115.321 40.9992 114.919 40.2958 114.516 39.5924C113.812 38.5875 113.208 37.9846 112.604 38.0851C112.302 38.1856 112 38.2861 111.799 38.3866C111.296 38.487 109.284 37.9846 107.07 38.487C100.831 39.7933 97.6106 45.0186 99.0194 51.6506C100.529 58.7851 105.56 62.704 112.101 61.3977Z" fill="white"/>
        <path d="M134.038 53.0552C134.139 55.0649 133.837 56.2707 133.837 56.7732C133.837 57.3761 134.239 57.6775 135.749 57.5771C136.956 57.4766 137.258 57.1751 138.466 55.0649L146.214 40.1931C146.919 38.7863 147.12 38.5853 147.321 38.5853C147.522 38.5853 147.623 38.6858 147.724 39.3892L148.529 52.0504C148.629 54.0601 148.126 55.2659 148.126 55.7683C148.126 56.3712 148.629 56.6727 150.139 56.5722C151.548 56.4717 151.95 56.0698 151.95 55.4669C151.95 54.9644 151.447 53.8591 151.246 51.7489L150.34 38.0829C150.239 36.0732 150.541 34.8673 150.541 34.3649C150.541 33.762 150.038 33.4605 148.629 33.561C147.422 33.6615 147.12 33.8625 146.013 36.0732L138.265 50.945C137.56 52.3518 137.359 52.5528 137.158 52.5528C136.956 52.5528 136.856 52.4523 136.856 51.7489L136.051 39.0877C135.95 37.078 136.453 35.8722 136.353 35.3698C136.353 34.7669 135.85 34.4654 134.34 34.5659C132.931 34.6664 132.529 35.0683 132.629 35.6712C132.629 36.1737 133.133 37.279 133.334 39.3892L134.038 53.0552Z" fill="white"/>
        <path d="M169.46 56.5744C170.667 56.6749 171.07 56.3734 172.479 54.4642L182.139 40.7982C183.045 39.4919 183.246 39.3914 183.447 39.3914C183.648 39.3914 183.749 39.4919 183.749 40.1953L182.843 52.756C182.743 54.7657 182.038 55.9715 181.938 56.4739C181.938 57.0768 182.34 57.4788 183.85 57.5793C185.259 57.6797 185.762 57.2778 185.762 56.7754C185.762 56.2729 185.46 55.0671 185.56 53.0574L186.466 39.3914C186.567 37.3817 187.07 36.1759 187.17 35.6734C187.17 35.0705 186.869 34.6686 185.359 34.5681C184.152 34.4676 183.85 34.6686 182.441 36.6783L172.781 50.3443C171.875 51.6506 171.674 51.7511 171.472 51.7511C171.271 51.7511 171.17 51.6506 171.271 50.9472L172.076 38.2861C172.177 36.2764 172.881 35.0705 172.881 34.5681C172.881 33.9652 172.579 33.5633 170.969 33.4628C169.56 33.3623 169.158 33.7642 169.057 34.2666C169.057 34.7691 169.359 35.9749 169.258 37.9846L168.353 51.6506C168.252 53.6603 167.749 54.8661 167.648 55.3686C167.648 56.072 168.051 56.4739 169.46 56.5744Z" fill="white"/>
        <path d="M178.516 32.6582C180.83 32.8591 182.541 31.1509 182.642 29.1412C182.642 28.5383 182.34 28.1363 181.736 28.1363C181.233 28.1363 180.931 28.3373 180.73 28.7392C180.226 30.0455 179.522 30.548 178.616 30.4475C177.711 30.347 177.006 29.8446 176.704 28.4378C176.604 27.9353 176.302 27.7344 175.799 27.7344C175.296 27.7344 174.893 28.0358 174.792 28.6387C174.792 30.548 176.201 32.4572 178.516 32.6582Z" fill="white"/>
        <path d="M211.22 62.099C213.736 62.6015 216.755 62.1995 218.566 60.7927C218.767 60.5917 218.968 60.3908 218.968 60.0893C219.069 59.7879 218.968 59.5869 218.868 59.3859C218.767 59.1849 218.566 59.0845 218.264 58.984C218.063 58.984 217.66 58.984 217.358 59.0845C215.547 59.7879 213.434 59.8884 211.723 59.4864C206.792 58.4816 204.578 54.2612 205.786 48.433C206.893 42.9063 210.314 39.9922 214.943 40.8966C217.56 41.399 218.667 42.5044 219.673 44.715C220.075 45.5189 220.277 45.8204 220.88 45.9209C221.383 46.0214 221.786 45.8204 221.887 45.2175C222.088 44.3131 221.987 43.4087 221.887 42.7053C221.685 41.4995 221.283 40.6956 220.679 40.5951C220.377 40.4947 219.975 40.5951 219.773 40.4947C219.27 40.3942 217.56 39.1883 215.346 38.7864C209.107 37.5806 204.176 41.198 202.767 47.8301C201.459 55.1655 204.679 60.6922 211.22 62.099Z" fill="white"/>
        <path d="M254.089 49.6402C251.271 48.6354 249.057 50.1427 247.347 54.2626C245.938 57.5786 244.529 57.5786 240.705 56.2723C240.202 56.0713 240.001 55.7698 240.202 55.0664L241.711 50.7456C242.416 48.8363 243.321 47.932 243.422 47.4295C243.623 46.9271 243.321 46.4247 241.812 45.9223C240.403 45.4198 240.001 45.7213 239.799 46.2237C239.598 46.7262 239.699 47.932 238.994 49.8412L234.667 62.8038C233.963 64.713 233.259 65.7179 233.057 66.2203C232.856 66.7227 233.057 67.2252 234.466 67.7276C235.976 68.23 236.479 68.0291 236.68 67.4261C236.881 66.9237 236.68 65.6174 237.284 63.7082L238.793 59.0859C239.095 58.282 240.101 58.3825 241.41 58.7844C245.334 60.0907 246.24 61.1961 245.737 66.7227C245.435 70.7422 246.24 71.948 247.85 72.4504C248.856 72.7519 249.963 72.5509 250.265 71.6465C250.466 71.1441 250.265 70.8426 249.762 70.7422C248.655 70.3402 248.454 69.1344 248.755 65.8184C249.057 61.799 248.252 60.1912 246.642 59.0859C246.441 58.8849 246.34 58.7844 246.441 58.6839C246.542 58.3825 247.95 58.3825 249.359 54.966C250.466 52.3533 251.774 51.1475 253.082 51.6499C253.586 51.8509 253.686 52.0519 253.586 52.2528C253.586 52.3533 253.183 52.3533 252.982 53.0567C252.68 53.8606 253.183 54.564 254.089 54.8655C255.095 55.1669 256.001 54.6645 256.403 53.4587C257.007 51.8509 256.101 50.3436 254.089 49.6402Z" fill="white"/>
        <path d="M281.862 61.7982C280.957 61.3962 280.453 61.2958 279.95 61.7982L266.164 74.5598C264.051 76.4691 263.246 76.4691 262.944 77.072C262.541 77.8759 262.843 78.1773 264.051 78.6798C265.359 79.2827 265.862 79.3832 266.164 78.6798C266.365 78.3783 266.365 77.9764 266.567 77.5744C266.868 76.871 267.674 76.1676 269.787 74.1579C270.089 73.8565 270.391 73.6555 270.894 73.9569L278.34 77.5744C278.743 77.7754 278.843 78.0768 278.743 78.2778C278.34 81.4933 278.139 82.6992 277.938 83.1011C277.736 83.5031 277.535 83.704 277.334 84.106C276.931 84.9099 277.233 85.2113 278.843 85.9147C280.252 86.6181 280.856 86.8191 281.258 86.0152C281.56 85.4123 280.957 84.7089 281.258 81.8953L282.969 63.205C283.07 62.6021 282.868 62.3006 281.862 61.7982ZM279.648 70.038C279.246 74.4594 279.145 74.9618 279.045 75.1628C278.944 75.3637 278.743 75.3637 278.541 75.2632L272.604 72.3492C272.403 72.2487 272.302 72.0477 272.403 71.9472C272.504 71.7463 272.906 71.4448 276.026 68.5307C279.548 65.2147 279.749 65.0137 279.95 65.1142C279.95 65.1142 280.051 65.2147 279.648 70.038Z" fill="white"/>
        <path d="M319.598 84.1075C318.793 83.605 317.887 83.1026 317.082 82.4997C315.874 81.6958 314.768 80.8919 313.661 80.088C309.434 77.2744 305.912 77.8774 303.598 81.2939C302.189 83.5045 302.29 85.9162 303.9 88.0264C304 88.2274 304 88.3278 304 88.4283C304 88.5288 303.9 88.5288 303.598 88.4283C302.189 88.0264 300.679 88.3278 298.365 90.438C296.051 92.4478 295.044 93.0507 294.038 92.3473C293.535 92.0458 293.233 92.1463 293.032 92.5482C292.529 93.2516 292.931 94.357 293.837 94.9599C295.145 95.8643 296.453 95.8643 299.673 93.1511C303.497 89.8351 304.604 90.0361 308.629 92.7492L308.931 92.9502C310.038 93.7541 310.139 94.0555 309.736 94.6584L307.422 98.1754C306.315 99.8837 305.107 100.487 304.906 100.989C304.604 101.491 304.705 101.994 306.013 102.898C307.22 103.702 307.724 103.602 308.025 103.099C308.327 102.697 308.629 101.491 309.736 99.7832L317.384 88.4283C318.491 86.7201 319.497 86.0167 319.799 85.5143C320.101 84.9113 320.101 84.4089 319.598 84.1075ZM315.573 85.9162L312.051 91.1414C311.648 91.8448 310.843 91.5434 308.83 90.2371C305.51 88.0264 304.302 85.7152 306.113 83.2031C307.724 80.691 310.139 80.49 312.856 82.2987C316.277 84.5094 316.277 84.8109 315.573 85.9162Z" fill="white"/>
        <path d="M92.076 94.5559C90.6672 95.0583 90.0634 95.6612 80.403 99.1782C79.1955 99.5802 77.8873 99.8816 76.7804 100.284C75.3716 100.786 74.7678 102.092 75.2709 103.399C75.5728 104.303 76.5791 105.006 77.8873 108.423L83.5225 124.099C84.7301 127.415 84.4282 128.62 84.7301 129.525C85.2332 130.932 86.4408 131.535 89.4596 130.429C92.7804 129.223 93.3841 127.917 92.881 126.611C92.5791 125.706 91.0697 125.204 89.8621 121.787L83.7238 104.604C83.12 103.097 83.6231 102.595 86.1389 101.69C90.3653 100.183 92.1766 100.485 94.8936 101.087C95.598 101.288 96.1011 101.288 96.5036 101.087C97.6106 100.685 98.1137 99.5802 97.6106 98.2738C96.8055 96.1637 94.0885 93.752 92.076 94.5559Z" fill="white"/>
        <path d="M128.604 119.378C132.025 118.574 133.333 118.071 132.83 115.961C132.629 114.856 131.22 114.554 128.906 111.037L115.925 90.7394C115.12 89.433 114.113 89.1316 111.598 89.634C109.082 90.2369 108.176 90.7394 107.874 92.4476L104.654 116.363C104.151 120.584 103.044 121.387 103.245 122.493C103.648 124.201 104.755 124.603 107.17 124.101C109.887 123.498 110.893 122.694 110.491 120.885C110.289 120.081 109.686 119.78 109.384 118.473C109.283 117.77 109.283 116.966 109.384 115.157C109.384 114.655 109.686 114.253 110.591 114.052L120.151 111.942C120.956 111.741 121.258 112.042 121.459 112.444C122.365 114.052 122.767 114.956 122.969 115.459C123.271 116.765 122.868 117.368 122.969 118.071C123.572 120.182 124.881 120.182 128.604 119.378ZM117.333 107.822L111.598 109.128C110.994 109.229 110.591 109.028 110.491 108.525C110.39 108.324 110.491 107.922 111.094 102.898C111.598 98.5772 111.799 97.9743 112.101 97.8738C112.403 97.7733 112.604 97.9743 115.019 101.692C117.635 105.712 118.038 106.415 118.138 106.817C118.239 107.42 117.837 107.621 117.333 107.822Z" fill="white"/>
        <path d="M147.12 84.406C144 84.6069 142.29 85.5113 141.384 85.6118C140.78 85.6118 140.176 85.4108 139.472 85.4108C138.264 85.5113 136.956 86.9181 136.453 88.9278C136.151 90.5356 135.95 91.9424 136.051 92.9472C136.151 94.354 137.057 95.3589 138.164 95.3589C139.673 95.2584 140.277 94.354 140.981 93.0477C142.088 91.1385 143.195 89.4302 146.113 89.3297C148.83 89.1288 150.742 90.9375 150.843 93.8516C151.044 96.5647 149.233 98.273 145.711 98.4739L144 98.5744C142.491 98.6749 141.988 99.3783 142.088 101.087C142.189 102.795 142.893 103.398 144.302 103.297L146.717 103.197C150.541 102.996 152.352 104.503 152.453 107.015C152.654 110.13 150.441 112.14 146.818 112.341C144.403 112.441 142.088 111.638 139.774 109.628C139.069 109.025 138.566 108.924 137.963 108.924C136.856 109.025 136.352 109.728 136.352 110.834C136.554 114.451 141.988 118.169 148.428 117.868C155.472 117.466 160.101 112.743 159.799 107.216C159.598 104.101 157.786 101.187 154.969 100.283C154.264 100.082 154.063 99.8807 154.063 99.6797C154.063 99.4788 154.063 99.3783 154.768 98.9763C157.082 97.67 158.29 95.2584 158.189 92.3443C157.686 87.32 152.956 84.004 147.12 84.406Z" fill="white"/>
        <path d="M167.246 116.963C168.353 117.064 169.862 116.963 171.07 117.064C180.629 117.868 183.145 118.27 184.453 118.37C186.566 118.571 188.68 115.456 188.881 112.944C188.982 111.637 188.277 110.633 186.969 110.532C186.566 110.532 186.164 110.733 185.56 111.035C182.944 112.441 181.434 113.346 176.504 112.843C172.982 112.542 172.579 111.738 172.78 110.03L173.183 104.704C173.283 103.297 173.988 102.795 175.497 102.996C181.636 103.498 181.434 104.403 182.843 104.503C184.151 104.604 184.856 103.699 185.057 101.388C185.258 99.0768 184.755 97.9715 183.346 97.871C181.837 97.7705 182.038 98.7753 175.598 98.1724C174.189 98.0719 173.686 97.67 173.787 96.2632L174.189 91.2389C174.29 89.8322 174.793 89.3297 177.51 89.5307C182.139 89.9326 183.648 90.9375 185.862 92.6457C186.365 93.0477 186.868 93.3491 187.271 93.3491C188.478 93.4496 189.384 92.6457 189.485 91.2389C189.686 88.9278 188.177 85.6118 186.063 85.5113C184.654 85.4108 182.843 85.6118 173.384 84.8079C172.177 84.7074 170.868 84.4059 169.661 84.3055C168.151 84.205 167.145 85.1093 167.044 86.5161C166.944 87.521 167.648 88.5258 167.346 92.1433L165.938 108.824C165.636 112.341 164.831 113.346 164.73 114.351C164.931 115.757 165.736 116.863 167.246 116.963Z" fill="white"/>
        <path d="M207.598 120.483C207.799 119.579 207.396 118.373 208.201 114.956L212.428 96.5675C212.629 95.7636 213.334 95.4621 214.139 95.6631L214.944 95.8641C217.962 96.5675 218.969 99.783 220.478 100.185C221.585 100.486 222.692 99.783 222.994 98.4767C223.497 96.266 222.491 92.749 220.478 92.2466C219.673 92.0456 215.346 91.4427 210.415 90.3374C205.484 89.232 201.258 87.8252 200.554 87.6243C198.44 87.1218 196.025 89.8349 195.522 92.0456C195.22 93.3519 195.824 94.4573 197.032 94.7587C198.541 95.0602 200.856 92.6485 203.874 93.3519L204.679 93.5529C205.484 93.7539 205.988 94.3568 205.887 95.1607L201.661 113.549C200.856 117.066 199.95 117.87 199.749 118.775C199.447 120.182 200.051 121.387 203.17 122.091C206.088 122.694 207.195 121.89 207.598 120.483Z" fill="white"/>
        <path d="M243.322 132.741C243.724 131.736 242.718 130.732 242.818 126.411L243.12 102.294C243.12 100.686 242.516 99.8825 240.101 99.0786C237.686 98.1742 236.68 98.0738 235.472 99.4805L219.573 117.668C216.755 120.884 215.447 120.984 215.045 121.989C214.441 123.698 215.145 124.602 217.46 125.506C220.076 126.511 221.384 126.411 221.988 124.702C222.29 123.999 221.988 123.296 222.391 122.09C222.592 121.487 223.196 120.783 224.202 119.377C224.504 118.975 224.906 118.774 225.812 119.075L234.969 122.592C235.674 122.894 235.875 123.296 235.774 123.698C235.674 125.607 235.573 126.511 235.372 127.014C234.869 128.219 234.265 128.521 233.963 129.224C233.259 131.133 234.265 131.937 237.787 133.244C241.208 134.55 242.617 134.751 243.322 132.741ZM236.277 110.936C236.177 115.759 236.177 116.563 236.076 116.965C235.875 117.467 235.472 117.568 234.869 117.367L229.334 115.257C228.73 115.056 228.529 114.654 228.73 114.252C228.831 114.051 229.032 113.649 232.353 109.831C235.171 106.515 235.674 106.113 235.976 106.213C236.177 106.314 236.277 106.515 236.277 110.936Z" fill="white"/>
        <path d="M160.202 136.46C140.78 136.46 124.881 152.337 124.881 171.73C124.881 191.224 140.68 207.001 160.202 207.001C179.724 207.001 195.522 191.224 195.522 171.73C195.522 152.236 179.623 136.46 160.202 136.46ZM160.202 206.096C141.283 206.096 125.787 190.722 125.787 171.73C125.787 152.739 141.183 137.364 160.202 137.364C179.22 137.364 194.617 152.839 194.617 171.73C194.516 190.622 179.12 206.096 160.202 206.096Z" fill="white"/>
        <path d="M147.019 199.264L145.812 201.876C145.912 201.876 146.013 201.977 146.214 202.077L147.422 199.465C147.22 199.465 147.12 199.364 147.019 199.264Z" fill="white"/>
        <path d="M137.359 192.128L135.145 194.138C135.246 194.238 135.346 194.339 135.447 194.439L137.661 192.429C137.56 192.329 137.459 192.228 137.359 192.128Z" fill="white"/>
        <path d="M141.283 195.747L139.472 198.058C139.573 198.159 139.673 198.259 139.774 198.259L141.585 195.948C141.585 195.948 141.485 195.848 141.283 195.747Z" fill="white"/>
        <path d="M140.277 194.941L138.365 197.253C138.466 197.353 138.566 197.454 138.667 197.554L140.579 195.243C140.478 195.142 140.378 195.042 140.277 194.941Z" fill="white"/>
        <path d="M135.749 190.118L133.434 191.927C133.535 192.027 133.535 192.128 133.635 192.228L135.95 190.42C135.849 190.319 135.749 190.219 135.749 190.118Z" fill="white"/>
        <path d="M136.453 191.124L134.239 193.033C134.34 193.134 134.441 193.234 134.541 193.335L136.755 191.425C136.654 191.325 136.554 191.225 136.453 191.124Z" fill="white"/>
        <path d="M134.239 187.907L131.824 189.515C131.925 189.615 131.925 189.716 132.025 189.816L134.441 188.209C134.34 188.209 134.239 188.008 134.239 187.907Z" fill="white"/>
        <path d="M134.944 189.013L132.529 190.721C132.629 190.821 132.629 190.922 132.73 191.022L135.145 189.314C135.045 189.214 135.045 189.113 134.944 189.013Z" fill="white"/>
        <path d="M139.27 194.036L137.258 196.247C137.358 196.347 137.459 196.448 137.56 196.548L139.572 194.338C139.472 194.237 139.371 194.137 139.27 194.036Z" fill="white"/>
        <path d="M133.535 186.802L131.019 188.309C131.019 188.409 131.12 188.51 131.22 188.61L133.736 187.103C133.736 187.003 133.635 186.902 133.535 186.802Z" fill="white"/>
        <path d="M145.711 198.658L144.302 201.271C144.403 201.271 144.504 201.371 144.705 201.472L146.114 198.859C146.013 198.859 145.912 198.759 145.711 198.658Z" fill="white"/>
        <path d="M144.705 198.057L143.195 200.569C143.296 200.569 143.397 200.669 143.497 200.77L145.007 198.258C144.906 198.157 144.805 198.057 144.705 198.057Z" fill="white"/>
        <path d="M148.227 199.865L147.12 202.578C147.22 202.578 147.321 202.679 147.522 202.679L148.629 199.966C148.428 199.966 148.327 199.966 148.227 199.865Z" fill="white"/>
        <path d="M149.837 203.584C149.938 203.584 150.038 203.685 150.239 203.685L151.145 200.871C151.044 200.871 150.944 200.771 150.743 200.771L149.837 203.584Z" fill="white"/>
        <path d="M143.497 197.353L141.887 199.764C141.988 199.764 142.088 199.865 142.189 199.965L143.799 197.554C143.699 197.554 143.598 197.453 143.497 197.353Z" fill="white"/>
        <path d="M142.39 196.55L140.68 198.961C140.78 199.062 140.881 199.062 140.982 199.162L142.692 196.751C142.692 196.751 142.491 196.65 142.39 196.55Z" fill="white"/>
        <path d="M149.434 200.366L148.428 203.079C148.528 203.079 148.629 203.18 148.83 203.18L149.837 200.467C149.736 200.467 149.635 200.366 149.434 200.366Z" fill="white"/>
        <path d="M131.321 181.979L128.604 182.984C128.604 183.085 128.705 183.185 128.705 183.386L131.422 182.381C131.422 182.18 131.321 182.08 131.321 181.979Z" fill="white"/>
        <path d="M129.61 170.124L126.692 170.023C126.692 170.124 126.692 170.325 126.692 170.426L129.61 170.527C129.61 170.426 129.61 170.225 129.61 170.124Z" fill="white"/>
        <path d="M129.711 168.715L126.792 168.514C126.792 168.614 126.792 168.816 126.792 168.916L129.711 169.118C129.711 169.017 129.711 168.916 129.711 168.715Z" fill="white"/>
        <path d="M129.811 167.409L126.893 167.007C126.893 167.107 126.893 167.308 126.893 167.409L129.811 167.811C129.811 167.71 129.811 167.61 129.811 167.409Z" fill="white"/>
        <path d="M129.61 172.734L126.692 172.835C126.692 172.936 126.692 173.137 126.692 173.238L129.61 173.137C129.61 173.036 129.61 172.835 129.61 172.734Z" fill="white"/>
        <path d="M129.61 174.041L126.692 174.242C126.692 174.343 126.692 174.544 126.692 174.645L129.61 174.444C129.711 174.343 129.711 174.242 129.61 174.041Z" fill="white"/>
        <path d="M130.013 166.104L127.095 165.602C127.095 165.702 127.095 165.903 126.994 166.003L129.912 166.506C130.013 166.405 130.013 166.204 130.013 166.104Z" fill="white"/>
        <path d="M130.617 163.59L127.799 162.786C127.799 162.887 127.699 163.088 127.699 163.188L130.516 163.992C130.617 163.791 130.617 163.691 130.617 163.59Z" fill="white"/>
        <path d="M130.315 164.796L127.497 164.193C127.497 164.294 127.497 164.495 127.396 164.595L130.214 165.198C130.214 165.098 130.214 164.897 130.315 164.796Z" fill="white"/>
        <path d="M129.811 175.347L126.893 175.749C126.893 175.849 126.893 176.05 126.893 176.151L129.811 175.849C129.811 175.648 129.811 175.548 129.811 175.347Z" fill="white"/>
        <path d="M132.831 185.598L130.214 187.004C130.214 187.105 130.315 187.205 130.416 187.406L133.032 186C133.032 185.899 132.931 185.698 132.831 185.598Z" fill="white"/>
        <path d="M151.246 204.084C151.346 204.084 151.447 204.185 151.648 204.185L152.453 201.371C152.353 201.371 152.151 201.271 152.051 201.271L151.246 204.084Z" fill="white"/>
        <path d="M131.824 183.186L129.107 184.291C129.107 184.391 129.208 184.492 129.208 184.693L131.925 183.587C131.925 183.387 131.824 183.286 131.824 183.186Z" fill="white"/>
        <path d="M132.327 184.391L129.711 185.596C129.711 185.697 129.812 185.797 129.812 185.998L132.428 184.793C132.428 184.592 132.327 184.491 132.327 184.391Z" fill="white"/>
        <path d="M130.818 180.673L128 181.577C128 181.678 128.101 181.778 128.101 181.979L130.918 181.075C130.918 180.874 130.918 180.773 130.818 180.673Z" fill="white"/>
        <path d="M130.516 179.366L127.699 180.07C127.699 180.17 127.799 180.271 127.799 180.472L130.617 179.768C130.617 179.668 130.516 179.567 130.516 179.366Z" fill="white"/>
        <path d="M129.912 176.754L126.994 177.256C126.994 177.357 126.994 177.558 127.095 177.658L130.013 177.256C129.912 177.055 129.912 176.854 129.912 176.754Z" fill="white"/>
        <path d="M130.214 178.061L127.396 178.664C127.396 178.764 127.396 178.864 127.497 179.065L130.315 178.463C130.214 178.362 130.214 178.262 130.214 178.061Z" fill="white"/>
        <path d="M179.724 195.343L181.636 197.654C181.736 197.553 181.837 197.453 181.937 197.453L180.026 195.142C179.925 195.142 179.824 195.242 179.724 195.343Z" fill="white"/>
        <path d="M182.642 192.531L184.855 194.541C184.956 194.44 185.057 194.34 185.157 194.239L182.943 192.229C182.843 192.33 182.742 192.43 182.642 192.531Z" fill="white"/>
        <path d="M180.73 194.439L182.743 196.65C182.843 196.549 182.944 196.449 183.044 196.348L181.032 194.138C180.931 194.238 180.831 194.339 180.73 194.439Z" fill="white"/>
        <path d="M183.447 191.525L185.661 193.434C185.761 193.334 185.862 193.233 185.963 193.133L183.749 191.224C183.648 191.324 183.547 191.425 183.447 191.525Z" fill="white"/>
        <path d="M184.353 190.521L186.667 192.33C186.768 192.229 186.868 192.129 186.868 192.028L184.554 190.22C184.453 190.22 184.353 190.421 184.353 190.521Z" fill="white"/>
        <path d="M177.51 196.852L179.22 199.264C179.321 199.164 179.422 199.164 179.522 199.063L177.812 196.651C177.812 196.752 177.61 196.752 177.51 196.852Z" fill="white"/>
        <path d="M185.158 189.416L187.573 191.124C187.673 191.023 187.673 190.923 187.774 190.823L185.359 189.114C185.258 189.114 185.258 189.315 185.158 189.416Z" fill="white"/>
        <path d="M178.616 196.047L180.428 198.358C180.528 198.257 180.629 198.157 180.729 198.157L178.918 195.846C178.918 195.946 178.817 196.047 178.616 196.047Z" fill="white"/>
        <path d="M131.019 162.285L128.201 161.381C128.201 161.481 128.101 161.582 128.101 161.783L130.918 162.687C130.918 162.486 131.019 162.386 131.019 162.285Z" fill="white"/>
        <path d="M189.787 179.768L192.604 180.472C192.604 180.371 192.705 180.271 192.705 180.07L189.887 179.366C189.787 179.567 189.787 179.668 189.787 179.768Z" fill="white"/>
        <path d="M188.881 182.381L191.598 183.386C191.598 183.286 191.698 183.185 191.698 182.984L188.981 181.979C188.981 182.08 188.881 182.18 188.881 182.381Z" fill="white"/>
        <path d="M189.284 181.075L192.101 181.979C192.101 181.879 192.202 181.778 192.202 181.577L189.384 180.673C189.384 180.874 189.384 180.974 189.284 181.075Z" fill="white"/>
        <path d="M152.654 204.387C152.755 204.387 152.956 204.387 153.057 204.487L153.661 201.674C153.56 201.674 153.359 201.674 153.258 201.573L152.654 204.387Z" fill="white"/>
        <path d="M176.503 197.655L178.113 200.067C178.214 200.067 178.315 199.966 178.415 199.866L176.805 197.454C176.705 197.454 176.604 197.555 176.503 197.655Z" fill="white"/>
        <path d="M187.271 186.098L189.887 187.505C189.887 187.405 189.988 187.304 190.089 187.103L187.472 185.696C187.372 185.797 187.271 185.897 187.271 186.098Z" fill="white"/>
        <path d="M186.566 187.205L189.082 188.712C189.082 188.612 189.182 188.511 189.283 188.411L186.767 186.903C186.767 186.903 186.667 187.004 186.566 187.205Z" fill="white"/>
        <path d="M185.862 188.31L188.277 189.918C188.378 189.817 188.378 189.717 188.478 189.617L186.063 188.009C186.063 188.109 185.962 188.21 185.862 188.31Z" fill="white"/>
        <path d="M187.875 184.793L190.491 185.998C190.491 185.898 190.592 185.797 190.693 185.596L188.076 184.391C187.976 184.592 187.875 184.692 187.875 184.793Z" fill="white"/>
        <path d="M188.377 183.587L191.094 184.693C191.094 184.592 191.195 184.492 191.195 184.291L188.478 183.186C188.478 183.387 188.478 183.487 188.377 183.587Z" fill="white"/>
        <path d="M161.308 202.277L161.409 205.191C161.509 205.191 161.711 205.191 161.811 205.191L161.61 202.277C161.509 202.277 161.409 202.277 161.308 202.277Z" fill="white"/>
        <path d="M158.491 205.191C158.592 205.191 158.793 205.191 158.894 205.191L158.994 202.277C158.894 202.277 158.692 202.277 158.592 202.277L158.491 205.191Z" fill="white"/>
        <path d="M160 202.277V205.191C160 205.191 160.101 205.191 160.201 205.191C160.302 205.191 160.302 205.191 160.403 205.191V202.277C160.403 202.277 160.302 202.277 160.201 202.277C160.101 202.277 160 202.277 160 202.277Z" fill="white"/>
        <path d="M162.617 202.176L162.818 205.09C162.919 205.09 163.12 205.09 163.221 205.09L163.02 202.176C162.919 202.176 162.818 202.176 162.617 202.176Z" fill="white"/>
        <path d="M154.063 204.688C154.164 204.688 154.365 204.688 154.466 204.688L154.969 201.774C154.868 201.774 154.667 201.774 154.567 201.774L154.063 204.688Z" fill="white"/>
        <path d="M164.025 202.076L164.428 204.99C164.529 204.99 164.73 204.99 164.83 204.99L164.428 202.076C164.227 201.975 164.126 202.076 164.025 202.076Z" fill="white"/>
        <path d="M156.981 204.99C157.082 204.99 157.283 204.99 157.384 204.99L157.585 202.076C157.485 202.076 157.283 202.076 157.183 202.076L156.981 204.99Z" fill="white"/>
        <path d="M155.573 204.889C155.673 204.889 155.875 204.889 155.975 204.889L156.378 201.975C156.277 201.975 156.076 201.975 155.975 201.975L155.573 204.889Z" fill="white"/>
        <path d="M174.088 198.961L175.497 201.573C175.598 201.573 175.698 201.473 175.9 201.372L174.491 198.76C174.39 198.76 174.29 198.86 174.088 198.961Z" fill="white"/>
        <path d="M172.881 199.563L174.088 202.176C174.189 202.176 174.29 202.075 174.491 201.975L173.283 199.362C173.183 199.362 173.082 199.463 172.881 199.563Z" fill="white"/>
        <path d="M171.673 200.066L172.78 202.779C172.881 202.779 172.982 202.679 173.183 202.679L172.076 199.865C171.975 199.966 171.875 199.966 171.673 200.066Z" fill="white"/>
        <path d="M165.334 201.876L165.837 204.79C165.938 204.79 166.139 204.79 166.24 204.79L165.737 201.876C165.535 201.775 165.435 201.876 165.334 201.876Z" fill="white"/>
        <path d="M175.296 198.258L176.805 200.77C176.906 200.77 177.007 200.669 177.107 200.569L175.598 198.057C175.598 198.157 175.397 198.258 175.296 198.258Z" fill="white"/>
        <path d="M170.466 200.467L171.472 203.18C171.573 203.18 171.673 203.079 171.875 203.079L170.868 200.366C170.667 200.366 170.566 200.467 170.466 200.467Z" fill="white"/>
        <path d="M166.642 201.574L167.245 204.388C167.346 204.388 167.547 204.388 167.648 204.287L167.044 201.474C166.843 201.574 166.742 201.574 166.642 201.574Z" fill="white"/>
        <path d="M169.158 200.97L170.063 203.783C170.164 203.783 170.265 203.683 170.466 203.683L169.56 200.869C169.46 200.869 169.359 200.869 169.158 200.97Z" fill="white"/>
        <path d="M167.85 201.272L168.554 204.086C168.655 204.086 168.856 203.985 168.956 203.985L168.252 201.172C168.151 201.272 168.051 201.272 167.85 201.272Z" fill="white"/>
        <path d="M152.453 142.087L151.749 139.273C151.648 139.273 151.447 139.374 151.346 139.374L152.051 142.187C152.151 142.087 152.252 142.087 152.453 142.087Z" fill="white"/>
        <path d="M184.654 153.24L186.969 151.431C186.868 151.331 186.768 151.23 186.768 151.13L184.453 152.939C184.453 153.039 184.554 153.14 184.654 153.24Z" fill="white"/>
        <path d="M185.459 154.347L187.874 152.638C187.774 152.538 187.774 152.437 187.673 152.337L185.258 154.045C185.258 154.146 185.358 154.246 185.459 154.347Z" fill="white"/>
        <path d="M183.85 152.235L186.064 150.326C185.963 150.225 185.862 150.125 185.762 150.024L183.548 151.934C183.648 152.034 183.749 152.135 183.85 152.235Z" fill="white"/>
        <path d="M186.164 155.45L188.579 153.842C188.579 153.742 188.478 153.642 188.377 153.541L185.962 155.149C185.962 155.149 186.063 155.35 186.164 155.45Z" fill="white"/>
        <path d="M186.767 156.557L189.283 155.05C189.283 154.949 189.182 154.849 189.082 154.748L186.566 156.255C186.667 156.356 186.767 156.456 186.767 156.557Z" fill="white"/>
        <path d="M188.076 158.968L190.693 157.762C190.693 157.662 190.592 157.561 190.491 157.36L187.875 158.566C187.875 158.667 187.976 158.868 188.076 158.968Z" fill="white"/>
        <path d="M182.943 151.23L185.157 149.22C185.057 149.12 184.956 149.019 184.855 148.919L182.642 150.929C182.742 151.029 182.843 151.13 182.943 151.23Z" fill="white"/>
        <path d="M187.472 157.762L190.089 156.355C190.089 156.255 189.988 156.154 189.887 155.953L187.271 157.36C187.372 157.46 187.472 157.661 187.472 157.762Z" fill="white"/>
        <path d="M175.698 145.302L177.208 142.79C177.107 142.79 177.007 142.689 176.906 142.589L175.396 145.101C175.497 145.201 175.598 145.302 175.698 145.302Z" fill="white"/>
        <path d="M174.591 144.699L176 142.087C175.9 142.087 175.799 141.986 175.598 141.886L174.189 144.498C174.29 144.498 174.491 144.599 174.591 144.699Z" fill="white"/>
        <path d="M188.579 160.174L191.296 159.069C191.296 158.968 191.195 158.868 191.195 158.667L188.479 159.772C188.479 159.973 188.479 160.074 188.579 160.174Z" fill="white"/>
        <path d="M172.176 143.494L173.283 140.781C173.183 140.781 173.082 140.681 172.881 140.681L171.774 143.394C171.975 143.394 172.076 143.394 172.176 143.494Z" fill="white"/>
        <path d="M173.384 144.097L174.591 141.484C174.491 141.484 174.39 141.384 174.189 141.283L172.981 143.896C173.183 143.896 173.283 143.996 173.384 144.097Z" fill="white"/>
        <path d="M179.02 147.615L180.831 145.304C180.73 145.203 180.63 145.103 180.529 145.103L178.718 147.414C178.818 147.414 178.919 147.514 179.02 147.615Z" fill="white"/>
        <path d="M131.522 160.978L128.805 159.973C128.805 160.073 128.705 160.174 128.705 160.375L131.422 161.379C131.422 161.279 131.422 161.179 131.522 160.978Z" fill="white"/>
        <path d="M178.013 146.81L179.723 144.398C179.623 144.298 179.522 144.298 179.422 144.197L177.711 146.609C177.711 146.609 177.912 146.709 178.013 146.81Z" fill="white"/>
        <path d="M181.032 149.322L183.044 147.111C182.944 147.011 182.843 146.91 182.743 146.81L180.73 149.02C180.831 149.121 180.931 149.221 181.032 149.322Z" fill="white"/>
        <path d="M176.805 146.004L178.415 143.593C178.315 143.593 178.214 143.492 178.113 143.392L176.503 145.803C176.604 145.803 176.705 145.904 176.805 146.004Z" fill="white"/>
        <path d="M129.51 171.629C129.51 171.528 129.51 171.528 129.51 171.428H126.592C126.592 171.528 126.592 171.528 126.592 171.629V171.73H129.51C129.51 171.83 129.51 171.73 129.51 171.629Z" fill="white"/>
        <path d="M138.667 149.924L136.554 147.813C136.453 147.914 136.353 148.014 136.252 148.115L138.365 150.225C138.466 150.125 138.566 150.024 138.667 149.924Z" fill="white"/>
        <path d="M138.365 193.135L136.252 195.245C136.353 195.345 136.453 195.446 136.554 195.546L138.667 193.436C138.566 193.336 138.466 193.235 138.365 193.135Z" fill="white"/>
        <path d="M182.038 150.225L184.151 148.115C184.051 148.014 183.95 147.914 183.85 147.813L181.736 149.924C181.837 150.024 181.938 150.125 182.038 150.225Z" fill="white"/>
        <path d="M190.792 171.629C190.792 171.73 190.792 171.73 190.792 171.83H193.711C193.711 171.73 193.711 171.73 193.711 171.629C193.711 171.629 193.711 171.528 193.711 171.428H190.792C190.792 171.528 190.792 171.629 190.792 171.629Z" fill="white"/>
        <path d="M181.635 193.436L183.748 195.546C183.849 195.446 183.95 195.345 184.05 195.245L181.937 193.135C181.837 193.235 181.736 193.336 181.635 193.436Z" fill="white"/>
        <path d="M190.088 165.298L192.906 164.695C192.906 164.594 192.906 164.393 192.805 164.293L189.988 164.896C190.088 164.996 190.088 165.197 190.088 165.298Z" fill="white"/>
        <path d="M189.887 163.993L192.705 163.29C192.705 163.189 192.604 163.089 192.604 162.888L189.787 163.591C189.787 163.792 189.887 163.892 189.887 163.993Z" fill="white"/>
        <path d="M189.484 162.687L192.302 161.783C192.302 161.682 192.201 161.582 192.201 161.381L189.384 162.285C189.384 162.486 189.484 162.587 189.484 162.687Z" fill="white"/>
        <path d="M190.391 166.605L193.309 166.102C193.309 166.002 193.309 165.801 193.309 165.7L190.391 166.203C190.391 166.303 190.391 166.504 190.391 166.605Z" fill="white"/>
        <path d="M190.592 168.011L193.51 167.609C193.51 167.508 193.51 167.308 193.51 167.207L190.592 167.609C190.491 167.709 190.592 167.81 190.592 168.011Z" fill="white"/>
        <path d="M189.082 161.478L191.799 160.473C191.799 160.373 191.698 160.272 191.698 160.071L188.981 161.076C188.981 161.177 188.981 161.277 189.082 161.478Z" fill="white"/>
        <path d="M190.692 169.318L193.611 169.116C193.611 168.915 193.611 168.815 193.611 168.714L190.692 168.915C190.692 169.016 190.692 169.116 190.692 169.318Z" fill="white"/>
        <path d="M180.026 148.416L181.937 146.105C181.837 146.005 181.736 145.904 181.636 145.804L179.724 148.115C179.824 148.215 179.925 148.316 180.026 148.416Z" fill="white"/>
        <path d="M141.686 147.312L139.875 145.001C139.774 145.101 139.673 145.202 139.573 145.202L141.384 147.513C141.485 147.413 141.585 147.312 141.686 147.312Z" fill="white"/>
        <path d="M142.793 146.507L141.082 144.096C140.982 144.196 140.881 144.196 140.78 144.297L142.491 146.708C142.592 146.608 142.692 146.608 142.793 146.507Z" fill="white"/>
        <path d="M140.68 148.015L138.768 145.704C138.667 145.805 138.566 145.905 138.466 146.006L140.378 148.317C140.478 148.216 140.579 148.116 140.68 148.015Z" fill="white"/>
        <path d="M139.673 148.919L137.66 146.708C137.56 146.808 137.459 146.909 137.358 147.009L139.371 149.22C139.472 149.12 139.572 149.019 139.673 148.919Z" fill="white"/>
        <path d="M146.214 144.399L144.805 141.786C144.705 141.786 144.604 141.887 144.403 141.987L145.812 144.6C145.912 144.6 146.114 144.499 146.214 144.399Z" fill="white"/>
        <path d="M137.761 150.83L135.547 148.82C135.447 148.921 135.346 149.021 135.246 149.122L137.459 151.131C137.56 151.031 137.661 150.931 137.761 150.83Z" fill="white"/>
        <path d="M145.007 145.101L143.497 142.589C143.397 142.589 143.296 142.689 143.195 142.79L144.705 145.302C144.805 145.202 144.906 145.101 145.007 145.101Z" fill="white"/>
        <path d="M147.422 143.794L146.214 141.182C146.113 141.182 146.013 141.282 145.812 141.383L147.019 143.995C147.22 143.995 147.321 143.895 147.422 143.794Z" fill="white"/>
        <path d="M143.9 145.705L142.29 143.293C142.189 143.293 142.088 143.393 141.988 143.494L143.598 145.906C143.598 145.906 143.799 145.805 143.9 145.705Z" fill="white"/>
        <path d="M132.428 158.566L129.812 157.36C129.812 157.461 129.711 157.561 129.711 157.762L132.327 158.968C132.327 158.767 132.428 158.667 132.428 158.566Z" fill="white"/>
        <path d="M133.736 156.255L131.22 154.748C131.22 154.849 131.12 154.949 131.019 155.05L133.535 156.557C133.635 156.456 133.736 156.356 133.736 156.255Z" fill="white"/>
        <path d="M133.133 157.26L130.516 155.854C130.516 155.954 130.416 156.054 130.315 156.255L132.931 157.662C132.931 157.562 133.032 157.461 133.133 157.26Z" fill="white"/>
        <path d="M136.856 151.834L134.642 149.925C134.542 150.025 134.441 150.126 134.34 150.226L136.554 152.135C136.655 152.035 136.755 151.935 136.856 151.834Z" fill="white"/>
        <path d="M131.925 159.772L129.208 158.667C129.208 158.767 129.107 158.868 129.107 159.069L131.824 160.174C131.824 159.973 131.925 159.873 131.925 159.772Z" fill="white"/>
        <path d="M134.441 155.05L132.025 153.442C131.925 153.543 131.925 153.643 131.824 153.744L134.239 155.352C134.34 155.251 134.34 155.151 134.441 155.05Z" fill="white"/>
        <path d="M136.05 152.837L133.736 151.028C133.635 151.129 133.535 151.229 133.535 151.33L135.849 153.138C135.849 153.138 135.95 153.038 136.05 152.837Z" fill="white"/>
        <path d="M170.868 142.991L171.875 140.278C171.774 140.278 171.673 140.178 171.472 140.178L170.466 142.891C170.667 142.891 170.768 142.991 170.868 142.991Z" fill="white"/>
        <path d="M135.246 153.944L132.831 152.235C132.73 152.336 132.73 152.436 132.629 152.537L135.045 154.245C135.045 154.245 135.145 154.044 135.246 153.944Z" fill="white"/>
        <path d="M164.931 138.471C164.83 138.471 164.629 138.471 164.528 138.471L164.126 141.385C164.227 141.385 164.428 141.385 164.528 141.385L164.931 138.471Z" fill="white"/>
        <path d="M163.422 138.368C163.321 138.368 163.12 138.368 163.019 138.368L162.818 141.282C162.919 141.282 163.12 141.282 163.22 141.282L163.422 138.368Z" fill="white"/>
        <path d="M161.913 138.168C161.812 138.168 161.611 138.168 161.51 138.168L161.41 141.082C161.51 141.082 161.712 141.082 161.812 141.082L161.913 138.168Z" fill="white"/>
        <path d="M166.24 138.671C166.139 138.671 165.938 138.671 165.837 138.671L165.334 141.585C165.435 141.585 165.636 141.585 165.737 141.585L166.24 138.671Z" fill="white"/>
        <path d="M148.629 143.394L147.522 140.681C147.422 140.681 147.321 140.781 147.12 140.781L148.227 143.494C148.428 143.394 148.528 143.394 148.629 143.394Z" fill="white"/>
        <path d="M170.566 139.775C170.465 139.775 170.365 139.675 170.163 139.675L169.258 142.488C169.358 142.488 169.459 142.589 169.66 142.589L170.566 139.775Z" fill="white"/>
        <path d="M167.749 138.972C167.648 138.972 167.447 138.972 167.346 138.871L166.742 141.685C166.843 141.685 167.044 141.685 167.145 141.785L167.749 138.972Z" fill="white"/>
        <path d="M169.157 139.272C169.057 139.272 168.855 139.172 168.755 139.172L167.95 141.985C168.05 141.985 168.252 142.086 168.352 142.086L169.157 139.272Z" fill="white"/>
        <path d="M160.403 141.082V138.168C160.403 138.168 160.302 138.168 160.201 138.168C160.101 138.168 160.101 138.168 160 138.168V141.082C160 141.082 160.101 141.082 160.201 141.082C160.302 141.082 160.302 141.082 160.403 141.082Z" fill="white"/>
        <path d="M151.145 142.386L150.239 139.572C150.139 139.572 150.038 139.673 149.837 139.673L150.743 142.486C150.944 142.486 151.044 142.486 151.145 142.386Z" fill="white"/>
        <path d="M190.088 178.561L192.906 179.164C192.906 179.064 192.906 178.963 193.007 178.762L190.189 178.159C190.088 178.26 190.088 178.36 190.088 178.561Z" fill="white"/>
        <path d="M153.761 141.685L153.157 138.871C153.057 138.871 152.856 138.871 152.755 138.972L153.359 141.785C153.459 141.785 153.661 141.785 153.761 141.685Z" fill="white"/>
        <path d="M149.837 142.891L148.83 140.178C148.73 140.178 148.629 140.278 148.428 140.278L149.434 142.991C149.635 142.991 149.736 142.891 149.837 142.891Z" fill="white"/>
        <path d="M156.378 141.282L155.975 138.368C155.875 138.368 155.673 138.368 155.573 138.368L155.975 141.282C156.177 141.383 156.277 141.282 156.378 141.282Z" fill="white"/>
        <path d="M157.686 141.082L157.485 138.168C157.384 138.168 157.183 138.168 157.083 138.168L157.284 141.082C157.485 141.183 157.586 141.183 157.686 141.082Z" fill="white"/>
        <path d="M158.994 141.082L158.894 138.168C158.793 138.168 158.592 138.168 158.491 138.168L158.592 141.082C158.793 141.082 158.894 141.082 158.994 141.082Z" fill="white"/>
        <path d="M155.07 141.482L154.567 138.568C154.466 138.568 154.265 138.568 154.164 138.568L154.667 141.482C154.768 141.482 154.969 141.482 155.07 141.482Z" fill="white"/>
        <path d="M190.29 177.255L193.208 177.758C193.208 177.657 193.208 177.456 193.208 177.356L190.29 176.854C190.29 176.954 190.29 177.155 190.29 177.255Z" fill="white"/>
        <path d="M190.792 170.625L193.711 170.525C193.711 170.424 193.711 170.223 193.711 170.122L190.792 170.223C190.792 170.323 190.792 170.525 190.792 170.625Z" fill="white"/>
        <path d="M190.491 175.85L193.409 176.252C193.409 176.152 193.409 175.951 193.409 175.85L190.491 175.448C190.592 175.649 190.491 175.75 190.491 175.85Z" fill="white"/>
        <path d="M190.792 173.238L193.711 173.339C193.711 173.238 193.711 173.037 193.711 172.937L190.792 172.836C190.792 172.937 190.792 173.138 190.792 173.238Z" fill="white"/>
        <path d="M190.692 174.644L193.611 174.845C193.611 174.744 193.611 174.543 193.611 174.442L190.692 174.241C190.692 174.342 190.692 174.442 190.692 174.644Z" fill="white"/>
        <path d="M160.202 141.886C143.799 141.886 130.416 155.25 130.416 171.629C130.416 188.009 143.799 201.373 160.202 201.373C176.604 201.373 189.988 188.009 189.988 171.629C189.988 155.25 176.604 141.886 160.202 141.886ZM160.202 200.67C144.202 200.67 131.221 187.707 131.221 171.73C131.221 155.753 144.202 142.79 160.202 142.79C176.202 142.79 189.183 155.753 189.183 171.73C189.183 187.707 176.202 200.67 160.202 200.67Z" fill="white"/>
        <path d="M177.108 181.677C176.806 181.376 176.604 181.175 176.302 180.873C175.296 179.868 174.391 179.768 173.686 180.471C173.284 180.873 173.183 181.476 173.485 182.18C173.485 182.28 173.485 182.28 173.485 182.28C173.485 182.28 173.485 182.28 173.384 182.28C173.082 182.079 172.68 182.18 172.076 182.481C171.372 182.883 171.07 182.983 170.869 182.782L169.963 181.878C170.768 181.878 171.573 181.476 172.277 180.773C173.485 179.567 173.585 177.959 172.378 176.753C171.975 176.351 171.573 176.251 171.472 176.05C171.372 175.949 171.372 175.849 171.271 175.849C171.17 175.749 170.868 175.749 170.466 175.849C170.265 175.949 170.063 176.05 169.862 176.251C169.762 176.351 169.661 176.552 169.862 176.753C170.063 176.954 170.164 176.854 170.466 176.854C170.969 176.753 171.372 176.753 171.875 177.256C172.579 177.959 172.479 179.065 171.472 179.969C170.466 180.974 169.359 181.275 168.554 180.471C167.95 179.868 167.95 179.265 168.453 178.763L168.755 178.462C168.856 178.361 168.957 178.361 169.057 178.462L169.762 179.165C169.963 179.366 170.164 179.366 170.265 179.165C170.466 178.964 170.365 178.763 169.56 177.959C168.755 177.155 168.554 177.055 168.353 177.256C168.252 177.356 168.152 177.658 167.648 178.06C167.548 178.16 167.447 178.16 167.246 178.261C167.145 178.361 167.145 178.361 167.145 178.562C167.145 178.663 167.145 178.864 167.145 179.065L162.214 174.04L164.126 172.131C164.328 172.332 164.63 172.332 164.73 172.131C164.831 172.031 164.931 171.729 164.831 171.629C165.435 171.83 165.938 171.83 166.24 171.528C166.541 171.227 166.541 170.825 166.34 170.322C167.346 170.121 168.655 170.222 169.661 170.423C171.07 170.724 172.479 171.126 173.988 170.624C174.793 170.423 175.497 169.92 176.101 169.317C177.913 167.509 178.114 164.796 176.504 163.288C176.202 162.987 175.799 162.685 175.397 162.585C175.296 162.585 175.296 162.484 175.397 162.384C175.497 162.283 175.699 162.183 175.799 162.083C176.906 160.977 176.906 159.168 175.799 158.063C174.692 156.958 172.881 156.958 171.774 158.063C171.674 158.164 171.573 158.365 171.472 158.465C171.472 158.566 171.372 158.566 171.271 158.465C171.07 158.063 170.869 157.762 170.567 157.36C169.057 155.852 166.34 156.053 164.529 157.762C163.925 158.365 163.422 159.168 163.221 159.872C162.718 161.379 163.019 162.786 163.422 164.193C163.623 165.198 163.724 166.504 163.523 167.509C163.019 167.408 162.617 167.408 162.315 167.609C162.013 167.911 162.013 168.413 162.214 169.016C162.013 168.916 161.812 168.916 161.711 169.116C161.51 169.317 161.51 169.619 161.711 169.719L161.812 169.82L159.9 171.729L157.988 169.82L158.089 169.719C158.29 169.518 158.29 169.217 158.089 169.116C157.988 169.016 157.686 168.916 157.585 169.016C157.787 168.413 157.787 167.911 157.485 167.609C157.183 167.308 156.78 167.308 156.277 167.509C156.076 166.504 156.177 165.198 156.378 164.193C156.68 162.786 157.082 161.379 156.579 159.872C156.378 159.068 155.875 158.365 155.271 157.762C153.46 155.953 150.743 155.752 149.233 157.36C148.931 157.661 148.63 158.063 148.529 158.465C148.529 158.566 148.428 158.566 148.328 158.465C148.227 158.365 148.126 158.164 148.026 158.063C146.919 156.958 145.107 156.958 144.001 158.063C142.894 159.168 142.894 160.977 144.001 162.083C144.101 162.183 144.302 162.283 144.403 162.384C144.504 162.384 144.504 162.484 144.403 162.585C144.001 162.786 143.699 162.987 143.296 163.288C141.787 164.796 141.988 167.509 143.699 169.317C144.302 169.92 145.107 170.423 145.812 170.624C147.321 171.126 148.73 170.825 150.139 170.423C151.145 170.222 152.453 170.121 153.46 170.322C153.258 170.825 153.359 171.327 153.56 171.528C153.862 171.83 154.365 171.83 154.969 171.629C154.868 171.83 154.868 172.031 155.07 172.131C155.271 172.332 155.573 172.332 155.674 172.131L157.585 174.04L152.655 179.065C152.655 178.864 152.655 178.763 152.655 178.562C152.655 178.361 152.554 178.361 152.554 178.261C152.453 178.16 152.353 178.16 152.152 178.06C151.648 177.557 151.648 177.356 151.447 177.256C151.246 177.055 151.045 177.055 150.24 177.959C149.435 178.763 149.334 178.964 149.535 179.165C149.736 179.366 149.837 179.266 150.038 179.165L150.743 178.462C150.843 178.361 150.944 178.361 151.045 178.462L151.346 178.763C151.85 179.265 151.85 179.868 151.246 180.471C150.441 181.275 149.334 181.074 148.328 179.969C147.321 178.964 147.221 177.959 147.925 177.256C148.428 176.753 148.831 176.753 149.334 176.854C149.535 176.854 149.736 176.954 149.938 176.753C150.038 176.653 150.038 176.452 149.938 176.251C149.736 176.05 149.535 175.949 149.334 175.849C149.032 175.648 148.73 175.648 148.529 175.849C148.428 175.949 148.428 176.05 148.328 176.05C148.227 176.15 147.824 176.351 147.422 176.753C146.214 177.959 146.315 179.466 147.523 180.773C148.227 181.476 149.032 181.878 149.837 181.878L148.931 182.782C148.73 182.983 148.428 182.883 147.724 182.481C147.12 182.18 146.718 182.079 146.416 182.28C146.315 182.28 146.315 182.28 146.315 182.28C146.315 182.28 146.315 182.28 146.315 182.18C146.617 181.577 146.516 180.974 146.114 180.471C145.309 179.667 144.504 179.868 143.497 180.873C143.196 181.175 142.994 181.376 142.692 181.677C142.491 181.878 142.29 181.979 142.189 182.18C142.089 182.28 142.089 182.481 142.189 182.682C142.29 182.782 142.592 182.883 142.994 183.285L145.309 185.596C145.51 185.797 145.611 185.998 145.711 186.099L145.409 186.4C145.107 186.701 145.107 187.103 145.409 187.405L146.516 188.51C146.818 188.812 147.221 188.812 147.523 188.51L159.699 176.351L171.875 188.51C172.177 188.812 172.579 188.812 172.881 188.51L173.988 187.405C174.29 187.103 174.29 186.701 173.988 186.4L173.686 186.099C173.787 185.998 173.887 185.797 174.089 185.596L176.403 183.285C176.806 182.883 177.108 182.782 177.208 182.682C177.309 182.582 177.409 182.381 177.208 182.18C177.51 181.979 177.309 181.778 177.108 181.677ZM169.258 169.217C168.152 169.016 167.145 168.715 165.636 168.715C165.535 168.715 165.535 168.715 165.535 168.715C165.535 168.715 165.435 168.614 165.535 168.614C165.636 167.207 165.334 166.102 165.032 164.997C165.032 164.896 165.133 164.796 165.233 164.796C165.736 165.097 166.441 165.198 167.045 165.097C167.145 165.097 167.145 165.097 167.246 165.198C167.447 165.599 167.648 165.901 167.95 166.202C168.252 166.504 168.655 166.705 168.957 166.906C169.057 166.906 169.057 167.006 169.057 167.107C169.057 167.71 169.158 168.413 169.359 168.916C169.56 169.116 169.46 169.217 169.258 169.217ZM175.699 164.394C176.705 165.399 176.504 167.308 175.296 168.514C173.988 169.82 172.177 169.92 171.17 168.916C170.869 168.614 170.667 168.112 170.567 167.71C170.567 167.408 170.667 167.207 170.969 167.207C171.674 167.107 172.479 166.805 172.982 166.202C173.585 165.599 173.887 164.896 173.988 164.193C173.988 163.891 174.29 163.791 174.491 163.791C174.994 163.891 175.397 164.092 175.699 164.394ZM173.183 159.068C173.686 158.666 174.391 158.666 174.894 159.068C174.994 159.068 174.994 159.168 175.095 159.269C175.196 159.369 175.196 159.369 175.296 159.47C175.699 159.972 175.699 160.676 175.296 161.178C174.793 161.982 173.686 161.982 173.082 161.379C172.378 160.676 172.378 159.57 173.183 159.068ZM172.076 162.283C172.982 163.188 172.881 164.695 171.875 165.499C171.07 166.102 169.963 166.102 169.258 165.499C169.158 165.399 169.158 165.399 169.057 165.298C168.957 165.198 168.957 165.198 168.856 165.097C168.252 164.293 168.252 163.188 168.856 162.484C169.56 161.379 171.07 161.379 172.076 162.283ZM165.736 158.967C167.045 157.661 168.856 157.561 169.862 158.566C170.164 158.867 170.365 159.369 170.466 159.771C170.466 160.073 170.365 160.274 170.063 160.274C169.359 160.374 168.554 160.676 168.051 161.279C167.447 161.882 167.145 162.585 167.045 163.288C167.045 163.59 166.743 163.69 166.541 163.69C166.038 163.59 165.636 163.389 165.334 163.087C164.227 162.083 164.428 160.274 165.736 158.967ZM144.906 159.369C144.906 159.269 145.007 159.269 145.107 159.168C145.208 159.068 145.208 159.068 145.309 158.967C145.812 158.566 146.516 158.566 147.019 158.967C147.824 159.47 147.824 160.575 147.221 161.178C146.617 161.781 145.51 161.781 145.007 160.977C144.604 160.575 144.604 159.872 144.906 159.369ZM149.032 169.016C148.026 170.021 146.114 169.82 144.906 168.614C143.598 167.308 143.497 165.499 144.504 164.494C144.806 164.193 145.309 163.992 145.711 163.891C146.013 163.891 146.214 163.992 146.214 164.293C146.315 164.997 146.617 165.8 147.221 166.303C147.824 166.906 148.529 167.207 149.233 167.308C149.535 167.308 149.636 167.609 149.636 167.81C149.535 168.212 149.334 168.715 149.032 169.016ZM148.328 165.499C147.321 164.695 147.221 163.188 148.126 162.283C149.032 161.379 150.541 161.48 151.346 162.484C151.95 163.288 151.95 164.394 151.346 165.097C151.246 165.198 151.246 165.198 151.145 165.298C151.045 165.399 151.045 165.399 150.944 165.499C150.24 166.102 149.133 166.102 148.328 165.499ZM154.567 168.514C154.567 168.614 154.567 168.614 154.567 168.614C154.567 168.614 154.466 168.715 154.466 168.614C153.057 168.514 151.95 168.815 150.843 169.116C150.743 169.116 150.642 169.016 150.642 168.916C150.944 168.413 151.045 167.71 150.944 167.107C150.944 167.006 150.944 167.006 151.045 166.906C151.447 166.705 151.749 166.504 152.051 166.202C152.353 165.901 152.554 165.499 152.755 165.198C152.755 165.097 152.856 165.097 152.957 165.097C153.56 165.097 154.265 164.997 154.768 164.796C154.868 164.695 155.07 164.896 154.969 164.997C154.768 166.001 154.466 167.107 154.567 168.514ZM154.868 163.087C154.567 163.389 154.063 163.59 153.661 163.69C153.359 163.69 153.158 163.59 153.158 163.288C153.057 162.585 152.755 161.781 152.152 161.279C151.548 160.676 150.843 160.374 150.139 160.274C149.837 160.274 149.736 159.972 149.736 159.771C149.837 159.269 150.038 158.867 150.34 158.566C151.346 157.561 153.258 157.762 154.466 158.967C155.674 160.274 155.875 162.083 154.868 163.087ZM144.806 183.285L143.9 182.381C143.598 182.079 143.598 181.979 144.202 181.376C144.806 180.773 145.208 180.672 145.711 181.175C146.214 181.677 146.114 182.28 145.409 182.983C145.107 183.385 144.906 183.486 144.806 183.285ZM146.818 185.194C146.718 185.094 146.516 184.993 146.315 184.792L145.611 184.089C145.51 183.988 145.51 183.888 145.711 183.586C146.416 182.883 146.718 182.782 147.824 183.385C148.026 183.486 148.126 183.586 148.227 183.586L146.818 185.194ZM174.491 184.189L173.787 184.893C173.585 185.094 173.384 185.194 173.284 185.295L171.774 183.787C171.875 183.687 172.076 183.687 172.177 183.586C173.284 182.983 173.585 182.983 174.29 183.787C174.592 183.988 174.592 184.089 174.491 184.189ZM176.202 182.381L175.296 183.285C175.196 183.385 174.994 183.385 174.692 182.983C173.988 182.28 173.887 181.677 174.391 181.175C174.894 180.672 175.296 180.773 175.9 181.376C176.504 182.079 176.504 182.079 176.202 182.381Z" fill="white"/>
        <path d="M106.063 1.40787H109.082V0.101562H104.151V7.93943H106.063V1.40787Z" fill="white"/>
        <path d="M113.107 5.32593H114.114C114.617 5.32593 115.12 5.22544 115.522 5.12496C115.925 5.02447 116.227 4.8235 116.529 4.62253C116.831 4.32107 116.931 4.1201 117.032 3.81865C117.132 3.41671 117.233 3.11525 117.233 2.71331C117.233 2.31137 117.132 2.00991 117.032 1.70845C116.931 1.407 116.73 1.10554 116.529 0.90457C116.227 0.603114 115.925 0.502628 115.522 0.402143C115.12 0.301657 114.617 0.201172 114.114 0.201172H111.296V8.03904H113.107V5.32593ZM113.107 1.407H114.114C114.415 1.407 114.516 1.407 114.717 1.50748C114.919 1.60797 115.019 1.70845 115.12 1.80894C115.22 1.90942 115.321 2.1104 115.422 2.21088C115.522 2.41185 115.522 2.51234 115.522 2.61282C115.522 3.01476 115.422 3.31622 115.22 3.61768C115.019 3.91913 114.717 4.01962 114.214 4.01962H113.208V1.407H113.107Z" fill="white"/>
        <path d="M119.849 7.83786C119.95 7.73738 120.051 7.63689 120.051 7.53641L120.453 6.2301H123.371L123.774 7.53641C123.875 7.63689 123.875 7.73738 123.975 7.83786C124.076 7.93835 124.277 7.93835 124.378 7.93835H125.787L122.768 0H120.856L117.837 7.83786H119.246C119.548 7.93835 119.749 7.83786 119.849 7.83786ZM121.661 2.81359C121.761 2.61262 121.761 2.51214 121.862 2.41165C121.963 2.21068 121.963 2.00971 122.063 1.80874C122.164 2.00971 122.164 2.21068 122.265 2.41165C122.365 2.61262 122.365 2.81359 122.466 2.81359L123.17 4.92379H121.057L121.661 2.81359Z" fill="white"/>
        <path d="M129.711 4.62341H132.931V7.93943H134.743V0.101562H132.931V3.41758H129.711V0.101562H127.799V7.93943H129.711V4.62341Z" fill="white"/>
        <path d="M138.466 9.64768C138.567 9.54719 138.667 9.4467 138.667 9.24573V7.93942H144.001V9.74816H145.107C145.309 9.74816 145.409 9.64768 145.51 9.54719C145.611 9.4467 145.711 9.34622 145.711 9.14525V6.53263H144.504V0.101562H139.17C139.17 0.905446 139.07 1.60884 139.07 2.21176C139.07 2.81467 138.969 3.41758 138.869 3.81952C138.768 4.22146 138.667 4.72389 138.667 5.02535C138.567 5.42729 138.466 5.62826 138.365 5.82923C138.265 6.0302 138.164 6.23117 138.063 6.23117C137.963 6.33166 137.862 6.43214 137.762 6.53263H136.856V9.74816H137.963C138.164 9.74816 138.265 9.74816 138.466 9.64768ZM140.076 5.82923C140.177 5.52777 140.277 5.12583 140.378 4.72389C140.479 4.32195 140.579 3.81952 140.68 3.3171C140.78 2.81467 140.78 2.11127 140.881 1.50836H142.592V6.63311H139.774C139.875 6.33166 139.975 6.13069 140.076 5.82923Z" fill="white"/>
        <path d="M174.894 6.93457C175.296 7.33651 175.699 7.53748 176.101 7.73846C176.604 7.93943 177.208 8.03991 177.812 8.03991C178.416 8.03991 179.019 7.93943 179.522 7.73846C180.026 7.53748 180.428 7.33651 180.73 6.93457C181.132 6.53263 181.334 6.13069 181.535 5.72875C181.736 5.3268 181.837 4.72389 181.837 4.12098C181.837 3.61855 181.736 3.01564 181.535 2.51321C181.334 2.11127 181.132 1.60884 180.73 1.30739C180.327 0.905446 179.925 0.704475 179.522 0.503504C179.019 0.202048 178.416 0.101562 177.812 0.101562C177.208 0.101562 176.604 0.202048 176.101 0.403019C175.598 0.60399 175.195 0.804961 174.894 1.2069C174.592 1.60884 174.29 2.01079 174.089 2.41273C173.887 2.81467 173.787 3.41758 173.787 4.02049C173.787 4.52292 173.887 5.12583 174.089 5.62826C174.29 6.13069 174.592 6.53263 174.894 6.93457ZM175.799 2.91515C175.9 2.6137 176.101 2.41273 176.202 2.11127C176.403 1.9103 176.604 1.70933 176.906 1.60884C177.208 1.50836 177.51 1.40787 177.812 1.40787C178.214 1.40787 178.416 1.50836 178.717 1.60884C179.019 1.70933 179.221 1.9103 179.422 2.11127C179.623 2.31224 179.824 2.51321 179.824 2.91515C179.925 3.21661 180.026 3.51807 180.026 4.02049C180.026 4.42244 179.925 4.72389 179.824 5.12583C179.724 5.42729 179.522 5.62826 179.422 5.92972C179.221 6.13069 179.019 6.33166 178.717 6.33166C178.416 6.43215 178.114 6.53263 177.812 6.53263C177.409 6.53263 177.208 6.43215 176.906 6.33166C176.604 6.23117 176.403 6.0302 176.202 5.92972C176 5.72875 175.799 5.52778 175.799 5.12583C175.699 4.82438 175.598 4.52292 175.598 4.02049C175.598 3.61855 175.699 3.3171 175.799 2.91515Z" fill="white"/>
        <path d="M185.762 7.93943H187.573V1.50836H189.787V0.101562H183.548V1.50836H185.762V7.93943Z" fill="white"/>
        <path d="M197.031 6.53263H193.811V4.62341H196.226V3.3171H193.811V1.50836H197.031V0.101562H192.101V7.93943H197.031V6.53263Z" fill="white"/>
        <path d="M198.843 7.93943C198.944 8.03991 199.246 8.03991 199.547 8.03991C199.849 8.03991 200.051 8.03991 200.252 7.93943C200.554 7.83894 200.654 7.73846 200.856 7.53748C201.057 7.33651 201.258 7.13554 201.359 6.83409C201.56 6.53263 201.761 6.13069 201.761 5.62826C201.963 5.22632 202.063 4.52292 202.164 3.81952C202.264 3.11613 202.365 2.31224 202.466 1.30739H204.176V7.83894H205.988V0.101562H200.654C200.654 0.905446 200.554 1.50836 200.554 2.21176C200.554 2.91515 200.453 3.41758 200.352 3.81952C200.252 4.22147 200.252 4.62341 200.151 5.02535C200.051 5.42729 199.95 5.52778 199.849 5.82923C199.749 6.0302 199.648 6.23117 199.547 6.33166C199.447 6.43215 199.346 6.53263 199.246 6.63312C199.145 6.7336 199.044 6.7336 198.944 6.7336C198.843 6.7336 198.742 6.7336 198.642 6.7336H198.239V7.83894C198.742 7.83894 198.742 7.83894 198.843 7.93943Z" fill="white"/>
        <path d="M213.133 7.83894C213.535 7.73845 213.837 7.53748 214.038 7.33651C214.34 7.13554 214.441 6.93457 214.642 6.53263C214.843 6.23117 214.843 5.92972 214.843 5.42729C214.843 5.12583 214.743 4.92486 214.642 4.62341C214.541 4.32195 214.34 4.12098 214.139 3.92001C213.837 3.71904 213.636 3.51807 213.233 3.51807C212.831 3.51807 212.428 3.3171 211.925 3.3171H210.818V0.101562H209.007V7.93943H211.925C212.328 7.93943 212.73 7.83894 213.133 7.83894ZM210.818 4.52292H211.925C212.227 4.52292 212.328 4.52292 212.529 4.62341C212.73 4.72389 212.831 4.72389 212.931 4.82438C213.032 4.92486 213.133 5.02535 213.133 5.22632C213.133 5.3268 213.233 5.52778 213.233 5.62826C213.233 5.72875 213.233 5.92972 213.133 6.0302C213.133 6.13069 213.032 6.23117 212.931 6.33166C212.831 6.43214 212.73 6.53263 212.529 6.53263C212.328 6.63311 212.126 6.63311 211.925 6.63311H210.818V4.52292Z" fill="white"/>
        <path d="M158.793 7.43592C159.598 8.23981 160.805 8.23981 161.61 7.43592L163.623 5.42621C164.428 4.62233 164.428 3.4165 163.623 2.61262L161.61 0.602913C160.805 -0.200971 159.598 -0.200971 158.793 0.602913L156.78 2.61262C155.975 3.4165 155.975 4.62233 156.78 5.42621L158.793 7.43592Z" fill="white"/>
        <path d="M63.4973 177.056C63.4973 176.654 64.2017 176.554 64.2017 175.649V168.615C64.2017 168.314 64.1011 168.213 63.8998 168.213H63.4973C63.296 168.213 62.9941 168.213 62.9941 168.012C62.9941 167.811 63.1954 167.61 64.0004 167.208C64.7048 166.807 65.0067 166.706 65.208 166.706C65.4092 166.706 65.5098 166.807 65.5098 167.008V175.649C65.5098 176.554 66.013 176.654 66.013 177.056C66.013 177.358 65.8117 177.458 64.9061 177.458C63.6985 177.458 63.4973 177.257 63.4973 177.056Z" fill="white"/>
        <path d="M72.7555 177.758C72.7555 177.557 72.8561 177.356 73.2587 176.954C74.7681 175.145 75.9756 173.538 75.9756 173.236C75.875 173.236 75.2712 173.638 74.2649 173.638C71.9505 173.638 70.1392 171.93 70.1392 169.518C70.1392 167.106 72.1517 165.197 74.6675 165.197C77.4851 165.197 79.397 167.006 79.397 169.619C79.397 172.131 77.6863 174.844 74.5668 177.959C74.1643 178.361 73.9631 178.461 73.5605 178.461C73.158 178.461 72.7555 178.059 72.7555 177.758ZM77.1832 169.317C77.1832 167.709 76.1769 166.705 74.6675 166.705C73.2586 166.705 72.2524 167.81 72.2524 169.418C72.2524 170.925 73.158 171.93 74.5668 171.93C76.0763 171.93 77.1832 170.824 77.1832 169.317Z" fill="white"/>
        <path d="M86.2396 178.863C86.2396 178.461 86.3402 178.26 87.0446 177.557C89.1578 175.145 89.9629 174.04 89.9629 173.738V173.638C89.7616 173.638 89.1578 173.939 88.2522 173.939C85.4345 173.939 83.2207 171.829 83.2207 169.015C83.2207 166.101 85.6358 163.689 88.8559 163.689C92.4786 163.689 94.793 165.9 94.793 169.116C94.793 172.331 92.6798 175.547 88.9566 179.164C88.4534 179.667 88.0509 179.868 87.5478 179.868C86.8434 179.868 86.2396 179.265 86.2396 178.863ZM91.4723 168.814C91.4723 167.106 90.466 166.101 88.9566 166.101C87.5478 166.101 86.5415 167.206 86.5415 169.015C86.5415 170.723 87.5478 171.728 88.9566 171.728C90.3654 171.628 91.4723 170.422 91.4723 168.814Z" fill="white"/>
        <path d="M98.416 172.332C98.416 166.403 101.536 162.384 106.265 162.384C110.995 162.384 114.114 166.102 114.114 171.93C114.114 177.859 110.995 181.878 106.265 181.878C101.435 181.777 98.416 178.059 98.416 172.332ZM109.888 171.729C109.888 167.408 108.58 164.996 106.265 164.996C104.051 164.996 102.642 167.91 102.642 172.332C102.642 176.653 103.951 179.064 106.265 179.064C108.479 179.064 109.888 176.15 109.888 171.729Z" fill="white"/>
        <path d="M207.397 180.27V180.069C207.397 179.567 208.101 178.562 210.215 176.552C213.837 172.935 216.051 170.423 216.051 168.513C216.051 167.006 215.045 165.901 213.133 165.901C211.623 165.901 210.818 166.604 210.215 167.107C209.711 167.509 209.309 167.81 208.806 167.81C208.202 167.81 207.799 167.408 207.799 166.805C207.799 166.202 208.001 165.599 208.403 164.996C209.41 163.59 211.321 162.384 213.837 162.384C217.56 162.384 219.976 164.494 219.976 168.011C219.976 170.925 217.862 173.337 214.542 176.452C213.233 177.658 212.328 178.361 212.328 178.562C212.328 178.863 212.529 178.964 212.932 178.964H213.938C216.957 178.964 217.762 178.361 219.171 177.457C219.472 177.256 219.674 177.155 219.976 177.155C220.68 177.155 221.183 177.658 221.183 178.461C221.183 179.868 220.177 181.777 218.969 181.777C218.164 181.777 216.755 181.677 211.12 181.677C210.315 181.677 209.51 181.777 208.806 181.777C207.9 181.677 207.397 181.074 207.397 180.27Z" fill="white"/>
        <path d="M224.806 172.231C224.806 167.207 227.422 163.891 231.347 163.891C235.372 163.891 237.887 167.006 237.887 171.829C237.887 176.853 235.271 180.169 231.347 180.169C227.422 180.169 224.806 177.054 224.806 172.231ZM234.466 171.728C234.466 168.111 233.359 166.101 231.347 166.101C229.535 166.101 228.328 168.513 228.328 172.231C228.328 175.848 229.435 177.858 231.347 177.858C233.259 177.858 234.466 175.446 234.466 171.728Z" fill="white"/>
        <path d="M242.214 177.859C242.214 177.457 242.617 176.954 244.126 175.447C247.447 172.131 248.554 170.724 248.554 169.418C248.554 168.212 247.749 167.308 246.239 167.308C244.831 167.308 244.227 168.011 243.824 168.514C243.523 168.815 243.321 169.016 243.019 169.016C242.718 169.016 242.516 168.715 242.516 168.413C242.516 168.112 242.717 167.609 242.919 167.308C243.523 166.403 244.831 165.499 246.642 165.499C249.158 165.499 250.868 166.906 250.868 169.217C250.868 171.227 249.56 172.834 246.34 175.849C245.535 176.552 245.133 176.954 245.133 177.055C245.133 177.256 245.233 177.256 245.434 177.256H246.541C249.158 177.256 249.761 176.753 250.466 176.251C250.667 176.15 250.768 176.05 250.969 176.05C251.372 176.05 251.573 176.351 251.573 176.753C251.573 177.658 250.868 178.763 250.164 178.763C249.661 178.763 248.856 178.663 244.529 178.663C244.026 178.663 243.422 178.763 242.919 178.763C242.416 178.663 242.214 178.361 242.214 177.859Z" fill="white"/>
        <path d="M256 172.232C256 168.916 257.711 166.604 260.126 166.604C262.642 166.604 264.252 168.715 264.252 171.83C264.252 175.146 262.541 177.457 260.126 177.457C257.611 177.457 256 175.447 256 172.232ZM262.843 171.83C262.843 169.217 261.837 167.609 260.126 167.609C258.516 167.609 257.309 169.519 257.309 172.232C257.309 174.844 258.315 176.452 260.126 176.452C261.736 176.452 262.843 174.643 262.843 171.83Z" fill="white"/>

</svg>
