<svg width="133" height="22" viewBox="0 0 133 22" fill="none" xmlns="http://www.w3.org/2000/svg">
    <path d="M132.765 10.3715L123.299 0.864315C122.986 0.55003 122.516 0.55003 122.203 0.864315C121.891 1.1786 121.891 1.65003 122.203 1.96432L131.201 11L122.203 20.0357C121.891 20.35 121.891 20.8215 122.203 21.1357C122.516 21.45 122.986 21.45 123.299 21.1357L132.765 11.6286C132.922 11.4715 133 11.2357 133 11C133 10.7643 132.922 10.5286 132.765 10.3715Z" fill="white"/>
    <path d="M8.13647 7.62145C8.13647 7.22859 7.90176 6.91431 6.96294 6.91431C5.94588 6.91431 5.63294 7.22859 5.63294 7.62145C5.63294 7.93573 5.94588 8.17145 5.94588 9.27145V10.2929C5.94588 10.6857 5.86765 10.8429 5.39824 10.8429H2.73824C2.26882 10.8429 2.19059 10.7643 2.19059 10.2929V9.27145C2.19059 8.25002 2.50353 7.93573 2.50353 7.62145C2.50353 7.22859 2.19059 6.91431 1.17353 6.91431C0.312941 6.91431 0 7.22859 0 7.62145C0 7.93573 0.234706 8.17145 0.234706 9.27145V14.1429C0.234706 15.1643 0 15.4786 0 15.7929C0 16.1857 0.312941 16.5 1.17353 16.5C2.19059 16.5 2.50353 16.1857 2.50353 15.7929C2.50353 15.4786 2.19059 15.2429 2.19059 14.1429V12.65C2.19059 12.2572 2.26882 12.1786 2.73824 12.1786H5.39824C5.86765 12.1786 5.94588 12.3357 5.94588 12.65V14.1429C5.94588 15.1643 5.63294 15.4786 5.63294 15.7929C5.63294 16.1857 5.86765 16.5 6.96294 16.5C7.90176 16.5 8.13647 16.1857 8.13647 15.7929C8.13647 15.4786 7.90176 15.2429 7.90176 14.1429V9.27145C7.98 8.17145 8.13647 7.93573 8.13647 7.62145Z" fill="white"/>
    <path d="M14.3169 6.83575C11.6569 6.83575 9.7793 8.95718 9.7793 11.8643C9.7793 14.6929 11.5787 16.6572 14.3169 16.6572C16.9769 16.6572 18.8546 14.5358 18.8546 11.6286C18.8546 8.80004 16.9769 6.83575 14.3169 6.83575ZM14.3169 15.1643C12.8305 15.1643 11.9699 13.9072 11.9699 11.8643C11.9699 9.7429 12.9087 8.25004 14.3169 8.25004C15.8034 8.25004 16.664 9.50718 16.664 11.55C16.664 13.6715 15.7252 15.1643 14.3169 15.1643Z" fill="white"/>
    <path d="M26.5221 11.3143C26.3656 11.2358 26.2873 11.1572 26.2873 11.0786C26.2873 11 26.3656 10.9215 26.5221 10.8429C27.2262 10.3715 27.6174 9.82147 27.6174 9.11433C27.6174 7.62147 26.6003 6.83575 24.3315 6.83575C23.7056 6.83575 23.1579 6.91433 22.5321 6.91433C22.0626 6.91433 21.6715 6.83575 21.2803 6.83575C20.8109 6.83575 20.5762 7.15004 20.5762 7.5429C20.5762 7.85718 20.8109 8.0929 20.8109 9.1929V14.1429C20.8109 15.1643 20.5762 15.4786 20.5762 15.7929C20.5762 16.1858 20.8109 16.5 21.2803 16.5C21.6715 16.5 22.0626 16.4215 22.4538 16.4215C23.0797 16.4215 23.6274 16.5 24.2532 16.5C26.6003 16.5 28.165 15.3215 28.165 13.6715C28.0085 12.5715 27.4609 11.7072 26.5221 11.3143ZM22.6103 8.87861C22.6103 8.40718 22.845 8.32861 23.7838 8.32861C24.8791 8.32861 25.4268 8.72147 25.4268 9.42861C25.4268 10.2929 24.8009 10.7643 23.6274 10.7643C22.6885 10.7643 22.6103 10.6858 22.6103 10.3715V8.87861ZM23.7838 15.0858C22.7668 15.0858 22.6103 15.0072 22.6103 14.6143V12.7286C22.6103 12.3358 22.845 12.2572 24.0968 12.2572C25.3485 12.2572 25.8962 12.65 25.8962 13.5143C25.8962 14.4572 25.2703 15.0858 23.7838 15.0858Z" fill="white"/>
    <path d="M33.876 6.83575C31.216 6.83575 29.3384 8.95718 29.3384 11.8643C29.3384 14.6929 31.1378 16.6572 33.876 16.6572C36.536 16.6572 38.4137 14.5358 38.4137 11.6286C38.4137 8.80004 36.536 6.83575 33.876 6.83575ZM33.876 15.1643C32.3896 15.1643 31.529 13.9072 31.529 11.8643C31.529 9.7429 32.4678 8.25004 33.876 8.25004C35.3625 8.25004 36.2231 9.50718 36.2231 11.55C36.2231 13.6715 35.2843 15.1643 33.876 15.1643Z" fill="white"/>
    <path d="M44.2031 8.25006C45.2984 8.25006 45.6895 8.80006 46.0807 9.35006C46.3154 9.74292 46.5501 10.0572 47.0978 10.0572C47.4889 10.0572 47.7237 9.74292 47.7237 9.27149C47.7237 8.80006 47.6454 8.32863 47.4889 8.01434C47.2542 7.38577 46.8631 6.91434 46.4719 6.91434C46.2372 6.91434 46.0807 6.99292 45.846 6.99292C45.5331 6.99292 45.0637 6.7572 44.2031 6.7572C41.4648 6.7572 39.7437 8.56435 39.7437 11.3929C39.7437 14.6143 41.4648 16.5786 44.3595 16.5786C45.5331 16.5786 46.8631 15.9501 47.3325 15.1643C47.4107 15.0072 47.4889 14.8501 47.4889 14.6929C47.4889 14.5358 47.4107 14.3786 47.3325 14.3001C47.2542 14.2215 47.0978 14.1429 46.9413 14.1429C46.7848 14.1429 46.6284 14.2215 46.4719 14.2215C45.6113 14.5358 45.0637 14.6929 44.4378 14.6929C42.7948 14.6929 41.7778 13.3572 41.7778 11.3929C41.9342 9.42863 42.7166 8.25006 44.2031 8.25006Z" fill="white"/>
    <path d="M56.0163 6.83575C55.7816 6.83575 54.5298 6.91433 53.0433 6.91433C51.5569 6.91433 50.3051 6.83575 50.0704 6.83575C49.4445 6.83575 48.9751 7.77861 48.9751 8.40718C48.9751 8.80004 49.2098 9.03575 49.601 9.03575C50.0704 9.03575 50.5398 8.17147 51.4786 8.17147H51.7133C51.948 8.17147 52.1827 8.32861 52.1827 8.56433V14.0643C52.1827 15.0858 51.948 15.4 51.948 15.7143C51.948 16.1072 52.1827 16.4215 53.1216 16.4215C54.0604 16.4215 54.2951 16.1072 54.2951 15.7143C54.2951 15.4 54.0604 15.1643 54.0604 14.0643V8.56433C54.0604 8.32861 54.2169 8.17147 54.5298 8.17147H54.7645C55.7033 8.17147 56.1727 9.03575 56.6422 9.03575C56.9551 9.03575 57.268 8.80004 57.268 8.40718C57.1116 7.77861 56.5639 6.83575 56.0163 6.83575Z" fill="white"/>
    <path d="M66.6564 7.62147C66.6564 7.22861 66.4217 6.91433 65.4828 6.91433C64.7005 6.91433 64.6222 6.9929 63.9181 8.25004L61.3364 12.65C61.0234 13.1215 60.9452 13.2 60.9452 13.2C60.867 13.2 60.7887 13.1215 60.7887 12.8072V9.1929C60.7887 8.17147 61.1017 7.85718 61.1017 7.5429C61.1017 7.15004 60.7887 6.83575 59.7717 6.83575C58.8329 6.83575 58.5981 7.15004 58.5981 7.5429C58.5981 7.85718 58.8328 8.0929 58.8328 9.1929V14.1429C58.8328 15.1643 58.5981 15.4786 58.5981 15.7929C58.5981 16.1858 58.9111 16.5 59.7717 16.5C60.554 16.5 60.6323 16.3429 61.2581 15.1643L63.8399 10.7643C64.1528 10.2929 64.2311 10.2143 64.2311 10.2143C64.3093 10.2143 64.3875 10.2929 64.3875 10.6072V14.1429C64.3875 15.1643 64.0746 15.4786 64.0746 15.7929C64.0746 16.1858 64.3093 16.5 65.4046 16.5C66.3434 16.5 66.5781 16.1858 66.5781 15.7929C66.5781 15.4786 66.3434 15.2429 66.3434 14.1429V9.27147C66.4217 8.17147 66.6564 7.93575 66.6564 7.62147Z" fill="white"/>
    <path d="M81.3648 15.0858C80.9736 15.0858 80.7389 14.7715 80.3478 13.4358C80.1131 12.5715 79.8001 12.1 79.2525 11.8643C79.096 11.7858 79.096 11.7858 79.096 11.7072C79.096 11.6286 79.096 11.6286 79.2525 11.55C80.1913 11.0786 80.8172 10.3715 80.8172 9.42861C80.8172 7.70004 79.6436 6.83575 77.2183 6.83575C76.5925 6.83575 76.0448 6.91433 75.4189 6.91433C75.0278 6.91433 74.7148 6.83575 74.4019 6.83575C73.9325 6.83575 73.6978 7.15004 73.6978 7.5429C73.6978 7.85718 73.9325 8.0929 73.9325 9.1929V14.1429C73.9325 15.1643 73.6978 15.4786 73.6978 15.7929C73.6978 16.1858 74.0107 16.5 74.8713 16.5C75.8883 16.5 76.2013 16.1858 76.2013 15.7929C76.2013 15.4786 75.8883 15.2429 75.8883 14.1429V12.9643C75.8883 12.65 76.0448 12.5715 76.5142 12.5715C77.8442 12.5715 78.0789 12.8858 78.6266 14.6929C79.096 16.3429 79.8001 16.5786 80.5825 16.5786C81.3648 16.5786 81.8342 16.1072 81.8342 15.5572C81.756 15.2429 81.5995 15.0858 81.3648 15.0858ZM76.5925 11.1572C76.0448 11.1572 75.7319 11.0786 75.7319 10.6858V9.1929C75.7319 8.32861 75.8101 8.25004 76.8272 8.25004C78.0789 8.25004 78.5483 8.6429 78.5483 9.50718C78.6266 10.6072 77.9225 11.1572 76.5925 11.1572Z" fill="white"/>
    <path d="M90.5179 12.0214C90.5179 11.4714 90.205 11.2357 88.4056 11.2357C86.5279 11.2357 86.215 11.4714 86.215 11.9429C86.215 12.4143 86.4497 12.65 86.9973 12.65H88.1709C88.4056 12.65 88.562 12.8072 88.562 13.0429V13.4357C88.562 14.3786 87.9362 14.9286 86.9191 14.9286C85.2762 14.9286 84.4938 13.5143 84.4938 11.3929C84.4938 9.35002 85.3544 8.17145 86.7626 8.17145C87.8579 8.17145 88.2491 8.72145 88.6403 9.27145C88.875 9.6643 89.1097 9.97859 89.6573 9.97859C90.0485 9.97859 90.2832 9.6643 90.2832 9.19287C90.2832 8.72145 90.205 8.25002 90.0485 7.93573C89.8138 7.30716 89.4226 6.83573 89.0315 6.83573C88.7968 6.83573 88.6403 6.9143 88.4056 6.9143C88.0926 6.9143 87.6232 6.67859 86.7626 6.67859C84.0244 6.67859 82.3032 8.48573 82.3032 11.3143C82.3032 14.5357 83.9462 16.5 86.7626 16.5C88.1709 16.5 89.5791 15.8714 90.2832 14.85C90.4397 14.6143 90.5179 14.5357 90.5179 14.3786C90.5179 14.0643 90.2832 13.9072 90.2832 13.6714C90.3615 12.7286 90.5179 12.4143 90.5179 12.0214Z" fill="white"/>
    <path d="M93.5696 14.2214C92.8655 14.2214 92.3179 14.6143 92.3179 15.4C92.3179 16.1857 92.7873 16.5786 93.5696 16.5786C94.2737 16.5786 94.7431 16.1857 94.7431 15.4C94.7431 14.6143 94.2737 14.2214 93.5696 14.2214Z" fill="white"/>
    <path d="M104.601 15.0858C104.209 15.0858 103.975 14.7715 103.584 13.4358C103.349 12.5715 103.036 12.1 102.488 11.8643C102.332 11.7858 102.332 11.7858 102.332 11.7072C102.332 11.6286 102.332 11.6286 102.488 11.55C103.427 11.0786 104.053 10.3715 104.053 9.42861C104.053 7.70004 102.879 6.83575 100.454 6.83575C99.8283 6.83575 99.2807 6.91433 98.6548 6.91433C98.2636 6.91433 97.9507 6.83575 97.6377 6.83575C97.1683 6.83575 96.9336 7.15004 96.9336 7.5429C96.9336 7.85718 97.1683 8.0929 97.1683 9.1929V14.1429C97.1683 15.1643 96.9336 15.4786 96.9336 15.7929C96.9336 16.1858 97.2465 16.5 98.1071 16.5C99.1242 16.5 99.4371 16.1858 99.4371 15.7929C99.4371 15.4786 99.1242 15.2429 99.1242 14.1429V12.9643C99.1242 12.65 99.2807 12.5715 99.7501 12.5715C101.08 12.5715 101.315 12.8858 101.862 14.6929C102.332 16.3429 103.036 16.5786 103.818 16.5786C104.601 16.5786 105.07 16.1072 105.07 15.5572C104.992 15.2429 104.835 15.0858 104.601 15.0858ZM99.8283 11.1572C99.2807 11.1572 98.9677 11.0786 98.9677 10.6858V9.1929C98.9677 8.32861 99.046 8.25004 100.063 8.25004C101.315 8.25004 101.784 8.6429 101.784 9.50718C101.862 10.6072 101.158 11.1572 99.8283 11.1572Z" fill="white"/>
    <path d="M112.581 6.91431C111.877 6.91431 111.564 7.22859 111.564 7.62145C111.564 7.93574 111.877 8.17145 111.877 9.27145V13.0429C111.877 14.5357 111.251 15.2429 109.999 15.2429C108.747 15.2429 108.121 14.5357 108.121 13.0429V9.27145C108.121 8.25002 108.434 7.93574 108.434 7.62145C108.434 7.22859 108.199 6.91431 107.104 6.91431C106.165 6.91431 105.931 7.22859 105.931 7.62145C105.931 7.93574 106.165 8.17145 106.165 9.27145V12.9643C106.165 15.3215 107.417 16.5786 109.842 16.5786C112.111 16.5786 113.285 15.3215 113.285 12.9643V9.27145C113.285 8.25002 113.52 7.93574 113.52 7.62145C113.52 7.22859 113.285 6.91431 112.581 6.91431Z" fill="white"/>
</svg>
