<svg width="32" height="32" viewBox="0 0 32 32" fill="none" xmlns="http://www.w3.org/2000/svg">
    <path fill-rule="evenodd" clip-rule="evenodd" d="M16 0C7.2 0 0 7.2 0 16C0 24.8 7.2 32 16 32C24.8 32 32 24.8 32 16C32 7.2 24.8 0 16 0ZM16 31C7.7 31 1 24.3 1 16C1 7.7 7.7 1 16 1C24.3 1 31 7.7 31 16C31 24.3 24.3 31 16 31Z" fill="white"/>
    <path d="M16 11.3998C16.8 11.3998 17.5 12.0998 17.5 12.8998C17.5 13.6998 16.8 14.3998 16 14.3998C15.2 14.3998 14.5 13.6998 14.5 12.8998C14.5 12.0998 15.2 11.3998 16 11.3998ZM16 16.4998C18 16.4998 19.6 14.8998 19.6 12.8998C19.6 10.8998 18 9.2998 16 9.2998C14 9.2998 12.4 10.8998 12.4 12.8998C12.4 14.8998 14 16.4998 16 16.4998Z" fill="white"/>
    <path d="M17.5 19.4996C18.2 19.2996 18.9 18.9996 19.6 18.5996C20.1 18.2996 20.2 17.5996 19.9 17.0996C19.6 16.5996 18.9 16.4996 18.4 16.7996C16.9 17.6996 15 17.6996 13.5 16.7996C13 16.4996 12.4 16.5996 12 17.0996C11.7 17.5996 11.8 18.1996 12.3 18.5996C13 18.9996 13.7 19.2996 14.4 19.4996L12.4 21.4996C12 21.8996 12 22.5996 12.4 22.9996C12.6 23.1996 12.9 23.2996 13.1 23.2996C13.4 23.2996 13.6 23.1996 13.8 22.9996L15.8 20.9996L17.8 22.9996C18.2 23.3996 18.9 23.3996 19.3 22.9996C19.7 22.5996 19.7 21.8996 19.3 21.4996L17.5 19.4996Z" fill="white"/>
</svg>
