<svg width="610" height="165" viewBox="0 0 610 165" fill="none" xmlns="http://www.w3.org/2000/svg">
    <path d="M16.9623 163.573C16.5523 162.843 16.2223 160.863 14.6023 157.943L3.79229 138.463C2.17229 135.543 0.672289 134.213 0.262289 133.483C-0.197711 132.653 -0.057711 131.873 0.722289 131.443C2.04229 130.713 3.36229 130.113 4.67229 129.383C6.62229 128.303 8.46229 127.153 10.3623 126.093C18.4423 121.603 24.4423 122.423 27.9023 128.653C31.7423 135.563 29.3623 141.733 21.2823 146.213L17.1423 148.513C15.5323 149.403 15.4623 150.083 16.1423 151.303L18.6023 155.733C20.2223 158.653 21.9723 159.853 22.3723 160.583C22.8323 161.413 22.5423 162.273 20.2523 163.543C18.2623 164.633 17.4223 164.393 16.9623 163.573ZM23.6423 131.073C21.2323 126.743 17.3023 126.313 11.7023 129.413C6.30229 132.413 5.89229 132.833 7.05229 134.923L12.7823 145.243C13.4023 146.363 14.1923 146.053 19.0123 143.383C25.1523 139.983 26.5623 136.333 23.6423 131.073Z" fill="white"/>
    <path d="M41.0523 131.553C36.1123 121.013 39.4723 110.333 48.2523 106.223C57.3323 101.973 67.1523 105.733 71.8123 115.673C76.7523 126.213 73.3823 136.893 64.5623 141.033C55.5223 145.253 45.7023 141.493 41.0523 131.553ZM67.4223 117.723C63.5223 109.403 56.4223 106.323 49.7623 109.443C43.4523 112.393 41.3723 120.813 45.4323 129.493C49.3323 137.813 56.4323 140.893 63.0423 137.793C69.4023 134.823 71.4823 126.403 67.4223 117.723Z" fill="white"/>
    <path d="M81.6223 111.463C77.6523 101.173 81.2323 91.8525 90.9423 88.1125C94.3723 86.7925 97.7823 86.9725 98.5123 86.6825C98.8723 86.5425 99.3323 86.1825 99.8023 86.0025C100.682 85.6625 101.942 86.4325 103.272 87.8925C104.032 88.7925 104.932 89.8825 105.472 91.2825C105.812 92.1625 105.472 92.8325 104.742 93.1125C103.862 93.4525 103.282 93.1925 102.052 92.4825C98.7723 90.4625 96.2723 89.8725 92.2222 91.4425C85.0522 94.2025 82.8823 101.133 86.2123 109.763C89.6823 118.753 96.2822 122.713 103.972 119.753C106.622 118.733 109.412 116.823 111.332 114.233C111.682 113.743 112.082 113.403 112.452 113.263C112.872 113.103 113.192 113.163 113.532 113.263C113.912 113.473 114.132 113.743 114.292 114.163C114.472 114.633 114.472 115.103 114.332 115.523C112.992 119.023 109.182 122.283 105.332 123.763C95.1023 127.693 85.9923 122.793 81.6223 111.463Z" fill="white"/>
    <path d="M119.182 97.3726C115.902 86.8426 120.082 77.7826 130.032 74.6826C133.542 73.5926 136.932 73.9926 137.682 73.7626C138.052 73.6426 138.532 73.3226 139.012 73.1726C139.912 72.8926 141.112 73.7426 142.352 75.2826C143.052 76.2326 143.882 77.3726 144.322 78.8126C144.602 79.7126 144.222 80.3626 143.472 80.5926C142.572 80.8726 142.012 80.5826 140.832 79.7826C137.692 77.5526 135.232 76.8026 131.082 78.0926C123.742 80.3726 121.122 87.1426 123.872 95.9726C126.732 105.173 133.062 109.563 140.932 107.113C143.642 106.273 146.552 104.553 148.642 102.083C149.022 101.613 149.452 101.303 149.822 101.193C150.252 101.063 150.562 101.133 150.892 101.263C151.262 101.503 151.462 101.783 151.592 102.213C151.742 102.693 151.712 103.163 151.542 103.573C149.982 106.973 145.952 109.983 142.022 111.203C131.562 114.463 122.792 108.963 119.182 97.3726Z" fill="white"/>
    <path d="M162.732 103.033C162.542 102.223 162.752 100.223 161.972 96.9725L156.812 75.2925C156.042 72.0425 154.952 70.3525 154.762 69.5425C154.542 68.6225 154.992 67.8825 157.272 67.3425C159.762 66.7525 160.552 67.1925 160.772 68.1125C160.962 68.9225 160.482 70.9825 161.252 74.2425L166.022 94.2925C166.282 95.3725 166.422 95.5125 166.752 95.4325C167.082 95.3525 167.292 95.0725 168.082 92.5925L176.562 66.6425C177.782 62.8625 178.232 62.3525 180.132 61.9025C182.412 61.3625 183.202 61.8025 183.422 62.7225C183.612 63.5325 183.402 65.5325 184.182 68.7825L189.332 90.4625C190.102 93.7125 191.192 95.4025 191.392 96.2125C191.612 97.1325 191.102 97.8825 188.822 98.4225C186.382 99.0025 185.532 98.5725 185.322 97.6525C185.132 96.8425 185.662 94.7625 184.892 91.5125L180.122 71.4625C179.862 70.3825 179.662 70.2525 179.342 70.3325C179.012 70.4125 178.802 70.6925 178.012 73.1725L169.582 99.1125C168.352 102.843 167.862 103.413 165.962 103.863C163.692 104.413 162.952 103.963 162.732 103.033Z" fill="white"/>
    <path d="M202.722 93.9326C202.582 93.1126 202.932 91.1326 202.392 87.8326L198.762 65.8526C198.222 62.5526 197.252 60.7926 197.112 59.9726C196.962 59.0426 197.462 58.3326 199.772 57.9526C202.302 57.5326 203.062 58.0326 203.212 58.9626C203.352 59.7826 202.722 61.8126 203.272 65.1026L206.632 85.4326C206.812 86.5326 206.952 86.6826 207.282 86.6226C207.612 86.5726 207.852 86.3026 208.802 83.8826L219.082 58.5826C220.562 54.8926 221.052 54.4226 222.972 54.1026C225.282 53.7226 226.042 54.2126 226.192 55.1526C226.332 55.9726 225.982 57.9526 226.522 61.2526L230.152 83.2326C230.692 86.5326 231.662 88.2926 231.802 89.1126C231.952 90.0426 231.392 90.7626 229.092 91.1426C226.622 91.5526 225.802 91.0626 225.652 90.1326C225.512 89.3126 226.192 87.2726 225.652 83.9826L222.292 63.6526C222.112 62.5526 221.922 62.4126 221.592 62.4726C221.262 62.5226 221.022 62.7926 220.072 65.2126L209.852 90.5026C208.362 94.1326 207.832 94.6726 205.912 94.9926C203.582 95.3726 202.882 94.8726 202.722 93.9326ZM216.522 46.5426C217.042 49.6726 215.102 52.9826 211.312 53.6126C207.522 54.2426 204.622 51.7226 204.102 48.5926C203.942 47.6626 204.502 46.8926 205.322 46.7526C206.142 46.6126 206.582 46.8826 206.992 47.6026C208.012 49.6926 209.252 50.3326 210.732 50.0926C212.212 49.8426 213.182 48.8426 213.472 46.5326C213.622 45.7226 213.952 45.3226 214.772 45.1926C215.602 45.0626 216.362 45.6126 216.522 46.5426Z" fill="white"/>
    <path d="M240.532 69.8625C239.482 58.8825 245.432 50.8725 255.802 49.8825C259.462 49.5325 262.702 50.6225 263.472 50.5525C263.862 50.5125 264.402 50.2925 264.902 50.2525C265.842 50.1625 266.842 51.2425 267.742 53.0025C268.242 54.0725 268.812 55.3625 268.952 56.8625C269.042 57.8025 268.532 58.3525 267.762 58.4325C266.822 58.5225 266.332 58.1225 265.342 57.1025C262.722 54.2725 260.472 53.0325 256.152 53.4525C248.502 54.1825 244.552 60.2725 245.432 69.4725C246.352 79.0625 251.642 84.6625 259.852 83.8725C262.682 83.6025 265.872 82.5125 268.432 80.5325C268.902 80.1525 269.382 79.9426 269.772 79.9025C270.212 79.8625 270.512 80.0025 270.812 80.1925C271.122 80.5025 271.262 80.8225 271.302 81.2625C271.352 81.7625 271.222 82.2225 270.982 82.5826C268.752 85.5925 264.202 87.7025 260.092 88.1025C249.142 89.1225 241.692 81.9525 240.532 69.8625Z" fill="white"/>
    <path d="M301.892 78.0525C299.422 69.3725 297.432 68.1525 290.752 68.3325C288.472 68.3925 286.812 68.8925 286.852 70.2225L287.072 78.1325C287.162 81.4725 288.162 83.3425 288.192 84.1725C288.222 85.1225 287.512 85.7525 285.002 85.8225C282.662 85.8925 282.032 85.2925 282.012 84.3425C281.992 83.5125 282.602 81.5925 282.512 78.2525L281.892 55.9825C281.802 52.6425 281.082 50.7725 281.052 49.9325C281.022 48.9825 281.622 48.3525 283.962 48.2925C286.522 48.2225 287.212 48.8125 287.232 49.7625C287.252 50.6025 286.362 52.5125 286.452 55.8525L286.662 63.3125C286.692 64.4825 287.152 64.8625 288.042 64.8325C294.502 64.6525 296.702 63.8625 296.992 58.0625C297.352 50.8625 299.812 47.4025 304.712 47.2625C308.112 47.1625 310.392 49.0525 310.472 51.8325C310.532 53.8925 309.452 55.2025 307.672 55.2525C306.112 55.2925 305.032 54.3825 304.992 53.0425C304.962 51.8725 305.512 51.7425 305.502 51.5225C305.492 51.0725 305.092 50.8125 304.312 50.8325C301.972 50.9025 300.762 53.3325 300.502 58.0125C300.232 64.1525 298.132 64.9325 298.142 65.3825C298.142 65.5525 298.262 65.7125 298.712 65.8125C301.802 66.6125 304.082 68.6725 305.822 74.9125C307.312 80.2225 308.252 81.9226 310.192 81.8625C311.022 81.8425 311.482 82.2125 311.502 82.9925C311.542 84.4925 310.012 85.5425 308.292 85.5925C305.502 85.6925 303.622 84.2925 301.892 78.0525Z" fill="white"/>
    <path d="M319.632 83.4726C319.672 82.4126 320.923 81.8526 322.773 77.6326L334.852 49.5926C335.292 48.3826 336.132 48.1926 337.692 48.2626C339.472 48.3326 340.013 48.7526 340.363 49.8226L350.102 78.7626C351.542 83.1126 352.792 83.7826 352.752 84.8326C352.692 86.2826 351.743 86.4026 349.123 86.3026C346.343 86.1926 345.683 85.9926 345.743 84.5426C345.773 83.9326 345.952 83.4326 345.982 82.7126C346.012 81.9926 345.482 80.0126 344.012 74.9426C343.912 74.5526 343.603 74.1426 342.873 74.1126L329.463 73.5626C328.573 73.5226 328.223 73.9526 328.023 74.6126C326.173 79.0526 325.492 80.6426 325.442 81.8626C325.412 82.5326 325.552 83.0926 325.532 83.7026C325.472 85.0926 324.632 85.2826 322.352 85.1926C320.242 85.1126 319.582 84.8626 319.632 83.4726ZM342.262 69.9626C342.282 69.5726 342.082 68.8426 339.752 61.9426C337.272 54.5926 337.053 54.4226 336.833 54.4126C336.553 54.4026 336.372 54.7326 333.292 62.0126C330.572 68.4226 330.212 69.2426 330.192 69.5226C330.182 69.8526 330.342 70.0326 330.782 70.0526L341.583 70.4926C342.023 70.5126 342.252 70.3526 342.262 69.9626Z" fill="white"/>
    <path d="M360.482 85.0025C360.572 84.2225 361.002 83.8825 361.882 83.9825C363.822 84.1925 364.782 82.5625 366.582 77.9425C368.402 73.1525 370.372 71.5825 372.662 71.1025C373.182 70.9925 373.302 70.8925 373.312 70.7825C373.332 70.6125 373.232 70.4925 372.912 70.3425C369.022 68.5125 366.992 65.0925 367.452 60.8825C368.202 54.1325 372.732 50.6525 380.982 51.5625C383.192 51.8025 385.512 52.1725 387.782 52.4225C389.332 52.5925 391.002 52.6625 392.552 52.8425C393.442 52.9425 393.872 53.6025 393.762 54.5425C393.672 55.3725 392.802 57.1825 392.432 60.5025L389.982 82.6526C389.612 85.9726 390.072 87.9325 389.982 88.7625C389.882 89.7025 389.142 90.2425 386.872 89.9925C384.322 89.7125 383.732 89.0325 383.832 88.0925C383.922 87.2625 385.072 85.4825 385.442 82.1625L386.192 75.3525C386.322 74.1325 385.972 73.7625 383.762 73.5125L383.102 73.4425C375.242 72.5725 373.442 73.1625 370.462 80.8425C367.962 87.2325 366.012 88.1425 363.462 87.8625C361.702 87.6625 360.322 86.4425 360.482 85.0025ZM386.962 68.5925L388.082 58.4625C388.322 56.3025 388.022 55.9325 381.322 55.1925C375.952 54.6025 372.802 56.7125 372.272 61.5325C371.722 66.5125 375.092 68.9626 381.572 69.6826C385.552 70.1226 386.822 69.8625 386.962 68.5925Z" fill="white"/>
    <path d="M416.083 92.9525C416.253 92.1325 417.283 90.4125 417.943 87.1325L422.353 65.2925C423.013 62.0125 422.733 60.0325 422.903 59.2125C423.093 58.2825 423.703 57.7825 424.573 57.9625C426.213 58.2925 427.773 58.7225 429.193 59.0125C441.643 61.5325 442.833 61.5425 444.523 61.8825C445.993 62.1825 446.843 65.0225 446.423 67.0925C446.233 68.0225 445.523 68.4425 444.873 68.3125C444.493 68.2325 444.193 68.0025 443.803 67.7025C442.393 66.5125 440.593 64.7225 433.503 63.2925C428.103 62.2025 427.593 62.4425 427.243 64.1825L422.423 88.0425C421.763 91.3225 422.313 93.3625 422.153 94.1825C421.963 95.1125 421.193 95.5825 418.673 95.0725C416.373 94.6025 415.893 93.8825 416.083 92.9525Z" fill="white"/>
    <path d="M441.462 97.9625C441.732 96.9425 443.062 96.6525 445.762 92.9125L463.462 68.0225C464.142 66.9325 465.012 66.9225 466.522 67.3125C468.252 67.7625 468.692 68.2725 468.802 69.3925L472.242 99.7325C472.732 104.293 473.822 105.203 473.552 106.233C473.192 107.633 472.232 107.563 469.702 106.903C467.002 106.203 466.402 105.873 466.762 104.473C466.912 103.883 467.202 103.433 467.382 102.733C467.562 102.033 467.452 99.9925 467.092 94.7225C467.082 94.3125 466.852 93.8525 466.152 93.6725L453.152 90.3125C452.292 90.0925 451.852 90.4325 451.522 91.0425C448.772 94.9925 447.782 96.4025 447.472 97.5925C447.302 98.2425 447.332 98.8225 447.172 99.4125C446.822 100.763 445.962 100.773 443.752 100.193C441.712 99.6925 441.122 99.3125 441.462 97.9625ZM466.432 89.5125C466.532 89.1325 466.492 88.3825 465.662 81.1425C464.772 73.4325 464.602 73.2125 464.382 73.1625C464.112 73.0925 463.862 73.3725 459.322 79.8525C455.322 85.5525 454.792 86.2725 454.722 86.5425C454.642 86.8625 454.762 87.0725 455.192 87.1825L465.652 89.8825C466.072 89.9925 466.332 89.8825 466.432 89.5125Z" fill="white"/>
    <path d="M482.372 102.443C482.652 101.593 483.302 101.223 484.142 101.493C484.722 101.683 485.022 102.013 485.332 102.873C486.502 106.653 489.162 109.103 492.652 110.243C497.262 111.743 501.792 110.243 503.172 106.003C504.362 102.353 502.812 98.6726 497.042 96.7926L493.552 95.6526C492.492 95.3026 492.282 94.5326 492.622 93.4726C493.032 92.2026 493.652 91.9325 494.662 92.2625L497.942 93.3326C502.862 94.9426 506.252 93.0025 507.342 89.6625C508.552 85.9525 506.552 82.3726 502.802 81.1526C498.992 79.9126 496.652 80.6125 493.512 82.6925C492.442 83.4525 491.912 83.6325 491.122 83.3725C490.432 83.1525 490.042 82.5526 490.302 81.7526C490.722 80.4826 491.552 79.3525 492.302 78.3025C493.442 76.8025 494.682 76.0326 495.532 76.3126C496.012 76.4726 496.432 76.7826 496.802 76.9026C497.542 77.1426 500.942 76.7926 504.332 77.8926C510.472 79.9026 513.942 85.2526 512.182 90.6526C511.142 93.8326 508.302 96.0626 505.292 96.4926C504.682 96.5826 504.522 96.7126 504.482 96.8126C504.412 97.0226 504.522 97.2325 504.982 97.6225C508.472 100.223 508.932 104.183 507.762 107.783C505.982 113.233 499.502 116.743 491.772 114.223C484.142 111.743 481.462 105.243 482.372 102.443Z" fill="white"/>
    <path d="M514.812 119.993C515.122 119.213 516.432 117.703 517.662 114.593L525.832 93.8626C527.062 90.7526 527.132 88.7426 527.442 87.9726C527.792 87.0926 528.482 86.7026 529.312 87.0326C530.862 87.6426 532.332 88.3426 533.672 88.8726C545.852 93.6726 547.282 94.0026 548.622 94.5326C550.022 95.0826 550.352 98.0326 549.582 100.003C549.232 100.883 548.462 101.173 547.842 100.933C547.482 100.793 547.232 100.513 546.892 100.143C545.812 98.6426 544.262 96.6526 537.162 93.8526C531.872 91.7726 531.492 91.9726 530.962 93.3226L527.492 102.133C527.042 103.273 527.702 103.713 529.672 104.493C539.262 108.273 539.632 107.163 540.832 107.633C541.872 108.043 541.972 108.983 541.182 111.003C540.382 113.023 539.682 113.583 538.652 113.173C537.562 112.743 537.492 111.403 528.322 107.783C526.302 106.983 525.532 107.103 524.982 108.503L521.102 118.353C520.532 119.803 521.052 120.313 526.182 122.333C534.322 125.543 536.712 124.933 538.472 124.423C539.012 124.273 539.332 124.223 539.742 124.383C540.472 124.673 540.782 125.393 540.412 126.323C539.512 128.603 536.942 130.403 535.442 129.813C534.152 129.303 532.682 128.603 520.042 123.623C518.642 123.073 516.942 122.523 515.542 121.973C514.702 121.633 514.462 120.873 514.812 119.993Z" fill="white"/>
    <path d="M557.872 138.033C558.222 137.273 559.632 135.843 561.052 132.823L571.762 109.973C572.072 109.313 571.882 108.673 570.822 108.173L568.202 106.943C564.572 105.243 561.512 106.643 560.462 106.143C559.852 105.863 559.512 105.143 559.942 104.233C560.842 102.313 563.162 100.633 564.522 101.283C565.232 101.613 568.962 103.613 575.872 106.853C582.682 110.043 586.612 111.643 587.262 111.943C588.622 112.583 588.822 115.443 587.922 117.363C587.492 118.273 586.782 118.493 586.122 118.183C585.062 117.683 584.182 114.443 580.552 112.743L577.882 111.493C576.872 111.023 576.202 111.263 575.902 111.913L565.192 134.763C563.772 137.793 563.622 139.813 563.272 140.563C562.872 141.423 562.002 141.693 559.932 140.723C557.812 139.723 557.462 138.893 557.872 138.033Z" fill="white"/>
    <path d="M576.552 146.763C577.052 145.833 578.422 145.873 581.932 142.903L605.112 123.023C606.042 122.133 606.882 122.333 608.252 123.073C609.822 123.923 610.122 124.533 609.962 125.643L605.982 155.923C605.362 160.463 606.192 161.613 605.692 162.543C605.002 163.813 604.092 163.513 601.792 162.263C599.342 160.933 598.832 160.473 599.522 159.193C599.812 158.653 600.202 158.293 600.542 157.653C600.882 157.013 601.272 155.013 602.192 149.803C602.282 149.403 602.172 148.903 601.532 148.563L589.722 142.173C588.942 141.753 588.432 141.983 587.962 142.493C584.342 145.663 583.042 146.793 582.452 147.873C582.132 148.463 582.012 149.033 581.722 149.573C581.062 150.793 580.222 150.593 578.212 149.513C576.372 148.503 575.892 147.983 576.552 146.763ZM602.822 144.573C603.012 144.233 603.162 143.483 604.092 136.263C605.092 128.573 604.972 128.313 604.782 128.213C604.532 128.083 604.232 128.293 598.252 133.483C592.992 138.043 592.302 138.623 592.172 138.873C592.012 139.163 592.082 139.393 592.472 139.603L601.972 144.743C602.352 144.963 602.632 144.923 602.822 144.573Z" fill="white"/>
    <path d="M212.132 22.4826C212.082 22.1326 212.243 21.2826 212.033 19.8526L210.632 10.3626C210.422 8.94255 210.023 8.17255 209.963 7.82255C209.903 7.42255 210.083 7.12255 210.463 7.07255C211.173 6.96255 211.873 6.91255 212.483 6.82255C217.893 6.02255 218.373 5.85255 219.113 5.75255C219.753 5.66255 220.513 6.68255 220.643 7.58255C220.703 7.98255 220.473 8.26255 220.193 8.30255C220.023 8.32255 219.873 8.27255 219.673 8.21255C218.933 7.93255 217.943 7.47255 214.853 7.93255C212.503 8.28255 212.333 8.45255 212.453 9.20255L213.983 19.5626C214.193 20.9826 214.713 21.7326 214.773 22.0926C214.833 22.4926 214.582 22.8026 213.493 22.9626C212.493 23.1126 212.192 22.8926 212.132 22.4826Z" fill="white"/>
    <path d="M228.622 20.1526C228.582 19.7926 228.772 18.9526 228.602 17.5226L227.482 8.00255C227.312 6.57255 226.932 5.80255 226.892 5.44255C226.842 5.04255 227.022 4.75255 227.412 4.70255C228.052 4.62255 228.682 4.60255 229.322 4.52255C230.272 4.41255 231.192 4.25255 232.122 4.14255C236.072 3.67255 238.322 4.98255 238.682 8.02255C239.082 11.4026 237.132 13.4626 233.172 13.9326L231.152 14.1726C230.362 14.2626 230.232 14.5226 230.302 15.1226L230.562 17.2926C230.732 18.7226 231.232 19.4826 231.272 19.8426C231.322 20.2426 231.062 20.5426 229.942 20.6726C228.962 20.7826 228.672 20.5526 228.622 20.1526ZM236.592 8.30255C236.342 6.18255 234.852 5.37255 232.112 5.69255C229.472 6.00255 229.242 6.10255 229.362 7.12255L229.952 12.1726C230.012 12.7226 230.382 12.7226 232.732 12.4526C235.732 12.0926 236.892 10.8726 236.592 8.30255Z" fill="white"/>
    <path d="M243.113 18.4526C243.073 18.0026 243.573 17.6926 244.123 15.7826L247.703 3.14255C247.823 2.60255 248.173 2.47255 248.843 2.41255C249.603 2.34255 249.863 2.49255 250.063 2.93255L255.843 14.7326C256.703 16.5126 257.273 16.7226 257.313 17.1726C257.373 17.7926 256.973 17.9026 255.843 18.0026C254.653 18.1126 254.353 18.0626 254.303 17.4426C254.283 17.1826 254.333 16.9626 254.303 16.6526C254.273 16.3426 253.933 15.5326 253.023 13.4426C252.963 13.2826 252.803 13.1226 252.493 13.1526L246.743 13.6726C246.363 13.7026 246.233 13.9126 246.193 14.2026C245.653 16.2026 245.453 16.9126 245.493 17.4426C245.523 17.7326 245.613 17.9626 245.633 18.2226C245.683 18.8225 245.333 18.9426 244.363 19.0326C243.463 19.1126 243.173 19.0426 243.113 18.4526ZM252.013 11.4126C252.003 11.2426 251.873 10.9426 250.493 8.13255C249.023 5.13255 248.913 5.07255 248.823 5.08255C248.703 5.09255 248.643 5.24255 247.733 8.52255C246.933 11.4126 246.823 11.7826 246.833 11.9026C246.843 12.0426 246.923 12.1126 247.113 12.0926L251.743 11.6726C251.943 11.6626 252.033 11.5826 252.013 11.4126Z" fill="white"/>
    <path d="M275.653 13.4625C275.733 14.9025 276.093 15.6925 276.113 16.0525C276.133 16.4625 275.863 16.7425 274.863 16.7925C273.783 16.8525 273.463 16.6025 273.433 16.2025C273.413 15.8425 273.773 15.0025 273.693 13.5725L273.483 9.88255C273.443 9.23255 273.203 9.15255 272.383 9.20255L266.133 9.55255C265.323 9.60255 265.083 9.71255 265.123 10.3525L265.333 14.0425C265.413 15.4825 265.863 16.2725 265.883 16.6325C265.903 17.0425 265.633 17.3225 264.533 17.3825C263.523 17.4425 263.253 17.1925 263.223 16.7825C263.203 16.4225 263.443 15.5925 263.363 14.1525L262.823 4.58255C262.743 3.14255 262.413 2.35255 262.393 1.99255C262.373 1.58255 262.623 1.30255 263.623 1.25255C264.723 1.19255 265.023 1.43255 265.053 1.84255C265.073 2.20255 264.713 3.03255 264.793 4.47255L264.943 7.17255C264.983 7.96255 265.233 8.07255 266.023 8.02255L272.313 7.66255C273.103 7.62255 273.333 7.48255 273.293 6.69255L273.143 3.98255C273.063 2.54255 272.613 1.75255 272.593 1.39255C272.573 0.982548 272.863 0.702548 273.943 0.642548C274.953 0.582548 275.253 0.832548 275.273 1.24255C275.293 1.60255 275.033 2.43255 275.113 3.87255L275.653 13.4625Z" fill="white"/>
    <path d="M282.112 18.6225L282.042 15.7225C282.022 15.0025 282.362 14.8725 282.742 14.8625C284.202 14.8325 285.232 13.4825 285.402 6.53254L285.522 1.35254C285.552 0.532543 285.782 0.272543 286.572 0.252543L293.882 0.092543C294.862 0.072543 295.182 0.252543 295.192 0.682543C295.202 1.04254 294.932 1.86254 294.962 3.30254L295.192 13.5625C295.212 14.4525 295.482 14.5825 296.222 14.5725C296.602 14.5625 296.942 14.6725 296.962 15.3925L297.032 18.2925C297.042 18.7925 296.832 19.0425 296.472 19.0525C295.992 19.0625 295.822 18.8025 295.462 17.8325L295.222 16.9025C295.012 16.3325 294.822 16.1425 293.982 16.1625L285.072 16.3625C284.212 16.3825 284.022 16.5825 283.872 17.1525L283.652 18.0925C283.342 19.0825 283.182 19.3525 282.702 19.3625C282.342 19.3625 282.122 19.1225 282.112 18.6225ZM292.212 14.6525C293.002 14.6325 293.242 14.5125 293.222 13.7225L292.962 2.41254C292.952 1.79254 292.782 1.65254 291.892 1.67254L288.132 1.76254C287.292 1.78254 287.102 1.90254 287.092 2.55254L286.972 6.87254C286.892 10.6925 286.442 12.9725 285.722 14.3325C285.652 14.5025 285.632 14.6425 285.632 14.7125C285.632 14.7825 285.702 14.8025 285.822 14.8025L292.212 14.6525Z" fill="white"/>
    <path d="M310.712 8.36255C310.842 3.35255 314.192 -0.107451 318.352 0.00254945C322.662 0.112549 325.722 3.45255 325.602 8.17255C325.472 13.1825 322.122 16.6426 317.932 16.5326C313.652 16.4226 310.592 13.0825 310.712 8.36255ZM323.522 8.11255C323.622 4.16255 321.482 1.61255 318.322 1.53255C315.332 1.45255 312.912 4.29255 312.802 8.41255C312.702 12.3625 314.842 14.9125 317.982 14.9925C320.992 15.0725 323.412 12.2325 323.522 8.11255Z" fill="white"/>
    <path d="M335.322 16.3625C335.342 16.0025 335.672 15.2025 335.762 13.7725L336.382 2.93255C336.402 2.62255 336.222 2.39255 335.722 2.36255L334.482 2.29255C332.762 2.19255 331.762 3.24255 331.262 3.21255C330.972 3.19255 330.722 2.96255 330.752 2.53255C330.802 1.62255 331.462 0.582548 332.102 0.622548C332.432 0.642548 334.252 0.842548 337.532 1.03255C340.762 1.21255 342.582 1.22255 342.902 1.24255C343.552 1.28255 344.082 2.39255 344.032 3.30255C344.012 3.73255 343.752 3.93255 343.442 3.91255C342.942 3.88255 342.072 2.73255 340.342 2.63255L339.072 2.56255C338.592 2.53255 338.362 2.74255 338.352 3.05255L337.732 13.8925C337.652 15.3225 337.912 16.1625 337.892 16.5225C337.872 16.9325 337.572 17.1725 336.582 17.1225C335.572 17.0425 335.302 16.7625 335.322 16.3625Z" fill="white"/>
    <path d="M349.222 17.2626C349.252 16.9026 349.612 16.1226 349.732 14.6826L350.562 5.13255C350.692 3.70255 350.472 2.86255 350.502 2.50255C350.542 2.09255 350.772 1.85255 351.162 1.88255C351.882 1.94255 352.562 2.05255 353.192 2.11255C358.802 2.60255 359.432 2.56255 360.052 2.61255C360.692 2.67255 361.192 3.84255 361.112 4.75255C361.072 5.15255 360.792 5.37255 360.512 5.35255C360.342 5.34255 360.202 5.25255 360.022 5.14255C359.392 4.65255 358.512 4.02255 355.242 3.74255C352.812 3.53255 352.672 3.66255 352.622 4.28255L352.262 8.34255C352.212 8.87255 352.542 8.97255 353.452 9.05255C357.872 9.44255 357.892 8.93255 358.442 8.98255C358.922 9.02255 359.082 9.40255 359.002 10.3326C358.922 11.2626 358.702 11.5826 358.222 11.5426C357.722 11.5026 357.532 10.9526 353.302 10.5826C352.372 10.5026 352.072 10.6426 352.012 11.2926L351.612 15.8326C351.552 16.5026 351.832 16.6426 354.192 16.8526C357.942 17.1826 358.852 16.6326 359.512 16.2126C359.712 16.0826 359.842 16.0226 360.032 16.0426C360.362 16.0726 360.582 16.3326 360.542 16.7626C360.452 17.8126 359.612 18.8726 358.922 18.8126C358.322 18.7626 357.632 18.6526 351.812 18.1426C351.172 18.0826 350.402 18.0626 349.752 18.0126C349.382 17.9526 349.192 17.6726 349.222 17.2626Z" fill="white"/>
    <path d="M366.032 16.9225C366.162 15.8525 366.842 15.2125 367.722 15.3125C368.362 15.3925 368.742 15.8925 368.662 16.5625C368.562 17.3725 367.982 17.4226 367.952 17.6125C367.892 18.0625 368.192 18.3925 368.692 18.4525C370.092 18.6226 371.182 17.1825 372.352 10.3225L373.212 5.21255C373.362 4.41255 373.632 4.17255 374.412 4.27255L381.642 5.14255C382.622 5.26255 382.882 5.48255 382.832 5.91255C382.792 6.27255 382.402 7.04255 382.232 8.47255L381.082 17.9925C380.912 19.4225 381.092 20.2626 381.052 20.6226C381.002 21.0526 380.642 21.2526 379.712 21.1325C378.692 21.0125 378.362 20.7325 378.412 20.3025C378.452 19.9425 378.962 19.1825 379.132 17.7625L380.392 7.31255C380.472 6.69255 380.322 6.53255 379.442 6.42255L375.732 5.97255C374.902 5.87255 374.692 5.97255 374.592 6.60255L373.862 10.8625C372.602 18.3425 370.912 20.2626 368.462 19.9626C366.842 19.7726 365.832 18.5825 366.032 16.9225Z" fill="white"/>
    <path d="M387.773 21.5825C387.823 21.2325 388.233 20.4625 388.453 19.0425L389.923 9.57254C390.143 8.15254 389.983 7.30255 390.043 6.94255C390.103 6.54255 390.403 6.32255 391.373 6.47255C392.483 6.64255 392.733 6.95255 392.663 7.35255C392.613 7.71255 392.083 8.45255 391.863 9.87255L391.453 12.5025C391.383 12.9725 391.533 13.0925 394.513 13.5625L394.983 13.6325C398.843 14.2325 400.353 15.9225 399.873 19.0225C399.403 22.0325 396.663 23.6425 392.943 23.0625C391.973 22.9125 391.053 22.7225 390.083 22.5725C389.493 22.4825 388.843 22.4325 388.253 22.3325C387.883 22.2725 387.703 21.9825 387.773 21.5825ZM397.813 18.5725C398.123 16.5625 397.053 15.4925 394.593 15.1125C391.373 14.6125 391.113 14.6925 391.003 15.4525L390.253 20.2625C390.133 21.0225 390.363 21.1025 392.833 21.4825C395.743 21.9425 397.463 20.8225 397.813 18.5725Z" fill="white"/>
</svg>
