<svg width="32" height="32" viewBox="0 0 32 32" fill="none" xmlns="http://www.w3.org/2000/svg">
    <path fill-rule="evenodd" clip-rule="evenodd" d="M16 0C7.2 0 0 7.2 0 16C0 24.8 7.2 32 16 32C24.8 32 32 24.8 32 16C32 7.2 24.8 0 16 0ZM16 31C7.7 31 1 24.3 1 16C1 7.7 7.7 1 16 1C24.3 1 31 7.7 31 16C31 24.3 24.3 31 16 31Z" fill="white"/>
    <path fill-rule="evenodd" clip-rule="evenodd" d="M21.1 10.4002C20.9 10.3002 20.7 10.2002 20.6 10.2002C20.1 10.2002 19.3 10.5002 15.6 12.0002L7.80002 15.3002C7.20002 15.6002 6.80002 15.8002 6.80002 16.0002C6.70002 16.5002 7.40002 16.6002 8.20002 16.9002C8.90002 17.1002 9.80002 17.4002 10.3 17.4002C10.7 17.4002 11.2 17.2002 11.7 16.9002C15.3 14.4002 17.2 13.2002 17.3 13.2002C17.4 13.2002 17.5 13.2002 17.6 13.2002C17.7 13.3002 17.7 13.4002 17.7 13.4002C17.6 13.7002 14.2 16.8002 14 17.0002C13.2 17.8002 12.4 18.3002 13.7 19.1002L16.7 21.1002C17.4 21.6002 18 22.2002 18.8 22.1002C19.2 22.1002 19.5 21.7002 19.7 20.7002C20.1 18.3002 21 13.2002 21.2 11.1002C21.2 10.9002 21.2 10.7002 21.2 10.6002C21.3 10.7002 21.3 10.5002 21.1 10.4002Z" fill="white"/>
</svg>
