<svg width="32" height="32" viewBox="0 0 32 32" fill="none" xmlns="http://www.w3.org/2000/svg">
    <path d="M22.5 11.4998C21.9 11.7998 21.3 12.0998 20.7 12.1998C20.2 11.5998 19.4 11.2998 18.6 11.2998C17 11.2998 15.7 12.5998 15.7 14.1998C15.7 14.3998 15.7 14.5998 15.8 14.8998C13.4 14.7998 11.3 13.5998 9.90002 11.8998C9.70002 12.2998 9.50002 12.7998 9.50002 13.2998C9.50002 14.2998 10 15.1998 10.8 15.6998C10.3 15.6998 9.90002 15.5998 9.50002 15.2998C9.50002 16.6998 10.5 17.8998 11.8 18.0998C11.6 18.1998 11.3 18.1998 11 18.1998C10.8 18.1998 10.6 18.1998 10.5 18.0998C10.9 19.1998 11.9 20.0998 13.2 20.0998C12.2 20.8998 11 21.2998 9.60003 21.2998C9.40003 21.2998 9.10002 21.2998 8.90002 21.2998C10.2 22.0998 11.7 22.5998 13.3 22.5998C18.6 22.5998 21.5 18.1998 21.5 14.3998C21.5 14.2998 21.5 14.1998 21.5 13.9998C22.1 13.5998 22.5 13.0998 22.9 12.4998C22.4 12.6998 21.8 12.8998 21.3 12.9998C21.8 12.6998 22.3 12.1998 22.5 11.4998Z" fill="white"/>
    <path fill-rule="evenodd" clip-rule="evenodd" d="M16 0C7.2 0 0 7.2 0 16C0 24.8 7.2 32 16 32C24.8 32 32 24.8 32 16C32 7.2 24.8 0 16 0ZM16 31C7.7 31 1 24.3 1 16C1 7.7 7.7 1 16 1C24.3 1 31 7.7 31 16C31 24.3 24.3 31 16 31Z" fill="white"/>
</svg>
