<svg width="32" height="32" viewBox="0 0 32 32" fill="none" xmlns="http://www.w3.org/2000/svg">
    <path fill-rule="evenodd" clip-rule="evenodd" d="M21.5 18.9002C21.1 18.4002 20.5 17.9002 20.3 17.6002C20 17.3002 20.1 17.1002 20.3 16.8002C20.3 16.8002 22.4 13.8002 22.7 12.8002C22.8 12.4002 22.7 12.2002 22.2 12.2002H20.5C20.1 12.2002 19.9 12.4002 19.7 12.7002C19.7 12.7002 18.8 14.9002 17.5 16.3002C17.1 16.7002 16.9 16.8002 16.7 16.8002C16.6 16.8002 16.4 16.7002 16.4 16.3002V12.8002C16.4 12.4002 16.3 12.2002 15.9 12.2002H13.2C12.9 12.2002 12.8 12.4002 12.8 12.6002C12.8 13.0002 13.4 13.1002 13.5 14.3002V16.9002C13.5 17.5002 13.4 17.6002 13.2 17.6002C12.6 17.6002 11.2 15.4002 10.3 12.9002C10.1 12.4002 10 12.2002 9.5 12.2002H7.6C7.1 12.2002 7 12.4002 7 12.7002C7 13.2002 7.6 15.5002 9.8 18.5002C11.2 20.6002 13.3 21.7002 15.1 21.7002C16.2 21.7002 16.4 21.4002 16.4 21.0002V19.4002C16.4 18.9002 16.5 18.8002 16.9 18.8002C17.2 18.8002 17.6 18.9002 18.6 19.9002C19.8 21.1002 20 21.6002 20.7 21.6002H22.4C22.9 21.6002 23.1 21.3002 23 20.9002C22.8 20.4002 22.2 19.7002 21.5 18.9002Z" fill="white"/>
    <path fill-rule="evenodd" clip-rule="evenodd" d="M16 0C7.2 0 0 7.2 0 16C0 24.8 7.2 32 16 32C24.8 32 32 24.8 32 16C32 7.2 24.8 0 16 0ZM16 31C7.7 31 1 24.3 1 16C1 7.7 7.7 1 16 1C24.3 1 31 7.7 31 16C31 24.3 24.3 31 16 31Z" fill="white"/>
</svg>
