<svg width="150" height="30" viewBox="0 0 150 30" fill="none" xmlns="http://www.w3.org/2000/svg">
    <g clip-path="url(#clip0)">
        <path opacity="0.1" d="M135 30H15C6.75 30 0 23.25 0 15C0 6.75 6.75 0 15 0H135C143.25 0 150 6.75 150 15C150 23.25 143.25 30 135 30Z" fill="#2A0C3E"/>
        <path d="M135 0H127.5H22.5H15C6.75 0 0 6.75 0 15C0 23.25 6.75 30 15 30H22.5H127.5H135C143.25 30 150 23.25 150 15C150 6.75 143.25 0 135 0ZM148.5 15C148.5 15.15 148.5 15.375 148.5 15.525H142.5C142.5 15.375 142.5 15.15 142.5 15C142.5 14.775 142.5 14.625 142.5 14.4H148.5C148.5 14.625 148.5 14.775 148.5 15ZM18 28.5C12.375 26.625 8.25 21.3 8.25 15C8.25 8.7 12.3 3.375 18 1.5H132C136.5 3 139.95 6.675 141.225 11.325V11.4C141.525 12.525 141.675 13.725 141.675 15C141.675 16.2 141.525 17.4 141.225 18.525H141.15V18.675C140.025 23.325 136.5 27 132 28.5H18ZM1.5 15C1.5 14.775 1.5 14.625 1.5 14.4H7.5C7.5 14.625 7.5 14.775 7.5 15C7.5 15.15 7.5 15.375 7.5 15.525H1.5C1.5 15.375 1.5 15.15 1.5 15ZM5.55 5.4H11.025C10.725 5.775 10.425 6.15 10.2 6.525H4.5C4.8 6.15 5.175 5.775 5.55 5.4ZM12.825 3.525H7.875C8.625 3.075 9.375 2.7 10.125 2.4H14.325C13.875 2.775 13.35 3.15 12.825 3.525ZM12.45 3.9C12.075 4.275 11.7 4.65 11.325 5.025H5.925C6.375 4.65 6.825 4.275 7.35 3.9H12.45ZM9.9 6.9C9.675 7.275 9.45 7.65 9.225 8.025H3.45C3.675 7.65 3.975 7.275 4.2 6.9H9.9ZM9.075 8.4C8.925 8.775 8.7 9.15 8.55 9.525H2.7C2.85 9.15 3.075 8.775 3.3 8.4H9.075ZM8.4 9.9C8.25 10.275 8.175 10.65 8.025 11.025H2.1C2.25 10.65 2.325 10.275 2.475 9.9H8.4ZM7.95 11.4C7.875 11.775 7.8 12.15 7.725 12.525H1.725C1.8 12.15 1.875 11.775 2.025 11.4H7.95ZM7.65 12.9C7.575 13.275 7.575 13.65 7.5 14.025H1.5C1.5 13.65 1.575 13.275 1.65 12.9H7.65ZM7.575 15.9C7.575 16.275 7.65 16.65 7.65 17.025H1.65C1.575 16.65 1.575 16.275 1.5 15.9H7.575ZM7.725 17.4C7.8 17.775 7.875 18.15 7.95 18.525H1.95C1.875 18.15 1.8 17.775 1.725 17.4H7.725ZM8.025 18.9C8.1 19.275 8.25 19.65 8.4 20.025H2.475C2.325 19.65 2.175 19.275 2.1 18.9H8.025ZM8.55 20.4C8.7 20.775 8.85 21.15 9.075 21.525H3.15C2.925 21.15 2.775 20.775 2.625 20.4H8.55ZM9.225 21.9C9.45 22.275 9.675 22.65 9.9 23.025H4.125C3.825 22.65 3.6 22.275 3.375 21.9H9.225ZM10.05 23.4C10.35 23.775 10.575 24.15 10.875 24.525H5.4C5.025 24.15 4.725 23.775 4.425 23.4H10.05ZM11.25 24.9C11.625 25.275 12 25.65 12.375 26.025H7.2C6.75 25.65 6.225 25.275 5.85 24.9H11.25ZM12.75 26.4C13.2 26.775 13.725 27.15 14.25 27.525H9.975C9.225 27.225 8.475 26.85 7.8 26.4H12.75ZM142.05 3.525H137.1C136.65 3.15 136.125 2.775 135.6 2.4H139.8C140.625 2.7 141.375 3.075 142.05 3.525ZM140.925 8.4H146.775C147 8.775 147.15 9.15 147.375 9.525H141.525C141.3 9.15 141.15 8.775 140.925 8.4ZM140.775 8.025C140.55 7.65 140.325 7.275 140.1 6.9H145.8C146.1 7.275 146.325 7.65 146.55 8.025H140.775ZM139.875 6.525C139.575 6.15 139.35 5.775 139.05 5.4H144.525C144.9 5.775 145.2 6.15 145.575 6.525H139.875ZM138.675 5.025C138.3 4.65 137.925 4.275 137.55 3.9H142.65C143.175 4.275 143.625 4.65 144.075 5.025H138.675ZM137.25 26.4H142.2C141.525 26.85 140.775 27.225 140.025 27.525H135.75C136.275 27.15 136.8 26.775 137.25 26.4ZM137.625 26.025C138 25.65 138.375 25.275 138.75 24.9H144.15C143.7 25.275 143.25 25.65 142.8 26.025H137.625ZM139.125 24.525C139.425 24.15 139.725 23.775 139.95 23.4H145.575C145.275 23.775 144.9 24.15 144.6 24.525H139.125ZM140.175 23.025C140.4 22.65 140.625 22.275 140.85 21.9H146.625C146.4 22.275 146.175 22.65 145.875 23.025H140.175ZM141 21.525C141.15 21.15 141.375 20.775 141.525 20.4H147.45C147.3 20.775 147.075 21.15 146.925 21.525H141ZM141.6 20.025C141.75 19.65 141.825 19.275 141.975 18.9H147.9C147.75 19.275 147.675 19.65 147.525 20.025H141.6ZM142.05 18.525C142.125 18.15 142.2 17.775 142.275 17.4H148.275C148.2 17.775 148.125 18.15 148.05 18.525H142.05ZM142.35 17.025C142.425 16.65 142.425 16.275 142.425 15.9H148.425C148.425 16.275 148.35 16.65 148.275 17.025H142.35ZM142.425 14.025C142.425 13.65 142.35 13.275 142.275 12.9H148.275C148.35 13.275 148.35 13.65 148.425 14.025H142.425ZM142.275 12.525C142.2 12.15 142.125 11.775 142.05 11.4H147.975C148.05 11.775 148.2 12.15 148.275 12.525H142.275ZM141.975 11.025C141.9 10.65 141.75 10.275 141.6 9.9H147.525C147.675 10.275 147.825 10.65 147.9 11.025H141.975ZM135 1.5C136.275 1.5 137.475 1.725 138.675 2.025H135C134.7 1.875 134.325 1.65 134.025 1.5H135ZM15.975 1.5C15.675 1.65 15.3 1.8 15 2.025H11.325C12.525 1.725 13.725 1.5 15 1.5H15.975ZM15 28.5C13.575 28.5 12.3 28.275 11.025 27.9H14.925C15.3 28.125 15.675 28.35 16.05 28.5H15ZM134.025 28.5C134.4 28.35 134.775 28.125 135.15 27.9H139.05C137.775 28.275 136.425 28.5 135.075 28.5H134.025Z" fill="white"/>
        <path d="M41.625 14.775C41.625 12.225 43.2 10.5 45.675 10.5C46.5 10.5 47.1 10.8 47.325 10.8C47.475 10.8 47.625 10.725 47.775 10.725C48.075 10.725 48.375 11.1 48.525 11.55C48.6 11.85 48.75 12.225 48.75 12.6C48.75 12.9 48.525 13.125 48.3 13.125C47.925 13.125 47.775 12.9 47.55 12.6C47.1 11.925 46.65 11.55 45.675 11.55C44.1 11.55 43.2 12.75 43.2 14.775C43.2 16.8 44.175 18.15 45.975 18.15C46.575 18.15 47.25 18 47.925 17.625C48.075 17.55 48.225 17.475 48.3 17.475C48.45 17.475 48.525 17.55 48.6 17.625C48.675 17.7 48.675 17.775 48.675 17.925C48.675 18.075 48.6 18.15 48.525 18.3C48 19.05 46.8 19.5 45.825 19.5C43.2 19.5 41.625 17.7 41.625 14.775Z" fill="white"/>
        <path d="M57.375 12.975C57.225 12.975 57.225 13.05 56.925 13.65L55.125 17.475C54.975 17.775 54.825 17.925 54.525 17.925C54.225 17.925 54.075 17.775 53.925 17.475L52.125 13.575C51.9 13.05 51.825 12.975 51.675 12.975C51.6 12.975 51.6 13.05 51.6 13.5V17.475C51.6 18.375 51.9 18.75 51.9 18.9C51.9 19.2 51.675 19.425 51.15 19.425C50.625 19.425 50.4 19.2 50.4 18.9C50.4 18.675 50.55 18.3 50.55 17.475V12.6C50.55 11.7 50.4 11.4 50.4 11.175C50.4 10.875 50.625 10.65 51.375 10.65C52.2 10.65 52.425 10.725 52.575 11.025L54.6 15.3C54.75 15.6 54.75 15.675 54.825 15.675C54.9 15.675 54.975 15.6 55.05 15.3L57.075 11.025C57.225 10.65 57.45 10.65 58.125 10.65C58.95 10.65 59.1 10.875 59.1 11.175C59.1 11.4 58.95 11.775 58.95 12.6V17.475C58.95 18.375 59.1 18.75 59.1 18.9C59.1 19.2 58.875 19.425 58.2 19.425C57.45 19.425 57.225 19.2 57.225 18.9C57.225 18.675 57.525 18.3 57.525 17.475V13.5C57.45 13.05 57.45 12.975 57.375 12.975Z" fill="white"/>
        <path d="M60.75 15.15C60.75 12.45 62.475 10.5 64.875 10.5C67.275 10.5 69 12.3 69 14.85C69 17.55 67.275 19.5 64.875 19.5C62.4 19.5 60.75 17.7 60.75 15.15ZM67.425 14.85C67.425 12.825 66.375 11.55 64.875 11.55C63.375 11.55 62.325 13.05 62.325 15.15C62.325 17.175 63.375 18.45 64.875 18.45C66.3 18.45 67.425 16.95 67.425 14.85Z" fill="white"/>
        <path d="M72.6 18.9C72.6 18.675 72.75 18.3 72.75 17.475V12C72.75 11.775 72.6 11.7 72.375 11.7H71.925C71.025 11.7 70.575 12.375 70.2 12.375C69.975 12.375 69.75 12.225 69.75 11.925C69.75 11.4 70.125 10.65 70.575 10.65C70.8 10.65 71.85 10.725 73.425 10.725C75 10.725 76.05 10.65 76.275 10.65C76.725 10.65 77.1 11.4 77.1 11.925C77.1 12.225 76.95 12.375 76.65 12.375C76.275 12.375 75.825 11.7 74.925 11.7H74.475C74.25 11.7 74.1 11.85 74.1 12V17.475C74.1 18.375 74.25 18.75 74.25 18.9C74.25 19.2 74.025 19.425 73.35 19.425C72.75 19.425 72.6 19.2 72.6 18.9Z" fill="white"/>
        <path d="M78.675 18.9C78.675 18.675 78.825 18.3 78.825 17.475V12.6C78.825 11.7 78.675 11.4 78.675 11.175C78.675 10.875 78.825 10.65 79.2 10.65C79.575 10.65 79.875 10.725 80.25 10.725C80.775 10.725 81.3 10.65 81.825 10.65C84 10.65 85.125 11.55 85.125 13.2C85.125 15.075 83.925 16.125 81.675 16.125H80.85C80.475 16.125 80.325 16.275 80.325 16.725V17.55C80.325 18.45 80.625 18.825 80.625 18.975C80.625 19.275 80.4 19.5 79.65 19.5C78.9 19.425 78.675 19.2 78.675 18.9ZM83.55 13.2C83.55 12.15 82.875 11.7 81.6 11.7C80.4 11.7 80.25 11.775 80.25 12.45V14.625C80.25 14.925 80.55 15 81.525 15C82.95 15 83.55 14.4 83.55 13.2Z" fill="white"/>
        <path d="M86.7 18.9C86.7 18.675 86.85 18.3 86.85 17.475V12.6C86.85 11.7 86.7 11.4 86.7 11.175C86.7 10.875 86.85 10.65 87.225 10.65C87.6 10.65 87.975 10.725 88.275 10.725C91.05 10.725 91.5 10.65 91.875 10.65C92.325 10.65 92.7 11.4 92.7 11.925C92.7 12.225 92.55 12.375 92.25 12.375C92.175 12.375 92.025 12.3 91.875 12.225C91.35 11.925 90.9 11.625 89.4 11.625C88.35 11.625 88.275 11.775 88.275 12.075V13.875C88.275 14.175 88.425 14.25 88.875 14.25C90.975 14.25 90.9 13.95 91.275 13.95C91.575 13.95 91.725 14.175 91.725 14.775C91.725 15.3 91.575 15.6 91.275 15.6C90.975 15.6 90.9 15.3 88.95 15.3C88.5 15.3 88.35 15.45 88.35 15.75V17.7C88.35 18.15 88.5 18.225 89.625 18.225C91.35 18.225 91.725 17.925 92.25 17.55C92.4 17.475 92.475 17.4 92.55 17.4C92.85 17.4 93 17.55 93 17.85C93 18.45 92.55 19.2 92.1 19.2C91.725 19.2 91.2 19.125 88.35 19.125C87.975 19.125 87.6 19.2 87.3 19.2C86.925 19.425 86.7 19.2 86.7 18.9Z" fill="white"/>
        <path d="M96.975 18.9C96.975 18.675 97.125 18.3 97.125 17.475V12C97.125 11.775 96.975 11.7 96.75 11.7H96.3C95.4 11.7 94.95 12.375 94.575 12.375C94.35 12.375 94.125 12.225 94.125 11.925C94.125 11.4 94.5 10.65 94.95 10.65C95.175 10.65 96.225 10.725 97.8 10.725C99.375 10.725 100.425 10.65 100.65 10.65C101.1 10.65 101.475 11.4 101.475 11.925C101.475 12.225 101.325 12.375 101.025 12.375C100.65 12.375 100.2 11.7 99.3 11.7H99C98.775 11.7 98.625 11.85 98.625 12V17.475C98.625 18.375 98.775 18.75 98.775 18.9C98.775 19.2 98.55 19.425 97.875 19.425C97.125 19.425 96.975 19.2 96.975 18.9Z" fill="white"/>
        <path d="M103.05 18.9C103.05 18.675 103.2 18.3 103.2 17.475V12.6C103.2 11.7 103.05 11.4 103.05 11.175C103.05 10.875 103.275 10.65 103.95 10.65C104.7 10.65 104.925 10.875 104.925 11.175C104.925 11.4 104.625 11.775 104.625 12.6V13.8C104.625 14.1 104.775 14.175 106.05 14.175H106.35C108.6 14.175 109.575 14.925 109.575 16.8C109.575 18.375 108.15 19.5 106.2 19.5C105.675 19.5 105.15 19.425 104.55 19.425C104.175 19.425 103.8 19.5 103.5 19.5C103.275 19.425 103.05 19.2 103.05 18.9ZM108.075 16.575C108.075 15.525 107.475 15.15 106.35 15.15C104.85 15.15 104.7 15.225 104.7 15.6V17.85C104.7 18.3 104.85 18.3 105.975 18.3C107.325 18.375 108.075 17.7 108.075 16.575Z" fill="white"/>
    </g>
    <defs>
        <clipPath id="clip0">
            <rect width="150" height="30" fill="white"/>
        </clipPath>
    </defs>
</svg>
